G04 #@! TF.GenerationSoftware,KiCad,Pcbnew,(5.1.4)-1*
G04 #@! TF.CreationDate,2020-02-13T00:02:55-05:00*
G04 #@! TF.ProjectId,enemies,656e656d-6965-4732-9e6b-696361645f70,rev?*
G04 #@! TF.SameCoordinates,Original*
G04 #@! TF.FileFunction,Copper,L1,Top*
G04 #@! TF.FilePolarity,Positive*
%FSLAX46Y46*%
G04 Gerber Fmt 4.6, Leading zero omitted, Abs format (unit mm)*
G04 Created by KiCad (PCBNEW (5.1.4)-1) date 2020-02-13 00:02:55*
%MOMM*%
%LPD*%
G04 APERTURE LIST*
%ADD10O,1.700000X1.700000*%
%ADD11R,1.700000X1.700000*%
%ADD12C,0.100000*%
%ADD13C,0.975000*%
%ADD14C,0.600000*%
%ADD15C,0.250000*%
%ADD16C,0.254000*%
G04 APERTURE END LIST*
D10*
X128800000Y-86500000D03*
X131340000Y-86500000D03*
X133880000Y-86500000D03*
X136420000Y-86500000D03*
X138960000Y-86500000D03*
D11*
X141500000Y-86500000D03*
D12*
G36*
X103480142Y-98638674D02*
G01*
X103503803Y-98642184D01*
X103527007Y-98647996D01*
X103549529Y-98656054D01*
X103571153Y-98666282D01*
X103591670Y-98678579D01*
X103610883Y-98692829D01*
X103628607Y-98708893D01*
X103644671Y-98726617D01*
X103658921Y-98745830D01*
X103671218Y-98766347D01*
X103681446Y-98787971D01*
X103689504Y-98810493D01*
X103695316Y-98833697D01*
X103698826Y-98857358D01*
X103700000Y-98881250D01*
X103700000Y-99368750D01*
X103698826Y-99392642D01*
X103695316Y-99416303D01*
X103689504Y-99439507D01*
X103681446Y-99462029D01*
X103671218Y-99483653D01*
X103658921Y-99504170D01*
X103644671Y-99523383D01*
X103628607Y-99541107D01*
X103610883Y-99557171D01*
X103591670Y-99571421D01*
X103571153Y-99583718D01*
X103549529Y-99593946D01*
X103527007Y-99602004D01*
X103503803Y-99607816D01*
X103480142Y-99611326D01*
X103456250Y-99612500D01*
X102543750Y-99612500D01*
X102519858Y-99611326D01*
X102496197Y-99607816D01*
X102472993Y-99602004D01*
X102450471Y-99593946D01*
X102428847Y-99583718D01*
X102408330Y-99571421D01*
X102389117Y-99557171D01*
X102371393Y-99541107D01*
X102355329Y-99523383D01*
X102341079Y-99504170D01*
X102328782Y-99483653D01*
X102318554Y-99462029D01*
X102310496Y-99439507D01*
X102304684Y-99416303D01*
X102301174Y-99392642D01*
X102300000Y-99368750D01*
X102300000Y-98881250D01*
X102301174Y-98857358D01*
X102304684Y-98833697D01*
X102310496Y-98810493D01*
X102318554Y-98787971D01*
X102328782Y-98766347D01*
X102341079Y-98745830D01*
X102355329Y-98726617D01*
X102371393Y-98708893D01*
X102389117Y-98692829D01*
X102408330Y-98678579D01*
X102428847Y-98666282D01*
X102450471Y-98656054D01*
X102472993Y-98647996D01*
X102496197Y-98642184D01*
X102519858Y-98638674D01*
X102543750Y-98637500D01*
X103456250Y-98637500D01*
X103480142Y-98638674D01*
X103480142Y-98638674D01*
G37*
D13*
X103000000Y-99125000D03*
D12*
G36*
X103480142Y-100513674D02*
G01*
X103503803Y-100517184D01*
X103527007Y-100522996D01*
X103549529Y-100531054D01*
X103571153Y-100541282D01*
X103591670Y-100553579D01*
X103610883Y-100567829D01*
X103628607Y-100583893D01*
X103644671Y-100601617D01*
X103658921Y-100620830D01*
X103671218Y-100641347D01*
X103681446Y-100662971D01*
X103689504Y-100685493D01*
X103695316Y-100708697D01*
X103698826Y-100732358D01*
X103700000Y-100756250D01*
X103700000Y-101243750D01*
X103698826Y-101267642D01*
X103695316Y-101291303D01*
X103689504Y-101314507D01*
X103681446Y-101337029D01*
X103671218Y-101358653D01*
X103658921Y-101379170D01*
X103644671Y-101398383D01*
X103628607Y-101416107D01*
X103610883Y-101432171D01*
X103591670Y-101446421D01*
X103571153Y-101458718D01*
X103549529Y-101468946D01*
X103527007Y-101477004D01*
X103503803Y-101482816D01*
X103480142Y-101486326D01*
X103456250Y-101487500D01*
X102543750Y-101487500D01*
X102519858Y-101486326D01*
X102496197Y-101482816D01*
X102472993Y-101477004D01*
X102450471Y-101468946D01*
X102428847Y-101458718D01*
X102408330Y-101446421D01*
X102389117Y-101432171D01*
X102371393Y-101416107D01*
X102355329Y-101398383D01*
X102341079Y-101379170D01*
X102328782Y-101358653D01*
X102318554Y-101337029D01*
X102310496Y-101314507D01*
X102304684Y-101291303D01*
X102301174Y-101267642D01*
X102300000Y-101243750D01*
X102300000Y-100756250D01*
X102301174Y-100732358D01*
X102304684Y-100708697D01*
X102310496Y-100685493D01*
X102318554Y-100662971D01*
X102328782Y-100641347D01*
X102341079Y-100620830D01*
X102355329Y-100601617D01*
X102371393Y-100583893D01*
X102389117Y-100567829D01*
X102408330Y-100553579D01*
X102428847Y-100541282D01*
X102450471Y-100531054D01*
X102472993Y-100522996D01*
X102496197Y-100517184D01*
X102519858Y-100513674D01*
X102543750Y-100512500D01*
X103456250Y-100512500D01*
X103480142Y-100513674D01*
X103480142Y-100513674D01*
G37*
D13*
X103000000Y-101000000D03*
D12*
G36*
X167480142Y-100388674D02*
G01*
X167503803Y-100392184D01*
X167527007Y-100397996D01*
X167549529Y-100406054D01*
X167571153Y-100416282D01*
X167591670Y-100428579D01*
X167610883Y-100442829D01*
X167628607Y-100458893D01*
X167644671Y-100476617D01*
X167658921Y-100495830D01*
X167671218Y-100516347D01*
X167681446Y-100537971D01*
X167689504Y-100560493D01*
X167695316Y-100583697D01*
X167698826Y-100607358D01*
X167700000Y-100631250D01*
X167700000Y-101118750D01*
X167698826Y-101142642D01*
X167695316Y-101166303D01*
X167689504Y-101189507D01*
X167681446Y-101212029D01*
X167671218Y-101233653D01*
X167658921Y-101254170D01*
X167644671Y-101273383D01*
X167628607Y-101291107D01*
X167610883Y-101307171D01*
X167591670Y-101321421D01*
X167571153Y-101333718D01*
X167549529Y-101343946D01*
X167527007Y-101352004D01*
X167503803Y-101357816D01*
X167480142Y-101361326D01*
X167456250Y-101362500D01*
X166543750Y-101362500D01*
X166519858Y-101361326D01*
X166496197Y-101357816D01*
X166472993Y-101352004D01*
X166450471Y-101343946D01*
X166428847Y-101333718D01*
X166408330Y-101321421D01*
X166389117Y-101307171D01*
X166371393Y-101291107D01*
X166355329Y-101273383D01*
X166341079Y-101254170D01*
X166328782Y-101233653D01*
X166318554Y-101212029D01*
X166310496Y-101189507D01*
X166304684Y-101166303D01*
X166301174Y-101142642D01*
X166300000Y-101118750D01*
X166300000Y-100631250D01*
X166301174Y-100607358D01*
X166304684Y-100583697D01*
X166310496Y-100560493D01*
X166318554Y-100537971D01*
X166328782Y-100516347D01*
X166341079Y-100495830D01*
X166355329Y-100476617D01*
X166371393Y-100458893D01*
X166389117Y-100442829D01*
X166408330Y-100428579D01*
X166428847Y-100416282D01*
X166450471Y-100406054D01*
X166472993Y-100397996D01*
X166496197Y-100392184D01*
X166519858Y-100388674D01*
X166543750Y-100387500D01*
X167456250Y-100387500D01*
X167480142Y-100388674D01*
X167480142Y-100388674D01*
G37*
D13*
X167000000Y-100875000D03*
D12*
G36*
X167480142Y-98513674D02*
G01*
X167503803Y-98517184D01*
X167527007Y-98522996D01*
X167549529Y-98531054D01*
X167571153Y-98541282D01*
X167591670Y-98553579D01*
X167610883Y-98567829D01*
X167628607Y-98583893D01*
X167644671Y-98601617D01*
X167658921Y-98620830D01*
X167671218Y-98641347D01*
X167681446Y-98662971D01*
X167689504Y-98685493D01*
X167695316Y-98708697D01*
X167698826Y-98732358D01*
X167700000Y-98756250D01*
X167700000Y-99243750D01*
X167698826Y-99267642D01*
X167695316Y-99291303D01*
X167689504Y-99314507D01*
X167681446Y-99337029D01*
X167671218Y-99358653D01*
X167658921Y-99379170D01*
X167644671Y-99398383D01*
X167628607Y-99416107D01*
X167610883Y-99432171D01*
X167591670Y-99446421D01*
X167571153Y-99458718D01*
X167549529Y-99468946D01*
X167527007Y-99477004D01*
X167503803Y-99482816D01*
X167480142Y-99486326D01*
X167456250Y-99487500D01*
X166543750Y-99487500D01*
X166519858Y-99486326D01*
X166496197Y-99482816D01*
X166472993Y-99477004D01*
X166450471Y-99468946D01*
X166428847Y-99458718D01*
X166408330Y-99446421D01*
X166389117Y-99432171D01*
X166371393Y-99416107D01*
X166355329Y-99398383D01*
X166341079Y-99379170D01*
X166328782Y-99358653D01*
X166318554Y-99337029D01*
X166310496Y-99314507D01*
X166304684Y-99291303D01*
X166301174Y-99267642D01*
X166300000Y-99243750D01*
X166300000Y-98756250D01*
X166301174Y-98732358D01*
X166304684Y-98708697D01*
X166310496Y-98685493D01*
X166318554Y-98662971D01*
X166328782Y-98641347D01*
X166341079Y-98620830D01*
X166355329Y-98601617D01*
X166371393Y-98583893D01*
X166389117Y-98567829D01*
X166408330Y-98553579D01*
X166428847Y-98541282D01*
X166450471Y-98531054D01*
X166472993Y-98522996D01*
X166496197Y-98517184D01*
X166519858Y-98513674D01*
X166543750Y-98512500D01*
X167456250Y-98512500D01*
X167480142Y-98513674D01*
X167480142Y-98513674D01*
G37*
D13*
X167000000Y-99000000D03*
D12*
G36*
X167480142Y-110951174D02*
G01*
X167503803Y-110954684D01*
X167527007Y-110960496D01*
X167549529Y-110968554D01*
X167571153Y-110978782D01*
X167591670Y-110991079D01*
X167610883Y-111005329D01*
X167628607Y-111021393D01*
X167644671Y-111039117D01*
X167658921Y-111058330D01*
X167671218Y-111078847D01*
X167681446Y-111100471D01*
X167689504Y-111122993D01*
X167695316Y-111146197D01*
X167698826Y-111169858D01*
X167700000Y-111193750D01*
X167700000Y-111681250D01*
X167698826Y-111705142D01*
X167695316Y-111728803D01*
X167689504Y-111752007D01*
X167681446Y-111774529D01*
X167671218Y-111796153D01*
X167658921Y-111816670D01*
X167644671Y-111835883D01*
X167628607Y-111853607D01*
X167610883Y-111869671D01*
X167591670Y-111883921D01*
X167571153Y-111896218D01*
X167549529Y-111906446D01*
X167527007Y-111914504D01*
X167503803Y-111920316D01*
X167480142Y-111923826D01*
X167456250Y-111925000D01*
X166543750Y-111925000D01*
X166519858Y-111923826D01*
X166496197Y-111920316D01*
X166472993Y-111914504D01*
X166450471Y-111906446D01*
X166428847Y-111896218D01*
X166408330Y-111883921D01*
X166389117Y-111869671D01*
X166371393Y-111853607D01*
X166355329Y-111835883D01*
X166341079Y-111816670D01*
X166328782Y-111796153D01*
X166318554Y-111774529D01*
X166310496Y-111752007D01*
X166304684Y-111728803D01*
X166301174Y-111705142D01*
X166300000Y-111681250D01*
X166300000Y-111193750D01*
X166301174Y-111169858D01*
X166304684Y-111146197D01*
X166310496Y-111122993D01*
X166318554Y-111100471D01*
X166328782Y-111078847D01*
X166341079Y-111058330D01*
X166355329Y-111039117D01*
X166371393Y-111021393D01*
X166389117Y-111005329D01*
X166408330Y-110991079D01*
X166428847Y-110978782D01*
X166450471Y-110968554D01*
X166472993Y-110960496D01*
X166496197Y-110954684D01*
X166519858Y-110951174D01*
X166543750Y-110950000D01*
X167456250Y-110950000D01*
X167480142Y-110951174D01*
X167480142Y-110951174D01*
G37*
D13*
X167000000Y-111437500D03*
D12*
G36*
X167480142Y-109076174D02*
G01*
X167503803Y-109079684D01*
X167527007Y-109085496D01*
X167549529Y-109093554D01*
X167571153Y-109103782D01*
X167591670Y-109116079D01*
X167610883Y-109130329D01*
X167628607Y-109146393D01*
X167644671Y-109164117D01*
X167658921Y-109183330D01*
X167671218Y-109203847D01*
X167681446Y-109225471D01*
X167689504Y-109247993D01*
X167695316Y-109271197D01*
X167698826Y-109294858D01*
X167700000Y-109318750D01*
X167700000Y-109806250D01*
X167698826Y-109830142D01*
X167695316Y-109853803D01*
X167689504Y-109877007D01*
X167681446Y-109899529D01*
X167671218Y-109921153D01*
X167658921Y-109941670D01*
X167644671Y-109960883D01*
X167628607Y-109978607D01*
X167610883Y-109994671D01*
X167591670Y-110008921D01*
X167571153Y-110021218D01*
X167549529Y-110031446D01*
X167527007Y-110039504D01*
X167503803Y-110045316D01*
X167480142Y-110048826D01*
X167456250Y-110050000D01*
X166543750Y-110050000D01*
X166519858Y-110048826D01*
X166496197Y-110045316D01*
X166472993Y-110039504D01*
X166450471Y-110031446D01*
X166428847Y-110021218D01*
X166408330Y-110008921D01*
X166389117Y-109994671D01*
X166371393Y-109978607D01*
X166355329Y-109960883D01*
X166341079Y-109941670D01*
X166328782Y-109921153D01*
X166318554Y-109899529D01*
X166310496Y-109877007D01*
X166304684Y-109853803D01*
X166301174Y-109830142D01*
X166300000Y-109806250D01*
X166300000Y-109318750D01*
X166301174Y-109294858D01*
X166304684Y-109271197D01*
X166310496Y-109247993D01*
X166318554Y-109225471D01*
X166328782Y-109203847D01*
X166341079Y-109183330D01*
X166355329Y-109164117D01*
X166371393Y-109146393D01*
X166389117Y-109130329D01*
X166408330Y-109116079D01*
X166428847Y-109103782D01*
X166450471Y-109093554D01*
X166472993Y-109085496D01*
X166496197Y-109079684D01*
X166519858Y-109076174D01*
X166543750Y-109075000D01*
X167456250Y-109075000D01*
X167480142Y-109076174D01*
X167480142Y-109076174D01*
G37*
D13*
X167000000Y-109562500D03*
D12*
G36*
X103480142Y-87576174D02*
G01*
X103503803Y-87579684D01*
X103527007Y-87585496D01*
X103549529Y-87593554D01*
X103571153Y-87603782D01*
X103591670Y-87616079D01*
X103610883Y-87630329D01*
X103628607Y-87646393D01*
X103644671Y-87664117D01*
X103658921Y-87683330D01*
X103671218Y-87703847D01*
X103681446Y-87725471D01*
X103689504Y-87747993D01*
X103695316Y-87771197D01*
X103698826Y-87794858D01*
X103700000Y-87818750D01*
X103700000Y-88306250D01*
X103698826Y-88330142D01*
X103695316Y-88353803D01*
X103689504Y-88377007D01*
X103681446Y-88399529D01*
X103671218Y-88421153D01*
X103658921Y-88441670D01*
X103644671Y-88460883D01*
X103628607Y-88478607D01*
X103610883Y-88494671D01*
X103591670Y-88508921D01*
X103571153Y-88521218D01*
X103549529Y-88531446D01*
X103527007Y-88539504D01*
X103503803Y-88545316D01*
X103480142Y-88548826D01*
X103456250Y-88550000D01*
X102543750Y-88550000D01*
X102519858Y-88548826D01*
X102496197Y-88545316D01*
X102472993Y-88539504D01*
X102450471Y-88531446D01*
X102428847Y-88521218D01*
X102408330Y-88508921D01*
X102389117Y-88494671D01*
X102371393Y-88478607D01*
X102355329Y-88460883D01*
X102341079Y-88441670D01*
X102328782Y-88421153D01*
X102318554Y-88399529D01*
X102310496Y-88377007D01*
X102304684Y-88353803D01*
X102301174Y-88330142D01*
X102300000Y-88306250D01*
X102300000Y-87818750D01*
X102301174Y-87794858D01*
X102304684Y-87771197D01*
X102310496Y-87747993D01*
X102318554Y-87725471D01*
X102328782Y-87703847D01*
X102341079Y-87683330D01*
X102355329Y-87664117D01*
X102371393Y-87646393D01*
X102389117Y-87630329D01*
X102408330Y-87616079D01*
X102428847Y-87603782D01*
X102450471Y-87593554D01*
X102472993Y-87585496D01*
X102496197Y-87579684D01*
X102519858Y-87576174D01*
X102543750Y-87575000D01*
X103456250Y-87575000D01*
X103480142Y-87576174D01*
X103480142Y-87576174D01*
G37*
D13*
X103000000Y-88062500D03*
D12*
G36*
X103480142Y-89451174D02*
G01*
X103503803Y-89454684D01*
X103527007Y-89460496D01*
X103549529Y-89468554D01*
X103571153Y-89478782D01*
X103591670Y-89491079D01*
X103610883Y-89505329D01*
X103628607Y-89521393D01*
X103644671Y-89539117D01*
X103658921Y-89558330D01*
X103671218Y-89578847D01*
X103681446Y-89600471D01*
X103689504Y-89622993D01*
X103695316Y-89646197D01*
X103698826Y-89669858D01*
X103700000Y-89693750D01*
X103700000Y-90181250D01*
X103698826Y-90205142D01*
X103695316Y-90228803D01*
X103689504Y-90252007D01*
X103681446Y-90274529D01*
X103671218Y-90296153D01*
X103658921Y-90316670D01*
X103644671Y-90335883D01*
X103628607Y-90353607D01*
X103610883Y-90369671D01*
X103591670Y-90383921D01*
X103571153Y-90396218D01*
X103549529Y-90406446D01*
X103527007Y-90414504D01*
X103503803Y-90420316D01*
X103480142Y-90423826D01*
X103456250Y-90425000D01*
X102543750Y-90425000D01*
X102519858Y-90423826D01*
X102496197Y-90420316D01*
X102472993Y-90414504D01*
X102450471Y-90406446D01*
X102428847Y-90396218D01*
X102408330Y-90383921D01*
X102389117Y-90369671D01*
X102371393Y-90353607D01*
X102355329Y-90335883D01*
X102341079Y-90316670D01*
X102328782Y-90296153D01*
X102318554Y-90274529D01*
X102310496Y-90252007D01*
X102304684Y-90228803D01*
X102301174Y-90205142D01*
X102300000Y-90181250D01*
X102300000Y-89693750D01*
X102301174Y-89669858D01*
X102304684Y-89646197D01*
X102310496Y-89622993D01*
X102318554Y-89600471D01*
X102328782Y-89578847D01*
X102341079Y-89558330D01*
X102355329Y-89539117D01*
X102371393Y-89521393D01*
X102389117Y-89505329D01*
X102408330Y-89491079D01*
X102428847Y-89478782D01*
X102450471Y-89468554D01*
X102472993Y-89460496D01*
X102496197Y-89454684D01*
X102519858Y-89451174D01*
X102543750Y-89450000D01*
X103456250Y-89450000D01*
X103480142Y-89451174D01*
X103480142Y-89451174D01*
G37*
D13*
X103000000Y-89937500D03*
D12*
G36*
X103480142Y-109076174D02*
G01*
X103503803Y-109079684D01*
X103527007Y-109085496D01*
X103549529Y-109093554D01*
X103571153Y-109103782D01*
X103591670Y-109116079D01*
X103610883Y-109130329D01*
X103628607Y-109146393D01*
X103644671Y-109164117D01*
X103658921Y-109183330D01*
X103671218Y-109203847D01*
X103681446Y-109225471D01*
X103689504Y-109247993D01*
X103695316Y-109271197D01*
X103698826Y-109294858D01*
X103700000Y-109318750D01*
X103700000Y-109806250D01*
X103698826Y-109830142D01*
X103695316Y-109853803D01*
X103689504Y-109877007D01*
X103681446Y-109899529D01*
X103671218Y-109921153D01*
X103658921Y-109941670D01*
X103644671Y-109960883D01*
X103628607Y-109978607D01*
X103610883Y-109994671D01*
X103591670Y-110008921D01*
X103571153Y-110021218D01*
X103549529Y-110031446D01*
X103527007Y-110039504D01*
X103503803Y-110045316D01*
X103480142Y-110048826D01*
X103456250Y-110050000D01*
X102543750Y-110050000D01*
X102519858Y-110048826D01*
X102496197Y-110045316D01*
X102472993Y-110039504D01*
X102450471Y-110031446D01*
X102428847Y-110021218D01*
X102408330Y-110008921D01*
X102389117Y-109994671D01*
X102371393Y-109978607D01*
X102355329Y-109960883D01*
X102341079Y-109941670D01*
X102328782Y-109921153D01*
X102318554Y-109899529D01*
X102310496Y-109877007D01*
X102304684Y-109853803D01*
X102301174Y-109830142D01*
X102300000Y-109806250D01*
X102300000Y-109318750D01*
X102301174Y-109294858D01*
X102304684Y-109271197D01*
X102310496Y-109247993D01*
X102318554Y-109225471D01*
X102328782Y-109203847D01*
X102341079Y-109183330D01*
X102355329Y-109164117D01*
X102371393Y-109146393D01*
X102389117Y-109130329D01*
X102408330Y-109116079D01*
X102428847Y-109103782D01*
X102450471Y-109093554D01*
X102472993Y-109085496D01*
X102496197Y-109079684D01*
X102519858Y-109076174D01*
X102543750Y-109075000D01*
X103456250Y-109075000D01*
X103480142Y-109076174D01*
X103480142Y-109076174D01*
G37*
D13*
X103000000Y-109562500D03*
D12*
G36*
X103480142Y-110951174D02*
G01*
X103503803Y-110954684D01*
X103527007Y-110960496D01*
X103549529Y-110968554D01*
X103571153Y-110978782D01*
X103591670Y-110991079D01*
X103610883Y-111005329D01*
X103628607Y-111021393D01*
X103644671Y-111039117D01*
X103658921Y-111058330D01*
X103671218Y-111078847D01*
X103681446Y-111100471D01*
X103689504Y-111122993D01*
X103695316Y-111146197D01*
X103698826Y-111169858D01*
X103700000Y-111193750D01*
X103700000Y-111681250D01*
X103698826Y-111705142D01*
X103695316Y-111728803D01*
X103689504Y-111752007D01*
X103681446Y-111774529D01*
X103671218Y-111796153D01*
X103658921Y-111816670D01*
X103644671Y-111835883D01*
X103628607Y-111853607D01*
X103610883Y-111869671D01*
X103591670Y-111883921D01*
X103571153Y-111896218D01*
X103549529Y-111906446D01*
X103527007Y-111914504D01*
X103503803Y-111920316D01*
X103480142Y-111923826D01*
X103456250Y-111925000D01*
X102543750Y-111925000D01*
X102519858Y-111923826D01*
X102496197Y-111920316D01*
X102472993Y-111914504D01*
X102450471Y-111906446D01*
X102428847Y-111896218D01*
X102408330Y-111883921D01*
X102389117Y-111869671D01*
X102371393Y-111853607D01*
X102355329Y-111835883D01*
X102341079Y-111816670D01*
X102328782Y-111796153D01*
X102318554Y-111774529D01*
X102310496Y-111752007D01*
X102304684Y-111728803D01*
X102301174Y-111705142D01*
X102300000Y-111681250D01*
X102300000Y-111193750D01*
X102301174Y-111169858D01*
X102304684Y-111146197D01*
X102310496Y-111122993D01*
X102318554Y-111100471D01*
X102328782Y-111078847D01*
X102341079Y-111058330D01*
X102355329Y-111039117D01*
X102371393Y-111021393D01*
X102389117Y-111005329D01*
X102408330Y-110991079D01*
X102428847Y-110978782D01*
X102450471Y-110968554D01*
X102472993Y-110960496D01*
X102496197Y-110954684D01*
X102519858Y-110951174D01*
X102543750Y-110950000D01*
X103456250Y-110950000D01*
X103480142Y-110951174D01*
X103480142Y-110951174D01*
G37*
D13*
X103000000Y-111437500D03*
D12*
G36*
X167480142Y-89451174D02*
G01*
X167503803Y-89454684D01*
X167527007Y-89460496D01*
X167549529Y-89468554D01*
X167571153Y-89478782D01*
X167591670Y-89491079D01*
X167610883Y-89505329D01*
X167628607Y-89521393D01*
X167644671Y-89539117D01*
X167658921Y-89558330D01*
X167671218Y-89578847D01*
X167681446Y-89600471D01*
X167689504Y-89622993D01*
X167695316Y-89646197D01*
X167698826Y-89669858D01*
X167700000Y-89693750D01*
X167700000Y-90181250D01*
X167698826Y-90205142D01*
X167695316Y-90228803D01*
X167689504Y-90252007D01*
X167681446Y-90274529D01*
X167671218Y-90296153D01*
X167658921Y-90316670D01*
X167644671Y-90335883D01*
X167628607Y-90353607D01*
X167610883Y-90369671D01*
X167591670Y-90383921D01*
X167571153Y-90396218D01*
X167549529Y-90406446D01*
X167527007Y-90414504D01*
X167503803Y-90420316D01*
X167480142Y-90423826D01*
X167456250Y-90425000D01*
X166543750Y-90425000D01*
X166519858Y-90423826D01*
X166496197Y-90420316D01*
X166472993Y-90414504D01*
X166450471Y-90406446D01*
X166428847Y-90396218D01*
X166408330Y-90383921D01*
X166389117Y-90369671D01*
X166371393Y-90353607D01*
X166355329Y-90335883D01*
X166341079Y-90316670D01*
X166328782Y-90296153D01*
X166318554Y-90274529D01*
X166310496Y-90252007D01*
X166304684Y-90228803D01*
X166301174Y-90205142D01*
X166300000Y-90181250D01*
X166300000Y-89693750D01*
X166301174Y-89669858D01*
X166304684Y-89646197D01*
X166310496Y-89622993D01*
X166318554Y-89600471D01*
X166328782Y-89578847D01*
X166341079Y-89558330D01*
X166355329Y-89539117D01*
X166371393Y-89521393D01*
X166389117Y-89505329D01*
X166408330Y-89491079D01*
X166428847Y-89478782D01*
X166450471Y-89468554D01*
X166472993Y-89460496D01*
X166496197Y-89454684D01*
X166519858Y-89451174D01*
X166543750Y-89450000D01*
X167456250Y-89450000D01*
X167480142Y-89451174D01*
X167480142Y-89451174D01*
G37*
D13*
X167000000Y-89937500D03*
D12*
G36*
X167480142Y-87576174D02*
G01*
X167503803Y-87579684D01*
X167527007Y-87585496D01*
X167549529Y-87593554D01*
X167571153Y-87603782D01*
X167591670Y-87616079D01*
X167610883Y-87630329D01*
X167628607Y-87646393D01*
X167644671Y-87664117D01*
X167658921Y-87683330D01*
X167671218Y-87703847D01*
X167681446Y-87725471D01*
X167689504Y-87747993D01*
X167695316Y-87771197D01*
X167698826Y-87794858D01*
X167700000Y-87818750D01*
X167700000Y-88306250D01*
X167698826Y-88330142D01*
X167695316Y-88353803D01*
X167689504Y-88377007D01*
X167681446Y-88399529D01*
X167671218Y-88421153D01*
X167658921Y-88441670D01*
X167644671Y-88460883D01*
X167628607Y-88478607D01*
X167610883Y-88494671D01*
X167591670Y-88508921D01*
X167571153Y-88521218D01*
X167549529Y-88531446D01*
X167527007Y-88539504D01*
X167503803Y-88545316D01*
X167480142Y-88548826D01*
X167456250Y-88550000D01*
X166543750Y-88550000D01*
X166519858Y-88548826D01*
X166496197Y-88545316D01*
X166472993Y-88539504D01*
X166450471Y-88531446D01*
X166428847Y-88521218D01*
X166408330Y-88508921D01*
X166389117Y-88494671D01*
X166371393Y-88478607D01*
X166355329Y-88460883D01*
X166341079Y-88441670D01*
X166328782Y-88421153D01*
X166318554Y-88399529D01*
X166310496Y-88377007D01*
X166304684Y-88353803D01*
X166301174Y-88330142D01*
X166300000Y-88306250D01*
X166300000Y-87818750D01*
X166301174Y-87794858D01*
X166304684Y-87771197D01*
X166310496Y-87747993D01*
X166318554Y-87725471D01*
X166328782Y-87703847D01*
X166341079Y-87683330D01*
X166355329Y-87664117D01*
X166371393Y-87646393D01*
X166389117Y-87630329D01*
X166408330Y-87616079D01*
X166428847Y-87603782D01*
X166450471Y-87593554D01*
X166472993Y-87585496D01*
X166496197Y-87579684D01*
X166519858Y-87576174D01*
X166543750Y-87575000D01*
X167456250Y-87575000D01*
X167480142Y-87576174D01*
X167480142Y-87576174D01*
G37*
D13*
X167000000Y-88062500D03*
D14*
X116500000Y-88975000D03*
X147800000Y-104500000D03*
X122200000Y-104500000D03*
X118095000Y-95650000D03*
X167000000Y-100875000D03*
X167000000Y-88062500D03*
X120750000Y-93000000D03*
X106250000Y-102250000D03*
X119000004Y-93000000D03*
X124000006Y-88500000D03*
X103000010Y-99125000D03*
X143650000Y-95650000D03*
X103000004Y-89937500D03*
X119365000Y-88350000D03*
X167000000Y-109562500D03*
X103000022Y-101000000D03*
X167000000Y-99000000D03*
X119365000Y-95650000D03*
X122250000Y-93000012D03*
D15*
X167556237Y-110881263D02*
X167000000Y-111437500D01*
X168025010Y-110412490D02*
X167556237Y-110881263D01*
X168025010Y-101900010D02*
X168025010Y-110412490D01*
X167000000Y-100875000D02*
X168025010Y-101900010D01*
X167556237Y-90493737D02*
X167000000Y-89937500D01*
X168025010Y-90962510D02*
X167556237Y-90493737D01*
X168025010Y-99849990D02*
X168025010Y-90962510D01*
X167000000Y-100875000D02*
X168025010Y-99849990D01*
X120750000Y-93000000D02*
X119000004Y-93000000D01*
X124300005Y-88799999D02*
X124000006Y-88500000D01*
X124350004Y-88750000D02*
X124300005Y-88799999D01*
X133880000Y-86500000D02*
X131630000Y-88750000D01*
X131630000Y-88750000D02*
X124350004Y-88750000D01*
X106250000Y-102674264D02*
X106250000Y-102250000D01*
X106250000Y-108187500D02*
X106250000Y-102674264D01*
X103250000Y-111437500D02*
X103250000Y-111187500D01*
X103250000Y-111187500D02*
X106250000Y-108187500D01*
X102700011Y-99424999D02*
X103000010Y-99125000D01*
X101750000Y-100375010D02*
X102700011Y-99424999D01*
X101750000Y-108312500D02*
X101750000Y-100375010D01*
X103250000Y-109562500D02*
X103000000Y-109562500D01*
X103000000Y-109562500D02*
X101750000Y-108312500D01*
X102700011Y-98825001D02*
X103000010Y-99125000D01*
X101750000Y-97874990D02*
X102700011Y-98825001D01*
X101750000Y-89312500D02*
X101750000Y-97874990D01*
X103250000Y-88062500D02*
X103000000Y-88062500D01*
X103000000Y-88062500D02*
X101750000Y-89312500D01*
X136420000Y-86500000D02*
X136420000Y-88420000D01*
X136420000Y-88420000D02*
X143650000Y-95650000D01*
X103300021Y-100700001D02*
X103000022Y-101000000D01*
X115650022Y-88350000D02*
X103300021Y-100700001D01*
X119365000Y-88350000D02*
X115650022Y-88350000D01*
X121950001Y-92700013D02*
X122250000Y-93000012D01*
X120662499Y-92162499D02*
X121412487Y-92162499D01*
X121412487Y-92162499D02*
X121950001Y-92700013D01*
X118124998Y-92699998D02*
X118662497Y-92162499D01*
X118124998Y-93884998D02*
X118124998Y-92699998D01*
X118662497Y-92162499D02*
X120662499Y-92162499D01*
X119365000Y-95650000D02*
X119365000Y-95125000D01*
X119365000Y-95125000D02*
X118124998Y-93884998D01*
X130490001Y-87349999D02*
X131340000Y-86500000D01*
X120662499Y-90662498D02*
X123449998Y-87874999D01*
X123449998Y-87874999D02*
X124800001Y-87874999D01*
X124800001Y-87874999D02*
X125175002Y-88250000D01*
X125175002Y-88250000D02*
X129590000Y-88250000D01*
X120662499Y-92162499D02*
X120662499Y-90662498D01*
X129590000Y-88250000D02*
X130490001Y-87349999D01*
D16*
G36*
X127455843Y-85868748D02*
G01*
X127358519Y-86143109D01*
X127479186Y-86373000D01*
X128673000Y-86373000D01*
X128673000Y-86353000D01*
X128927000Y-86353000D01*
X128927000Y-86373000D01*
X128947000Y-86373000D01*
X128947000Y-86627000D01*
X128927000Y-86627000D01*
X128927000Y-86647000D01*
X128673000Y-86647000D01*
X128673000Y-86627000D01*
X127479186Y-86627000D01*
X127358519Y-86856891D01*
X127455843Y-87131252D01*
X127604822Y-87381355D01*
X127702753Y-87490000D01*
X125489803Y-87490000D01*
X125363805Y-87364002D01*
X125340002Y-87334998D01*
X125224277Y-87240025D01*
X125092248Y-87169453D01*
X124948987Y-87125996D01*
X124837334Y-87114999D01*
X124837323Y-87114999D01*
X124800001Y-87111323D01*
X124762679Y-87114999D01*
X123487321Y-87114999D01*
X123449998Y-87111323D01*
X123412675Y-87114999D01*
X123412665Y-87114999D01*
X123301012Y-87125996D01*
X123177600Y-87163432D01*
X123157751Y-87169453D01*
X123025721Y-87240025D01*
X122954075Y-87298824D01*
X122909997Y-87334998D01*
X122886199Y-87363996D01*
X120151497Y-90098699D01*
X120122499Y-90122497D01*
X120098701Y-90151495D01*
X120098700Y-90151496D01*
X120027525Y-90238222D01*
X119956953Y-90370252D01*
X119913497Y-90513513D01*
X119898823Y-90662498D01*
X119902500Y-90699830D01*
X119902500Y-91402499D01*
X118699819Y-91402499D01*
X118662496Y-91398823D01*
X118625173Y-91402499D01*
X118625164Y-91402499D01*
X118513511Y-91413496D01*
X118370250Y-91456953D01*
X118238221Y-91527525D01*
X118238219Y-91527526D01*
X118238220Y-91527526D01*
X118151493Y-91598700D01*
X118151489Y-91598704D01*
X118122496Y-91622498D01*
X118098702Y-91651492D01*
X117613995Y-92136200D01*
X117584998Y-92159997D01*
X117561200Y-92188995D01*
X117561199Y-92188996D01*
X117490024Y-92275722D01*
X117419452Y-92407752D01*
X117405197Y-92454746D01*
X117375996Y-92551012D01*
X117375395Y-92557111D01*
X117361322Y-92699998D01*
X117364999Y-92737330D01*
X117364998Y-93847675D01*
X117361322Y-93884998D01*
X117364998Y-93922320D01*
X117364998Y-93922330D01*
X117375995Y-94033983D01*
X117419452Y-94177244D01*
X117490024Y-94309274D01*
X117529869Y-94357824D01*
X117584997Y-94424999D01*
X117614001Y-94448802D01*
X118488349Y-95323151D01*
X118465932Y-95377271D01*
X118430000Y-95557911D01*
X118430000Y-95742089D01*
X118465932Y-95922729D01*
X118536414Y-96092889D01*
X118638738Y-96246028D01*
X118768972Y-96376262D01*
X118922111Y-96478586D01*
X119092271Y-96549068D01*
X119272911Y-96585000D01*
X119457089Y-96585000D01*
X119637729Y-96549068D01*
X119807889Y-96478586D01*
X119961028Y-96376262D01*
X120091262Y-96246028D01*
X120193586Y-96092889D01*
X120264068Y-95922729D01*
X120300000Y-95742089D01*
X120300000Y-95557911D01*
X120264068Y-95377271D01*
X120193586Y-95207111D01*
X120126939Y-95107367D01*
X120125000Y-95087675D01*
X120125000Y-95087667D01*
X120114003Y-94976014D01*
X120070546Y-94832753D01*
X119999974Y-94700724D01*
X119905001Y-94584999D01*
X119876003Y-94561201D01*
X119223636Y-93908834D01*
X119272733Y-93899068D01*
X119442893Y-93828586D01*
X119545539Y-93760000D01*
X120204465Y-93760000D01*
X120307111Y-93828586D01*
X120477271Y-93899068D01*
X120657911Y-93935000D01*
X120842089Y-93935000D01*
X121022729Y-93899068D01*
X121192889Y-93828586D01*
X121346028Y-93726262D01*
X121476262Y-93596028D01*
X121499996Y-93560508D01*
X121523738Y-93596040D01*
X121653972Y-93726274D01*
X121807111Y-93828598D01*
X121977271Y-93899080D01*
X122157911Y-93935012D01*
X122342089Y-93935012D01*
X122522729Y-93899080D01*
X122692889Y-93828598D01*
X122846028Y-93726274D01*
X122976262Y-93596040D01*
X123078586Y-93442901D01*
X123149068Y-93272741D01*
X123185000Y-93092101D01*
X123185000Y-92907923D01*
X123149068Y-92727283D01*
X123078586Y-92557123D01*
X122976262Y-92403984D01*
X122846028Y-92273750D01*
X122692889Y-92171426D01*
X122522729Y-92100944D01*
X122401649Y-92076859D01*
X121976290Y-91651501D01*
X121952488Y-91622498D01*
X121836763Y-91527525D01*
X121704734Y-91456953D01*
X121561473Y-91413496D01*
X121449820Y-91402499D01*
X121449809Y-91402499D01*
X121422499Y-91399809D01*
X121422499Y-90977299D01*
X123288757Y-89111041D01*
X123403978Y-89226262D01*
X123557117Y-89328586D01*
X123727277Y-89399068D01*
X123865475Y-89426558D01*
X123875729Y-89434973D01*
X123925329Y-89461485D01*
X124007758Y-89505545D01*
X124151019Y-89549002D01*
X124300005Y-89563675D01*
X124448991Y-89549002D01*
X124577565Y-89510000D01*
X131592678Y-89510000D01*
X131630000Y-89513676D01*
X131667322Y-89510000D01*
X131667333Y-89510000D01*
X131778986Y-89499003D01*
X131922247Y-89455546D01*
X132054276Y-89384974D01*
X132170001Y-89290001D01*
X132193804Y-89260997D01*
X133514005Y-87940797D01*
X133588889Y-87963513D01*
X133807050Y-87985000D01*
X133952950Y-87985000D01*
X134171111Y-87963513D01*
X134451034Y-87878599D01*
X134709014Y-87740706D01*
X134935134Y-87555134D01*
X135120706Y-87329014D01*
X135150000Y-87274209D01*
X135179294Y-87329014D01*
X135364866Y-87555134D01*
X135590986Y-87740706D01*
X135660001Y-87777595D01*
X135660001Y-88382668D01*
X135656324Y-88420000D01*
X135660001Y-88457333D01*
X135670998Y-88568986D01*
X135682515Y-88606954D01*
X135714454Y-88712246D01*
X135785026Y-88844276D01*
X135829925Y-88898985D01*
X135880000Y-88960001D01*
X135908998Y-88983799D01*
X142726847Y-95801649D01*
X142750932Y-95922729D01*
X142821414Y-96092889D01*
X142923738Y-96246028D01*
X143053972Y-96376262D01*
X143207111Y-96478586D01*
X143377271Y-96549068D01*
X143557911Y-96585000D01*
X143742089Y-96585000D01*
X143922729Y-96549068D01*
X144092889Y-96478586D01*
X144246028Y-96376262D01*
X144376262Y-96246028D01*
X144478586Y-96092889D01*
X144549068Y-95922729D01*
X144585000Y-95742089D01*
X144585000Y-95557911D01*
X144549068Y-95377271D01*
X144478586Y-95207111D01*
X144376262Y-95053972D01*
X144246028Y-94923738D01*
X144092889Y-94821414D01*
X143922729Y-94750932D01*
X143801649Y-94726847D01*
X137180000Y-88105199D01*
X137180000Y-87777595D01*
X137249014Y-87740706D01*
X137475134Y-87555134D01*
X137660706Y-87329014D01*
X137690000Y-87274209D01*
X137719294Y-87329014D01*
X137904866Y-87555134D01*
X138130986Y-87740706D01*
X138388966Y-87878599D01*
X138668889Y-87963513D01*
X138887050Y-87985000D01*
X139032950Y-87985000D01*
X139251111Y-87963513D01*
X139531034Y-87878599D01*
X139789014Y-87740706D01*
X140015134Y-87555134D01*
X140039607Y-87525313D01*
X140060498Y-87594180D01*
X140119463Y-87704494D01*
X140198815Y-87801185D01*
X140295506Y-87880537D01*
X140405820Y-87939502D01*
X140525518Y-87975812D01*
X140650000Y-87988072D01*
X142350000Y-87988072D01*
X142474482Y-87975812D01*
X142594180Y-87939502D01*
X142704494Y-87880537D01*
X142779781Y-87818750D01*
X165661928Y-87818750D01*
X165661928Y-88306250D01*
X165678872Y-88478285D01*
X165729053Y-88643709D01*
X165810542Y-88796164D01*
X165920208Y-88929792D01*
X166005756Y-89000000D01*
X165920208Y-89070208D01*
X165810542Y-89203836D01*
X165729053Y-89356291D01*
X165678872Y-89521715D01*
X165661928Y-89693750D01*
X165661928Y-90181250D01*
X165678872Y-90353285D01*
X165729053Y-90518709D01*
X165810542Y-90671164D01*
X165920208Y-90804792D01*
X166053836Y-90914458D01*
X166206291Y-90995947D01*
X166371715Y-91046128D01*
X166543750Y-91063072D01*
X167050771Y-91063072D01*
X167265011Y-91277312D01*
X167265010Y-97874428D01*
X166543750Y-97874428D01*
X166371715Y-97891372D01*
X166206291Y-97941553D01*
X166053836Y-98023042D01*
X165920208Y-98132708D01*
X165810542Y-98266336D01*
X165729053Y-98418791D01*
X165678872Y-98584215D01*
X165661928Y-98756250D01*
X165661928Y-99243750D01*
X165678872Y-99415785D01*
X165729053Y-99581209D01*
X165810542Y-99733664D01*
X165920208Y-99867292D01*
X166005756Y-99937500D01*
X165920208Y-100007708D01*
X165810542Y-100141336D01*
X165729053Y-100293791D01*
X165678872Y-100459215D01*
X165661928Y-100631250D01*
X165661928Y-101118750D01*
X165678872Y-101290785D01*
X165729053Y-101456209D01*
X165810542Y-101608664D01*
X165920208Y-101742292D01*
X166053836Y-101851958D01*
X166206291Y-101933447D01*
X166371715Y-101983628D01*
X166543750Y-102000572D01*
X167050770Y-102000572D01*
X167265010Y-102214812D01*
X167265011Y-108436928D01*
X166543750Y-108436928D01*
X166371715Y-108453872D01*
X166206291Y-108504053D01*
X166053836Y-108585542D01*
X165920208Y-108695208D01*
X165810542Y-108828836D01*
X165729053Y-108981291D01*
X165678872Y-109146715D01*
X165661928Y-109318750D01*
X165661928Y-109806250D01*
X165678872Y-109978285D01*
X165729053Y-110143709D01*
X165810542Y-110296164D01*
X165920208Y-110429792D01*
X166005756Y-110500000D01*
X165920208Y-110570208D01*
X165810542Y-110703836D01*
X165729053Y-110856291D01*
X165678872Y-111021715D01*
X165661928Y-111193750D01*
X165661928Y-111681250D01*
X165678872Y-111853285D01*
X165729053Y-112018709D01*
X165810542Y-112171164D01*
X165920208Y-112304792D01*
X166053836Y-112414458D01*
X166206291Y-112495947D01*
X166371715Y-112546128D01*
X166543750Y-112563072D01*
X167456250Y-112563072D01*
X167628285Y-112546128D01*
X167793709Y-112495947D01*
X167946164Y-112414458D01*
X168079792Y-112304792D01*
X168189458Y-112171164D01*
X168270947Y-112018709D01*
X168321128Y-111853285D01*
X168338072Y-111681250D01*
X168338072Y-111193750D01*
X168336322Y-111175979D01*
X168536007Y-110976294D01*
X168565011Y-110952491D01*
X168625041Y-110879344D01*
X168659984Y-110836767D01*
X168730556Y-110704737D01*
X168740751Y-110671128D01*
X168774013Y-110561476D01*
X168785010Y-110449823D01*
X168785010Y-110449814D01*
X168788686Y-110412491D01*
X168785010Y-110375168D01*
X168785010Y-101937332D01*
X168788686Y-101900009D01*
X168785010Y-101862686D01*
X168785010Y-101862677D01*
X168774013Y-101751024D01*
X168730556Y-101607763D01*
X168716008Y-101580546D01*
X168659984Y-101475733D01*
X168588809Y-101389007D01*
X168565011Y-101360009D01*
X168536014Y-101336212D01*
X168336322Y-101136520D01*
X168338072Y-101118750D01*
X168338072Y-100631250D01*
X168336322Y-100613480D01*
X168536014Y-100413788D01*
X168565011Y-100389991D01*
X168610142Y-100334999D01*
X168659984Y-100274267D01*
X168730556Y-100142237D01*
X168732387Y-100136202D01*
X168774013Y-99998976D01*
X168785010Y-99887323D01*
X168785010Y-99887314D01*
X168788686Y-99849991D01*
X168785010Y-99812668D01*
X168785010Y-90999832D01*
X168788686Y-90962509D01*
X168785010Y-90925186D01*
X168785010Y-90925177D01*
X168774013Y-90813524D01*
X168730556Y-90670263D01*
X168706450Y-90625165D01*
X168659984Y-90538233D01*
X168623466Y-90493737D01*
X168565011Y-90422509D01*
X168536007Y-90398706D01*
X168336322Y-90199021D01*
X168338072Y-90181250D01*
X168338072Y-89693750D01*
X168321128Y-89521715D01*
X168270947Y-89356291D01*
X168189458Y-89203836D01*
X168079792Y-89070208D01*
X167994244Y-89000000D01*
X168079792Y-88929792D01*
X168189458Y-88796164D01*
X168270947Y-88643709D01*
X168321128Y-88478285D01*
X168338072Y-88306250D01*
X168338072Y-87818750D01*
X168321128Y-87646715D01*
X168270947Y-87481291D01*
X168189458Y-87328836D01*
X168079792Y-87195208D01*
X167946164Y-87085542D01*
X167793709Y-87004053D01*
X167628285Y-86953872D01*
X167456250Y-86936928D01*
X166543750Y-86936928D01*
X166371715Y-86953872D01*
X166206291Y-87004053D01*
X166053836Y-87085542D01*
X165920208Y-87195208D01*
X165810542Y-87328836D01*
X165729053Y-87481291D01*
X165678872Y-87646715D01*
X165661928Y-87818750D01*
X142779781Y-87818750D01*
X142801185Y-87801185D01*
X142880537Y-87704494D01*
X142939502Y-87594180D01*
X142975812Y-87474482D01*
X142988072Y-87350000D01*
X142988072Y-85710000D01*
X169290000Y-85710000D01*
X169290001Y-114290000D01*
X100710000Y-114290000D01*
X100710000Y-89312500D01*
X100986324Y-89312500D01*
X100990000Y-89349822D01*
X100990001Y-97837658D01*
X100986324Y-97874990D01*
X100990001Y-97912323D01*
X101000998Y-98023976D01*
X101013442Y-98065000D01*
X101044454Y-98167236D01*
X101115026Y-98299266D01*
X101177998Y-98375997D01*
X101210000Y-98414991D01*
X101238998Y-98438789D01*
X101663679Y-98863471D01*
X101661928Y-98881250D01*
X101661928Y-99368750D01*
X101663679Y-99386529D01*
X101238998Y-99811211D01*
X101210000Y-99835009D01*
X101186202Y-99864007D01*
X101186201Y-99864008D01*
X101115026Y-99950734D01*
X101044454Y-100082764D01*
X101026687Y-100141336D01*
X101000998Y-100226024D01*
X100992609Y-100311201D01*
X100986324Y-100375010D01*
X100990001Y-100412342D01*
X100990000Y-108275178D01*
X100986324Y-108312500D01*
X100990000Y-108349822D01*
X100990000Y-108349832D01*
X101000997Y-108461485D01*
X101006537Y-108479747D01*
X101044454Y-108604746D01*
X101115026Y-108736776D01*
X101154871Y-108785326D01*
X101209999Y-108852501D01*
X101239003Y-108876304D01*
X101663678Y-109300980D01*
X101661928Y-109318750D01*
X101661928Y-109806250D01*
X101678872Y-109978285D01*
X101729053Y-110143709D01*
X101810542Y-110296164D01*
X101920208Y-110429792D01*
X102005756Y-110500000D01*
X101920208Y-110570208D01*
X101810542Y-110703836D01*
X101729053Y-110856291D01*
X101678872Y-111021715D01*
X101661928Y-111193750D01*
X101661928Y-111681250D01*
X101678872Y-111853285D01*
X101729053Y-112018709D01*
X101810542Y-112171164D01*
X101920208Y-112304792D01*
X102053836Y-112414458D01*
X102206291Y-112495947D01*
X102371715Y-112546128D01*
X102543750Y-112563072D01*
X103456250Y-112563072D01*
X103628285Y-112546128D01*
X103793709Y-112495947D01*
X103946164Y-112414458D01*
X104079792Y-112304792D01*
X104189458Y-112171164D01*
X104270947Y-112018709D01*
X104321128Y-111853285D01*
X104338072Y-111681250D01*
X104338072Y-111193750D01*
X104336322Y-111175979D01*
X106761004Y-108751298D01*
X106790001Y-108727501D01*
X106884974Y-108611776D01*
X106955546Y-108479747D01*
X106999003Y-108336486D01*
X107010000Y-108224833D01*
X107010000Y-108224825D01*
X107013676Y-108187500D01*
X107010000Y-108150175D01*
X107010000Y-102795535D01*
X107078586Y-102692889D01*
X107149068Y-102522729D01*
X107185000Y-102342089D01*
X107185000Y-102157911D01*
X107149068Y-101977271D01*
X107078586Y-101807111D01*
X106976262Y-101653972D01*
X106846028Y-101523738D01*
X106692889Y-101421414D01*
X106522729Y-101350932D01*
X106342089Y-101315000D01*
X106157911Y-101315000D01*
X105977271Y-101350932D01*
X105807111Y-101421414D01*
X105653972Y-101523738D01*
X105523738Y-101653972D01*
X105421414Y-101807111D01*
X105350932Y-101977271D01*
X105315000Y-102157911D01*
X105315000Y-102342089D01*
X105350932Y-102522729D01*
X105421414Y-102692889D01*
X105490001Y-102795537D01*
X105490000Y-107872698D01*
X104296656Y-109066042D01*
X104270947Y-108981291D01*
X104189458Y-108828836D01*
X104079792Y-108695208D01*
X103946164Y-108585542D01*
X103793709Y-108504053D01*
X103628285Y-108453872D01*
X103456250Y-108436928D01*
X102949230Y-108436928D01*
X102510000Y-107997699D01*
X102510000Y-102122248D01*
X102543750Y-102125572D01*
X103456250Y-102125572D01*
X103628285Y-102108628D01*
X103793709Y-102058447D01*
X103946164Y-101976958D01*
X104079792Y-101867292D01*
X104189458Y-101733664D01*
X104270947Y-101581209D01*
X104321128Y-101415785D01*
X104338072Y-101243750D01*
X104338072Y-100756250D01*
X104336324Y-100738499D01*
X115667173Y-89407651D01*
X115671414Y-89417889D01*
X115773738Y-89571028D01*
X115903972Y-89701262D01*
X116057111Y-89803586D01*
X116227271Y-89874068D01*
X116407911Y-89910000D01*
X116592089Y-89910000D01*
X116772729Y-89874068D01*
X116942889Y-89803586D01*
X117096028Y-89701262D01*
X117226262Y-89571028D01*
X117328586Y-89417889D01*
X117399068Y-89247729D01*
X117426464Y-89110000D01*
X118819465Y-89110000D01*
X118922111Y-89178586D01*
X119092271Y-89249068D01*
X119272911Y-89285000D01*
X119457089Y-89285000D01*
X119637729Y-89249068D01*
X119807889Y-89178586D01*
X119961028Y-89076262D01*
X120091262Y-88946028D01*
X120193586Y-88792889D01*
X120264068Y-88622729D01*
X120300000Y-88442089D01*
X120300000Y-88257911D01*
X120264068Y-88077271D01*
X120193586Y-87907111D01*
X120091262Y-87753972D01*
X119961028Y-87623738D01*
X119807889Y-87521414D01*
X119637729Y-87450932D01*
X119457089Y-87415000D01*
X119272911Y-87415000D01*
X119092271Y-87450932D01*
X118922111Y-87521414D01*
X118819465Y-87590000D01*
X115687345Y-87590000D01*
X115650022Y-87586324D01*
X115612699Y-87590000D01*
X115612689Y-87590000D01*
X115501036Y-87600997D01*
X115378313Y-87638224D01*
X115357775Y-87644454D01*
X115225745Y-87715026D01*
X115158450Y-87770254D01*
X115110021Y-87809999D01*
X115086223Y-87838997D01*
X104296661Y-98628560D01*
X104270947Y-98543791D01*
X104189458Y-98391336D01*
X104079792Y-98257708D01*
X103946164Y-98148042D01*
X103793709Y-98066553D01*
X103628285Y-98016372D01*
X103456250Y-97999428D01*
X102949240Y-97999428D01*
X102510000Y-97560189D01*
X102510000Y-91059748D01*
X102543750Y-91063072D01*
X103456250Y-91063072D01*
X103628285Y-91046128D01*
X103793709Y-90995947D01*
X103946164Y-90914458D01*
X104079792Y-90804792D01*
X104189458Y-90671164D01*
X104270947Y-90518709D01*
X104321128Y-90353285D01*
X104338072Y-90181250D01*
X104338072Y-89693750D01*
X104321128Y-89521715D01*
X104270947Y-89356291D01*
X104189458Y-89203836D01*
X104079792Y-89070208D01*
X103994244Y-89000000D01*
X104079792Y-88929792D01*
X104189458Y-88796164D01*
X104270947Y-88643709D01*
X104321128Y-88478285D01*
X104338072Y-88306250D01*
X104338072Y-87818750D01*
X104321128Y-87646715D01*
X104270947Y-87481291D01*
X104189458Y-87328836D01*
X104079792Y-87195208D01*
X103946164Y-87085542D01*
X103793709Y-87004053D01*
X103628285Y-86953872D01*
X103456250Y-86936928D01*
X102543750Y-86936928D01*
X102371715Y-86953872D01*
X102206291Y-87004053D01*
X102053836Y-87085542D01*
X101920208Y-87195208D01*
X101810542Y-87328836D01*
X101729053Y-87481291D01*
X101678872Y-87646715D01*
X101661928Y-87818750D01*
X101661928Y-88306250D01*
X101663678Y-88324020D01*
X101239003Y-88748696D01*
X101209999Y-88772499D01*
X101168965Y-88822500D01*
X101115026Y-88888224D01*
X101076660Y-88960001D01*
X101044454Y-89020254D01*
X101000997Y-89163515D01*
X100990000Y-89275168D01*
X100990000Y-89275178D01*
X100986324Y-89312500D01*
X100710000Y-89312500D01*
X100710000Y-85710000D01*
X127550405Y-85710000D01*
X127455843Y-85868748D01*
X127455843Y-85868748D01*
G37*
X127455843Y-85868748D02*
X127358519Y-86143109D01*
X127479186Y-86373000D01*
X128673000Y-86373000D01*
X128673000Y-86353000D01*
X128927000Y-86353000D01*
X128927000Y-86373000D01*
X128947000Y-86373000D01*
X128947000Y-86627000D01*
X128927000Y-86627000D01*
X128927000Y-86647000D01*
X128673000Y-86647000D01*
X128673000Y-86627000D01*
X127479186Y-86627000D01*
X127358519Y-86856891D01*
X127455843Y-87131252D01*
X127604822Y-87381355D01*
X127702753Y-87490000D01*
X125489803Y-87490000D01*
X125363805Y-87364002D01*
X125340002Y-87334998D01*
X125224277Y-87240025D01*
X125092248Y-87169453D01*
X124948987Y-87125996D01*
X124837334Y-87114999D01*
X124837323Y-87114999D01*
X124800001Y-87111323D01*
X124762679Y-87114999D01*
X123487321Y-87114999D01*
X123449998Y-87111323D01*
X123412675Y-87114999D01*
X123412665Y-87114999D01*
X123301012Y-87125996D01*
X123177600Y-87163432D01*
X123157751Y-87169453D01*
X123025721Y-87240025D01*
X122954075Y-87298824D01*
X122909997Y-87334998D01*
X122886199Y-87363996D01*
X120151497Y-90098699D01*
X120122499Y-90122497D01*
X120098701Y-90151495D01*
X120098700Y-90151496D01*
X120027525Y-90238222D01*
X119956953Y-90370252D01*
X119913497Y-90513513D01*
X119898823Y-90662498D01*
X119902500Y-90699830D01*
X119902500Y-91402499D01*
X118699819Y-91402499D01*
X118662496Y-91398823D01*
X118625173Y-91402499D01*
X118625164Y-91402499D01*
X118513511Y-91413496D01*
X118370250Y-91456953D01*
X118238221Y-91527525D01*
X118238219Y-91527526D01*
X118238220Y-91527526D01*
X118151493Y-91598700D01*
X118151489Y-91598704D01*
X118122496Y-91622498D01*
X118098702Y-91651492D01*
X117613995Y-92136200D01*
X117584998Y-92159997D01*
X117561200Y-92188995D01*
X117561199Y-92188996D01*
X117490024Y-92275722D01*
X117419452Y-92407752D01*
X117405197Y-92454746D01*
X117375996Y-92551012D01*
X117375395Y-92557111D01*
X117361322Y-92699998D01*
X117364999Y-92737330D01*
X117364998Y-93847675D01*
X117361322Y-93884998D01*
X117364998Y-93922320D01*
X117364998Y-93922330D01*
X117375995Y-94033983D01*
X117419452Y-94177244D01*
X117490024Y-94309274D01*
X117529869Y-94357824D01*
X117584997Y-94424999D01*
X117614001Y-94448802D01*
X118488349Y-95323151D01*
X118465932Y-95377271D01*
X118430000Y-95557911D01*
X118430000Y-95742089D01*
X118465932Y-95922729D01*
X118536414Y-96092889D01*
X118638738Y-96246028D01*
X118768972Y-96376262D01*
X118922111Y-96478586D01*
X119092271Y-96549068D01*
X119272911Y-96585000D01*
X119457089Y-96585000D01*
X119637729Y-96549068D01*
X119807889Y-96478586D01*
X119961028Y-96376262D01*
X120091262Y-96246028D01*
X120193586Y-96092889D01*
X120264068Y-95922729D01*
X120300000Y-95742089D01*
X120300000Y-95557911D01*
X120264068Y-95377271D01*
X120193586Y-95207111D01*
X120126939Y-95107367D01*
X120125000Y-95087675D01*
X120125000Y-95087667D01*
X120114003Y-94976014D01*
X120070546Y-94832753D01*
X119999974Y-94700724D01*
X119905001Y-94584999D01*
X119876003Y-94561201D01*
X119223636Y-93908834D01*
X119272733Y-93899068D01*
X119442893Y-93828586D01*
X119545539Y-93760000D01*
X120204465Y-93760000D01*
X120307111Y-93828586D01*
X120477271Y-93899068D01*
X120657911Y-93935000D01*
X120842089Y-93935000D01*
X121022729Y-93899068D01*
X121192889Y-93828586D01*
X121346028Y-93726262D01*
X121476262Y-93596028D01*
X121499996Y-93560508D01*
X121523738Y-93596040D01*
X121653972Y-93726274D01*
X121807111Y-93828598D01*
X121977271Y-93899080D01*
X122157911Y-93935012D01*
X122342089Y-93935012D01*
X122522729Y-93899080D01*
X122692889Y-93828598D01*
X122846028Y-93726274D01*
X122976262Y-93596040D01*
X123078586Y-93442901D01*
X123149068Y-93272741D01*
X123185000Y-93092101D01*
X123185000Y-92907923D01*
X123149068Y-92727283D01*
X123078586Y-92557123D01*
X122976262Y-92403984D01*
X122846028Y-92273750D01*
X122692889Y-92171426D01*
X122522729Y-92100944D01*
X122401649Y-92076859D01*
X121976290Y-91651501D01*
X121952488Y-91622498D01*
X121836763Y-91527525D01*
X121704734Y-91456953D01*
X121561473Y-91413496D01*
X121449820Y-91402499D01*
X121449809Y-91402499D01*
X121422499Y-91399809D01*
X121422499Y-90977299D01*
X123288757Y-89111041D01*
X123403978Y-89226262D01*
X123557117Y-89328586D01*
X123727277Y-89399068D01*
X123865475Y-89426558D01*
X123875729Y-89434973D01*
X123925329Y-89461485D01*
X124007758Y-89505545D01*
X124151019Y-89549002D01*
X124300005Y-89563675D01*
X124448991Y-89549002D01*
X124577565Y-89510000D01*
X131592678Y-89510000D01*
X131630000Y-89513676D01*
X131667322Y-89510000D01*
X131667333Y-89510000D01*
X131778986Y-89499003D01*
X131922247Y-89455546D01*
X132054276Y-89384974D01*
X132170001Y-89290001D01*
X132193804Y-89260997D01*
X133514005Y-87940797D01*
X133588889Y-87963513D01*
X133807050Y-87985000D01*
X133952950Y-87985000D01*
X134171111Y-87963513D01*
X134451034Y-87878599D01*
X134709014Y-87740706D01*
X134935134Y-87555134D01*
X135120706Y-87329014D01*
X135150000Y-87274209D01*
X135179294Y-87329014D01*
X135364866Y-87555134D01*
X135590986Y-87740706D01*
X135660001Y-87777595D01*
X135660001Y-88382668D01*
X135656324Y-88420000D01*
X135660001Y-88457333D01*
X135670998Y-88568986D01*
X135682515Y-88606954D01*
X135714454Y-88712246D01*
X135785026Y-88844276D01*
X135829925Y-88898985D01*
X135880000Y-88960001D01*
X135908998Y-88983799D01*
X142726847Y-95801649D01*
X142750932Y-95922729D01*
X142821414Y-96092889D01*
X142923738Y-96246028D01*
X143053972Y-96376262D01*
X143207111Y-96478586D01*
X143377271Y-96549068D01*
X143557911Y-96585000D01*
X143742089Y-96585000D01*
X143922729Y-96549068D01*
X144092889Y-96478586D01*
X144246028Y-96376262D01*
X144376262Y-96246028D01*
X144478586Y-96092889D01*
X144549068Y-95922729D01*
X144585000Y-95742089D01*
X144585000Y-95557911D01*
X144549068Y-95377271D01*
X144478586Y-95207111D01*
X144376262Y-95053972D01*
X144246028Y-94923738D01*
X144092889Y-94821414D01*
X143922729Y-94750932D01*
X143801649Y-94726847D01*
X137180000Y-88105199D01*
X137180000Y-87777595D01*
X137249014Y-87740706D01*
X137475134Y-87555134D01*
X137660706Y-87329014D01*
X137690000Y-87274209D01*
X137719294Y-87329014D01*
X137904866Y-87555134D01*
X138130986Y-87740706D01*
X138388966Y-87878599D01*
X138668889Y-87963513D01*
X138887050Y-87985000D01*
X139032950Y-87985000D01*
X139251111Y-87963513D01*
X139531034Y-87878599D01*
X139789014Y-87740706D01*
X140015134Y-87555134D01*
X140039607Y-87525313D01*
X140060498Y-87594180D01*
X140119463Y-87704494D01*
X140198815Y-87801185D01*
X140295506Y-87880537D01*
X140405820Y-87939502D01*
X140525518Y-87975812D01*
X140650000Y-87988072D01*
X142350000Y-87988072D01*
X142474482Y-87975812D01*
X142594180Y-87939502D01*
X142704494Y-87880537D01*
X142779781Y-87818750D01*
X165661928Y-87818750D01*
X165661928Y-88306250D01*
X165678872Y-88478285D01*
X165729053Y-88643709D01*
X165810542Y-88796164D01*
X165920208Y-88929792D01*
X166005756Y-89000000D01*
X165920208Y-89070208D01*
X165810542Y-89203836D01*
X165729053Y-89356291D01*
X165678872Y-89521715D01*
X165661928Y-89693750D01*
X165661928Y-90181250D01*
X165678872Y-90353285D01*
X165729053Y-90518709D01*
X165810542Y-90671164D01*
X165920208Y-90804792D01*
X166053836Y-90914458D01*
X166206291Y-90995947D01*
X166371715Y-91046128D01*
X166543750Y-91063072D01*
X167050771Y-91063072D01*
X167265011Y-91277312D01*
X167265010Y-97874428D01*
X166543750Y-97874428D01*
X166371715Y-97891372D01*
X166206291Y-97941553D01*
X166053836Y-98023042D01*
X165920208Y-98132708D01*
X165810542Y-98266336D01*
X165729053Y-98418791D01*
X165678872Y-98584215D01*
X165661928Y-98756250D01*
X165661928Y-99243750D01*
X165678872Y-99415785D01*
X165729053Y-99581209D01*
X165810542Y-99733664D01*
X165920208Y-99867292D01*
X166005756Y-99937500D01*
X165920208Y-100007708D01*
X165810542Y-100141336D01*
X165729053Y-100293791D01*
X165678872Y-100459215D01*
X165661928Y-100631250D01*
X165661928Y-101118750D01*
X165678872Y-101290785D01*
X165729053Y-101456209D01*
X165810542Y-101608664D01*
X165920208Y-101742292D01*
X166053836Y-101851958D01*
X166206291Y-101933447D01*
X166371715Y-101983628D01*
X166543750Y-102000572D01*
X167050770Y-102000572D01*
X167265010Y-102214812D01*
X167265011Y-108436928D01*
X166543750Y-108436928D01*
X166371715Y-108453872D01*
X166206291Y-108504053D01*
X166053836Y-108585542D01*
X165920208Y-108695208D01*
X165810542Y-108828836D01*
X165729053Y-108981291D01*
X165678872Y-109146715D01*
X165661928Y-109318750D01*
X165661928Y-109806250D01*
X165678872Y-109978285D01*
X165729053Y-110143709D01*
X165810542Y-110296164D01*
X165920208Y-110429792D01*
X166005756Y-110500000D01*
X165920208Y-110570208D01*
X165810542Y-110703836D01*
X165729053Y-110856291D01*
X165678872Y-111021715D01*
X165661928Y-111193750D01*
X165661928Y-111681250D01*
X165678872Y-111853285D01*
X165729053Y-112018709D01*
X165810542Y-112171164D01*
X165920208Y-112304792D01*
X166053836Y-112414458D01*
X166206291Y-112495947D01*
X166371715Y-112546128D01*
X166543750Y-112563072D01*
X167456250Y-112563072D01*
X167628285Y-112546128D01*
X167793709Y-112495947D01*
X167946164Y-112414458D01*
X168079792Y-112304792D01*
X168189458Y-112171164D01*
X168270947Y-112018709D01*
X168321128Y-111853285D01*
X168338072Y-111681250D01*
X168338072Y-111193750D01*
X168336322Y-111175979D01*
X168536007Y-110976294D01*
X168565011Y-110952491D01*
X168625041Y-110879344D01*
X168659984Y-110836767D01*
X168730556Y-110704737D01*
X168740751Y-110671128D01*
X168774013Y-110561476D01*
X168785010Y-110449823D01*
X168785010Y-110449814D01*
X168788686Y-110412491D01*
X168785010Y-110375168D01*
X168785010Y-101937332D01*
X168788686Y-101900009D01*
X168785010Y-101862686D01*
X168785010Y-101862677D01*
X168774013Y-101751024D01*
X168730556Y-101607763D01*
X168716008Y-101580546D01*
X168659984Y-101475733D01*
X168588809Y-101389007D01*
X168565011Y-101360009D01*
X168536014Y-101336212D01*
X168336322Y-101136520D01*
X168338072Y-101118750D01*
X168338072Y-100631250D01*
X168336322Y-100613480D01*
X168536014Y-100413788D01*
X168565011Y-100389991D01*
X168610142Y-100334999D01*
X168659984Y-100274267D01*
X168730556Y-100142237D01*
X168732387Y-100136202D01*
X168774013Y-99998976D01*
X168785010Y-99887323D01*
X168785010Y-99887314D01*
X168788686Y-99849991D01*
X168785010Y-99812668D01*
X168785010Y-90999832D01*
X168788686Y-90962509D01*
X168785010Y-90925186D01*
X168785010Y-90925177D01*
X168774013Y-90813524D01*
X168730556Y-90670263D01*
X168706450Y-90625165D01*
X168659984Y-90538233D01*
X168623466Y-90493737D01*
X168565011Y-90422509D01*
X168536007Y-90398706D01*
X168336322Y-90199021D01*
X168338072Y-90181250D01*
X168338072Y-89693750D01*
X168321128Y-89521715D01*
X168270947Y-89356291D01*
X168189458Y-89203836D01*
X168079792Y-89070208D01*
X167994244Y-89000000D01*
X168079792Y-88929792D01*
X168189458Y-88796164D01*
X168270947Y-88643709D01*
X168321128Y-88478285D01*
X168338072Y-88306250D01*
X168338072Y-87818750D01*
X168321128Y-87646715D01*
X168270947Y-87481291D01*
X168189458Y-87328836D01*
X168079792Y-87195208D01*
X167946164Y-87085542D01*
X167793709Y-87004053D01*
X167628285Y-86953872D01*
X167456250Y-86936928D01*
X166543750Y-86936928D01*
X166371715Y-86953872D01*
X166206291Y-87004053D01*
X166053836Y-87085542D01*
X165920208Y-87195208D01*
X165810542Y-87328836D01*
X165729053Y-87481291D01*
X165678872Y-87646715D01*
X165661928Y-87818750D01*
X142779781Y-87818750D01*
X142801185Y-87801185D01*
X142880537Y-87704494D01*
X142939502Y-87594180D01*
X142975812Y-87474482D01*
X142988072Y-87350000D01*
X142988072Y-85710000D01*
X169290000Y-85710000D01*
X169290001Y-114290000D01*
X100710000Y-114290000D01*
X100710000Y-89312500D01*
X100986324Y-89312500D01*
X100990000Y-89349822D01*
X100990001Y-97837658D01*
X100986324Y-97874990D01*
X100990001Y-97912323D01*
X101000998Y-98023976D01*
X101013442Y-98065000D01*
X101044454Y-98167236D01*
X101115026Y-98299266D01*
X101177998Y-98375997D01*
X101210000Y-98414991D01*
X101238998Y-98438789D01*
X101663679Y-98863471D01*
X101661928Y-98881250D01*
X101661928Y-99368750D01*
X101663679Y-99386529D01*
X101238998Y-99811211D01*
X101210000Y-99835009D01*
X101186202Y-99864007D01*
X101186201Y-99864008D01*
X101115026Y-99950734D01*
X101044454Y-100082764D01*
X101026687Y-100141336D01*
X101000998Y-100226024D01*
X100992609Y-100311201D01*
X100986324Y-100375010D01*
X100990001Y-100412342D01*
X100990000Y-108275178D01*
X100986324Y-108312500D01*
X100990000Y-108349822D01*
X100990000Y-108349832D01*
X101000997Y-108461485D01*
X101006537Y-108479747D01*
X101044454Y-108604746D01*
X101115026Y-108736776D01*
X101154871Y-108785326D01*
X101209999Y-108852501D01*
X101239003Y-108876304D01*
X101663678Y-109300980D01*
X101661928Y-109318750D01*
X101661928Y-109806250D01*
X101678872Y-109978285D01*
X101729053Y-110143709D01*
X101810542Y-110296164D01*
X101920208Y-110429792D01*
X102005756Y-110500000D01*
X101920208Y-110570208D01*
X101810542Y-110703836D01*
X101729053Y-110856291D01*
X101678872Y-111021715D01*
X101661928Y-111193750D01*
X101661928Y-111681250D01*
X101678872Y-111853285D01*
X101729053Y-112018709D01*
X101810542Y-112171164D01*
X101920208Y-112304792D01*
X102053836Y-112414458D01*
X102206291Y-112495947D01*
X102371715Y-112546128D01*
X102543750Y-112563072D01*
X103456250Y-112563072D01*
X103628285Y-112546128D01*
X103793709Y-112495947D01*
X103946164Y-112414458D01*
X104079792Y-112304792D01*
X104189458Y-112171164D01*
X104270947Y-112018709D01*
X104321128Y-111853285D01*
X104338072Y-111681250D01*
X104338072Y-111193750D01*
X104336322Y-111175979D01*
X106761004Y-108751298D01*
X106790001Y-108727501D01*
X106884974Y-108611776D01*
X106955546Y-108479747D01*
X106999003Y-108336486D01*
X107010000Y-108224833D01*
X107010000Y-108224825D01*
X107013676Y-108187500D01*
X107010000Y-108150175D01*
X107010000Y-102795535D01*
X107078586Y-102692889D01*
X107149068Y-102522729D01*
X107185000Y-102342089D01*
X107185000Y-102157911D01*
X107149068Y-101977271D01*
X107078586Y-101807111D01*
X106976262Y-101653972D01*
X106846028Y-101523738D01*
X106692889Y-101421414D01*
X106522729Y-101350932D01*
X106342089Y-101315000D01*
X106157911Y-101315000D01*
X105977271Y-101350932D01*
X105807111Y-101421414D01*
X105653972Y-101523738D01*
X105523738Y-101653972D01*
X105421414Y-101807111D01*
X105350932Y-101977271D01*
X105315000Y-102157911D01*
X105315000Y-102342089D01*
X105350932Y-102522729D01*
X105421414Y-102692889D01*
X105490001Y-102795537D01*
X105490000Y-107872698D01*
X104296656Y-109066042D01*
X104270947Y-108981291D01*
X104189458Y-108828836D01*
X104079792Y-108695208D01*
X103946164Y-108585542D01*
X103793709Y-108504053D01*
X103628285Y-108453872D01*
X103456250Y-108436928D01*
X102949230Y-108436928D01*
X102510000Y-107997699D01*
X102510000Y-102122248D01*
X102543750Y-102125572D01*
X103456250Y-102125572D01*
X103628285Y-102108628D01*
X103793709Y-102058447D01*
X103946164Y-101976958D01*
X104079792Y-101867292D01*
X104189458Y-101733664D01*
X104270947Y-101581209D01*
X104321128Y-101415785D01*
X104338072Y-101243750D01*
X104338072Y-100756250D01*
X104336324Y-100738499D01*
X115667173Y-89407651D01*
X115671414Y-89417889D01*
X115773738Y-89571028D01*
X115903972Y-89701262D01*
X116057111Y-89803586D01*
X116227271Y-89874068D01*
X116407911Y-89910000D01*
X116592089Y-89910000D01*
X116772729Y-89874068D01*
X116942889Y-89803586D01*
X117096028Y-89701262D01*
X117226262Y-89571028D01*
X117328586Y-89417889D01*
X117399068Y-89247729D01*
X117426464Y-89110000D01*
X118819465Y-89110000D01*
X118922111Y-89178586D01*
X119092271Y-89249068D01*
X119272911Y-89285000D01*
X119457089Y-89285000D01*
X119637729Y-89249068D01*
X119807889Y-89178586D01*
X119961028Y-89076262D01*
X120091262Y-88946028D01*
X120193586Y-88792889D01*
X120264068Y-88622729D01*
X120300000Y-88442089D01*
X120300000Y-88257911D01*
X120264068Y-88077271D01*
X120193586Y-87907111D01*
X120091262Y-87753972D01*
X119961028Y-87623738D01*
X119807889Y-87521414D01*
X119637729Y-87450932D01*
X119457089Y-87415000D01*
X119272911Y-87415000D01*
X119092271Y-87450932D01*
X118922111Y-87521414D01*
X118819465Y-87590000D01*
X115687345Y-87590000D01*
X115650022Y-87586324D01*
X115612699Y-87590000D01*
X115612689Y-87590000D01*
X115501036Y-87600997D01*
X115378313Y-87638224D01*
X115357775Y-87644454D01*
X115225745Y-87715026D01*
X115158450Y-87770254D01*
X115110021Y-87809999D01*
X115086223Y-87838997D01*
X104296661Y-98628560D01*
X104270947Y-98543791D01*
X104189458Y-98391336D01*
X104079792Y-98257708D01*
X103946164Y-98148042D01*
X103793709Y-98066553D01*
X103628285Y-98016372D01*
X103456250Y-97999428D01*
X102949240Y-97999428D01*
X102510000Y-97560189D01*
X102510000Y-91059748D01*
X102543750Y-91063072D01*
X103456250Y-91063072D01*
X103628285Y-91046128D01*
X103793709Y-90995947D01*
X103946164Y-90914458D01*
X104079792Y-90804792D01*
X104189458Y-90671164D01*
X104270947Y-90518709D01*
X104321128Y-90353285D01*
X104338072Y-90181250D01*
X104338072Y-89693750D01*
X104321128Y-89521715D01*
X104270947Y-89356291D01*
X104189458Y-89203836D01*
X104079792Y-89070208D01*
X103994244Y-89000000D01*
X104079792Y-88929792D01*
X104189458Y-88796164D01*
X104270947Y-88643709D01*
X104321128Y-88478285D01*
X104338072Y-88306250D01*
X104338072Y-87818750D01*
X104321128Y-87646715D01*
X104270947Y-87481291D01*
X104189458Y-87328836D01*
X104079792Y-87195208D01*
X103946164Y-87085542D01*
X103793709Y-87004053D01*
X103628285Y-86953872D01*
X103456250Y-86936928D01*
X102543750Y-86936928D01*
X102371715Y-86953872D01*
X102206291Y-87004053D01*
X102053836Y-87085542D01*
X101920208Y-87195208D01*
X101810542Y-87328836D01*
X101729053Y-87481291D01*
X101678872Y-87646715D01*
X101661928Y-87818750D01*
X101661928Y-88306250D01*
X101663678Y-88324020D01*
X101239003Y-88748696D01*
X101209999Y-88772499D01*
X101168965Y-88822500D01*
X101115026Y-88888224D01*
X101076660Y-88960001D01*
X101044454Y-89020254D01*
X101000997Y-89163515D01*
X100990000Y-89275168D01*
X100990000Y-89275178D01*
X100986324Y-89312500D01*
X100710000Y-89312500D01*
X100710000Y-85710000D01*
X127550405Y-85710000D01*
X127455843Y-85868748D01*
M02*
