M48
; DRILL file {KiCad (5.1.4)-1} date 2/13/2020 12:02:49 AM
; FORMAT={-:-/ absolute / inch / decimal}
; #@! TF.CreationDate,2020-02-13T00:02:49-05:00
; #@! TF.GenerationSoftware,Kicad,Pcbnew,(5.1.4)-1
; #@! TF.FileFunction,Plated,1,2,PTH
FMAT,2
INCH
T1C0.0157
T2C0.0394
%
G90
G05
T1
X4.0551Y-3.5408
X4.0551Y-3.9026
X4.0551Y-3.9764
X4.1831Y-4.0256
X4.5866Y-3.503
X4.6494Y-3.7657
X4.685Y-3.6614
X4.6994Y-3.4783
X4.6994Y-3.7657
X4.7539Y-3.6614
X4.811Y-4.1142
X4.813Y-3.6614
X4.8819Y-3.4843
X5.6555Y-3.7657
X5.8189Y-4.1142
X6.5748Y-3.467
X6.5748Y-3.8976
X6.5748Y-3.9715
X6.5748Y-4.3135
T2
X5.0709Y-3.4055
X5.1709Y-3.4055
X5.2709Y-3.4055
X5.3709Y-3.4055
X5.4709Y-3.4055
X5.5709Y-3.4055
T0
M30
