G04 #@! TF.GenerationSoftware,KiCad,Pcbnew,(5.1.4)-1*
G04 #@! TF.CreationDate,2020-02-13T00:02:55-05:00*
G04 #@! TF.ProjectId,enemies,656e656d-6965-4732-9e6b-696361645f70,rev?*
G04 #@! TF.SameCoordinates,Original*
G04 #@! TF.FileFunction,Legend,Top*
G04 #@! TF.FilePolarity,Positive*
%FSLAX46Y46*%
G04 Gerber Fmt 4.6, Leading zero omitted, Abs format (unit mm)*
G04 Created by KiCad (PCBNEW (5.1.4)-1) date 2020-02-13 00:02:55*
%MOMM*%
%LPD*%
G04 APERTURE LIST*
%ADD10C,0.120000*%
%ADD11C,0.010000*%
G04 APERTURE END LIST*
D10*
X103960000Y-101747500D02*
X103960000Y-99062500D01*
X102040000Y-101747500D02*
X103960000Y-101747500D01*
X102040000Y-99062500D02*
X102040000Y-101747500D01*
X166040000Y-98252500D02*
X166040000Y-100937500D01*
X167960000Y-98252500D02*
X166040000Y-98252500D01*
X167960000Y-100937500D02*
X167960000Y-98252500D01*
X166040000Y-108815000D02*
X166040000Y-111500000D01*
X167960000Y-108815000D02*
X166040000Y-108815000D01*
X167960000Y-111500000D02*
X167960000Y-108815000D01*
X103960000Y-90685000D02*
X103960000Y-88000000D01*
X102040000Y-90685000D02*
X103960000Y-90685000D01*
X102040000Y-88000000D02*
X102040000Y-90685000D01*
X103960000Y-112185000D02*
X103960000Y-109500000D01*
X102040000Y-112185000D02*
X103960000Y-112185000D01*
X102040000Y-109500000D02*
X102040000Y-112185000D01*
X166040000Y-87315000D02*
X166040000Y-90000000D01*
X167960000Y-87315000D02*
X166040000Y-87315000D01*
X167960000Y-90000000D02*
X167960000Y-87315000D01*
D11*
G36*
X106852334Y-89628333D02*
G01*
X104312334Y-89628333D01*
X104312334Y-109906000D01*
X106852334Y-109906000D01*
X106852334Y-112488333D01*
X101730000Y-112488333D01*
X101730000Y-87046000D01*
X106852334Y-87046000D01*
X106852334Y-89628333D01*
X106852334Y-89628333D01*
G37*
X106852334Y-89628333D02*
X104312334Y-89628333D01*
X104312334Y-109906000D01*
X106852334Y-109906000D01*
X106852334Y-112488333D01*
X101730000Y-112488333D01*
X101730000Y-87046000D01*
X106852334Y-87046000D01*
X106852334Y-89628333D01*
G36*
X168024000Y-112488333D02*
G01*
X162900425Y-112488333D01*
X162911629Y-111207750D01*
X162922834Y-109927166D01*
X164182250Y-109915953D01*
X165441667Y-109904740D01*
X165441667Y-89628333D01*
X162901667Y-89628333D01*
X162901667Y-87046000D01*
X168024000Y-87046000D01*
X168024000Y-112488333D01*
X168024000Y-112488333D01*
G37*
X168024000Y-112488333D02*
X162900425Y-112488333D01*
X162911629Y-111207750D01*
X162922834Y-109927166D01*
X164182250Y-109915953D01*
X165441667Y-109904740D01*
X165441667Y-89628333D01*
X162901667Y-89628333D01*
X162901667Y-87046000D01*
X168024000Y-87046000D01*
X168024000Y-112488333D01*
G36*
X133447502Y-92692591D02*
G01*
X133792439Y-92745182D01*
X134088191Y-92839833D01*
X134349633Y-92982271D01*
X134591643Y-93178224D01*
X134740695Y-93331581D01*
X134886918Y-93475880D01*
X135011840Y-93556638D01*
X135088667Y-93580594D01*
X135219107Y-93610146D01*
X135379690Y-93653407D01*
X135452516Y-93675142D01*
X135570753Y-93708538D01*
X135663517Y-93719842D01*
X135762417Y-93707575D01*
X135899065Y-93670258D01*
X135960516Y-93651360D01*
X136152203Y-93603158D01*
X136381061Y-93561871D01*
X136599607Y-93535969D01*
X136612667Y-93534995D01*
X136792973Y-93519746D01*
X136915576Y-93498981D01*
X137007363Y-93463622D01*
X137095222Y-93404591D01*
X137163000Y-93349194D01*
X137476721Y-93140603D01*
X137843025Y-92997986D01*
X138221039Y-92925884D01*
X138665852Y-92905875D01*
X139084401Y-92945554D01*
X139464909Y-93042411D01*
X139795601Y-93193935D01*
X139943424Y-93293085D01*
X140081586Y-93398467D01*
X140305043Y-93250285D01*
X140660989Y-93064917D01*
X141063231Y-92949721D01*
X141510271Y-92904985D01*
X141984453Y-92929086D01*
X142372820Y-93009537D01*
X142721972Y-93153432D01*
X143018801Y-93355161D01*
X143054937Y-93387241D01*
X143237834Y-93555052D01*
X144652406Y-93539722D01*
X145066816Y-93536025D01*
X145405872Y-93534965D01*
X145678851Y-93536791D01*
X145895031Y-93541753D01*
X146063691Y-93550098D01*
X146194109Y-93562077D01*
X146295563Y-93577937D01*
X146326742Y-93584635D01*
X146546579Y-93620452D01*
X146722900Y-93612445D01*
X146753670Y-93606116D01*
X146926801Y-93581085D01*
X147154839Y-93568778D01*
X147409061Y-93568687D01*
X147660749Y-93580306D01*
X147881180Y-93603129D01*
X148012700Y-93628319D01*
X148162076Y-93661824D01*
X148282327Y-93669624D01*
X148415759Y-93651774D01*
X148519011Y-93628945D01*
X148700700Y-93598825D01*
X148931624Y-93578608D01*
X149184510Y-93568833D01*
X149432086Y-93570041D01*
X149647079Y-93582773D01*
X149787099Y-93603808D01*
X149985309Y-93615954D01*
X150210432Y-93583118D01*
X150392431Y-93551264D01*
X150578407Y-93529868D01*
X150683163Y-93524487D01*
X150802586Y-93518380D01*
X150887501Y-93491756D01*
X150967717Y-93428992D01*
X151063811Y-93324964D01*
X151316121Y-93090089D01*
X151615496Y-92894900D01*
X151931280Y-92758659D01*
X151995011Y-92739827D01*
X152140713Y-92706902D01*
X152297444Y-92686982D01*
X152487109Y-92678573D01*
X152731615Y-92680183D01*
X152832422Y-92682786D01*
X153064335Y-92690510D01*
X153233315Y-92700663D01*
X153361081Y-92717442D01*
X153469347Y-92745041D01*
X153579831Y-92787657D01*
X153714250Y-92849484D01*
X153727307Y-92855680D01*
X154071490Y-93063455D01*
X154363219Y-93330756D01*
X154594380Y-93647413D01*
X154756859Y-94003257D01*
X154815647Y-94219798D01*
X154828853Y-94327717D01*
X154839158Y-94511259D01*
X154846587Y-94772037D01*
X154851166Y-95111660D01*
X154852921Y-95531739D01*
X154851877Y-96033885D01*
X154849975Y-96366923D01*
X154846754Y-96820666D01*
X154843585Y-97197900D01*
X154840064Y-97506781D01*
X154835789Y-97755464D01*
X154830354Y-97952105D01*
X154823358Y-98104861D01*
X154814395Y-98221887D01*
X154803062Y-98311339D01*
X154788956Y-98381374D01*
X154771673Y-98440147D01*
X154750808Y-98495815D01*
X154743728Y-98513280D01*
X154670607Y-98674112D01*
X154587864Y-98830581D01*
X154546667Y-98898110D01*
X154442736Y-99055161D01*
X154703452Y-99110801D01*
X154863038Y-99141053D01*
X155006835Y-99157011D01*
X155160791Y-99159240D01*
X155350851Y-99148308D01*
X155556834Y-99129422D01*
X155853167Y-99099900D01*
X156099565Y-98831122D01*
X156390640Y-98573103D01*
X156731349Y-98372134D01*
X157099907Y-98240290D01*
X157207834Y-98216903D01*
X157437198Y-98191436D01*
X157709518Y-98186987D01*
X157995457Y-98201746D01*
X158265677Y-98233901D01*
X158490842Y-98281642D01*
X158547726Y-98299611D01*
X158874691Y-98446932D01*
X159163139Y-98640316D01*
X159393826Y-98866033D01*
X159455345Y-98947214D01*
X159568848Y-99111000D01*
X160127863Y-99111000D01*
X160433607Y-99117004D01*
X160679566Y-99134446D01*
X160854827Y-99162470D01*
X160884105Y-99170356D01*
X161025369Y-99204501D01*
X161141503Y-99203894D01*
X161278562Y-99170356D01*
X161461473Y-99134326D01*
X161702496Y-99113529D01*
X161976538Y-99107548D01*
X162258501Y-99115967D01*
X162523291Y-99138368D01*
X162745813Y-99174336D01*
X162829665Y-99196119D01*
X163175066Y-99345326D01*
X163479830Y-99560963D01*
X163736990Y-99831773D01*
X163939579Y-100146501D01*
X164080632Y-100493892D01*
X164153182Y-100862691D01*
X164150261Y-101241644D01*
X164140578Y-101314002D01*
X164113657Y-101422352D01*
X164057854Y-101597564D01*
X163977519Y-101828630D01*
X163877004Y-102104541D01*
X163760661Y-102414288D01*
X163632841Y-102746864D01*
X163497896Y-103091259D01*
X163360176Y-103436464D01*
X163224035Y-103771471D01*
X163093823Y-104085272D01*
X162973892Y-104366857D01*
X162868593Y-104605219D01*
X162782278Y-104789348D01*
X162720861Y-104905633D01*
X162447082Y-105285491D01*
X162116824Y-105608137D01*
X161739135Y-105866949D01*
X161323063Y-106055308D01*
X161039000Y-106136230D01*
X160892581Y-106157099D01*
X160691432Y-106170213D01*
X160457827Y-106175806D01*
X160214041Y-106174115D01*
X159982348Y-106165375D01*
X159785024Y-106149822D01*
X159644343Y-106127692D01*
X159620834Y-106121223D01*
X159246047Y-105960404D01*
X158910659Y-105732405D01*
X158780330Y-105613489D01*
X158687280Y-105523949D01*
X158602305Y-105456503D01*
X158511237Y-105407487D01*
X158399909Y-105373235D01*
X158254155Y-105350082D01*
X158059807Y-105334362D01*
X157802698Y-105322411D01*
X157631167Y-105316177D01*
X157426857Y-105304693D01*
X157233224Y-105286275D01*
X157079904Y-105264049D01*
X157027917Y-105252565D01*
X156856897Y-105225020D01*
X156689483Y-105247944D01*
X156668084Y-105253679D01*
X156570480Y-105269480D01*
X156398923Y-105284811D01*
X156164127Y-105299081D01*
X155876806Y-105311698D01*
X155547673Y-105322071D01*
X155345167Y-105326757D01*
X154877312Y-105335888D01*
X154485753Y-105342557D01*
X154162147Y-105346577D01*
X153898152Y-105347762D01*
X153685429Y-105345922D01*
X153515635Y-105340872D01*
X153380429Y-105332424D01*
X153271470Y-105320389D01*
X153180417Y-105304581D01*
X153098927Y-105284812D01*
X153066428Y-105275543D01*
X152936108Y-105239870D01*
X152834747Y-105224644D01*
X152730960Y-105230051D01*
X152593361Y-105256279D01*
X152494928Y-105278934D01*
X152238498Y-105322370D01*
X151933783Y-105347841D01*
X151607545Y-105355387D01*
X151286545Y-105345047D01*
X150997544Y-105316862D01*
X150787407Y-105276399D01*
X150621063Y-105237064D01*
X150501029Y-105224210D01*
X150393728Y-105236276D01*
X150321740Y-105254756D01*
X150201266Y-105276293D01*
X150024063Y-105291754D01*
X149811369Y-105301047D01*
X149584425Y-105304078D01*
X149364470Y-105300755D01*
X149172744Y-105290984D01*
X149030487Y-105274673D01*
X148974930Y-105260648D01*
X148817553Y-105243133D01*
X148720930Y-105263059D01*
X148617979Y-105280963D01*
X148454638Y-105295455D01*
X148255164Y-105304841D01*
X148085000Y-105307534D01*
X147705285Y-105292318D01*
X147387167Y-105243298D01*
X147113149Y-105156884D01*
X146937919Y-105072060D01*
X146785670Y-104987051D01*
X146408752Y-105116291D01*
X145863860Y-105268581D01*
X145325369Y-105351751D01*
X144803385Y-105365587D01*
X144308013Y-105309875D01*
X143849356Y-105184402D01*
X143814171Y-105171198D01*
X143676816Y-105123021D01*
X143586757Y-105107764D01*
X143514453Y-105122788D01*
X143475505Y-105140946D01*
X143374252Y-105187468D01*
X143262492Y-105224920D01*
X143129351Y-105254537D01*
X142963957Y-105277557D01*
X142755437Y-105295215D01*
X142492918Y-105308747D01*
X142165528Y-105319391D01*
X141840834Y-105326834D01*
X141378993Y-105335850D01*
X140993201Y-105342460D01*
X140674867Y-105346476D01*
X140415401Y-105347708D01*
X140206214Y-105345969D01*
X140038715Y-105341069D01*
X139904316Y-105332820D01*
X139794426Y-105321035D01*
X139700456Y-105305523D01*
X139613815Y-105286096D01*
X139579277Y-105277185D01*
X139396242Y-105218707D01*
X139194028Y-105138614D01*
X138997888Y-105048483D01*
X138833075Y-104959895D01*
X138726990Y-104886363D01*
X138687172Y-104863953D01*
X138630692Y-104865216D01*
X138541768Y-104894820D01*
X138404620Y-104957436D01*
X138282490Y-105017873D01*
X138082151Y-105111223D01*
X137872136Y-105197381D01*
X137687427Y-105262362D01*
X137628667Y-105279241D01*
X137426819Y-105315501D01*
X137166215Y-105339161D01*
X136871837Y-105350114D01*
X136568670Y-105348250D01*
X136281696Y-105333461D01*
X136035899Y-105305638D01*
X135935334Y-105286597D01*
X135768592Y-105253607D01*
X135642307Y-105245711D01*
X135516142Y-105262685D01*
X135427334Y-105283784D01*
X135228033Y-105318782D01*
X134970036Y-105340825D01*
X134678295Y-105350044D01*
X134377763Y-105346570D01*
X134093391Y-105330533D01*
X133850133Y-105302066D01*
X133717662Y-105274808D01*
X133550178Y-105234368D01*
X133431386Y-105219865D01*
X133329936Y-105229640D01*
X133251995Y-105250179D01*
X133148511Y-105268445D01*
X132975975Y-105284171D01*
X132749972Y-105297106D01*
X132486084Y-105307000D01*
X132199897Y-105313602D01*
X131906994Y-105316662D01*
X131622960Y-105315930D01*
X131363377Y-105311154D01*
X131143830Y-105302085D01*
X130979904Y-105288471D01*
X130967520Y-105286897D01*
X130610815Y-105271247D01*
X130304013Y-105296342D01*
X129983309Y-105322237D01*
X129669830Y-105311612D01*
X129547138Y-105298918D01*
X129198999Y-105274948D01*
X128860178Y-105291653D01*
X128786548Y-105300039D01*
X128466325Y-105324739D01*
X128163841Y-105312992D01*
X128051001Y-105300234D01*
X127837687Y-105278788D01*
X127650480Y-105277110D01*
X127448427Y-105296243D01*
X127294931Y-105319474D01*
X126900640Y-105359925D01*
X126485600Y-105359593D01*
X126085265Y-105319754D01*
X125823003Y-105266540D01*
X125644801Y-105227967D01*
X125512727Y-105220583D01*
X125399670Y-105241106D01*
X125168312Y-105287931D01*
X124887555Y-105314293D01*
X124590530Y-105318624D01*
X124310367Y-105299358D01*
X124272500Y-105294427D01*
X124029724Y-105270872D01*
X123788802Y-105272295D01*
X123524709Y-105296684D01*
X123229820Y-105322392D01*
X122968011Y-105320453D01*
X122758307Y-105300102D01*
X122545189Y-105278728D01*
X122357768Y-105277167D01*
X122155124Y-105296467D01*
X122003265Y-105319474D01*
X121456628Y-105369767D01*
X120923007Y-105339953D01*
X120409563Y-105231040D01*
X119923455Y-105044038D01*
X119872947Y-105019240D01*
X119522460Y-104843338D01*
X119316485Y-104982461D01*
X119000956Y-105148688D01*
X118633499Y-105261447D01*
X118230138Y-105317776D01*
X117806898Y-105314714D01*
X117626167Y-105294878D01*
X117386730Y-105271118D01*
X117150464Y-105271820D01*
X116878376Y-105296684D01*
X116583486Y-105322392D01*
X116321678Y-105320453D01*
X116111974Y-105300102D01*
X115898856Y-105278728D01*
X115711434Y-105277167D01*
X115508791Y-105296467D01*
X115356931Y-105319474D01*
X114988397Y-105358558D01*
X114599964Y-105362111D01*
X114224586Y-105331281D01*
X113900834Y-105268733D01*
X113735319Y-105231044D01*
X113605141Y-105223059D01*
X113466940Y-105243240D01*
X113428277Y-105251983D01*
X113280276Y-105276299D01*
X113084834Y-105294430D01*
X112879127Y-105303147D01*
X112835610Y-105303481D01*
X112625642Y-105303357D01*
X112371240Y-105302972D01*
X112112634Y-105302395D01*
X111985250Y-105302027D01*
X111750663Y-105301377D01*
X111507722Y-105300866D01*
X111292247Y-105300563D01*
X111191500Y-105300509D01*
X110792246Y-105300535D01*
X110461398Y-105300635D01*
X110182694Y-105300842D01*
X109939874Y-105301192D01*
X109716675Y-105301716D01*
X109496838Y-105302451D01*
X109264101Y-105303428D01*
X109002202Y-105304682D01*
X108873750Y-105305329D01*
X108500461Y-105306363D01*
X108200388Y-105304816D01*
X107962100Y-105300030D01*
X107774168Y-105291345D01*
X107625163Y-105278102D01*
X107503655Y-105259644D01*
X107398213Y-105235311D01*
X107334757Y-105216626D01*
X107001896Y-105072787D01*
X106694984Y-104865877D01*
X106431046Y-104610676D01*
X106227109Y-104321962D01*
X106167508Y-104203459D01*
X106126823Y-104093419D01*
X106070468Y-103914189D01*
X106001830Y-103678910D01*
X105924293Y-103400726D01*
X105841243Y-103092782D01*
X105756067Y-102768220D01*
X105672150Y-102440184D01*
X105592876Y-102121818D01*
X105521633Y-101826264D01*
X105461804Y-101566667D01*
X105416777Y-101356169D01*
X105389937Y-101207915D01*
X105384623Y-101164166D01*
X105387022Y-101074767D01*
X107360334Y-101074767D01*
X107370590Y-101118453D01*
X107399073Y-101230911D01*
X107442359Y-101399064D01*
X107497021Y-101609835D01*
X107559632Y-101850145D01*
X107626767Y-102106916D01*
X107694999Y-102367071D01*
X107760903Y-102617532D01*
X107821052Y-102845221D01*
X107872020Y-103037059D01*
X107910381Y-103179970D01*
X107932709Y-103260876D01*
X107935500Y-103270250D01*
X107972229Y-103317890D01*
X108056910Y-103340191D01*
X108161689Y-103344333D01*
X108364672Y-103344333D01*
X108613799Y-102393829D01*
X108685330Y-102126502D01*
X108751221Y-101890780D01*
X108808181Y-101697603D01*
X108852915Y-101557916D01*
X108882130Y-101482659D01*
X108890936Y-101473079D01*
X108909470Y-101521360D01*
X108945117Y-101639070D01*
X108994323Y-101813535D01*
X109053535Y-102032076D01*
X109119200Y-102282019D01*
X109136613Y-102349500D01*
X109203417Y-102608830D01*
X109264083Y-102843360D01*
X109315090Y-103039556D01*
X109352918Y-103183886D01*
X109374047Y-103262818D01*
X109376160Y-103270250D01*
X109410900Y-103317293D01*
X109492421Y-103339695D01*
X109605221Y-103344333D01*
X109729828Y-103340953D01*
X109796409Y-103319476D01*
X109831598Y-103262894D01*
X109853829Y-103185583D01*
X109876599Y-103098250D01*
X109916931Y-102943484D01*
X109971048Y-102735786D01*
X110035170Y-102489655D01*
X110105521Y-102219593D01*
X110132331Y-102116666D01*
X110202458Y-101847944D01*
X110266392Y-101603911D01*
X110320723Y-101397502D01*
X110362042Y-101241654D01*
X110386939Y-101149303D01*
X110391723Y-101132416D01*
X110392684Y-101084601D01*
X110344673Y-101063001D01*
X110243485Y-101058333D01*
X110132286Y-101064525D01*
X110074950Y-101098431D01*
X110040804Y-101183043D01*
X110031706Y-101217083D01*
X109932714Y-101596583D01*
X109841983Y-101941074D01*
X109761596Y-102242857D01*
X109693637Y-102494233D01*
X109640189Y-102687504D01*
X109603335Y-102814972D01*
X109585158Y-102868938D01*
X109584405Y-102870039D01*
X109564299Y-102844935D01*
X109534798Y-102761365D01*
X109524457Y-102724189D01*
X109499591Y-102629818D01*
X109457570Y-102470771D01*
X109402934Y-102264214D01*
X109340223Y-102027311D01*
X109288841Y-101833327D01*
X109226693Y-101597496D01*
X109172872Y-101390854D01*
X109130857Y-101226949D01*
X109104124Y-101119328D01*
X109096000Y-101081910D01*
X109057919Y-101068412D01*
X108960630Y-101059881D01*
X108885965Y-101058333D01*
X108760315Y-101061581D01*
X108692894Y-101082427D01*
X108657270Y-101137526D01*
X108634002Y-101217083D01*
X108609641Y-101309631D01*
X108568253Y-101467197D01*
X108514269Y-101672896D01*
X108452122Y-101909842D01*
X108398574Y-102114102D01*
X108335704Y-102351379D01*
X108279412Y-102558947D01*
X108233423Y-102723466D01*
X108201460Y-102831595D01*
X108187652Y-102869792D01*
X108167395Y-102844849D01*
X108137812Y-102761383D01*
X108127457Y-102724189D01*
X108102591Y-102629818D01*
X108060570Y-102470771D01*
X108005934Y-102264214D01*
X107943223Y-102027311D01*
X107891841Y-101833327D01*
X107829693Y-101597496D01*
X107775872Y-101390854D01*
X107733857Y-101226949D01*
X107707124Y-101119328D01*
X107699000Y-101081910D01*
X107661407Y-101067139D01*
X107567505Y-101058930D01*
X107529667Y-101058333D01*
X107423573Y-101061982D01*
X107364617Y-101071098D01*
X107360334Y-101074767D01*
X105387022Y-101074767D01*
X105394767Y-100786293D01*
X105483390Y-100411856D01*
X105593827Y-100169333D01*
X111001000Y-100169333D01*
X111001000Y-103344333D01*
X111382000Y-103344333D01*
X111382158Y-102550583D01*
X111384134Y-102235555D01*
X111392110Y-101992774D01*
X111409373Y-101809863D01*
X111439209Y-101674446D01*
X111484905Y-101574147D01*
X111549746Y-101496588D01*
X111637020Y-101429395D01*
X111688530Y-101396771D01*
X111841999Y-101336841D01*
X112024943Y-101312882D01*
X112203239Y-101325687D01*
X112342767Y-101376050D01*
X112350719Y-101381365D01*
X112420802Y-101440439D01*
X112474265Y-101514479D01*
X112513252Y-101614939D01*
X112539908Y-101753274D01*
X112556375Y-101940937D01*
X112564799Y-102189383D01*
X112567322Y-102510066D01*
X112567334Y-102538640D01*
X112567334Y-103344333D01*
X112906000Y-103344333D01*
X112905070Y-102487083D01*
X112903909Y-102201333D01*
X113568010Y-102201333D01*
X113574773Y-102384054D01*
X113594290Y-102557336D01*
X113622184Y-102683116D01*
X113726734Y-102882699D01*
X113891556Y-103073800D01*
X114093723Y-103232239D01*
X114197167Y-103289527D01*
X114308485Y-103337888D01*
X114411117Y-103366340D01*
X114531371Y-103378490D01*
X114695556Y-103377945D01*
X114811000Y-103373673D01*
X115009856Y-103359658D01*
X115197007Y-103336847D01*
X115342175Y-103309273D01*
X115382500Y-103297538D01*
X115491937Y-103251002D01*
X115543936Y-103193872D01*
X115563580Y-103096614D01*
X115564783Y-103082917D01*
X115577733Y-102927335D01*
X115353117Y-103014672D01*
X115131189Y-103075954D01*
X114882802Y-103104830D01*
X114637272Y-103100889D01*
X114423915Y-103063720D01*
X114330972Y-103028998D01*
X114155593Y-102899775D01*
X114021268Y-102712189D01*
X113943547Y-102488613D01*
X113939610Y-102465916D01*
X113911179Y-102286000D01*
X115669043Y-102286000D01*
X115648531Y-102000250D01*
X115592239Y-101691188D01*
X115474892Y-101433272D01*
X115302132Y-101232233D01*
X115079602Y-101093803D01*
X114944653Y-101058333D01*
X116292667Y-101058333D01*
X116292667Y-103344333D01*
X116673667Y-103344333D01*
X116673825Y-102550583D01*
X116675801Y-102235555D01*
X116683777Y-101992774D01*
X116701040Y-101809863D01*
X116730876Y-101674446D01*
X116776572Y-101574147D01*
X116841413Y-101496588D01*
X116928687Y-101429395D01*
X116980197Y-101396771D01*
X117133665Y-101336841D01*
X117316609Y-101312882D01*
X117494906Y-101325687D01*
X117634433Y-101376050D01*
X117642386Y-101381365D01*
X117712469Y-101440439D01*
X117765932Y-101514479D01*
X117804919Y-101614939D01*
X117831574Y-101753274D01*
X117848042Y-101940937D01*
X117856465Y-102189383D01*
X117858989Y-102510066D01*
X117859000Y-102538640D01*
X117859000Y-103344333D01*
X118197667Y-103344333D01*
X118196737Y-102487083D01*
X118195919Y-102285646D01*
X120211868Y-102285646D01*
X120239087Y-102546681D01*
X120286037Y-102718736D01*
X120380163Y-102887190D01*
X120523975Y-103058412D01*
X120692718Y-103208203D01*
X120861635Y-103312358D01*
X120914305Y-103332947D01*
X121082960Y-103365496D01*
X121303019Y-103378709D01*
X121543626Y-103373298D01*
X121773926Y-103349972D01*
X121963062Y-103309442D01*
X121965334Y-103308737D01*
X122097198Y-103264068D01*
X122168350Y-103222852D01*
X122199602Y-103165697D01*
X122211239Y-103079610D01*
X122224311Y-102923240D01*
X122081072Y-102983089D01*
X121962459Y-103022190D01*
X121799025Y-103063301D01*
X121655548Y-103092096D01*
X121365267Y-103114277D01*
X121104248Y-103078452D01*
X120889103Y-102987471D01*
X120838673Y-102951972D01*
X120729887Y-102829400D01*
X120636993Y-102661350D01*
X120579169Y-102486945D01*
X120569263Y-102402416D01*
X120568334Y-102286000D01*
X122304000Y-102286000D01*
X122304000Y-102103183D01*
X122267855Y-101789419D01*
X122165113Y-101519916D01*
X122004316Y-101301129D01*
X121794006Y-101139511D01*
X121585854Y-101058333D01*
X122939000Y-101058333D01*
X122939000Y-103344333D01*
X123268384Y-103344333D01*
X123285423Y-102571750D01*
X123293688Y-102268011D01*
X123305433Y-102035353D01*
X123323832Y-101860189D01*
X123352059Y-101728932D01*
X123393290Y-101627996D01*
X123450699Y-101543796D01*
X123527459Y-101462744D01*
X123549391Y-101441992D01*
X123674282Y-101370779D01*
X123846318Y-101327852D01*
X124031610Y-101316972D01*
X124196266Y-101341902D01*
X124251334Y-101364070D01*
X124332291Y-101416112D01*
X124394349Y-101484314D01*
X124439908Y-101579692D01*
X124471369Y-101713261D01*
X124491133Y-101896039D01*
X124501600Y-102139041D01*
X124505170Y-102453285D01*
X124505268Y-102529416D01*
X124505334Y-103344333D01*
X124844000Y-103344333D01*
X124843764Y-102529416D01*
X124841440Y-102263839D01*
X124840354Y-102221444D01*
X125504322Y-102221444D01*
X125515761Y-102463206D01*
X125553892Y-102664107D01*
X125560033Y-102683116D01*
X125665281Y-102883660D01*
X125830618Y-103074584D01*
X126032773Y-103231451D01*
X126135167Y-103287062D01*
X126350647Y-103353860D01*
X126614167Y-103384083D01*
X126897144Y-103377177D01*
X127170998Y-103332592D01*
X127257000Y-103308737D01*
X127388936Y-103263983D01*
X127460115Y-103222680D01*
X127491351Y-103165598D01*
X127502783Y-103081657D01*
X127515733Y-102927335D01*
X127312283Y-103003577D01*
X126996577Y-103090778D01*
X126692997Y-103115318D01*
X126416249Y-103077837D01*
X126181036Y-102978977D01*
X126141205Y-102952561D01*
X126027901Y-102834184D01*
X125931730Y-102668459D01*
X125871696Y-102492685D01*
X125860930Y-102402416D01*
X125860000Y-102286000D01*
X127607947Y-102286000D01*
X127583418Y-101993425D01*
X127523834Y-101681103D01*
X127404899Y-101423007D01*
X127231379Y-101223958D01*
X127008036Y-101088778D01*
X126885140Y-101058333D01*
X128230667Y-101058333D01*
X128230667Y-103344333D01*
X128558990Y-103344333D01*
X128577438Y-102571750D01*
X128586299Y-102267412D01*
X128598541Y-102034196D01*
X128617324Y-101858558D01*
X128645809Y-101726952D01*
X128687157Y-101625834D01*
X128744527Y-101541659D01*
X128821081Y-101460882D01*
X128841058Y-101441992D01*
X128938694Y-101374184D01*
X129067620Y-101335963D01*
X129201963Y-101320701D01*
X129349326Y-101314415D01*
X129442804Y-101327117D01*
X129512374Y-101366152D01*
X129557734Y-101407884D01*
X129623210Y-101487150D01*
X129672919Y-101584838D01*
X129708834Y-101712842D01*
X129732930Y-101883056D01*
X129747181Y-102107372D01*
X129753561Y-102397685D01*
X129754431Y-102592916D01*
X129754667Y-103344333D01*
X130086860Y-103344333D01*
X130100680Y-102527406D01*
X130107278Y-102216136D01*
X130117363Y-101977246D01*
X130134208Y-101798449D01*
X130161091Y-101667460D01*
X130201287Y-101571991D01*
X130258071Y-101499757D01*
X130334719Y-101438471D01*
X130402550Y-101395137D01*
X130558874Y-101334466D01*
X130740434Y-101313957D01*
X130912141Y-101334392D01*
X131019719Y-101381365D01*
X131089802Y-101440439D01*
X131143265Y-101514479D01*
X131182252Y-101614939D01*
X131208908Y-101753274D01*
X131225375Y-101940937D01*
X131233799Y-102189383D01*
X131236322Y-102510066D01*
X131236334Y-102538640D01*
X131236334Y-103344333D01*
X131575000Y-103344333D01*
X131575000Y-102484811D01*
X131574645Y-102193438D01*
X131572645Y-101972981D01*
X131567596Y-101809690D01*
X131558095Y-101689814D01*
X131542738Y-101599603D01*
X131520121Y-101525306D01*
X131488841Y-101453174D01*
X131464664Y-101403875D01*
X131326589Y-101209110D01*
X131147898Y-101080388D01*
X131074672Y-101058333D01*
X132379334Y-101058333D01*
X132379334Y-103344333D01*
X132718000Y-103344333D01*
X132718000Y-102222500D01*
X133417236Y-102222500D01*
X133420588Y-102415855D01*
X133433624Y-102553076D01*
X133462154Y-102662605D01*
X133511986Y-102772886D01*
X133540480Y-102825933D01*
X133718375Y-103071653D01*
X133944407Y-103248376D01*
X134104565Y-103322451D01*
X134274449Y-103360978D01*
X134496315Y-103378449D01*
X134740238Y-103375246D01*
X134976291Y-103351753D01*
X135173334Y-103308737D01*
X135305106Y-103264180D01*
X135376224Y-103223076D01*
X135407499Y-103165812D01*
X135417815Y-103088701D01*
X135977667Y-103088701D01*
X135983030Y-103194410D01*
X136014335Y-103251017D01*
X136094407Y-103285664D01*
X136157584Y-103302648D01*
X136277708Y-103335032D01*
X136363766Y-103360934D01*
X136379834Y-103366801D01*
X136438341Y-103373500D01*
X136560454Y-103376703D01*
X136725171Y-103376071D01*
X136825374Y-103373991D01*
X137041099Y-103363804D01*
X137194406Y-103344182D01*
X137307360Y-103311250D01*
X137375563Y-103277431D01*
X137557770Y-103127964D01*
X137673160Y-102937383D01*
X137696465Y-102811386D01*
X139587807Y-102811386D01*
X139655637Y-103023146D01*
X139787570Y-103200080D01*
X139978167Y-103326907D01*
X140119936Y-103364596D01*
X140306732Y-103382233D01*
X140501144Y-103379051D01*
X140665757Y-103354283D01*
X140705661Y-103341812D01*
X140806737Y-103285454D01*
X140927602Y-103193498D01*
X140983584Y-103142721D01*
X141142334Y-102988483D01*
X141142334Y-103344333D01*
X141481000Y-103344333D01*
X141481000Y-102547541D01*
X141478115Y-102203694D01*
X141467770Y-101932339D01*
X141447426Y-101721445D01*
X141414548Y-101558978D01*
X141366597Y-101432907D01*
X141301038Y-101331201D01*
X141215333Y-101241828D01*
X141203445Y-101231247D01*
X140990047Y-101099284D01*
X140836001Y-101058333D01*
X142327667Y-101058333D01*
X142327667Y-103344333D01*
X142666334Y-103344333D01*
X142666334Y-102591303D01*
X142667065Y-102317431D01*
X142667681Y-102278009D01*
X143815494Y-102278009D01*
X143819838Y-102349602D01*
X143881263Y-102656692D01*
X144009062Y-102921784D01*
X144196802Y-103135857D01*
X144438053Y-103289888D01*
X144511674Y-103320065D01*
X144687036Y-103360149D01*
X144913800Y-103378348D01*
X145161670Y-103374980D01*
X145400344Y-103350365D01*
X145587334Y-103308737D01*
X145719241Y-103264017D01*
X145790409Y-103222749D01*
X145821651Y-103165639D01*
X145833165Y-103080845D01*
X145846164Y-102925710D01*
X145600332Y-103013957D01*
X145383911Y-103071317D01*
X145145988Y-103101657D01*
X144912851Y-103104421D01*
X144710788Y-103079052D01*
X144584105Y-103035488D01*
X144406509Y-102896533D01*
X144270731Y-102701364D01*
X144195735Y-102483004D01*
X144158931Y-102286000D01*
X145937692Y-102286000D01*
X145908829Y-102000250D01*
X145844454Y-101677466D01*
X145724053Y-101417118D01*
X145549612Y-101220942D01*
X145323116Y-101090673D01*
X145180302Y-101058333D01*
X147915667Y-101058333D01*
X147915667Y-103344333D01*
X148254334Y-103344333D01*
X148254334Y-102591303D01*
X148255065Y-102317431D01*
X148258257Y-102113396D01*
X148265411Y-101964374D01*
X148278025Y-101855539D01*
X148297597Y-101772067D01*
X148325628Y-101699135D01*
X148349584Y-101649386D01*
X148479385Y-101479646D01*
X148658999Y-101363881D01*
X148867898Y-101308941D01*
X149085554Y-101321677D01*
X149208016Y-101362908D01*
X149287178Y-101406955D01*
X149348270Y-101465240D01*
X149393837Y-101548685D01*
X149426419Y-101668215D01*
X149448561Y-101834756D01*
X149462804Y-102059232D01*
X149471692Y-102352568D01*
X149474594Y-102508250D01*
X149488355Y-103344333D01*
X149828066Y-103344333D01*
X149813228Y-102465916D01*
X149809553Y-102271578D01*
X150458661Y-102271578D01*
X150470551Y-102426586D01*
X150544312Y-102718871D01*
X150686806Y-102973099D01*
X150889080Y-103177566D01*
X151142180Y-103320567D01*
X151159564Y-103327227D01*
X151299932Y-103357544D01*
X151496501Y-103371962D01*
X151722477Y-103371316D01*
X151951064Y-103356442D01*
X152155468Y-103328173D01*
X152297167Y-103291768D01*
X152406382Y-103243921D01*
X152458451Y-103185870D01*
X152478448Y-103087209D01*
X152479975Y-103070111D01*
X152483835Y-102967948D01*
X152465727Y-102931335D01*
X152416656Y-102942153D01*
X152416475Y-102942230D01*
X152184130Y-103030642D01*
X151983047Y-103081164D01*
X151773818Y-103102537D01*
X151683334Y-103104840D01*
X151468764Y-103098053D01*
X151308941Y-103066130D01*
X151175383Y-102999477D01*
X151039609Y-102888498D01*
X151038729Y-102887678D01*
X150959423Y-102795045D01*
X153089782Y-102795045D01*
X153152577Y-103008221D01*
X153279633Y-103188066D01*
X153466302Y-103319460D01*
X153482500Y-103326907D01*
X153624269Y-103364596D01*
X153811066Y-103382233D01*
X154005477Y-103379051D01*
X154170090Y-103354283D01*
X154209994Y-103341812D01*
X154311071Y-103285454D01*
X154431935Y-103193498D01*
X154487917Y-103142721D01*
X154646667Y-102988483D01*
X154646667Y-103344333D01*
X154985334Y-103344333D01*
X154985097Y-102571750D01*
X154982925Y-102248182D01*
X154975296Y-101995669D01*
X154960208Y-101800671D01*
X154935660Y-101649645D01*
X154899649Y-101529051D01*
X154850173Y-101425349D01*
X154804974Y-101353369D01*
X154647021Y-101194000D01*
X154430073Y-101084879D01*
X154305544Y-101058333D01*
X155789667Y-101058333D01*
X155789667Y-103344333D01*
X156117831Y-103344333D01*
X156135629Y-102592916D01*
X156143536Y-102310910D01*
X156153047Y-102099266D01*
X156165730Y-101943681D01*
X156183150Y-101829850D01*
X156206872Y-101743471D01*
X156236131Y-101674898D01*
X156346218Y-101502733D01*
X156482056Y-101395845D01*
X156662352Y-101343480D01*
X156829938Y-101333500D01*
X157102000Y-101333500D01*
X157102000Y-101016000D01*
X156903699Y-101016000D01*
X156712565Y-101040957D01*
X156522008Y-101107192D01*
X156361377Y-101201746D01*
X156269437Y-101296005D01*
X156200172Y-101379701D01*
X156154441Y-101382458D01*
X156131503Y-101303915D01*
X156128334Y-101227666D01*
X156124260Y-101119279D01*
X156095745Y-101071117D01*
X156018348Y-101058740D01*
X155959000Y-101058333D01*
X155789667Y-101058333D01*
X154305544Y-101058333D01*
X154164957Y-101028364D01*
X153862504Y-101026817D01*
X153547204Y-101079205D01*
X153249667Y-101152120D01*
X153249667Y-101300255D01*
X153257103Y-101397973D01*
X153285847Y-101428868D01*
X153318617Y-101421932D01*
X153637994Y-101338925D01*
X153993108Y-101316979D01*
X154053798Y-101319511D01*
X154218893Y-101332907D01*
X154327519Y-101356570D01*
X154407871Y-101400075D01*
X154479222Y-101464016D01*
X154582595Y-101607151D01*
X154632324Y-101748348D01*
X154657745Y-101905000D01*
X154340484Y-101905000D01*
X153970344Y-101921777D01*
X153672828Y-101973420D01*
X153442544Y-102061888D01*
X153274104Y-102189147D01*
X153175584Y-102329172D01*
X153095901Y-102563656D01*
X153089782Y-102795045D01*
X150959423Y-102795045D01*
X150954551Y-102789355D01*
X150890705Y-102661320D01*
X150836554Y-102480134D01*
X150818496Y-102402416D01*
X150792720Y-102286000D01*
X152583270Y-102286000D01*
X152554045Y-102021416D01*
X152486543Y-101692337D01*
X152364879Y-101426832D01*
X152190925Y-101226574D01*
X151966551Y-101093237D01*
X151693630Y-101028493D01*
X151442112Y-101027169D01*
X151153196Y-101088545D01*
X150907449Y-101218176D01*
X150709995Y-101408678D01*
X150565961Y-101652669D01*
X150480475Y-101942763D01*
X150458661Y-102271578D01*
X149809553Y-102271578D01*
X149807588Y-102167670D01*
X149801200Y-101940997D01*
X149792717Y-101772804D01*
X149780790Y-101649998D01*
X149764074Y-101559489D01*
X149741219Y-101488183D01*
X149710878Y-101422988D01*
X149704654Y-101411148D01*
X149559483Y-101211708D01*
X149371843Y-101084690D01*
X149135628Y-101026057D01*
X149120207Y-101024661D01*
X148853586Y-101034039D01*
X148625521Y-101113848D01*
X148438194Y-101252353D01*
X148347295Y-101335454D01*
X148284723Y-101387760D01*
X148269579Y-101397000D01*
X148260027Y-101359396D01*
X148254719Y-101265473D01*
X148254334Y-101227666D01*
X148250260Y-101119279D01*
X148221745Y-101071117D01*
X148144348Y-101058740D01*
X148085000Y-101058333D01*
X147915667Y-101058333D01*
X145180302Y-101058333D01*
X145046554Y-101028046D01*
X144795268Y-101027435D01*
X144506115Y-101088616D01*
X144260231Y-101218284D01*
X144062922Y-101409248D01*
X143919493Y-101654317D01*
X143835248Y-101946301D01*
X143815494Y-102278009D01*
X142667681Y-102278009D01*
X142670257Y-102113396D01*
X142677411Y-101964374D01*
X142690025Y-101855539D01*
X142709597Y-101772067D01*
X142737628Y-101699135D01*
X142761584Y-101649386D01*
X142883047Y-101473325D01*
X143040306Y-101366704D01*
X143244350Y-101323941D01*
X143396584Y-101326836D01*
X143640000Y-101346637D01*
X143640000Y-101016000D01*
X143459804Y-101016000D01*
X143204507Y-101041898D01*
X142995198Y-101125475D01*
X142827494Y-101256813D01*
X142666334Y-101414182D01*
X142666334Y-101058333D01*
X142327667Y-101058333D01*
X140836001Y-101058333D01*
X140724077Y-101028580D01*
X140412268Y-101019969D01*
X140061352Y-101074284D01*
X140018617Y-101084646D01*
X139872999Y-101123206D01*
X139791245Y-101156118D01*
X139754928Y-101197654D01*
X139745621Y-101262085D01*
X139745334Y-101296313D01*
X139748987Y-101386918D01*
X139772569Y-101427572D01*
X139835016Y-101424841D01*
X139955262Y-101385292D01*
X139978167Y-101377054D01*
X140157014Y-101334724D01*
X140371165Y-101316131D01*
X140588807Y-101321115D01*
X140778123Y-101349518D01*
X140873217Y-101381541D01*
X141020092Y-101492342D01*
X141115371Y-101648258D01*
X141142334Y-101791069D01*
X141139124Y-101835730D01*
X141119685Y-101865855D01*
X141069302Y-101885365D01*
X140973260Y-101898181D01*
X140816844Y-101908224D01*
X140676943Y-101915068D01*
X140345796Y-101944769D01*
X140086860Y-102001377D01*
X139890861Y-102088813D01*
X139748523Y-102210996D01*
X139663640Y-102343357D01*
X139588877Y-102579792D01*
X139587807Y-102811386D01*
X137696465Y-102811386D01*
X137713334Y-102720187D01*
X137692233Y-102535789D01*
X137623378Y-102385768D01*
X137498441Y-102263008D01*
X137309093Y-102160395D01*
X137047005Y-102070813D01*
X136911164Y-102034848D01*
X136682987Y-101973823D01*
X136526300Y-101918019D01*
X136429074Y-101858757D01*
X136379281Y-101787358D01*
X136364892Y-101695143D01*
X136366938Y-101642157D01*
X136398084Y-101494052D01*
X136472695Y-101392439D01*
X136601271Y-101331095D01*
X136794309Y-101303800D01*
X136942422Y-101301144D01*
X137149161Y-101312755D01*
X137328652Y-101340066D01*
X137430431Y-101369872D01*
X137586334Y-101435013D01*
X137586334Y-101271347D01*
X137582480Y-101174737D01*
X137556871Y-101120795D01*
X137488436Y-101088869D01*
X137372583Y-101061841D01*
X137036245Y-101014342D01*
X136735811Y-101020754D01*
X136478731Y-101078088D01*
X136272452Y-101183357D01*
X136124423Y-101333572D01*
X136042092Y-101525745D01*
X136030373Y-101600274D01*
X136031347Y-101795390D01*
X136080976Y-101953326D01*
X136187004Y-102081478D01*
X136357178Y-102187243D01*
X136599242Y-102278017D01*
X136796592Y-102331938D01*
X137042754Y-102403460D01*
X137213745Y-102480832D01*
X137319054Y-102570943D01*
X137368168Y-102680684D01*
X137374667Y-102751666D01*
X137337623Y-102898816D01*
X137233973Y-103010493D01*
X137074939Y-103084555D01*
X136871744Y-103118865D01*
X136635610Y-103111280D01*
X136377761Y-103059662D01*
X136159139Y-102983456D01*
X136059192Y-102943272D01*
X135998945Y-102922009D01*
X135993664Y-102921000D01*
X135983601Y-102958579D01*
X135978048Y-103052340D01*
X135977667Y-103088701D01*
X135417815Y-103088701D01*
X135419406Y-103076812D01*
X135432644Y-102917644D01*
X135280565Y-102981187D01*
X135074084Y-103047909D01*
X134837168Y-103094776D01*
X134606366Y-103116310D01*
X134429172Y-103108788D01*
X134187243Y-103033134D01*
X133992105Y-102890030D01*
X133851254Y-102687022D01*
X133775519Y-102450877D01*
X133745369Y-102286000D01*
X135524243Y-102286000D01*
X135498026Y-102005244D01*
X135435475Y-101685476D01*
X135314811Y-101424553D01*
X135138959Y-101225355D01*
X134910846Y-101090761D01*
X134633398Y-101023652D01*
X134492958Y-101016236D01*
X134196386Y-101055987D01*
X133929430Y-101170973D01*
X133703850Y-101353664D01*
X133531406Y-101596532D01*
X133505997Y-101648042D01*
X133458081Y-101774066D01*
X133430343Y-101913648D01*
X133418510Y-102094428D01*
X133417236Y-102222500D01*
X132718000Y-102222500D01*
X132718000Y-101058333D01*
X132379334Y-101058333D01*
X131074672Y-101058333D01*
X130941642Y-101018266D01*
X130720868Y-101023298D01*
X130498624Y-101096041D01*
X130287961Y-101237049D01*
X130177308Y-101349066D01*
X130090711Y-101441492D01*
X130029927Y-101489951D01*
X130008940Y-101485662D01*
X129976773Y-101393716D01*
X129895625Y-101280483D01*
X129787525Y-101170789D01*
X129674497Y-101089463D01*
X129644613Y-101075008D01*
X129401061Y-101016662D01*
X129155206Y-101036079D01*
X128926315Y-101129151D01*
X128758679Y-101263957D01*
X128674877Y-101345591D01*
X128613599Y-101392543D01*
X128601221Y-101397000D01*
X128581247Y-101359420D01*
X128570143Y-101265549D01*
X128569334Y-101227666D01*
X128565260Y-101119279D01*
X128536745Y-101071117D01*
X128459348Y-101058740D01*
X128400000Y-101058333D01*
X128230667Y-101058333D01*
X126885140Y-101058333D01*
X126739633Y-101022287D01*
X126617688Y-101016000D01*
X126350572Y-101037692D01*
X126130860Y-101110154D01*
X125931172Y-101244465D01*
X125836490Y-101332065D01*
X125683598Y-101506856D01*
X125589626Y-101674717D01*
X125561323Y-101756833D01*
X125519526Y-101974195D01*
X125504322Y-102221444D01*
X124840354Y-102221444D01*
X124835119Y-102017290D01*
X124825546Y-101806229D01*
X124813465Y-101647116D01*
X124799804Y-101557064D01*
X124697113Y-101332585D01*
X124534168Y-101162746D01*
X124320882Y-101054805D01*
X124067166Y-101016020D01*
X124060834Y-101016000D01*
X123804828Y-101051419D01*
X123588122Y-101160190D01*
X123470830Y-101264786D01*
X123386856Y-101346256D01*
X123324624Y-101392799D01*
X123312080Y-101397000D01*
X123290526Y-101359425D01*
X123278542Y-101265565D01*
X123277667Y-101227666D01*
X123273593Y-101119279D01*
X123245079Y-101071117D01*
X123167682Y-101058740D01*
X123108334Y-101058333D01*
X122939000Y-101058333D01*
X121585854Y-101058333D01*
X121542725Y-101041513D01*
X121259014Y-101013591D01*
X120951416Y-101062196D01*
X120933078Y-101067482D01*
X120754061Y-101154833D01*
X120574114Y-101300258D01*
X120415670Y-101480447D01*
X120301158Y-101672094D01*
X120269657Y-101756833D01*
X120221858Y-102010662D01*
X120211868Y-102285646D01*
X118195919Y-102285646D01*
X118195518Y-102187124D01*
X118191925Y-101958695D01*
X118184946Y-101788670D01*
X118173570Y-101663921D01*
X118156786Y-101571324D01*
X118133583Y-101497751D01*
X118117655Y-101460500D01*
X117981935Y-101245548D01*
X117803992Y-101102733D01*
X117578565Y-101028751D01*
X117409642Y-101016000D01*
X117178325Y-101050770D01*
X116962002Y-101159211D01*
X116811250Y-101283043D01*
X116673667Y-101413608D01*
X116673667Y-101058333D01*
X116292667Y-101058333D01*
X114944653Y-101058333D01*
X114812944Y-101023715D01*
X114679688Y-101016000D01*
X114368116Y-101052814D01*
X114100117Y-101159540D01*
X113880916Y-101330606D01*
X113715741Y-101560437D01*
X113609819Y-101843461D01*
X113568378Y-102174103D01*
X113568010Y-102201333D01*
X112903909Y-102201333D01*
X112903851Y-102187124D01*
X112900258Y-101958695D01*
X112893279Y-101788670D01*
X112881903Y-101663921D01*
X112865120Y-101571324D01*
X112841917Y-101497751D01*
X112825988Y-101460500D01*
X112690269Y-101245548D01*
X112512325Y-101102733D01*
X112286898Y-101028751D01*
X112117975Y-101016000D01*
X111886658Y-101050770D01*
X111670336Y-101159211D01*
X111519584Y-101283043D01*
X111382000Y-101413608D01*
X111382000Y-100169333D01*
X132379334Y-100169333D01*
X132379334Y-100592666D01*
X132718000Y-100592666D01*
X132718000Y-100169333D01*
X157567667Y-100169333D01*
X157567667Y-103344333D01*
X157906334Y-103344333D01*
X157906334Y-102987698D01*
X158022750Y-103120345D01*
X158132011Y-103224727D01*
X158249208Y-103308853D01*
X158266167Y-103318134D01*
X158421818Y-103365691D01*
X158619418Y-103382655D01*
X158821827Y-103368656D01*
X158987225Y-103325313D01*
X159191297Y-103195842D01*
X159356292Y-103000959D01*
X159477278Y-102752727D01*
X159549323Y-102463211D01*
X159567496Y-102144474D01*
X159550818Y-101946609D01*
X159478725Y-101645693D01*
X159348689Y-101397877D01*
X159211793Y-101240846D01*
X159031978Y-101103147D01*
X158909111Y-101058333D01*
X159988737Y-101058333D01*
X160262869Y-101725083D01*
X160372837Y-101992768D01*
X160489623Y-102277417D01*
X160601751Y-102551037D01*
X160697745Y-102785634D01*
X160729257Y-102862773D01*
X160921514Y-103333713D01*
X160804195Y-103595135D01*
X160719582Y-103764089D01*
X160638417Y-103867026D01*
X160540898Y-103919341D01*
X160407224Y-103936428D01*
X160364450Y-103937000D01*
X160254884Y-103941170D01*
X160205746Y-103968065D01*
X160192804Y-104039260D01*
X160192334Y-104090254D01*
X160192334Y-104243509D01*
X160446902Y-104225095D01*
X160666986Y-104189265D01*
X160817319Y-104120777D01*
X160913230Y-104027539D01*
X161007388Y-103902772D01*
X161027618Y-103869519D01*
X161068956Y-103784933D01*
X161138203Y-103628335D01*
X161232529Y-103406604D01*
X161349105Y-103126619D01*
X161485102Y-102795259D01*
X161637691Y-102419402D01*
X161804041Y-102005926D01*
X161981325Y-101561711D01*
X162101212Y-101259416D01*
X162180765Y-101058333D01*
X161822167Y-101058983D01*
X161462761Y-101965046D01*
X161359668Y-102221876D01*
X161266089Y-102449186D01*
X161186658Y-102636193D01*
X161126007Y-102772111D01*
X161088770Y-102846158D01*
X161079738Y-102856513D01*
X161057971Y-102814640D01*
X161009946Y-102705304D01*
X160940393Y-102539833D01*
X160854038Y-102329556D01*
X160755612Y-102085803D01*
X160701444Y-101950125D01*
X160346767Y-101058333D01*
X159988737Y-101058333D01*
X158909111Y-101058333D01*
X158838583Y-101032609D01*
X158643051Y-101016000D01*
X158380170Y-101054374D01*
X158153981Y-101168296D01*
X158032665Y-101277553D01*
X157906334Y-101415868D01*
X157906334Y-100169333D01*
X157567667Y-100169333D01*
X132718000Y-100169333D01*
X132379334Y-100169333D01*
X111382000Y-100169333D01*
X111001000Y-100169333D01*
X105593827Y-100169333D01*
X105645197Y-100056524D01*
X105862891Y-99749744D01*
X106001921Y-99611843D01*
X106175629Y-99472645D01*
X106359813Y-99348701D01*
X106530274Y-99256564D01*
X106642725Y-99216381D01*
X106730516Y-99191744D01*
X106767660Y-99170687D01*
X106767667Y-99170485D01*
X106746066Y-99128388D01*
X106689731Y-99036872D01*
X106619434Y-98928775D01*
X106501765Y-98734800D01*
X106414124Y-98544828D01*
X106351704Y-98340048D01*
X106309698Y-98101650D01*
X106283301Y-97810820D01*
X106271589Y-97567416D01*
X106248247Y-96930833D01*
X105823927Y-96298956D01*
X105620110Y-95986946D01*
X105464401Y-95725777D01*
X105350959Y-95501036D01*
X105273941Y-95298309D01*
X105227507Y-95103186D01*
X105205815Y-94901252D01*
X105202605Y-94779390D01*
X107212185Y-94779390D01*
X107217061Y-94803583D01*
X107249050Y-94853296D01*
X107320781Y-94962124D01*
X107424821Y-95118875D01*
X107553737Y-95312359D01*
X107700094Y-95531383D01*
X107748726Y-95604033D01*
X108249334Y-96351566D01*
X108249334Y-97798666D01*
X108630334Y-97798666D01*
X108630334Y-96676833D01*
X109434667Y-96676833D01*
X109460957Y-97001637D01*
X109542904Y-97271429D01*
X109685123Y-97498745D01*
X109771503Y-97591966D01*
X109999469Y-97764934D01*
X110248827Y-97859070D01*
X110526509Y-97876043D01*
X110777835Y-97834149D01*
X110988875Y-97741802D01*
X111183601Y-97585404D01*
X111341620Y-97385474D01*
X111441363Y-97166566D01*
X111500940Y-96854974D01*
X111503192Y-96540112D01*
X111450996Y-96242160D01*
X111347231Y-95981297D01*
X111252121Y-95839521D01*
X111064171Y-95660006D01*
X110858554Y-95555000D01*
X112137870Y-95555000D01*
X112151518Y-96433416D01*
X112156771Y-96731858D01*
X112162881Y-96958668D01*
X112171163Y-97126880D01*
X112182927Y-97249528D01*
X112199488Y-97339645D01*
X112222156Y-97410265D01*
X112252247Y-97474422D01*
X112257323Y-97483998D01*
X112349622Y-97634363D01*
X112447423Y-97730815D01*
X112581265Y-97800322D01*
X112641016Y-97822825D01*
X112836352Y-97873152D01*
X113021440Y-97871088D01*
X113175016Y-97837550D01*
X113298841Y-97782384D01*
X113440852Y-97689619D01*
X113524266Y-97620728D01*
X113710334Y-97449216D01*
X113710334Y-97798666D01*
X114049000Y-97798666D01*
X114049000Y-96676833D01*
X116066141Y-96676833D01*
X116098783Y-97019010D01*
X116195044Y-97307548D01*
X116353833Y-97540687D01*
X116574059Y-97716669D01*
X116766064Y-97805578D01*
X117004297Y-97858301D01*
X117274597Y-97867432D01*
X117538162Y-97833920D01*
X117705160Y-97782598D01*
X117806706Y-97730339D01*
X117850124Y-97667239D01*
X117859000Y-97566906D01*
X117859000Y-97415492D01*
X117723330Y-97485650D01*
X117565013Y-97539521D01*
X117361082Y-97571844D01*
X117148492Y-97579797D01*
X116964198Y-97560559D01*
X116914741Y-97547386D01*
X116744587Y-97452039D01*
X116594394Y-97296494D01*
X116522772Y-97170608D01*
X118409334Y-97170608D01*
X118446139Y-97413209D01*
X118553723Y-97611709D01*
X118727836Y-97759989D01*
X118861615Y-97822000D01*
X119052447Y-97871407D01*
X119241308Y-97874379D01*
X119455638Y-97834283D01*
X119673281Y-97737018D01*
X119813050Y-97622616D01*
X119975667Y-97460000D01*
X119975667Y-97629333D01*
X119979740Y-97737720D01*
X120008255Y-97785882D01*
X120085652Y-97798259D01*
X120145000Y-97798666D01*
X120314334Y-97798666D01*
X120314097Y-97026083D01*
X120311407Y-96756127D01*
X120304058Y-96509130D01*
X120292878Y-96301624D01*
X120278697Y-96150139D01*
X120266891Y-96084306D01*
X120200523Y-95939916D01*
X120088733Y-95787119D01*
X120044877Y-95740191D01*
X119847533Y-95591392D01*
X119746314Y-95555000D01*
X121118667Y-95555000D01*
X121118667Y-97798666D01*
X121447892Y-97798666D01*
X121465931Y-97047250D01*
X121476238Y-96726492D01*
X121491810Y-96478137D01*
X121515623Y-96289955D01*
X121550655Y-96149712D01*
X121599884Y-96045177D01*
X121666287Y-95964118D01*
X121745272Y-95899644D01*
X121928269Y-95811560D01*
X122134960Y-95777567D01*
X122331486Y-95801549D01*
X122393482Y-95825244D01*
X122478962Y-95869448D01*
X122544322Y-95918116D01*
X122592486Y-95982731D01*
X122626375Y-96074775D01*
X122648911Y-96205732D01*
X122663016Y-96387085D01*
X122671613Y-96630315D01*
X122677537Y-96941416D01*
X122691241Y-97798666D01*
X123028419Y-97798666D01*
X123015460Y-96920250D01*
X123010353Y-96620534D01*
X123004224Y-96392494D01*
X122995816Y-96223139D01*
X122983874Y-96099478D01*
X122967141Y-96008519D01*
X122944362Y-95937271D01*
X122914279Y-95872745D01*
X122914151Y-95872500D01*
X122772905Y-95684778D01*
X122586499Y-95557937D01*
X122576614Y-95555000D01*
X123828000Y-95555000D01*
X123828000Y-97798666D01*
X124166667Y-97798666D01*
X124166667Y-97056473D01*
X124168755Y-96746699D01*
X124176951Y-96508402D01*
X124194148Y-96328455D01*
X124223242Y-96193730D01*
X124267128Y-96091098D01*
X124328701Y-96007432D01*
X124410856Y-95929603D01*
X124416157Y-95925124D01*
X124597739Y-95818018D01*
X124795359Y-95776259D01*
X124989264Y-95797678D01*
X125159701Y-95880108D01*
X125286498Y-96020666D01*
X125317099Y-96080410D01*
X125340076Y-96149269D01*
X125356830Y-96240568D01*
X125368759Y-96367631D01*
X125377263Y-96543783D01*
X125383741Y-96782349D01*
X125387646Y-96983750D01*
X125402125Y-97798666D01*
X125741693Y-97798666D01*
X125723619Y-96941416D01*
X125716971Y-96676833D01*
X126368000Y-96676833D01*
X126400065Y-97015789D01*
X126492952Y-97305725D01*
X126641702Y-97541322D01*
X126841353Y-97717265D01*
X127086946Y-97828237D01*
X127373519Y-97868921D01*
X127477422Y-97865935D01*
X127704230Y-97826433D01*
X127898779Y-97749930D01*
X128122220Y-97579733D01*
X128287981Y-97351354D01*
X128393385Y-97070974D01*
X128435759Y-96744777D01*
X128429332Y-96523756D01*
X128370235Y-96194990D01*
X128254289Y-95927085D01*
X128083437Y-95721989D01*
X128019662Y-95682000D01*
X128823334Y-95682000D01*
X128831593Y-95767326D01*
X128873488Y-95802323D01*
X128971500Y-95809000D01*
X129119667Y-95809000D01*
X129119667Y-96590730D01*
X129123215Y-96942421D01*
X129137605Y-97218634D01*
X129168458Y-97428397D01*
X129221394Y-97580737D01*
X129302033Y-97684683D01*
X129415996Y-97749263D01*
X129568903Y-97783503D01*
X129766375Y-97796432D01*
X129871084Y-97797702D01*
X130220334Y-97798666D01*
X130220334Y-97671666D01*
X130216226Y-97598324D01*
X130189821Y-97560606D01*
X130119992Y-97546669D01*
X129993817Y-97544666D01*
X129762371Y-97527712D01*
X129595704Y-97478412D01*
X129500359Y-97399112D01*
X129484319Y-97362087D01*
X129476085Y-97290317D01*
X129468935Y-97149931D01*
X129463366Y-96956979D01*
X129459873Y-96727510D01*
X129458912Y-96539250D01*
X129458334Y-95809000D01*
X130220334Y-95809000D01*
X130220334Y-95682000D01*
X131829000Y-95682000D01*
X131835687Y-95763433D01*
X131871923Y-95799633D01*
X131961973Y-95808799D01*
X131998334Y-95809000D01*
X132167667Y-95809000D01*
X132167667Y-97798666D01*
X132506334Y-97798666D01*
X132506334Y-97147888D01*
X133481652Y-97147888D01*
X133493280Y-97322904D01*
X133527035Y-97466671D01*
X133539166Y-97493952D01*
X133672063Y-97664213D01*
X133859267Y-97787381D01*
X134081681Y-97858554D01*
X134320210Y-97872835D01*
X134555758Y-97825323D01*
X134658384Y-97781093D01*
X134772303Y-97705420D01*
X134891953Y-97601996D01*
X134916951Y-97576460D01*
X135045942Y-97438833D01*
X135046138Y-97618750D01*
X135046334Y-97798666D01*
X135385000Y-97798666D01*
X135385000Y-97380094D01*
X136020000Y-97380094D01*
X136020000Y-97544548D01*
X136030072Y-97656542D01*
X136055045Y-97727983D01*
X136062721Y-97735406D01*
X136141379Y-97764897D01*
X136276995Y-97799018D01*
X136442440Y-97832510D01*
X136610584Y-97860114D01*
X136754297Y-97876572D01*
X136803167Y-97878932D01*
X136956865Y-97870175D01*
X137125793Y-97845537D01*
X137163000Y-97837705D01*
X137397253Y-97752638D01*
X137585404Y-97620722D01*
X137697162Y-97477265D01*
X137746202Y-97316576D01*
X137749411Y-97128650D01*
X137710308Y-96947703D01*
X137632413Y-96807951D01*
X137627776Y-96802884D01*
X137498381Y-96707136D01*
X137300576Y-96615446D01*
X137050579Y-96534439D01*
X136858656Y-96488756D01*
X136628587Y-96419573D01*
X136478318Y-96323232D01*
X136407321Y-96199331D01*
X136401000Y-96141811D01*
X136414753Y-96022036D01*
X136442440Y-95937669D01*
X136530685Y-95855117D01*
X136681229Y-95798718D01*
X136875187Y-95770602D01*
X137093670Y-95772899D01*
X137317791Y-95807741D01*
X137399689Y-95829708D01*
X137519401Y-95865535D01*
X137599521Y-95888590D01*
X137618084Y-95893208D01*
X137625145Y-95856315D01*
X137628598Y-95765268D01*
X137628667Y-95748783D01*
X137622221Y-95682000D01*
X138136667Y-95682000D01*
X138147342Y-95772103D01*
X138196420Y-95805280D01*
X138258040Y-95809000D01*
X138379414Y-95809000D01*
X138399897Y-96581583D01*
X138412397Y-96934257D01*
X138432934Y-97211361D01*
X138467364Y-97421966D01*
X138521539Y-97575141D01*
X138601315Y-97679956D01*
X138712544Y-97745479D01*
X138861082Y-97780780D01*
X139052782Y-97794929D01*
X139184417Y-97797009D01*
X139533667Y-97798666D01*
X139533667Y-97553920D01*
X139211999Y-97537677D01*
X139068592Y-97529525D01*
X138960272Y-97514387D01*
X138882120Y-97481606D01*
X138829215Y-97420527D01*
X138796637Y-97320493D01*
X138779464Y-97170848D01*
X138772777Y-96960936D01*
X138771654Y-96680101D01*
X138771667Y-96584075D01*
X138771667Y-95809000D01*
X139533667Y-95809000D01*
X139533667Y-95682000D01*
X141142334Y-95682000D01*
X141150593Y-95767326D01*
X141192488Y-95802323D01*
X141290500Y-95809000D01*
X141438667Y-95809000D01*
X141438667Y-96596352D01*
X141440110Y-96893337D01*
X141445040Y-97118229D01*
X141454355Y-97283562D01*
X141468954Y-97401871D01*
X141489736Y-97485689D01*
X141505172Y-97523853D01*
X141589693Y-97647117D01*
X141714241Y-97730299D01*
X141891759Y-97778573D01*
X142135189Y-97797113D01*
X142190084Y-97797702D01*
X142539334Y-97798666D01*
X142539334Y-97553920D01*
X142217666Y-97537677D01*
X142074258Y-97529525D01*
X141965939Y-97514387D01*
X141887787Y-97481606D01*
X141834882Y-97420527D01*
X141802304Y-97320493D01*
X141785131Y-97170848D01*
X141778443Y-96960936D01*
X141777321Y-96680101D01*
X141777334Y-96584075D01*
X141777334Y-95809000D01*
X142539334Y-95809000D01*
X142539334Y-95555000D01*
X143089667Y-95555000D01*
X143089667Y-97798666D01*
X143428334Y-97798666D01*
X143428543Y-97167782D01*
X144698334Y-97167782D01*
X144733141Y-97413293D01*
X144836910Y-97609981D01*
X145008660Y-97756427D01*
X145150615Y-97822000D01*
X145346227Y-97872051D01*
X145540209Y-97873539D01*
X145738021Y-97835949D01*
X145933250Y-97750560D01*
X146095433Y-97624329D01*
X146264667Y-97460094D01*
X146264667Y-97629380D01*
X146268742Y-97737737D01*
X146297263Y-97785885D01*
X146374670Y-97798259D01*
X146434000Y-97798666D01*
X146603334Y-97798666D01*
X146603334Y-97044350D01*
X146600224Y-96700115D01*
X146589080Y-96428034D01*
X146567181Y-96215762D01*
X146531806Y-96050953D01*
X146480234Y-95921262D01*
X146409743Y-95814344D01*
X146317613Y-95717852D01*
X146309284Y-95710266D01*
X146176474Y-95612644D01*
X146116994Y-95582872D01*
X147196000Y-95582872D01*
X147210281Y-95628300D01*
X147250585Y-95742534D01*
X147313105Y-95915145D01*
X147394032Y-96135701D01*
X147489560Y-96393772D01*
X147595879Y-96678927D01*
X147606204Y-96706517D01*
X148016407Y-97802289D01*
X148268668Y-97789894D01*
X148520929Y-97777500D01*
X148823370Y-96973166D01*
X148924351Y-96704378D01*
X148924491Y-96704003D01*
X149783774Y-96704003D01*
X149787704Y-96800472D01*
X149841325Y-97118929D01*
X149958149Y-97382039D01*
X150140097Y-97592058D01*
X150389093Y-97751240D01*
X150688500Y-97857177D01*
X150810434Y-97869901D01*
X150986603Y-97866076D01*
X151188782Y-97848358D01*
X151388747Y-97819404D01*
X151558272Y-97781869D01*
X151589818Y-97772357D01*
X151716432Y-97728184D01*
X151782031Y-97687431D01*
X151806652Y-97629043D01*
X151810334Y-97540616D01*
X151810334Y-97380094D01*
X151609250Y-97469848D01*
X151373298Y-97541138D01*
X151069500Y-97576287D01*
X150884638Y-97581469D01*
X150753682Y-97572053D01*
X150646459Y-97543390D01*
X150540334Y-97494735D01*
X150353467Y-97351963D01*
X150217663Y-97147034D01*
X150141162Y-96899083D01*
X150113164Y-96740333D01*
X151905936Y-96740333D01*
X151876277Y-96475750D01*
X151808226Y-96155860D01*
X151683838Y-95894643D01*
X151505683Y-95695345D01*
X151276330Y-95561215D01*
X151114788Y-95513280D01*
X150803893Y-95487622D01*
X150515370Y-95542254D01*
X150255291Y-95675250D01*
X150062593Y-95846842D01*
X149905275Y-96083385D01*
X149811716Y-96371251D01*
X149783774Y-96704003D01*
X148924491Y-96704003D01*
X149023380Y-96440369D01*
X149113500Y-96199714D01*
X149187756Y-96000988D01*
X149239192Y-95862767D01*
X149239508Y-95861916D01*
X149353205Y-95555000D01*
X148995167Y-95555444D01*
X148664265Y-96456867D01*
X148546351Y-96776692D01*
X148453516Y-97024665D01*
X148382438Y-97208696D01*
X148329798Y-97336693D01*
X148292274Y-97416566D01*
X148266547Y-97456225D01*
X148249296Y-97463579D01*
X148243653Y-97458774D01*
X148224494Y-97414128D01*
X148181695Y-97304090D01*
X148120634Y-97142806D01*
X148046691Y-96944419D01*
X148002622Y-96825000D01*
X147911788Y-96578788D01*
X147819332Y-96329527D01*
X147734606Y-96102341D01*
X147666959Y-95922353D01*
X147652066Y-95883083D01*
X147527255Y-95555000D01*
X147361628Y-95555000D01*
X147256929Y-95561316D01*
X147199655Y-95577053D01*
X147196000Y-95582872D01*
X146116994Y-95582872D01*
X146035196Y-95541930D01*
X145981443Y-95525740D01*
X145783243Y-95502826D01*
X145543212Y-95502232D01*
X145300693Y-95522223D01*
X145095032Y-95561066D01*
X145079334Y-95565527D01*
X144962177Y-95605812D01*
X144903895Y-95651953D01*
X144880812Y-95728630D01*
X144875761Y-95777748D01*
X144862689Y-95933759D01*
X145016503Y-95869491D01*
X145240767Y-95804102D01*
X145490764Y-95775996D01*
X145731882Y-95786747D01*
X145907638Y-95828987D01*
X146087229Y-95933555D01*
X146210006Y-96080803D01*
X146263278Y-96254507D01*
X146264509Y-96285250D01*
X146264667Y-96401666D01*
X145849017Y-96401666D01*
X145485821Y-96421207D01*
X145195122Y-96481139D01*
X144973971Y-96583424D01*
X144819422Y-96730023D01*
X144728527Y-96922900D01*
X144698339Y-97164017D01*
X144698334Y-97167782D01*
X143428543Y-97167782D01*
X143428570Y-97089583D01*
X143431204Y-96840517D01*
X143438332Y-96609930D01*
X143449040Y-96416011D01*
X143462417Y-96276950D01*
X143471931Y-96225232D01*
X143562752Y-96045674D01*
X143713119Y-95905209D01*
X143902840Y-95814460D01*
X144111726Y-95784050D01*
X144267265Y-95806781D01*
X144402000Y-95845423D01*
X144402000Y-95681897D01*
X144387750Y-95567892D01*
X144336737Y-95502705D01*
X144236566Y-95481196D01*
X144074842Y-95498229D01*
X143995763Y-95513511D01*
X143815191Y-95567328D01*
X143672520Y-95655979D01*
X143593879Y-95728120D01*
X143428334Y-95893666D01*
X143428334Y-95724333D01*
X143424260Y-95615946D01*
X143395745Y-95567784D01*
X143318348Y-95555407D01*
X143259000Y-95555000D01*
X143089667Y-95555000D01*
X142539334Y-95555000D01*
X141777334Y-95555000D01*
X141777334Y-94877666D01*
X141438667Y-94877666D01*
X141438667Y-95555000D01*
X141290500Y-95555000D01*
X141190953Y-95562079D01*
X141150122Y-95597989D01*
X141142334Y-95682000D01*
X139533667Y-95682000D01*
X139533667Y-95555000D01*
X138771667Y-95555000D01*
X138771667Y-94877666D01*
X138390667Y-94877666D01*
X138390667Y-95555000D01*
X138263667Y-95555000D01*
X138173713Y-95565489D01*
X138140558Y-95614969D01*
X138136667Y-95682000D01*
X137622221Y-95682000D01*
X137619201Y-95650724D01*
X137574941Y-95594725D01*
X137472091Y-95551035D01*
X137469917Y-95550300D01*
X137351667Y-95524953D01*
X137181481Y-95506120D01*
X136992031Y-95497166D01*
X136951334Y-95496856D01*
X136748314Y-95502027D01*
X136601136Y-95520632D01*
X136481401Y-95557621D01*
X136409923Y-95591213D01*
X136224174Y-95729985D01*
X136106554Y-95910389D01*
X136061888Y-96118168D01*
X136095001Y-96339068D01*
X136128549Y-96422576D01*
X136207856Y-96532958D01*
X136339373Y-96629642D01*
X136532810Y-96717734D01*
X136797875Y-96802343D01*
X136904768Y-96830897D01*
X137077125Y-96881790D01*
X137224470Y-96937146D01*
X137321965Y-96987244D01*
X137338685Y-97000684D01*
X137405720Y-97122475D01*
X137405491Y-97269091D01*
X137339329Y-97415724D01*
X137314743Y-97447056D01*
X137262430Y-97502732D01*
X137208501Y-97537541D01*
X137132553Y-97556330D01*
X137014187Y-97563944D01*
X136833001Y-97565228D01*
X136817327Y-97565206D01*
X136600910Y-97560143D01*
X136441509Y-97542927D01*
X136311844Y-97509310D01*
X136221084Y-97472336D01*
X136020000Y-97380094D01*
X135385000Y-97380094D01*
X135385000Y-97081083D01*
X135382366Y-96825572D01*
X135375089Y-96583708D01*
X135364107Y-96375061D01*
X135350358Y-96219201D01*
X135340721Y-96157035D01*
X135251428Y-95923997D01*
X135099197Y-95724036D01*
X134901865Y-95580182D01*
X134889052Y-95573872D01*
X134737299Y-95528913D01*
X134531476Y-95504873D01*
X134299624Y-95502030D01*
X134069784Y-95520661D01*
X133869998Y-95561041D01*
X133861000Y-95563728D01*
X133743867Y-95605190D01*
X133685542Y-95652085D01*
X133662417Y-95729234D01*
X133657428Y-95777748D01*
X133644356Y-95933759D01*
X133800685Y-95868441D01*
X133927775Y-95829963D01*
X134098061Y-95796746D01*
X134239770Y-95779417D01*
X134507957Y-95782976D01*
X134728401Y-95839792D01*
X134892414Y-95946346D01*
X134984263Y-96081059D01*
X135037169Y-96217857D01*
X135053084Y-96308954D01*
X135021793Y-96363613D01*
X134933081Y-96391095D01*
X134776731Y-96400664D01*
X134630684Y-96401666D01*
X134290113Y-96416947D01*
X134019369Y-96465423D01*
X133808825Y-96551040D01*
X133648852Y-96677745D01*
X133529822Y-96849487D01*
X133527506Y-96853966D01*
X133492833Y-96979088D01*
X133481652Y-97147888D01*
X132506334Y-97147888D01*
X132506334Y-95809000D01*
X133141334Y-95809000D01*
X133141334Y-95558709D01*
X132527500Y-95533833D01*
X132539112Y-95301000D01*
X132561446Y-95127177D01*
X132616996Y-95013951D01*
X132719706Y-94949741D01*
X132883516Y-94922969D01*
X132997857Y-94920000D01*
X133268334Y-94920000D01*
X133268334Y-94771833D01*
X133264175Y-94680439D01*
X133236253Y-94637406D01*
X133161400Y-94624513D01*
X133079917Y-94623666D01*
X152530000Y-94623666D01*
X152530000Y-97798666D01*
X152868667Y-97798666D01*
X152868667Y-94623666D01*
X152530000Y-94623666D01*
X133079917Y-94623666D01*
X132785565Y-94641973D01*
X132560045Y-94700921D01*
X132394915Y-94806549D01*
X132281734Y-94964898D01*
X132212059Y-95182007D01*
X132199256Y-95253766D01*
X132152629Y-95555000D01*
X131990815Y-95555000D01*
X131885387Y-95560642D01*
X131839736Y-95590520D01*
X131829105Y-95664064D01*
X131829000Y-95682000D01*
X130220334Y-95682000D01*
X130220334Y-95555000D01*
X129458334Y-95555000D01*
X129458334Y-94877666D01*
X129119667Y-94877666D01*
X129119667Y-95555000D01*
X128971500Y-95555000D01*
X128871953Y-95562079D01*
X128831122Y-95597989D01*
X128823334Y-95682000D01*
X128019662Y-95682000D01*
X127859620Y-95581650D01*
X127584781Y-95508015D01*
X127405167Y-95496637D01*
X127104340Y-95532426D01*
X126850055Y-95637150D01*
X126645798Y-95806845D01*
X126495051Y-96037547D01*
X126401300Y-96325290D01*
X126368028Y-96666111D01*
X126368000Y-96676833D01*
X125716971Y-96676833D01*
X125715512Y-96618786D01*
X125704762Y-96368115D01*
X125688783Y-96176698D01*
X125664987Y-96031829D01*
X125630784Y-95920799D01*
X125583587Y-95830904D01*
X125520809Y-95749436D01*
X125469557Y-95694087D01*
X125283031Y-95557422D01*
X125065459Y-95490935D01*
X124832363Y-95494093D01*
X124599264Y-95566364D01*
X124381683Y-95707215D01*
X124353330Y-95732389D01*
X124166667Y-95904449D01*
X124166667Y-95555000D01*
X123828000Y-95555000D01*
X122576614Y-95555000D01*
X122370359Y-95493719D01*
X122139917Y-95493866D01*
X121910599Y-95560121D01*
X121697837Y-95694226D01*
X121657349Y-95730557D01*
X121561348Y-95819660D01*
X121493045Y-95878905D01*
X121471610Y-95893666D01*
X121462665Y-95856062D01*
X121457695Y-95762137D01*
X121457334Y-95724333D01*
X121453260Y-95615946D01*
X121424745Y-95567784D01*
X121347348Y-95555407D01*
X121288000Y-95555000D01*
X121118667Y-95555000D01*
X119746314Y-95555000D01*
X119613579Y-95507277D01*
X119334205Y-95485725D01*
X119087695Y-95509630D01*
X118868377Y-95548814D01*
X118720715Y-95590632D01*
X118631822Y-95642246D01*
X118588807Y-95710818D01*
X118578667Y-95792468D01*
X118578667Y-95931679D01*
X118729992Y-95868452D01*
X118914680Y-95814912D01*
X119138981Y-95783485D01*
X119365145Y-95777061D01*
X119555423Y-95798527D01*
X119576257Y-95803706D01*
X119770274Y-95893114D01*
X119900718Y-96036811D01*
X119963544Y-96228172D01*
X119986815Y-96401666D01*
X119565591Y-96401666D01*
X119201858Y-96420812D01*
X118910800Y-96479664D01*
X118689222Y-96580346D01*
X118533932Y-96724983D01*
X118441734Y-96915699D01*
X118409436Y-97154617D01*
X118409334Y-97170608D01*
X116522772Y-97170608D01*
X116485561Y-97105205D01*
X116459068Y-97026639D01*
X116431256Y-96846857D01*
X116428463Y-96633124D01*
X116448408Y-96418352D01*
X116488815Y-96235451D01*
X116519070Y-96160100D01*
X116659683Y-95974867D01*
X116853365Y-95847579D01*
X117088434Y-95781628D01*
X117353208Y-95780406D01*
X117617792Y-95840987D01*
X117863417Y-95924350D01*
X117850625Y-95771425D01*
X117832667Y-95669696D01*
X117784272Y-95610048D01*
X117680413Y-95563299D01*
X117668500Y-95559081D01*
X117454265Y-95511421D01*
X117204624Y-95497658D01*
X116953304Y-95516569D01*
X116734034Y-95566926D01*
X116662819Y-95595616D01*
X116419146Y-95755084D01*
X116238522Y-95970566D01*
X116121642Y-96240804D01*
X116069203Y-96564534D01*
X116066141Y-96676833D01*
X114049000Y-96676833D01*
X114049000Y-95555000D01*
X113717058Y-95555000D01*
X113703112Y-96327583D01*
X113695433Y-96638781D01*
X113682792Y-96878359D01*
X113661753Y-97059348D01*
X113628883Y-97194782D01*
X113580748Y-97297693D01*
X113513915Y-97381113D01*
X113424948Y-97458075D01*
X113400313Y-97476741D01*
X113252108Y-97545517D01*
X113069930Y-97572232D01*
X112885207Y-97557477D01*
X112729364Y-97501843D01*
X112676513Y-97463143D01*
X112612485Y-97391458D01*
X112563934Y-97304497D01*
X112528849Y-97190250D01*
X112505222Y-97036707D01*
X112491040Y-96831857D01*
X112484295Y-96563690D01*
X112482903Y-96306416D01*
X112482667Y-95555000D01*
X112137870Y-95555000D01*
X110858554Y-95555000D01*
X110847421Y-95549315D01*
X110585949Y-95500450D01*
X110471834Y-95496637D01*
X110171006Y-95532426D01*
X109916722Y-95637150D01*
X109712464Y-95806845D01*
X109561718Y-96037547D01*
X109467967Y-96325290D01*
X109434694Y-96666111D01*
X109434667Y-96676833D01*
X108630334Y-96676833D01*
X108630334Y-96350958D01*
X109159500Y-95572013D01*
X109312720Y-95345559D01*
X109448528Y-95143093D01*
X109560130Y-94974889D01*
X109640732Y-94851221D01*
X109683537Y-94782365D01*
X109688667Y-94771867D01*
X109650871Y-94759046D01*
X109555577Y-94751507D01*
X109504252Y-94750666D01*
X109319838Y-94750666D01*
X108901002Y-95384768D01*
X108765156Y-95588114D01*
X108644381Y-95764523D01*
X108546625Y-95902732D01*
X108479841Y-95991482D01*
X108452678Y-96019768D01*
X108420653Y-95986707D01*
X108349654Y-95894309D01*
X108247720Y-95753653D01*
X108122890Y-95575815D01*
X107992548Y-95385666D01*
X107561905Y-94750666D01*
X107373954Y-94750666D01*
X107256611Y-94757234D01*
X107212185Y-94779390D01*
X105202605Y-94779390D01*
X105202226Y-94765021D01*
X105240364Y-94359312D01*
X105352719Y-93983208D01*
X105532966Y-93644685D01*
X105774781Y-93351719D01*
X106071839Y-93112285D01*
X106417813Y-92934359D01*
X106727993Y-92841141D01*
X106893118Y-92819293D01*
X107112607Y-92809059D01*
X107363880Y-92809497D01*
X107624356Y-92819667D01*
X107871455Y-92838626D01*
X108082598Y-92865433D01*
X108235202Y-92899145D01*
X108251472Y-92904675D01*
X108376509Y-92945123D01*
X108468325Y-92952340D01*
X108571600Y-92926260D01*
X108632472Y-92904111D01*
X108793175Y-92863296D01*
X109015105Y-92833254D01*
X109275440Y-92814556D01*
X109551359Y-92807774D01*
X109820037Y-92813479D01*
X110058653Y-92832242D01*
X110241276Y-92863835D01*
X110607837Y-93000586D01*
X110941231Y-93213624D01*
X111177588Y-93434147D01*
X111387457Y-93662794D01*
X111738859Y-93608129D01*
X112116547Y-93574486D01*
X112529881Y-93585261D01*
X112741612Y-93597676D01*
X112947133Y-93604759D01*
X113115749Y-93605662D01*
X113181167Y-93603249D01*
X113306526Y-93597989D01*
X113491664Y-93593858D01*
X113711695Y-93591269D01*
X113941735Y-93590632D01*
X113943167Y-93590635D01*
X114259159Y-93599252D01*
X114513929Y-93627531D01*
X114729805Y-93681424D01*
X114929113Y-93766885D01*
X115134182Y-93889865D01*
X115178595Y-93919999D01*
X115377771Y-94057258D01*
X115612969Y-93915628D01*
X115976883Y-93740043D01*
X116393367Y-93614578D01*
X116844983Y-93541739D01*
X117314291Y-93524030D01*
X117783854Y-93563957D01*
X117911348Y-93585494D01*
X118115235Y-93620515D01*
X118260912Y-93635561D01*
X118372192Y-93631655D01*
X118472886Y-93609822D01*
X118473387Y-93609675D01*
X118580759Y-93588723D01*
X118749949Y-93568083D01*
X118958133Y-93550074D01*
X119182487Y-93537016D01*
X119192500Y-93536586D01*
X119448598Y-93528508D01*
X119646624Y-93530267D01*
X119812784Y-93543617D01*
X119973286Y-93570313D01*
X120091616Y-93596757D01*
X120277079Y-93637754D01*
X120410006Y-93656017D01*
X120518942Y-93653192D01*
X120632431Y-93630927D01*
X120641949Y-93628513D01*
X120746394Y-93611141D01*
X120918790Y-93593148D01*
X121142442Y-93575806D01*
X121400656Y-93560389D01*
X121676736Y-93548170D01*
X121711334Y-93546943D01*
X122024158Y-93537325D01*
X122267842Y-93533120D01*
X122457770Y-93534849D01*
X122609326Y-93543031D01*
X122737895Y-93558190D01*
X122858862Y-93580845D01*
X122885183Y-93586705D01*
X123076439Y-93623903D01*
X123225205Y-93634206D01*
X123368693Y-93619291D01*
X123414349Y-93610546D01*
X123522637Y-93596576D01*
X123699612Y-93583360D01*
X123929295Y-93571661D01*
X124195708Y-93562242D01*
X124482871Y-93555864D01*
X124590000Y-93554441D01*
X124899716Y-93551461D01*
X125138511Y-93550772D01*
X125320122Y-93553430D01*
X125458284Y-93560491D01*
X125566733Y-93573011D01*
X125659208Y-93592047D01*
X125749443Y-93618655D01*
X125842311Y-93650736D01*
X126142121Y-93757307D01*
X126456144Y-93657527D01*
X126807584Y-93576279D01*
X127214667Y-93534373D01*
X127417684Y-93522022D01*
X127556379Y-93507113D01*
X127651061Y-93484690D01*
X127722042Y-93449797D01*
X127789630Y-93397481D01*
X127795068Y-93392769D01*
X128087488Y-93189527D01*
X128426232Y-93039724D01*
X128796371Y-92943498D01*
X129182978Y-92900988D01*
X129571124Y-92912333D01*
X129945881Y-92977671D01*
X130292322Y-93097140D01*
X130595517Y-93270878D01*
X130712671Y-93365719D01*
X130877062Y-93514237D01*
X131058791Y-93335896D01*
X131374240Y-93084075D01*
X131746118Y-92892847D01*
X132175524Y-92761847D01*
X132663555Y-92690709D01*
X133038500Y-92676333D01*
X133447502Y-92692591D01*
X133447502Y-92692591D01*
G37*
X133447502Y-92692591D02*
X133792439Y-92745182D01*
X134088191Y-92839833D01*
X134349633Y-92982271D01*
X134591643Y-93178224D01*
X134740695Y-93331581D01*
X134886918Y-93475880D01*
X135011840Y-93556638D01*
X135088667Y-93580594D01*
X135219107Y-93610146D01*
X135379690Y-93653407D01*
X135452516Y-93675142D01*
X135570753Y-93708538D01*
X135663517Y-93719842D01*
X135762417Y-93707575D01*
X135899065Y-93670258D01*
X135960516Y-93651360D01*
X136152203Y-93603158D01*
X136381061Y-93561871D01*
X136599607Y-93535969D01*
X136612667Y-93534995D01*
X136792973Y-93519746D01*
X136915576Y-93498981D01*
X137007363Y-93463622D01*
X137095222Y-93404591D01*
X137163000Y-93349194D01*
X137476721Y-93140603D01*
X137843025Y-92997986D01*
X138221039Y-92925884D01*
X138665852Y-92905875D01*
X139084401Y-92945554D01*
X139464909Y-93042411D01*
X139795601Y-93193935D01*
X139943424Y-93293085D01*
X140081586Y-93398467D01*
X140305043Y-93250285D01*
X140660989Y-93064917D01*
X141063231Y-92949721D01*
X141510271Y-92904985D01*
X141984453Y-92929086D01*
X142372820Y-93009537D01*
X142721972Y-93153432D01*
X143018801Y-93355161D01*
X143054937Y-93387241D01*
X143237834Y-93555052D01*
X144652406Y-93539722D01*
X145066816Y-93536025D01*
X145405872Y-93534965D01*
X145678851Y-93536791D01*
X145895031Y-93541753D01*
X146063691Y-93550098D01*
X146194109Y-93562077D01*
X146295563Y-93577937D01*
X146326742Y-93584635D01*
X146546579Y-93620452D01*
X146722900Y-93612445D01*
X146753670Y-93606116D01*
X146926801Y-93581085D01*
X147154839Y-93568778D01*
X147409061Y-93568687D01*
X147660749Y-93580306D01*
X147881180Y-93603129D01*
X148012700Y-93628319D01*
X148162076Y-93661824D01*
X148282327Y-93669624D01*
X148415759Y-93651774D01*
X148519011Y-93628945D01*
X148700700Y-93598825D01*
X148931624Y-93578608D01*
X149184510Y-93568833D01*
X149432086Y-93570041D01*
X149647079Y-93582773D01*
X149787099Y-93603808D01*
X149985309Y-93615954D01*
X150210432Y-93583118D01*
X150392431Y-93551264D01*
X150578407Y-93529868D01*
X150683163Y-93524487D01*
X150802586Y-93518380D01*
X150887501Y-93491756D01*
X150967717Y-93428992D01*
X151063811Y-93324964D01*
X151316121Y-93090089D01*
X151615496Y-92894900D01*
X151931280Y-92758659D01*
X151995011Y-92739827D01*
X152140713Y-92706902D01*
X152297444Y-92686982D01*
X152487109Y-92678573D01*
X152731615Y-92680183D01*
X152832422Y-92682786D01*
X153064335Y-92690510D01*
X153233315Y-92700663D01*
X153361081Y-92717442D01*
X153469347Y-92745041D01*
X153579831Y-92787657D01*
X153714250Y-92849484D01*
X153727307Y-92855680D01*
X154071490Y-93063455D01*
X154363219Y-93330756D01*
X154594380Y-93647413D01*
X154756859Y-94003257D01*
X154815647Y-94219798D01*
X154828853Y-94327717D01*
X154839158Y-94511259D01*
X154846587Y-94772037D01*
X154851166Y-95111660D01*
X154852921Y-95531739D01*
X154851877Y-96033885D01*
X154849975Y-96366923D01*
X154846754Y-96820666D01*
X154843585Y-97197900D01*
X154840064Y-97506781D01*
X154835789Y-97755464D01*
X154830354Y-97952105D01*
X154823358Y-98104861D01*
X154814395Y-98221887D01*
X154803062Y-98311339D01*
X154788956Y-98381374D01*
X154771673Y-98440147D01*
X154750808Y-98495815D01*
X154743728Y-98513280D01*
X154670607Y-98674112D01*
X154587864Y-98830581D01*
X154546667Y-98898110D01*
X154442736Y-99055161D01*
X154703452Y-99110801D01*
X154863038Y-99141053D01*
X155006835Y-99157011D01*
X155160791Y-99159240D01*
X155350851Y-99148308D01*
X155556834Y-99129422D01*
X155853167Y-99099900D01*
X156099565Y-98831122D01*
X156390640Y-98573103D01*
X156731349Y-98372134D01*
X157099907Y-98240290D01*
X157207834Y-98216903D01*
X157437198Y-98191436D01*
X157709518Y-98186987D01*
X157995457Y-98201746D01*
X158265677Y-98233901D01*
X158490842Y-98281642D01*
X158547726Y-98299611D01*
X158874691Y-98446932D01*
X159163139Y-98640316D01*
X159393826Y-98866033D01*
X159455345Y-98947214D01*
X159568848Y-99111000D01*
X160127863Y-99111000D01*
X160433607Y-99117004D01*
X160679566Y-99134446D01*
X160854827Y-99162470D01*
X160884105Y-99170356D01*
X161025369Y-99204501D01*
X161141503Y-99203894D01*
X161278562Y-99170356D01*
X161461473Y-99134326D01*
X161702496Y-99113529D01*
X161976538Y-99107548D01*
X162258501Y-99115967D01*
X162523291Y-99138368D01*
X162745813Y-99174336D01*
X162829665Y-99196119D01*
X163175066Y-99345326D01*
X163479830Y-99560963D01*
X163736990Y-99831773D01*
X163939579Y-100146501D01*
X164080632Y-100493892D01*
X164153182Y-100862691D01*
X164150261Y-101241644D01*
X164140578Y-101314002D01*
X164113657Y-101422352D01*
X164057854Y-101597564D01*
X163977519Y-101828630D01*
X163877004Y-102104541D01*
X163760661Y-102414288D01*
X163632841Y-102746864D01*
X163497896Y-103091259D01*
X163360176Y-103436464D01*
X163224035Y-103771471D01*
X163093823Y-104085272D01*
X162973892Y-104366857D01*
X162868593Y-104605219D01*
X162782278Y-104789348D01*
X162720861Y-104905633D01*
X162447082Y-105285491D01*
X162116824Y-105608137D01*
X161739135Y-105866949D01*
X161323063Y-106055308D01*
X161039000Y-106136230D01*
X160892581Y-106157099D01*
X160691432Y-106170213D01*
X160457827Y-106175806D01*
X160214041Y-106174115D01*
X159982348Y-106165375D01*
X159785024Y-106149822D01*
X159644343Y-106127692D01*
X159620834Y-106121223D01*
X159246047Y-105960404D01*
X158910659Y-105732405D01*
X158780330Y-105613489D01*
X158687280Y-105523949D01*
X158602305Y-105456503D01*
X158511237Y-105407487D01*
X158399909Y-105373235D01*
X158254155Y-105350082D01*
X158059807Y-105334362D01*
X157802698Y-105322411D01*
X157631167Y-105316177D01*
X157426857Y-105304693D01*
X157233224Y-105286275D01*
X157079904Y-105264049D01*
X157027917Y-105252565D01*
X156856897Y-105225020D01*
X156689483Y-105247944D01*
X156668084Y-105253679D01*
X156570480Y-105269480D01*
X156398923Y-105284811D01*
X156164127Y-105299081D01*
X155876806Y-105311698D01*
X155547673Y-105322071D01*
X155345167Y-105326757D01*
X154877312Y-105335888D01*
X154485753Y-105342557D01*
X154162147Y-105346577D01*
X153898152Y-105347762D01*
X153685429Y-105345922D01*
X153515635Y-105340872D01*
X153380429Y-105332424D01*
X153271470Y-105320389D01*
X153180417Y-105304581D01*
X153098927Y-105284812D01*
X153066428Y-105275543D01*
X152936108Y-105239870D01*
X152834747Y-105224644D01*
X152730960Y-105230051D01*
X152593361Y-105256279D01*
X152494928Y-105278934D01*
X152238498Y-105322370D01*
X151933783Y-105347841D01*
X151607545Y-105355387D01*
X151286545Y-105345047D01*
X150997544Y-105316862D01*
X150787407Y-105276399D01*
X150621063Y-105237064D01*
X150501029Y-105224210D01*
X150393728Y-105236276D01*
X150321740Y-105254756D01*
X150201266Y-105276293D01*
X150024063Y-105291754D01*
X149811369Y-105301047D01*
X149584425Y-105304078D01*
X149364470Y-105300755D01*
X149172744Y-105290984D01*
X149030487Y-105274673D01*
X148974930Y-105260648D01*
X148817553Y-105243133D01*
X148720930Y-105263059D01*
X148617979Y-105280963D01*
X148454638Y-105295455D01*
X148255164Y-105304841D01*
X148085000Y-105307534D01*
X147705285Y-105292318D01*
X147387167Y-105243298D01*
X147113149Y-105156884D01*
X146937919Y-105072060D01*
X146785670Y-104987051D01*
X146408752Y-105116291D01*
X145863860Y-105268581D01*
X145325369Y-105351751D01*
X144803385Y-105365587D01*
X144308013Y-105309875D01*
X143849356Y-105184402D01*
X143814171Y-105171198D01*
X143676816Y-105123021D01*
X143586757Y-105107764D01*
X143514453Y-105122788D01*
X143475505Y-105140946D01*
X143374252Y-105187468D01*
X143262492Y-105224920D01*
X143129351Y-105254537D01*
X142963957Y-105277557D01*
X142755437Y-105295215D01*
X142492918Y-105308747D01*
X142165528Y-105319391D01*
X141840834Y-105326834D01*
X141378993Y-105335850D01*
X140993201Y-105342460D01*
X140674867Y-105346476D01*
X140415401Y-105347708D01*
X140206214Y-105345969D01*
X140038715Y-105341069D01*
X139904316Y-105332820D01*
X139794426Y-105321035D01*
X139700456Y-105305523D01*
X139613815Y-105286096D01*
X139579277Y-105277185D01*
X139396242Y-105218707D01*
X139194028Y-105138614D01*
X138997888Y-105048483D01*
X138833075Y-104959895D01*
X138726990Y-104886363D01*
X138687172Y-104863953D01*
X138630692Y-104865216D01*
X138541768Y-104894820D01*
X138404620Y-104957436D01*
X138282490Y-105017873D01*
X138082151Y-105111223D01*
X137872136Y-105197381D01*
X137687427Y-105262362D01*
X137628667Y-105279241D01*
X137426819Y-105315501D01*
X137166215Y-105339161D01*
X136871837Y-105350114D01*
X136568670Y-105348250D01*
X136281696Y-105333461D01*
X136035899Y-105305638D01*
X135935334Y-105286597D01*
X135768592Y-105253607D01*
X135642307Y-105245711D01*
X135516142Y-105262685D01*
X135427334Y-105283784D01*
X135228033Y-105318782D01*
X134970036Y-105340825D01*
X134678295Y-105350044D01*
X134377763Y-105346570D01*
X134093391Y-105330533D01*
X133850133Y-105302066D01*
X133717662Y-105274808D01*
X133550178Y-105234368D01*
X133431386Y-105219865D01*
X133329936Y-105229640D01*
X133251995Y-105250179D01*
X133148511Y-105268445D01*
X132975975Y-105284171D01*
X132749972Y-105297106D01*
X132486084Y-105307000D01*
X132199897Y-105313602D01*
X131906994Y-105316662D01*
X131622960Y-105315930D01*
X131363377Y-105311154D01*
X131143830Y-105302085D01*
X130979904Y-105288471D01*
X130967520Y-105286897D01*
X130610815Y-105271247D01*
X130304013Y-105296342D01*
X129983309Y-105322237D01*
X129669830Y-105311612D01*
X129547138Y-105298918D01*
X129198999Y-105274948D01*
X128860178Y-105291653D01*
X128786548Y-105300039D01*
X128466325Y-105324739D01*
X128163841Y-105312992D01*
X128051001Y-105300234D01*
X127837687Y-105278788D01*
X127650480Y-105277110D01*
X127448427Y-105296243D01*
X127294931Y-105319474D01*
X126900640Y-105359925D01*
X126485600Y-105359593D01*
X126085265Y-105319754D01*
X125823003Y-105266540D01*
X125644801Y-105227967D01*
X125512727Y-105220583D01*
X125399670Y-105241106D01*
X125168312Y-105287931D01*
X124887555Y-105314293D01*
X124590530Y-105318624D01*
X124310367Y-105299358D01*
X124272500Y-105294427D01*
X124029724Y-105270872D01*
X123788802Y-105272295D01*
X123524709Y-105296684D01*
X123229820Y-105322392D01*
X122968011Y-105320453D01*
X122758307Y-105300102D01*
X122545189Y-105278728D01*
X122357768Y-105277167D01*
X122155124Y-105296467D01*
X122003265Y-105319474D01*
X121456628Y-105369767D01*
X120923007Y-105339953D01*
X120409563Y-105231040D01*
X119923455Y-105044038D01*
X119872947Y-105019240D01*
X119522460Y-104843338D01*
X119316485Y-104982461D01*
X119000956Y-105148688D01*
X118633499Y-105261447D01*
X118230138Y-105317776D01*
X117806898Y-105314714D01*
X117626167Y-105294878D01*
X117386730Y-105271118D01*
X117150464Y-105271820D01*
X116878376Y-105296684D01*
X116583486Y-105322392D01*
X116321678Y-105320453D01*
X116111974Y-105300102D01*
X115898856Y-105278728D01*
X115711434Y-105277167D01*
X115508791Y-105296467D01*
X115356931Y-105319474D01*
X114988397Y-105358558D01*
X114599964Y-105362111D01*
X114224586Y-105331281D01*
X113900834Y-105268733D01*
X113735319Y-105231044D01*
X113605141Y-105223059D01*
X113466940Y-105243240D01*
X113428277Y-105251983D01*
X113280276Y-105276299D01*
X113084834Y-105294430D01*
X112879127Y-105303147D01*
X112835610Y-105303481D01*
X112625642Y-105303357D01*
X112371240Y-105302972D01*
X112112634Y-105302395D01*
X111985250Y-105302027D01*
X111750663Y-105301377D01*
X111507722Y-105300866D01*
X111292247Y-105300563D01*
X111191500Y-105300509D01*
X110792246Y-105300535D01*
X110461398Y-105300635D01*
X110182694Y-105300842D01*
X109939874Y-105301192D01*
X109716675Y-105301716D01*
X109496838Y-105302451D01*
X109264101Y-105303428D01*
X109002202Y-105304682D01*
X108873750Y-105305329D01*
X108500461Y-105306363D01*
X108200388Y-105304816D01*
X107962100Y-105300030D01*
X107774168Y-105291345D01*
X107625163Y-105278102D01*
X107503655Y-105259644D01*
X107398213Y-105235311D01*
X107334757Y-105216626D01*
X107001896Y-105072787D01*
X106694984Y-104865877D01*
X106431046Y-104610676D01*
X106227109Y-104321962D01*
X106167508Y-104203459D01*
X106126823Y-104093419D01*
X106070468Y-103914189D01*
X106001830Y-103678910D01*
X105924293Y-103400726D01*
X105841243Y-103092782D01*
X105756067Y-102768220D01*
X105672150Y-102440184D01*
X105592876Y-102121818D01*
X105521633Y-101826264D01*
X105461804Y-101566667D01*
X105416777Y-101356169D01*
X105389937Y-101207915D01*
X105384623Y-101164166D01*
X105387022Y-101074767D01*
X107360334Y-101074767D01*
X107370590Y-101118453D01*
X107399073Y-101230911D01*
X107442359Y-101399064D01*
X107497021Y-101609835D01*
X107559632Y-101850145D01*
X107626767Y-102106916D01*
X107694999Y-102367071D01*
X107760903Y-102617532D01*
X107821052Y-102845221D01*
X107872020Y-103037059D01*
X107910381Y-103179970D01*
X107932709Y-103260876D01*
X107935500Y-103270250D01*
X107972229Y-103317890D01*
X108056910Y-103340191D01*
X108161689Y-103344333D01*
X108364672Y-103344333D01*
X108613799Y-102393829D01*
X108685330Y-102126502D01*
X108751221Y-101890780D01*
X108808181Y-101697603D01*
X108852915Y-101557916D01*
X108882130Y-101482659D01*
X108890936Y-101473079D01*
X108909470Y-101521360D01*
X108945117Y-101639070D01*
X108994323Y-101813535D01*
X109053535Y-102032076D01*
X109119200Y-102282019D01*
X109136613Y-102349500D01*
X109203417Y-102608830D01*
X109264083Y-102843360D01*
X109315090Y-103039556D01*
X109352918Y-103183886D01*
X109374047Y-103262818D01*
X109376160Y-103270250D01*
X109410900Y-103317293D01*
X109492421Y-103339695D01*
X109605221Y-103344333D01*
X109729828Y-103340953D01*
X109796409Y-103319476D01*
X109831598Y-103262894D01*
X109853829Y-103185583D01*
X109876599Y-103098250D01*
X109916931Y-102943484D01*
X109971048Y-102735786D01*
X110035170Y-102489655D01*
X110105521Y-102219593D01*
X110132331Y-102116666D01*
X110202458Y-101847944D01*
X110266392Y-101603911D01*
X110320723Y-101397502D01*
X110362042Y-101241654D01*
X110386939Y-101149303D01*
X110391723Y-101132416D01*
X110392684Y-101084601D01*
X110344673Y-101063001D01*
X110243485Y-101058333D01*
X110132286Y-101064525D01*
X110074950Y-101098431D01*
X110040804Y-101183043D01*
X110031706Y-101217083D01*
X109932714Y-101596583D01*
X109841983Y-101941074D01*
X109761596Y-102242857D01*
X109693637Y-102494233D01*
X109640189Y-102687504D01*
X109603335Y-102814972D01*
X109585158Y-102868938D01*
X109584405Y-102870039D01*
X109564299Y-102844935D01*
X109534798Y-102761365D01*
X109524457Y-102724189D01*
X109499591Y-102629818D01*
X109457570Y-102470771D01*
X109402934Y-102264214D01*
X109340223Y-102027311D01*
X109288841Y-101833327D01*
X109226693Y-101597496D01*
X109172872Y-101390854D01*
X109130857Y-101226949D01*
X109104124Y-101119328D01*
X109096000Y-101081910D01*
X109057919Y-101068412D01*
X108960630Y-101059881D01*
X108885965Y-101058333D01*
X108760315Y-101061581D01*
X108692894Y-101082427D01*
X108657270Y-101137526D01*
X108634002Y-101217083D01*
X108609641Y-101309631D01*
X108568253Y-101467197D01*
X108514269Y-101672896D01*
X108452122Y-101909842D01*
X108398574Y-102114102D01*
X108335704Y-102351379D01*
X108279412Y-102558947D01*
X108233423Y-102723466D01*
X108201460Y-102831595D01*
X108187652Y-102869792D01*
X108167395Y-102844849D01*
X108137812Y-102761383D01*
X108127457Y-102724189D01*
X108102591Y-102629818D01*
X108060570Y-102470771D01*
X108005934Y-102264214D01*
X107943223Y-102027311D01*
X107891841Y-101833327D01*
X107829693Y-101597496D01*
X107775872Y-101390854D01*
X107733857Y-101226949D01*
X107707124Y-101119328D01*
X107699000Y-101081910D01*
X107661407Y-101067139D01*
X107567505Y-101058930D01*
X107529667Y-101058333D01*
X107423573Y-101061982D01*
X107364617Y-101071098D01*
X107360334Y-101074767D01*
X105387022Y-101074767D01*
X105394767Y-100786293D01*
X105483390Y-100411856D01*
X105593827Y-100169333D01*
X111001000Y-100169333D01*
X111001000Y-103344333D01*
X111382000Y-103344333D01*
X111382158Y-102550583D01*
X111384134Y-102235555D01*
X111392110Y-101992774D01*
X111409373Y-101809863D01*
X111439209Y-101674446D01*
X111484905Y-101574147D01*
X111549746Y-101496588D01*
X111637020Y-101429395D01*
X111688530Y-101396771D01*
X111841999Y-101336841D01*
X112024943Y-101312882D01*
X112203239Y-101325687D01*
X112342767Y-101376050D01*
X112350719Y-101381365D01*
X112420802Y-101440439D01*
X112474265Y-101514479D01*
X112513252Y-101614939D01*
X112539908Y-101753274D01*
X112556375Y-101940937D01*
X112564799Y-102189383D01*
X112567322Y-102510066D01*
X112567334Y-102538640D01*
X112567334Y-103344333D01*
X112906000Y-103344333D01*
X112905070Y-102487083D01*
X112903909Y-102201333D01*
X113568010Y-102201333D01*
X113574773Y-102384054D01*
X113594290Y-102557336D01*
X113622184Y-102683116D01*
X113726734Y-102882699D01*
X113891556Y-103073800D01*
X114093723Y-103232239D01*
X114197167Y-103289527D01*
X114308485Y-103337888D01*
X114411117Y-103366340D01*
X114531371Y-103378490D01*
X114695556Y-103377945D01*
X114811000Y-103373673D01*
X115009856Y-103359658D01*
X115197007Y-103336847D01*
X115342175Y-103309273D01*
X115382500Y-103297538D01*
X115491937Y-103251002D01*
X115543936Y-103193872D01*
X115563580Y-103096614D01*
X115564783Y-103082917D01*
X115577733Y-102927335D01*
X115353117Y-103014672D01*
X115131189Y-103075954D01*
X114882802Y-103104830D01*
X114637272Y-103100889D01*
X114423915Y-103063720D01*
X114330972Y-103028998D01*
X114155593Y-102899775D01*
X114021268Y-102712189D01*
X113943547Y-102488613D01*
X113939610Y-102465916D01*
X113911179Y-102286000D01*
X115669043Y-102286000D01*
X115648531Y-102000250D01*
X115592239Y-101691188D01*
X115474892Y-101433272D01*
X115302132Y-101232233D01*
X115079602Y-101093803D01*
X114944653Y-101058333D01*
X116292667Y-101058333D01*
X116292667Y-103344333D01*
X116673667Y-103344333D01*
X116673825Y-102550583D01*
X116675801Y-102235555D01*
X116683777Y-101992774D01*
X116701040Y-101809863D01*
X116730876Y-101674446D01*
X116776572Y-101574147D01*
X116841413Y-101496588D01*
X116928687Y-101429395D01*
X116980197Y-101396771D01*
X117133665Y-101336841D01*
X117316609Y-101312882D01*
X117494906Y-101325687D01*
X117634433Y-101376050D01*
X117642386Y-101381365D01*
X117712469Y-101440439D01*
X117765932Y-101514479D01*
X117804919Y-101614939D01*
X117831574Y-101753274D01*
X117848042Y-101940937D01*
X117856465Y-102189383D01*
X117858989Y-102510066D01*
X117859000Y-102538640D01*
X117859000Y-103344333D01*
X118197667Y-103344333D01*
X118196737Y-102487083D01*
X118195919Y-102285646D01*
X120211868Y-102285646D01*
X120239087Y-102546681D01*
X120286037Y-102718736D01*
X120380163Y-102887190D01*
X120523975Y-103058412D01*
X120692718Y-103208203D01*
X120861635Y-103312358D01*
X120914305Y-103332947D01*
X121082960Y-103365496D01*
X121303019Y-103378709D01*
X121543626Y-103373298D01*
X121773926Y-103349972D01*
X121963062Y-103309442D01*
X121965334Y-103308737D01*
X122097198Y-103264068D01*
X122168350Y-103222852D01*
X122199602Y-103165697D01*
X122211239Y-103079610D01*
X122224311Y-102923240D01*
X122081072Y-102983089D01*
X121962459Y-103022190D01*
X121799025Y-103063301D01*
X121655548Y-103092096D01*
X121365267Y-103114277D01*
X121104248Y-103078452D01*
X120889103Y-102987471D01*
X120838673Y-102951972D01*
X120729887Y-102829400D01*
X120636993Y-102661350D01*
X120579169Y-102486945D01*
X120569263Y-102402416D01*
X120568334Y-102286000D01*
X122304000Y-102286000D01*
X122304000Y-102103183D01*
X122267855Y-101789419D01*
X122165113Y-101519916D01*
X122004316Y-101301129D01*
X121794006Y-101139511D01*
X121585854Y-101058333D01*
X122939000Y-101058333D01*
X122939000Y-103344333D01*
X123268384Y-103344333D01*
X123285423Y-102571750D01*
X123293688Y-102268011D01*
X123305433Y-102035353D01*
X123323832Y-101860189D01*
X123352059Y-101728932D01*
X123393290Y-101627996D01*
X123450699Y-101543796D01*
X123527459Y-101462744D01*
X123549391Y-101441992D01*
X123674282Y-101370779D01*
X123846318Y-101327852D01*
X124031610Y-101316972D01*
X124196266Y-101341902D01*
X124251334Y-101364070D01*
X124332291Y-101416112D01*
X124394349Y-101484314D01*
X124439908Y-101579692D01*
X124471369Y-101713261D01*
X124491133Y-101896039D01*
X124501600Y-102139041D01*
X124505170Y-102453285D01*
X124505268Y-102529416D01*
X124505334Y-103344333D01*
X124844000Y-103344333D01*
X124843764Y-102529416D01*
X124841440Y-102263839D01*
X124840354Y-102221444D01*
X125504322Y-102221444D01*
X125515761Y-102463206D01*
X125553892Y-102664107D01*
X125560033Y-102683116D01*
X125665281Y-102883660D01*
X125830618Y-103074584D01*
X126032773Y-103231451D01*
X126135167Y-103287062D01*
X126350647Y-103353860D01*
X126614167Y-103384083D01*
X126897144Y-103377177D01*
X127170998Y-103332592D01*
X127257000Y-103308737D01*
X127388936Y-103263983D01*
X127460115Y-103222680D01*
X127491351Y-103165598D01*
X127502783Y-103081657D01*
X127515733Y-102927335D01*
X127312283Y-103003577D01*
X126996577Y-103090778D01*
X126692997Y-103115318D01*
X126416249Y-103077837D01*
X126181036Y-102978977D01*
X126141205Y-102952561D01*
X126027901Y-102834184D01*
X125931730Y-102668459D01*
X125871696Y-102492685D01*
X125860930Y-102402416D01*
X125860000Y-102286000D01*
X127607947Y-102286000D01*
X127583418Y-101993425D01*
X127523834Y-101681103D01*
X127404899Y-101423007D01*
X127231379Y-101223958D01*
X127008036Y-101088778D01*
X126885140Y-101058333D01*
X128230667Y-101058333D01*
X128230667Y-103344333D01*
X128558990Y-103344333D01*
X128577438Y-102571750D01*
X128586299Y-102267412D01*
X128598541Y-102034196D01*
X128617324Y-101858558D01*
X128645809Y-101726952D01*
X128687157Y-101625834D01*
X128744527Y-101541659D01*
X128821081Y-101460882D01*
X128841058Y-101441992D01*
X128938694Y-101374184D01*
X129067620Y-101335963D01*
X129201963Y-101320701D01*
X129349326Y-101314415D01*
X129442804Y-101327117D01*
X129512374Y-101366152D01*
X129557734Y-101407884D01*
X129623210Y-101487150D01*
X129672919Y-101584838D01*
X129708834Y-101712842D01*
X129732930Y-101883056D01*
X129747181Y-102107372D01*
X129753561Y-102397685D01*
X129754431Y-102592916D01*
X129754667Y-103344333D01*
X130086860Y-103344333D01*
X130100680Y-102527406D01*
X130107278Y-102216136D01*
X130117363Y-101977246D01*
X130134208Y-101798449D01*
X130161091Y-101667460D01*
X130201287Y-101571991D01*
X130258071Y-101499757D01*
X130334719Y-101438471D01*
X130402550Y-101395137D01*
X130558874Y-101334466D01*
X130740434Y-101313957D01*
X130912141Y-101334392D01*
X131019719Y-101381365D01*
X131089802Y-101440439D01*
X131143265Y-101514479D01*
X131182252Y-101614939D01*
X131208908Y-101753274D01*
X131225375Y-101940937D01*
X131233799Y-102189383D01*
X131236322Y-102510066D01*
X131236334Y-102538640D01*
X131236334Y-103344333D01*
X131575000Y-103344333D01*
X131575000Y-102484811D01*
X131574645Y-102193438D01*
X131572645Y-101972981D01*
X131567596Y-101809690D01*
X131558095Y-101689814D01*
X131542738Y-101599603D01*
X131520121Y-101525306D01*
X131488841Y-101453174D01*
X131464664Y-101403875D01*
X131326589Y-101209110D01*
X131147898Y-101080388D01*
X131074672Y-101058333D01*
X132379334Y-101058333D01*
X132379334Y-103344333D01*
X132718000Y-103344333D01*
X132718000Y-102222500D01*
X133417236Y-102222500D01*
X133420588Y-102415855D01*
X133433624Y-102553076D01*
X133462154Y-102662605D01*
X133511986Y-102772886D01*
X133540480Y-102825933D01*
X133718375Y-103071653D01*
X133944407Y-103248376D01*
X134104565Y-103322451D01*
X134274449Y-103360978D01*
X134496315Y-103378449D01*
X134740238Y-103375246D01*
X134976291Y-103351753D01*
X135173334Y-103308737D01*
X135305106Y-103264180D01*
X135376224Y-103223076D01*
X135407499Y-103165812D01*
X135417815Y-103088701D01*
X135977667Y-103088701D01*
X135983030Y-103194410D01*
X136014335Y-103251017D01*
X136094407Y-103285664D01*
X136157584Y-103302648D01*
X136277708Y-103335032D01*
X136363766Y-103360934D01*
X136379834Y-103366801D01*
X136438341Y-103373500D01*
X136560454Y-103376703D01*
X136725171Y-103376071D01*
X136825374Y-103373991D01*
X137041099Y-103363804D01*
X137194406Y-103344182D01*
X137307360Y-103311250D01*
X137375563Y-103277431D01*
X137557770Y-103127964D01*
X137673160Y-102937383D01*
X137696465Y-102811386D01*
X139587807Y-102811386D01*
X139655637Y-103023146D01*
X139787570Y-103200080D01*
X139978167Y-103326907D01*
X140119936Y-103364596D01*
X140306732Y-103382233D01*
X140501144Y-103379051D01*
X140665757Y-103354283D01*
X140705661Y-103341812D01*
X140806737Y-103285454D01*
X140927602Y-103193498D01*
X140983584Y-103142721D01*
X141142334Y-102988483D01*
X141142334Y-103344333D01*
X141481000Y-103344333D01*
X141481000Y-102547541D01*
X141478115Y-102203694D01*
X141467770Y-101932339D01*
X141447426Y-101721445D01*
X141414548Y-101558978D01*
X141366597Y-101432907D01*
X141301038Y-101331201D01*
X141215333Y-101241828D01*
X141203445Y-101231247D01*
X140990047Y-101099284D01*
X140836001Y-101058333D01*
X142327667Y-101058333D01*
X142327667Y-103344333D01*
X142666334Y-103344333D01*
X142666334Y-102591303D01*
X142667065Y-102317431D01*
X142667681Y-102278009D01*
X143815494Y-102278009D01*
X143819838Y-102349602D01*
X143881263Y-102656692D01*
X144009062Y-102921784D01*
X144196802Y-103135857D01*
X144438053Y-103289888D01*
X144511674Y-103320065D01*
X144687036Y-103360149D01*
X144913800Y-103378348D01*
X145161670Y-103374980D01*
X145400344Y-103350365D01*
X145587334Y-103308737D01*
X145719241Y-103264017D01*
X145790409Y-103222749D01*
X145821651Y-103165639D01*
X145833165Y-103080845D01*
X145846164Y-102925710D01*
X145600332Y-103013957D01*
X145383911Y-103071317D01*
X145145988Y-103101657D01*
X144912851Y-103104421D01*
X144710788Y-103079052D01*
X144584105Y-103035488D01*
X144406509Y-102896533D01*
X144270731Y-102701364D01*
X144195735Y-102483004D01*
X144158931Y-102286000D01*
X145937692Y-102286000D01*
X145908829Y-102000250D01*
X145844454Y-101677466D01*
X145724053Y-101417118D01*
X145549612Y-101220942D01*
X145323116Y-101090673D01*
X145180302Y-101058333D01*
X147915667Y-101058333D01*
X147915667Y-103344333D01*
X148254334Y-103344333D01*
X148254334Y-102591303D01*
X148255065Y-102317431D01*
X148258257Y-102113396D01*
X148265411Y-101964374D01*
X148278025Y-101855539D01*
X148297597Y-101772067D01*
X148325628Y-101699135D01*
X148349584Y-101649386D01*
X148479385Y-101479646D01*
X148658999Y-101363881D01*
X148867898Y-101308941D01*
X149085554Y-101321677D01*
X149208016Y-101362908D01*
X149287178Y-101406955D01*
X149348270Y-101465240D01*
X149393837Y-101548685D01*
X149426419Y-101668215D01*
X149448561Y-101834756D01*
X149462804Y-102059232D01*
X149471692Y-102352568D01*
X149474594Y-102508250D01*
X149488355Y-103344333D01*
X149828066Y-103344333D01*
X149813228Y-102465916D01*
X149809553Y-102271578D01*
X150458661Y-102271578D01*
X150470551Y-102426586D01*
X150544312Y-102718871D01*
X150686806Y-102973099D01*
X150889080Y-103177566D01*
X151142180Y-103320567D01*
X151159564Y-103327227D01*
X151299932Y-103357544D01*
X151496501Y-103371962D01*
X151722477Y-103371316D01*
X151951064Y-103356442D01*
X152155468Y-103328173D01*
X152297167Y-103291768D01*
X152406382Y-103243921D01*
X152458451Y-103185870D01*
X152478448Y-103087209D01*
X152479975Y-103070111D01*
X152483835Y-102967948D01*
X152465727Y-102931335D01*
X152416656Y-102942153D01*
X152416475Y-102942230D01*
X152184130Y-103030642D01*
X151983047Y-103081164D01*
X151773818Y-103102537D01*
X151683334Y-103104840D01*
X151468764Y-103098053D01*
X151308941Y-103066130D01*
X151175383Y-102999477D01*
X151039609Y-102888498D01*
X151038729Y-102887678D01*
X150959423Y-102795045D01*
X153089782Y-102795045D01*
X153152577Y-103008221D01*
X153279633Y-103188066D01*
X153466302Y-103319460D01*
X153482500Y-103326907D01*
X153624269Y-103364596D01*
X153811066Y-103382233D01*
X154005477Y-103379051D01*
X154170090Y-103354283D01*
X154209994Y-103341812D01*
X154311071Y-103285454D01*
X154431935Y-103193498D01*
X154487917Y-103142721D01*
X154646667Y-102988483D01*
X154646667Y-103344333D01*
X154985334Y-103344333D01*
X154985097Y-102571750D01*
X154982925Y-102248182D01*
X154975296Y-101995669D01*
X154960208Y-101800671D01*
X154935660Y-101649645D01*
X154899649Y-101529051D01*
X154850173Y-101425349D01*
X154804974Y-101353369D01*
X154647021Y-101194000D01*
X154430073Y-101084879D01*
X154305544Y-101058333D01*
X155789667Y-101058333D01*
X155789667Y-103344333D01*
X156117831Y-103344333D01*
X156135629Y-102592916D01*
X156143536Y-102310910D01*
X156153047Y-102099266D01*
X156165730Y-101943681D01*
X156183150Y-101829850D01*
X156206872Y-101743471D01*
X156236131Y-101674898D01*
X156346218Y-101502733D01*
X156482056Y-101395845D01*
X156662352Y-101343480D01*
X156829938Y-101333500D01*
X157102000Y-101333500D01*
X157102000Y-101016000D01*
X156903699Y-101016000D01*
X156712565Y-101040957D01*
X156522008Y-101107192D01*
X156361377Y-101201746D01*
X156269437Y-101296005D01*
X156200172Y-101379701D01*
X156154441Y-101382458D01*
X156131503Y-101303915D01*
X156128334Y-101227666D01*
X156124260Y-101119279D01*
X156095745Y-101071117D01*
X156018348Y-101058740D01*
X155959000Y-101058333D01*
X155789667Y-101058333D01*
X154305544Y-101058333D01*
X154164957Y-101028364D01*
X153862504Y-101026817D01*
X153547204Y-101079205D01*
X153249667Y-101152120D01*
X153249667Y-101300255D01*
X153257103Y-101397973D01*
X153285847Y-101428868D01*
X153318617Y-101421932D01*
X153637994Y-101338925D01*
X153993108Y-101316979D01*
X154053798Y-101319511D01*
X154218893Y-101332907D01*
X154327519Y-101356570D01*
X154407871Y-101400075D01*
X154479222Y-101464016D01*
X154582595Y-101607151D01*
X154632324Y-101748348D01*
X154657745Y-101905000D01*
X154340484Y-101905000D01*
X153970344Y-101921777D01*
X153672828Y-101973420D01*
X153442544Y-102061888D01*
X153274104Y-102189147D01*
X153175584Y-102329172D01*
X153095901Y-102563656D01*
X153089782Y-102795045D01*
X150959423Y-102795045D01*
X150954551Y-102789355D01*
X150890705Y-102661320D01*
X150836554Y-102480134D01*
X150818496Y-102402416D01*
X150792720Y-102286000D01*
X152583270Y-102286000D01*
X152554045Y-102021416D01*
X152486543Y-101692337D01*
X152364879Y-101426832D01*
X152190925Y-101226574D01*
X151966551Y-101093237D01*
X151693630Y-101028493D01*
X151442112Y-101027169D01*
X151153196Y-101088545D01*
X150907449Y-101218176D01*
X150709995Y-101408678D01*
X150565961Y-101652669D01*
X150480475Y-101942763D01*
X150458661Y-102271578D01*
X149809553Y-102271578D01*
X149807588Y-102167670D01*
X149801200Y-101940997D01*
X149792717Y-101772804D01*
X149780790Y-101649998D01*
X149764074Y-101559489D01*
X149741219Y-101488183D01*
X149710878Y-101422988D01*
X149704654Y-101411148D01*
X149559483Y-101211708D01*
X149371843Y-101084690D01*
X149135628Y-101026057D01*
X149120207Y-101024661D01*
X148853586Y-101034039D01*
X148625521Y-101113848D01*
X148438194Y-101252353D01*
X148347295Y-101335454D01*
X148284723Y-101387760D01*
X148269579Y-101397000D01*
X148260027Y-101359396D01*
X148254719Y-101265473D01*
X148254334Y-101227666D01*
X148250260Y-101119279D01*
X148221745Y-101071117D01*
X148144348Y-101058740D01*
X148085000Y-101058333D01*
X147915667Y-101058333D01*
X145180302Y-101058333D01*
X145046554Y-101028046D01*
X144795268Y-101027435D01*
X144506115Y-101088616D01*
X144260231Y-101218284D01*
X144062922Y-101409248D01*
X143919493Y-101654317D01*
X143835248Y-101946301D01*
X143815494Y-102278009D01*
X142667681Y-102278009D01*
X142670257Y-102113396D01*
X142677411Y-101964374D01*
X142690025Y-101855539D01*
X142709597Y-101772067D01*
X142737628Y-101699135D01*
X142761584Y-101649386D01*
X142883047Y-101473325D01*
X143040306Y-101366704D01*
X143244350Y-101323941D01*
X143396584Y-101326836D01*
X143640000Y-101346637D01*
X143640000Y-101016000D01*
X143459804Y-101016000D01*
X143204507Y-101041898D01*
X142995198Y-101125475D01*
X142827494Y-101256813D01*
X142666334Y-101414182D01*
X142666334Y-101058333D01*
X142327667Y-101058333D01*
X140836001Y-101058333D01*
X140724077Y-101028580D01*
X140412268Y-101019969D01*
X140061352Y-101074284D01*
X140018617Y-101084646D01*
X139872999Y-101123206D01*
X139791245Y-101156118D01*
X139754928Y-101197654D01*
X139745621Y-101262085D01*
X139745334Y-101296313D01*
X139748987Y-101386918D01*
X139772569Y-101427572D01*
X139835016Y-101424841D01*
X139955262Y-101385292D01*
X139978167Y-101377054D01*
X140157014Y-101334724D01*
X140371165Y-101316131D01*
X140588807Y-101321115D01*
X140778123Y-101349518D01*
X140873217Y-101381541D01*
X141020092Y-101492342D01*
X141115371Y-101648258D01*
X141142334Y-101791069D01*
X141139124Y-101835730D01*
X141119685Y-101865855D01*
X141069302Y-101885365D01*
X140973260Y-101898181D01*
X140816844Y-101908224D01*
X140676943Y-101915068D01*
X140345796Y-101944769D01*
X140086860Y-102001377D01*
X139890861Y-102088813D01*
X139748523Y-102210996D01*
X139663640Y-102343357D01*
X139588877Y-102579792D01*
X139587807Y-102811386D01*
X137696465Y-102811386D01*
X137713334Y-102720187D01*
X137692233Y-102535789D01*
X137623378Y-102385768D01*
X137498441Y-102263008D01*
X137309093Y-102160395D01*
X137047005Y-102070813D01*
X136911164Y-102034848D01*
X136682987Y-101973823D01*
X136526300Y-101918019D01*
X136429074Y-101858757D01*
X136379281Y-101787358D01*
X136364892Y-101695143D01*
X136366938Y-101642157D01*
X136398084Y-101494052D01*
X136472695Y-101392439D01*
X136601271Y-101331095D01*
X136794309Y-101303800D01*
X136942422Y-101301144D01*
X137149161Y-101312755D01*
X137328652Y-101340066D01*
X137430431Y-101369872D01*
X137586334Y-101435013D01*
X137586334Y-101271347D01*
X137582480Y-101174737D01*
X137556871Y-101120795D01*
X137488436Y-101088869D01*
X137372583Y-101061841D01*
X137036245Y-101014342D01*
X136735811Y-101020754D01*
X136478731Y-101078088D01*
X136272452Y-101183357D01*
X136124423Y-101333572D01*
X136042092Y-101525745D01*
X136030373Y-101600274D01*
X136031347Y-101795390D01*
X136080976Y-101953326D01*
X136187004Y-102081478D01*
X136357178Y-102187243D01*
X136599242Y-102278017D01*
X136796592Y-102331938D01*
X137042754Y-102403460D01*
X137213745Y-102480832D01*
X137319054Y-102570943D01*
X137368168Y-102680684D01*
X137374667Y-102751666D01*
X137337623Y-102898816D01*
X137233973Y-103010493D01*
X137074939Y-103084555D01*
X136871744Y-103118865D01*
X136635610Y-103111280D01*
X136377761Y-103059662D01*
X136159139Y-102983456D01*
X136059192Y-102943272D01*
X135998945Y-102922009D01*
X135993664Y-102921000D01*
X135983601Y-102958579D01*
X135978048Y-103052340D01*
X135977667Y-103088701D01*
X135417815Y-103088701D01*
X135419406Y-103076812D01*
X135432644Y-102917644D01*
X135280565Y-102981187D01*
X135074084Y-103047909D01*
X134837168Y-103094776D01*
X134606366Y-103116310D01*
X134429172Y-103108788D01*
X134187243Y-103033134D01*
X133992105Y-102890030D01*
X133851254Y-102687022D01*
X133775519Y-102450877D01*
X133745369Y-102286000D01*
X135524243Y-102286000D01*
X135498026Y-102005244D01*
X135435475Y-101685476D01*
X135314811Y-101424553D01*
X135138959Y-101225355D01*
X134910846Y-101090761D01*
X134633398Y-101023652D01*
X134492958Y-101016236D01*
X134196386Y-101055987D01*
X133929430Y-101170973D01*
X133703850Y-101353664D01*
X133531406Y-101596532D01*
X133505997Y-101648042D01*
X133458081Y-101774066D01*
X133430343Y-101913648D01*
X133418510Y-102094428D01*
X133417236Y-102222500D01*
X132718000Y-102222500D01*
X132718000Y-101058333D01*
X132379334Y-101058333D01*
X131074672Y-101058333D01*
X130941642Y-101018266D01*
X130720868Y-101023298D01*
X130498624Y-101096041D01*
X130287961Y-101237049D01*
X130177308Y-101349066D01*
X130090711Y-101441492D01*
X130029927Y-101489951D01*
X130008940Y-101485662D01*
X129976773Y-101393716D01*
X129895625Y-101280483D01*
X129787525Y-101170789D01*
X129674497Y-101089463D01*
X129644613Y-101075008D01*
X129401061Y-101016662D01*
X129155206Y-101036079D01*
X128926315Y-101129151D01*
X128758679Y-101263957D01*
X128674877Y-101345591D01*
X128613599Y-101392543D01*
X128601221Y-101397000D01*
X128581247Y-101359420D01*
X128570143Y-101265549D01*
X128569334Y-101227666D01*
X128565260Y-101119279D01*
X128536745Y-101071117D01*
X128459348Y-101058740D01*
X128400000Y-101058333D01*
X128230667Y-101058333D01*
X126885140Y-101058333D01*
X126739633Y-101022287D01*
X126617688Y-101016000D01*
X126350572Y-101037692D01*
X126130860Y-101110154D01*
X125931172Y-101244465D01*
X125836490Y-101332065D01*
X125683598Y-101506856D01*
X125589626Y-101674717D01*
X125561323Y-101756833D01*
X125519526Y-101974195D01*
X125504322Y-102221444D01*
X124840354Y-102221444D01*
X124835119Y-102017290D01*
X124825546Y-101806229D01*
X124813465Y-101647116D01*
X124799804Y-101557064D01*
X124697113Y-101332585D01*
X124534168Y-101162746D01*
X124320882Y-101054805D01*
X124067166Y-101016020D01*
X124060834Y-101016000D01*
X123804828Y-101051419D01*
X123588122Y-101160190D01*
X123470830Y-101264786D01*
X123386856Y-101346256D01*
X123324624Y-101392799D01*
X123312080Y-101397000D01*
X123290526Y-101359425D01*
X123278542Y-101265565D01*
X123277667Y-101227666D01*
X123273593Y-101119279D01*
X123245079Y-101071117D01*
X123167682Y-101058740D01*
X123108334Y-101058333D01*
X122939000Y-101058333D01*
X121585854Y-101058333D01*
X121542725Y-101041513D01*
X121259014Y-101013591D01*
X120951416Y-101062196D01*
X120933078Y-101067482D01*
X120754061Y-101154833D01*
X120574114Y-101300258D01*
X120415670Y-101480447D01*
X120301158Y-101672094D01*
X120269657Y-101756833D01*
X120221858Y-102010662D01*
X120211868Y-102285646D01*
X118195919Y-102285646D01*
X118195518Y-102187124D01*
X118191925Y-101958695D01*
X118184946Y-101788670D01*
X118173570Y-101663921D01*
X118156786Y-101571324D01*
X118133583Y-101497751D01*
X118117655Y-101460500D01*
X117981935Y-101245548D01*
X117803992Y-101102733D01*
X117578565Y-101028751D01*
X117409642Y-101016000D01*
X117178325Y-101050770D01*
X116962002Y-101159211D01*
X116811250Y-101283043D01*
X116673667Y-101413608D01*
X116673667Y-101058333D01*
X116292667Y-101058333D01*
X114944653Y-101058333D01*
X114812944Y-101023715D01*
X114679688Y-101016000D01*
X114368116Y-101052814D01*
X114100117Y-101159540D01*
X113880916Y-101330606D01*
X113715741Y-101560437D01*
X113609819Y-101843461D01*
X113568378Y-102174103D01*
X113568010Y-102201333D01*
X112903909Y-102201333D01*
X112903851Y-102187124D01*
X112900258Y-101958695D01*
X112893279Y-101788670D01*
X112881903Y-101663921D01*
X112865120Y-101571324D01*
X112841917Y-101497751D01*
X112825988Y-101460500D01*
X112690269Y-101245548D01*
X112512325Y-101102733D01*
X112286898Y-101028751D01*
X112117975Y-101016000D01*
X111886658Y-101050770D01*
X111670336Y-101159211D01*
X111519584Y-101283043D01*
X111382000Y-101413608D01*
X111382000Y-100169333D01*
X132379334Y-100169333D01*
X132379334Y-100592666D01*
X132718000Y-100592666D01*
X132718000Y-100169333D01*
X157567667Y-100169333D01*
X157567667Y-103344333D01*
X157906334Y-103344333D01*
X157906334Y-102987698D01*
X158022750Y-103120345D01*
X158132011Y-103224727D01*
X158249208Y-103308853D01*
X158266167Y-103318134D01*
X158421818Y-103365691D01*
X158619418Y-103382655D01*
X158821827Y-103368656D01*
X158987225Y-103325313D01*
X159191297Y-103195842D01*
X159356292Y-103000959D01*
X159477278Y-102752727D01*
X159549323Y-102463211D01*
X159567496Y-102144474D01*
X159550818Y-101946609D01*
X159478725Y-101645693D01*
X159348689Y-101397877D01*
X159211793Y-101240846D01*
X159031978Y-101103147D01*
X158909111Y-101058333D01*
X159988737Y-101058333D01*
X160262869Y-101725083D01*
X160372837Y-101992768D01*
X160489623Y-102277417D01*
X160601751Y-102551037D01*
X160697745Y-102785634D01*
X160729257Y-102862773D01*
X160921514Y-103333713D01*
X160804195Y-103595135D01*
X160719582Y-103764089D01*
X160638417Y-103867026D01*
X160540898Y-103919341D01*
X160407224Y-103936428D01*
X160364450Y-103937000D01*
X160254884Y-103941170D01*
X160205746Y-103968065D01*
X160192804Y-104039260D01*
X160192334Y-104090254D01*
X160192334Y-104243509D01*
X160446902Y-104225095D01*
X160666986Y-104189265D01*
X160817319Y-104120777D01*
X160913230Y-104027539D01*
X161007388Y-103902772D01*
X161027618Y-103869519D01*
X161068956Y-103784933D01*
X161138203Y-103628335D01*
X161232529Y-103406604D01*
X161349105Y-103126619D01*
X161485102Y-102795259D01*
X161637691Y-102419402D01*
X161804041Y-102005926D01*
X161981325Y-101561711D01*
X162101212Y-101259416D01*
X162180765Y-101058333D01*
X161822167Y-101058983D01*
X161462761Y-101965046D01*
X161359668Y-102221876D01*
X161266089Y-102449186D01*
X161186658Y-102636193D01*
X161126007Y-102772111D01*
X161088770Y-102846158D01*
X161079738Y-102856513D01*
X161057971Y-102814640D01*
X161009946Y-102705304D01*
X160940393Y-102539833D01*
X160854038Y-102329556D01*
X160755612Y-102085803D01*
X160701444Y-101950125D01*
X160346767Y-101058333D01*
X159988737Y-101058333D01*
X158909111Y-101058333D01*
X158838583Y-101032609D01*
X158643051Y-101016000D01*
X158380170Y-101054374D01*
X158153981Y-101168296D01*
X158032665Y-101277553D01*
X157906334Y-101415868D01*
X157906334Y-100169333D01*
X157567667Y-100169333D01*
X132718000Y-100169333D01*
X132379334Y-100169333D01*
X111382000Y-100169333D01*
X111001000Y-100169333D01*
X105593827Y-100169333D01*
X105645197Y-100056524D01*
X105862891Y-99749744D01*
X106001921Y-99611843D01*
X106175629Y-99472645D01*
X106359813Y-99348701D01*
X106530274Y-99256564D01*
X106642725Y-99216381D01*
X106730516Y-99191744D01*
X106767660Y-99170687D01*
X106767667Y-99170485D01*
X106746066Y-99128388D01*
X106689731Y-99036872D01*
X106619434Y-98928775D01*
X106501765Y-98734800D01*
X106414124Y-98544828D01*
X106351704Y-98340048D01*
X106309698Y-98101650D01*
X106283301Y-97810820D01*
X106271589Y-97567416D01*
X106248247Y-96930833D01*
X105823927Y-96298956D01*
X105620110Y-95986946D01*
X105464401Y-95725777D01*
X105350959Y-95501036D01*
X105273941Y-95298309D01*
X105227507Y-95103186D01*
X105205815Y-94901252D01*
X105202605Y-94779390D01*
X107212185Y-94779390D01*
X107217061Y-94803583D01*
X107249050Y-94853296D01*
X107320781Y-94962124D01*
X107424821Y-95118875D01*
X107553737Y-95312359D01*
X107700094Y-95531383D01*
X107748726Y-95604033D01*
X108249334Y-96351566D01*
X108249334Y-97798666D01*
X108630334Y-97798666D01*
X108630334Y-96676833D01*
X109434667Y-96676833D01*
X109460957Y-97001637D01*
X109542904Y-97271429D01*
X109685123Y-97498745D01*
X109771503Y-97591966D01*
X109999469Y-97764934D01*
X110248827Y-97859070D01*
X110526509Y-97876043D01*
X110777835Y-97834149D01*
X110988875Y-97741802D01*
X111183601Y-97585404D01*
X111341620Y-97385474D01*
X111441363Y-97166566D01*
X111500940Y-96854974D01*
X111503192Y-96540112D01*
X111450996Y-96242160D01*
X111347231Y-95981297D01*
X111252121Y-95839521D01*
X111064171Y-95660006D01*
X110858554Y-95555000D01*
X112137870Y-95555000D01*
X112151518Y-96433416D01*
X112156771Y-96731858D01*
X112162881Y-96958668D01*
X112171163Y-97126880D01*
X112182927Y-97249528D01*
X112199488Y-97339645D01*
X112222156Y-97410265D01*
X112252247Y-97474422D01*
X112257323Y-97483998D01*
X112349622Y-97634363D01*
X112447423Y-97730815D01*
X112581265Y-97800322D01*
X112641016Y-97822825D01*
X112836352Y-97873152D01*
X113021440Y-97871088D01*
X113175016Y-97837550D01*
X113298841Y-97782384D01*
X113440852Y-97689619D01*
X113524266Y-97620728D01*
X113710334Y-97449216D01*
X113710334Y-97798666D01*
X114049000Y-97798666D01*
X114049000Y-96676833D01*
X116066141Y-96676833D01*
X116098783Y-97019010D01*
X116195044Y-97307548D01*
X116353833Y-97540687D01*
X116574059Y-97716669D01*
X116766064Y-97805578D01*
X117004297Y-97858301D01*
X117274597Y-97867432D01*
X117538162Y-97833920D01*
X117705160Y-97782598D01*
X117806706Y-97730339D01*
X117850124Y-97667239D01*
X117859000Y-97566906D01*
X117859000Y-97415492D01*
X117723330Y-97485650D01*
X117565013Y-97539521D01*
X117361082Y-97571844D01*
X117148492Y-97579797D01*
X116964198Y-97560559D01*
X116914741Y-97547386D01*
X116744587Y-97452039D01*
X116594394Y-97296494D01*
X116522772Y-97170608D01*
X118409334Y-97170608D01*
X118446139Y-97413209D01*
X118553723Y-97611709D01*
X118727836Y-97759989D01*
X118861615Y-97822000D01*
X119052447Y-97871407D01*
X119241308Y-97874379D01*
X119455638Y-97834283D01*
X119673281Y-97737018D01*
X119813050Y-97622616D01*
X119975667Y-97460000D01*
X119975667Y-97629333D01*
X119979740Y-97737720D01*
X120008255Y-97785882D01*
X120085652Y-97798259D01*
X120145000Y-97798666D01*
X120314334Y-97798666D01*
X120314097Y-97026083D01*
X120311407Y-96756127D01*
X120304058Y-96509130D01*
X120292878Y-96301624D01*
X120278697Y-96150139D01*
X120266891Y-96084306D01*
X120200523Y-95939916D01*
X120088733Y-95787119D01*
X120044877Y-95740191D01*
X119847533Y-95591392D01*
X119746314Y-95555000D01*
X121118667Y-95555000D01*
X121118667Y-97798666D01*
X121447892Y-97798666D01*
X121465931Y-97047250D01*
X121476238Y-96726492D01*
X121491810Y-96478137D01*
X121515623Y-96289955D01*
X121550655Y-96149712D01*
X121599884Y-96045177D01*
X121666287Y-95964118D01*
X121745272Y-95899644D01*
X121928269Y-95811560D01*
X122134960Y-95777567D01*
X122331486Y-95801549D01*
X122393482Y-95825244D01*
X122478962Y-95869448D01*
X122544322Y-95918116D01*
X122592486Y-95982731D01*
X122626375Y-96074775D01*
X122648911Y-96205732D01*
X122663016Y-96387085D01*
X122671613Y-96630315D01*
X122677537Y-96941416D01*
X122691241Y-97798666D01*
X123028419Y-97798666D01*
X123015460Y-96920250D01*
X123010353Y-96620534D01*
X123004224Y-96392494D01*
X122995816Y-96223139D01*
X122983874Y-96099478D01*
X122967141Y-96008519D01*
X122944362Y-95937271D01*
X122914279Y-95872745D01*
X122914151Y-95872500D01*
X122772905Y-95684778D01*
X122586499Y-95557937D01*
X122576614Y-95555000D01*
X123828000Y-95555000D01*
X123828000Y-97798666D01*
X124166667Y-97798666D01*
X124166667Y-97056473D01*
X124168755Y-96746699D01*
X124176951Y-96508402D01*
X124194148Y-96328455D01*
X124223242Y-96193730D01*
X124267128Y-96091098D01*
X124328701Y-96007432D01*
X124410856Y-95929603D01*
X124416157Y-95925124D01*
X124597739Y-95818018D01*
X124795359Y-95776259D01*
X124989264Y-95797678D01*
X125159701Y-95880108D01*
X125286498Y-96020666D01*
X125317099Y-96080410D01*
X125340076Y-96149269D01*
X125356830Y-96240568D01*
X125368759Y-96367631D01*
X125377263Y-96543783D01*
X125383741Y-96782349D01*
X125387646Y-96983750D01*
X125402125Y-97798666D01*
X125741693Y-97798666D01*
X125723619Y-96941416D01*
X125716971Y-96676833D01*
X126368000Y-96676833D01*
X126400065Y-97015789D01*
X126492952Y-97305725D01*
X126641702Y-97541322D01*
X126841353Y-97717265D01*
X127086946Y-97828237D01*
X127373519Y-97868921D01*
X127477422Y-97865935D01*
X127704230Y-97826433D01*
X127898779Y-97749930D01*
X128122220Y-97579733D01*
X128287981Y-97351354D01*
X128393385Y-97070974D01*
X128435759Y-96744777D01*
X128429332Y-96523756D01*
X128370235Y-96194990D01*
X128254289Y-95927085D01*
X128083437Y-95721989D01*
X128019662Y-95682000D01*
X128823334Y-95682000D01*
X128831593Y-95767326D01*
X128873488Y-95802323D01*
X128971500Y-95809000D01*
X129119667Y-95809000D01*
X129119667Y-96590730D01*
X129123215Y-96942421D01*
X129137605Y-97218634D01*
X129168458Y-97428397D01*
X129221394Y-97580737D01*
X129302033Y-97684683D01*
X129415996Y-97749263D01*
X129568903Y-97783503D01*
X129766375Y-97796432D01*
X129871084Y-97797702D01*
X130220334Y-97798666D01*
X130220334Y-97671666D01*
X130216226Y-97598324D01*
X130189821Y-97560606D01*
X130119992Y-97546669D01*
X129993817Y-97544666D01*
X129762371Y-97527712D01*
X129595704Y-97478412D01*
X129500359Y-97399112D01*
X129484319Y-97362087D01*
X129476085Y-97290317D01*
X129468935Y-97149931D01*
X129463366Y-96956979D01*
X129459873Y-96727510D01*
X129458912Y-96539250D01*
X129458334Y-95809000D01*
X130220334Y-95809000D01*
X130220334Y-95682000D01*
X131829000Y-95682000D01*
X131835687Y-95763433D01*
X131871923Y-95799633D01*
X131961973Y-95808799D01*
X131998334Y-95809000D01*
X132167667Y-95809000D01*
X132167667Y-97798666D01*
X132506334Y-97798666D01*
X132506334Y-97147888D01*
X133481652Y-97147888D01*
X133493280Y-97322904D01*
X133527035Y-97466671D01*
X133539166Y-97493952D01*
X133672063Y-97664213D01*
X133859267Y-97787381D01*
X134081681Y-97858554D01*
X134320210Y-97872835D01*
X134555758Y-97825323D01*
X134658384Y-97781093D01*
X134772303Y-97705420D01*
X134891953Y-97601996D01*
X134916951Y-97576460D01*
X135045942Y-97438833D01*
X135046138Y-97618750D01*
X135046334Y-97798666D01*
X135385000Y-97798666D01*
X135385000Y-97380094D01*
X136020000Y-97380094D01*
X136020000Y-97544548D01*
X136030072Y-97656542D01*
X136055045Y-97727983D01*
X136062721Y-97735406D01*
X136141379Y-97764897D01*
X136276995Y-97799018D01*
X136442440Y-97832510D01*
X136610584Y-97860114D01*
X136754297Y-97876572D01*
X136803167Y-97878932D01*
X136956865Y-97870175D01*
X137125793Y-97845537D01*
X137163000Y-97837705D01*
X137397253Y-97752638D01*
X137585404Y-97620722D01*
X137697162Y-97477265D01*
X137746202Y-97316576D01*
X137749411Y-97128650D01*
X137710308Y-96947703D01*
X137632413Y-96807951D01*
X137627776Y-96802884D01*
X137498381Y-96707136D01*
X137300576Y-96615446D01*
X137050579Y-96534439D01*
X136858656Y-96488756D01*
X136628587Y-96419573D01*
X136478318Y-96323232D01*
X136407321Y-96199331D01*
X136401000Y-96141811D01*
X136414753Y-96022036D01*
X136442440Y-95937669D01*
X136530685Y-95855117D01*
X136681229Y-95798718D01*
X136875187Y-95770602D01*
X137093670Y-95772899D01*
X137317791Y-95807741D01*
X137399689Y-95829708D01*
X137519401Y-95865535D01*
X137599521Y-95888590D01*
X137618084Y-95893208D01*
X137625145Y-95856315D01*
X137628598Y-95765268D01*
X137628667Y-95748783D01*
X137622221Y-95682000D01*
X138136667Y-95682000D01*
X138147342Y-95772103D01*
X138196420Y-95805280D01*
X138258040Y-95809000D01*
X138379414Y-95809000D01*
X138399897Y-96581583D01*
X138412397Y-96934257D01*
X138432934Y-97211361D01*
X138467364Y-97421966D01*
X138521539Y-97575141D01*
X138601315Y-97679956D01*
X138712544Y-97745479D01*
X138861082Y-97780780D01*
X139052782Y-97794929D01*
X139184417Y-97797009D01*
X139533667Y-97798666D01*
X139533667Y-97553920D01*
X139211999Y-97537677D01*
X139068592Y-97529525D01*
X138960272Y-97514387D01*
X138882120Y-97481606D01*
X138829215Y-97420527D01*
X138796637Y-97320493D01*
X138779464Y-97170848D01*
X138772777Y-96960936D01*
X138771654Y-96680101D01*
X138771667Y-96584075D01*
X138771667Y-95809000D01*
X139533667Y-95809000D01*
X139533667Y-95682000D01*
X141142334Y-95682000D01*
X141150593Y-95767326D01*
X141192488Y-95802323D01*
X141290500Y-95809000D01*
X141438667Y-95809000D01*
X141438667Y-96596352D01*
X141440110Y-96893337D01*
X141445040Y-97118229D01*
X141454355Y-97283562D01*
X141468954Y-97401871D01*
X141489736Y-97485689D01*
X141505172Y-97523853D01*
X141589693Y-97647117D01*
X141714241Y-97730299D01*
X141891759Y-97778573D01*
X142135189Y-97797113D01*
X142190084Y-97797702D01*
X142539334Y-97798666D01*
X142539334Y-97553920D01*
X142217666Y-97537677D01*
X142074258Y-97529525D01*
X141965939Y-97514387D01*
X141887787Y-97481606D01*
X141834882Y-97420527D01*
X141802304Y-97320493D01*
X141785131Y-97170848D01*
X141778443Y-96960936D01*
X141777321Y-96680101D01*
X141777334Y-96584075D01*
X141777334Y-95809000D01*
X142539334Y-95809000D01*
X142539334Y-95555000D01*
X143089667Y-95555000D01*
X143089667Y-97798666D01*
X143428334Y-97798666D01*
X143428543Y-97167782D01*
X144698334Y-97167782D01*
X144733141Y-97413293D01*
X144836910Y-97609981D01*
X145008660Y-97756427D01*
X145150615Y-97822000D01*
X145346227Y-97872051D01*
X145540209Y-97873539D01*
X145738021Y-97835949D01*
X145933250Y-97750560D01*
X146095433Y-97624329D01*
X146264667Y-97460094D01*
X146264667Y-97629380D01*
X146268742Y-97737737D01*
X146297263Y-97785885D01*
X146374670Y-97798259D01*
X146434000Y-97798666D01*
X146603334Y-97798666D01*
X146603334Y-97044350D01*
X146600224Y-96700115D01*
X146589080Y-96428034D01*
X146567181Y-96215762D01*
X146531806Y-96050953D01*
X146480234Y-95921262D01*
X146409743Y-95814344D01*
X146317613Y-95717852D01*
X146309284Y-95710266D01*
X146176474Y-95612644D01*
X146116994Y-95582872D01*
X147196000Y-95582872D01*
X147210281Y-95628300D01*
X147250585Y-95742534D01*
X147313105Y-95915145D01*
X147394032Y-96135701D01*
X147489560Y-96393772D01*
X147595879Y-96678927D01*
X147606204Y-96706517D01*
X148016407Y-97802289D01*
X148268668Y-97789894D01*
X148520929Y-97777500D01*
X148823370Y-96973166D01*
X148924351Y-96704378D01*
X148924491Y-96704003D01*
X149783774Y-96704003D01*
X149787704Y-96800472D01*
X149841325Y-97118929D01*
X149958149Y-97382039D01*
X150140097Y-97592058D01*
X150389093Y-97751240D01*
X150688500Y-97857177D01*
X150810434Y-97869901D01*
X150986603Y-97866076D01*
X151188782Y-97848358D01*
X151388747Y-97819404D01*
X151558272Y-97781869D01*
X151589818Y-97772357D01*
X151716432Y-97728184D01*
X151782031Y-97687431D01*
X151806652Y-97629043D01*
X151810334Y-97540616D01*
X151810334Y-97380094D01*
X151609250Y-97469848D01*
X151373298Y-97541138D01*
X151069500Y-97576287D01*
X150884638Y-97581469D01*
X150753682Y-97572053D01*
X150646459Y-97543390D01*
X150540334Y-97494735D01*
X150353467Y-97351963D01*
X150217663Y-97147034D01*
X150141162Y-96899083D01*
X150113164Y-96740333D01*
X151905936Y-96740333D01*
X151876277Y-96475750D01*
X151808226Y-96155860D01*
X151683838Y-95894643D01*
X151505683Y-95695345D01*
X151276330Y-95561215D01*
X151114788Y-95513280D01*
X150803893Y-95487622D01*
X150515370Y-95542254D01*
X150255291Y-95675250D01*
X150062593Y-95846842D01*
X149905275Y-96083385D01*
X149811716Y-96371251D01*
X149783774Y-96704003D01*
X148924491Y-96704003D01*
X149023380Y-96440369D01*
X149113500Y-96199714D01*
X149187756Y-96000988D01*
X149239192Y-95862767D01*
X149239508Y-95861916D01*
X149353205Y-95555000D01*
X148995167Y-95555444D01*
X148664265Y-96456867D01*
X148546351Y-96776692D01*
X148453516Y-97024665D01*
X148382438Y-97208696D01*
X148329798Y-97336693D01*
X148292274Y-97416566D01*
X148266547Y-97456225D01*
X148249296Y-97463579D01*
X148243653Y-97458774D01*
X148224494Y-97414128D01*
X148181695Y-97304090D01*
X148120634Y-97142806D01*
X148046691Y-96944419D01*
X148002622Y-96825000D01*
X147911788Y-96578788D01*
X147819332Y-96329527D01*
X147734606Y-96102341D01*
X147666959Y-95922353D01*
X147652066Y-95883083D01*
X147527255Y-95555000D01*
X147361628Y-95555000D01*
X147256929Y-95561316D01*
X147199655Y-95577053D01*
X147196000Y-95582872D01*
X146116994Y-95582872D01*
X146035196Y-95541930D01*
X145981443Y-95525740D01*
X145783243Y-95502826D01*
X145543212Y-95502232D01*
X145300693Y-95522223D01*
X145095032Y-95561066D01*
X145079334Y-95565527D01*
X144962177Y-95605812D01*
X144903895Y-95651953D01*
X144880812Y-95728630D01*
X144875761Y-95777748D01*
X144862689Y-95933759D01*
X145016503Y-95869491D01*
X145240767Y-95804102D01*
X145490764Y-95775996D01*
X145731882Y-95786747D01*
X145907638Y-95828987D01*
X146087229Y-95933555D01*
X146210006Y-96080803D01*
X146263278Y-96254507D01*
X146264509Y-96285250D01*
X146264667Y-96401666D01*
X145849017Y-96401666D01*
X145485821Y-96421207D01*
X145195122Y-96481139D01*
X144973971Y-96583424D01*
X144819422Y-96730023D01*
X144728527Y-96922900D01*
X144698339Y-97164017D01*
X144698334Y-97167782D01*
X143428543Y-97167782D01*
X143428570Y-97089583D01*
X143431204Y-96840517D01*
X143438332Y-96609930D01*
X143449040Y-96416011D01*
X143462417Y-96276950D01*
X143471931Y-96225232D01*
X143562752Y-96045674D01*
X143713119Y-95905209D01*
X143902840Y-95814460D01*
X144111726Y-95784050D01*
X144267265Y-95806781D01*
X144402000Y-95845423D01*
X144402000Y-95681897D01*
X144387750Y-95567892D01*
X144336737Y-95502705D01*
X144236566Y-95481196D01*
X144074842Y-95498229D01*
X143995763Y-95513511D01*
X143815191Y-95567328D01*
X143672520Y-95655979D01*
X143593879Y-95728120D01*
X143428334Y-95893666D01*
X143428334Y-95724333D01*
X143424260Y-95615946D01*
X143395745Y-95567784D01*
X143318348Y-95555407D01*
X143259000Y-95555000D01*
X143089667Y-95555000D01*
X142539334Y-95555000D01*
X141777334Y-95555000D01*
X141777334Y-94877666D01*
X141438667Y-94877666D01*
X141438667Y-95555000D01*
X141290500Y-95555000D01*
X141190953Y-95562079D01*
X141150122Y-95597989D01*
X141142334Y-95682000D01*
X139533667Y-95682000D01*
X139533667Y-95555000D01*
X138771667Y-95555000D01*
X138771667Y-94877666D01*
X138390667Y-94877666D01*
X138390667Y-95555000D01*
X138263667Y-95555000D01*
X138173713Y-95565489D01*
X138140558Y-95614969D01*
X138136667Y-95682000D01*
X137622221Y-95682000D01*
X137619201Y-95650724D01*
X137574941Y-95594725D01*
X137472091Y-95551035D01*
X137469917Y-95550300D01*
X137351667Y-95524953D01*
X137181481Y-95506120D01*
X136992031Y-95497166D01*
X136951334Y-95496856D01*
X136748314Y-95502027D01*
X136601136Y-95520632D01*
X136481401Y-95557621D01*
X136409923Y-95591213D01*
X136224174Y-95729985D01*
X136106554Y-95910389D01*
X136061888Y-96118168D01*
X136095001Y-96339068D01*
X136128549Y-96422576D01*
X136207856Y-96532958D01*
X136339373Y-96629642D01*
X136532810Y-96717734D01*
X136797875Y-96802343D01*
X136904768Y-96830897D01*
X137077125Y-96881790D01*
X137224470Y-96937146D01*
X137321965Y-96987244D01*
X137338685Y-97000684D01*
X137405720Y-97122475D01*
X137405491Y-97269091D01*
X137339329Y-97415724D01*
X137314743Y-97447056D01*
X137262430Y-97502732D01*
X137208501Y-97537541D01*
X137132553Y-97556330D01*
X137014187Y-97563944D01*
X136833001Y-97565228D01*
X136817327Y-97565206D01*
X136600910Y-97560143D01*
X136441509Y-97542927D01*
X136311844Y-97509310D01*
X136221084Y-97472336D01*
X136020000Y-97380094D01*
X135385000Y-97380094D01*
X135385000Y-97081083D01*
X135382366Y-96825572D01*
X135375089Y-96583708D01*
X135364107Y-96375061D01*
X135350358Y-96219201D01*
X135340721Y-96157035D01*
X135251428Y-95923997D01*
X135099197Y-95724036D01*
X134901865Y-95580182D01*
X134889052Y-95573872D01*
X134737299Y-95528913D01*
X134531476Y-95504873D01*
X134299624Y-95502030D01*
X134069784Y-95520661D01*
X133869998Y-95561041D01*
X133861000Y-95563728D01*
X133743867Y-95605190D01*
X133685542Y-95652085D01*
X133662417Y-95729234D01*
X133657428Y-95777748D01*
X133644356Y-95933759D01*
X133800685Y-95868441D01*
X133927775Y-95829963D01*
X134098061Y-95796746D01*
X134239770Y-95779417D01*
X134507957Y-95782976D01*
X134728401Y-95839792D01*
X134892414Y-95946346D01*
X134984263Y-96081059D01*
X135037169Y-96217857D01*
X135053084Y-96308954D01*
X135021793Y-96363613D01*
X134933081Y-96391095D01*
X134776731Y-96400664D01*
X134630684Y-96401666D01*
X134290113Y-96416947D01*
X134019369Y-96465423D01*
X133808825Y-96551040D01*
X133648852Y-96677745D01*
X133529822Y-96849487D01*
X133527506Y-96853966D01*
X133492833Y-96979088D01*
X133481652Y-97147888D01*
X132506334Y-97147888D01*
X132506334Y-95809000D01*
X133141334Y-95809000D01*
X133141334Y-95558709D01*
X132527500Y-95533833D01*
X132539112Y-95301000D01*
X132561446Y-95127177D01*
X132616996Y-95013951D01*
X132719706Y-94949741D01*
X132883516Y-94922969D01*
X132997857Y-94920000D01*
X133268334Y-94920000D01*
X133268334Y-94771833D01*
X133264175Y-94680439D01*
X133236253Y-94637406D01*
X133161400Y-94624513D01*
X133079917Y-94623666D01*
X152530000Y-94623666D01*
X152530000Y-97798666D01*
X152868667Y-97798666D01*
X152868667Y-94623666D01*
X152530000Y-94623666D01*
X133079917Y-94623666D01*
X132785565Y-94641973D01*
X132560045Y-94700921D01*
X132394915Y-94806549D01*
X132281734Y-94964898D01*
X132212059Y-95182007D01*
X132199256Y-95253766D01*
X132152629Y-95555000D01*
X131990815Y-95555000D01*
X131885387Y-95560642D01*
X131839736Y-95590520D01*
X131829105Y-95664064D01*
X131829000Y-95682000D01*
X130220334Y-95682000D01*
X130220334Y-95555000D01*
X129458334Y-95555000D01*
X129458334Y-94877666D01*
X129119667Y-94877666D01*
X129119667Y-95555000D01*
X128971500Y-95555000D01*
X128871953Y-95562079D01*
X128831122Y-95597989D01*
X128823334Y-95682000D01*
X128019662Y-95682000D01*
X127859620Y-95581650D01*
X127584781Y-95508015D01*
X127405167Y-95496637D01*
X127104340Y-95532426D01*
X126850055Y-95637150D01*
X126645798Y-95806845D01*
X126495051Y-96037547D01*
X126401300Y-96325290D01*
X126368028Y-96666111D01*
X126368000Y-96676833D01*
X125716971Y-96676833D01*
X125715512Y-96618786D01*
X125704762Y-96368115D01*
X125688783Y-96176698D01*
X125664987Y-96031829D01*
X125630784Y-95920799D01*
X125583587Y-95830904D01*
X125520809Y-95749436D01*
X125469557Y-95694087D01*
X125283031Y-95557422D01*
X125065459Y-95490935D01*
X124832363Y-95494093D01*
X124599264Y-95566364D01*
X124381683Y-95707215D01*
X124353330Y-95732389D01*
X124166667Y-95904449D01*
X124166667Y-95555000D01*
X123828000Y-95555000D01*
X122576614Y-95555000D01*
X122370359Y-95493719D01*
X122139917Y-95493866D01*
X121910599Y-95560121D01*
X121697837Y-95694226D01*
X121657349Y-95730557D01*
X121561348Y-95819660D01*
X121493045Y-95878905D01*
X121471610Y-95893666D01*
X121462665Y-95856062D01*
X121457695Y-95762137D01*
X121457334Y-95724333D01*
X121453260Y-95615946D01*
X121424745Y-95567784D01*
X121347348Y-95555407D01*
X121288000Y-95555000D01*
X121118667Y-95555000D01*
X119746314Y-95555000D01*
X119613579Y-95507277D01*
X119334205Y-95485725D01*
X119087695Y-95509630D01*
X118868377Y-95548814D01*
X118720715Y-95590632D01*
X118631822Y-95642246D01*
X118588807Y-95710818D01*
X118578667Y-95792468D01*
X118578667Y-95931679D01*
X118729992Y-95868452D01*
X118914680Y-95814912D01*
X119138981Y-95783485D01*
X119365145Y-95777061D01*
X119555423Y-95798527D01*
X119576257Y-95803706D01*
X119770274Y-95893114D01*
X119900718Y-96036811D01*
X119963544Y-96228172D01*
X119986815Y-96401666D01*
X119565591Y-96401666D01*
X119201858Y-96420812D01*
X118910800Y-96479664D01*
X118689222Y-96580346D01*
X118533932Y-96724983D01*
X118441734Y-96915699D01*
X118409436Y-97154617D01*
X118409334Y-97170608D01*
X116522772Y-97170608D01*
X116485561Y-97105205D01*
X116459068Y-97026639D01*
X116431256Y-96846857D01*
X116428463Y-96633124D01*
X116448408Y-96418352D01*
X116488815Y-96235451D01*
X116519070Y-96160100D01*
X116659683Y-95974867D01*
X116853365Y-95847579D01*
X117088434Y-95781628D01*
X117353208Y-95780406D01*
X117617792Y-95840987D01*
X117863417Y-95924350D01*
X117850625Y-95771425D01*
X117832667Y-95669696D01*
X117784272Y-95610048D01*
X117680413Y-95563299D01*
X117668500Y-95559081D01*
X117454265Y-95511421D01*
X117204624Y-95497658D01*
X116953304Y-95516569D01*
X116734034Y-95566926D01*
X116662819Y-95595616D01*
X116419146Y-95755084D01*
X116238522Y-95970566D01*
X116121642Y-96240804D01*
X116069203Y-96564534D01*
X116066141Y-96676833D01*
X114049000Y-96676833D01*
X114049000Y-95555000D01*
X113717058Y-95555000D01*
X113703112Y-96327583D01*
X113695433Y-96638781D01*
X113682792Y-96878359D01*
X113661753Y-97059348D01*
X113628883Y-97194782D01*
X113580748Y-97297693D01*
X113513915Y-97381113D01*
X113424948Y-97458075D01*
X113400313Y-97476741D01*
X113252108Y-97545517D01*
X113069930Y-97572232D01*
X112885207Y-97557477D01*
X112729364Y-97501843D01*
X112676513Y-97463143D01*
X112612485Y-97391458D01*
X112563934Y-97304497D01*
X112528849Y-97190250D01*
X112505222Y-97036707D01*
X112491040Y-96831857D01*
X112484295Y-96563690D01*
X112482903Y-96306416D01*
X112482667Y-95555000D01*
X112137870Y-95555000D01*
X110858554Y-95555000D01*
X110847421Y-95549315D01*
X110585949Y-95500450D01*
X110471834Y-95496637D01*
X110171006Y-95532426D01*
X109916722Y-95637150D01*
X109712464Y-95806845D01*
X109561718Y-96037547D01*
X109467967Y-96325290D01*
X109434694Y-96666111D01*
X109434667Y-96676833D01*
X108630334Y-96676833D01*
X108630334Y-96350958D01*
X109159500Y-95572013D01*
X109312720Y-95345559D01*
X109448528Y-95143093D01*
X109560130Y-94974889D01*
X109640732Y-94851221D01*
X109683537Y-94782365D01*
X109688667Y-94771867D01*
X109650871Y-94759046D01*
X109555577Y-94751507D01*
X109504252Y-94750666D01*
X109319838Y-94750666D01*
X108901002Y-95384768D01*
X108765156Y-95588114D01*
X108644381Y-95764523D01*
X108546625Y-95902732D01*
X108479841Y-95991482D01*
X108452678Y-96019768D01*
X108420653Y-95986707D01*
X108349654Y-95894309D01*
X108247720Y-95753653D01*
X108122890Y-95575815D01*
X107992548Y-95385666D01*
X107561905Y-94750666D01*
X107373954Y-94750666D01*
X107256611Y-94757234D01*
X107212185Y-94779390D01*
X105202605Y-94779390D01*
X105202226Y-94765021D01*
X105240364Y-94359312D01*
X105352719Y-93983208D01*
X105532966Y-93644685D01*
X105774781Y-93351719D01*
X106071839Y-93112285D01*
X106417813Y-92934359D01*
X106727993Y-92841141D01*
X106893118Y-92819293D01*
X107112607Y-92809059D01*
X107363880Y-92809497D01*
X107624356Y-92819667D01*
X107871455Y-92838626D01*
X108082598Y-92865433D01*
X108235202Y-92899145D01*
X108251472Y-92904675D01*
X108376509Y-92945123D01*
X108468325Y-92952340D01*
X108571600Y-92926260D01*
X108632472Y-92904111D01*
X108793175Y-92863296D01*
X109015105Y-92833254D01*
X109275440Y-92814556D01*
X109551359Y-92807774D01*
X109820037Y-92813479D01*
X110058653Y-92832242D01*
X110241276Y-92863835D01*
X110607837Y-93000586D01*
X110941231Y-93213624D01*
X111177588Y-93434147D01*
X111387457Y-93662794D01*
X111738859Y-93608129D01*
X112116547Y-93574486D01*
X112529881Y-93585261D01*
X112741612Y-93597676D01*
X112947133Y-93604759D01*
X113115749Y-93605662D01*
X113181167Y-93603249D01*
X113306526Y-93597989D01*
X113491664Y-93593858D01*
X113711695Y-93591269D01*
X113941735Y-93590632D01*
X113943167Y-93590635D01*
X114259159Y-93599252D01*
X114513929Y-93627531D01*
X114729805Y-93681424D01*
X114929113Y-93766885D01*
X115134182Y-93889865D01*
X115178595Y-93919999D01*
X115377771Y-94057258D01*
X115612969Y-93915628D01*
X115976883Y-93740043D01*
X116393367Y-93614578D01*
X116844983Y-93541739D01*
X117314291Y-93524030D01*
X117783854Y-93563957D01*
X117911348Y-93585494D01*
X118115235Y-93620515D01*
X118260912Y-93635561D01*
X118372192Y-93631655D01*
X118472886Y-93609822D01*
X118473387Y-93609675D01*
X118580759Y-93588723D01*
X118749949Y-93568083D01*
X118958133Y-93550074D01*
X119182487Y-93537016D01*
X119192500Y-93536586D01*
X119448598Y-93528508D01*
X119646624Y-93530267D01*
X119812784Y-93543617D01*
X119973286Y-93570313D01*
X120091616Y-93596757D01*
X120277079Y-93637754D01*
X120410006Y-93656017D01*
X120518942Y-93653192D01*
X120632431Y-93630927D01*
X120641949Y-93628513D01*
X120746394Y-93611141D01*
X120918790Y-93593148D01*
X121142442Y-93575806D01*
X121400656Y-93560389D01*
X121676736Y-93548170D01*
X121711334Y-93546943D01*
X122024158Y-93537325D01*
X122267842Y-93533120D01*
X122457770Y-93534849D01*
X122609326Y-93543031D01*
X122737895Y-93558190D01*
X122858862Y-93580845D01*
X122885183Y-93586705D01*
X123076439Y-93623903D01*
X123225205Y-93634206D01*
X123368693Y-93619291D01*
X123414349Y-93610546D01*
X123522637Y-93596576D01*
X123699612Y-93583360D01*
X123929295Y-93571661D01*
X124195708Y-93562242D01*
X124482871Y-93555864D01*
X124590000Y-93554441D01*
X124899716Y-93551461D01*
X125138511Y-93550772D01*
X125320122Y-93553430D01*
X125458284Y-93560491D01*
X125566733Y-93573011D01*
X125659208Y-93592047D01*
X125749443Y-93618655D01*
X125842311Y-93650736D01*
X126142121Y-93757307D01*
X126456144Y-93657527D01*
X126807584Y-93576279D01*
X127214667Y-93534373D01*
X127417684Y-93522022D01*
X127556379Y-93507113D01*
X127651061Y-93484690D01*
X127722042Y-93449797D01*
X127789630Y-93397481D01*
X127795068Y-93392769D01*
X128087488Y-93189527D01*
X128426232Y-93039724D01*
X128796371Y-92943498D01*
X129182978Y-92900988D01*
X129571124Y-92912333D01*
X129945881Y-92977671D01*
X130292322Y-93097140D01*
X130595517Y-93270878D01*
X130712671Y-93365719D01*
X130877062Y-93514237D01*
X131058791Y-93335896D01*
X131374240Y-93084075D01*
X131746118Y-92892847D01*
X132175524Y-92761847D01*
X132663555Y-92690709D01*
X133038500Y-92676333D01*
X133447502Y-92692591D01*
G36*
X114836554Y-101319020D02*
G01*
X114944906Y-101345856D01*
X115038229Y-101403000D01*
X115067508Y-101426773D01*
X115207058Y-101586642D01*
X115295687Y-101776200D01*
X115319000Y-101924806D01*
X115319000Y-102032000D01*
X114620500Y-102032000D01*
X114353465Y-102030698D01*
X114160729Y-102026229D01*
X114031956Y-102017746D01*
X113956813Y-102004403D01*
X113924963Y-101985355D01*
X113922000Y-101974817D01*
X113945604Y-101847440D01*
X114004684Y-101696177D01*
X114081644Y-101563106D01*
X114107781Y-101530561D01*
X114257584Y-101404422D01*
X114438707Y-101334428D01*
X114672698Y-101312343D01*
X114678650Y-101312333D01*
X114836554Y-101319020D01*
X114836554Y-101319020D01*
G37*
X114836554Y-101319020D02*
X114944906Y-101345856D01*
X115038229Y-101403000D01*
X115067508Y-101426773D01*
X115207058Y-101586642D01*
X115295687Y-101776200D01*
X115319000Y-101924806D01*
X115319000Y-102032000D01*
X114620500Y-102032000D01*
X114353465Y-102030698D01*
X114160729Y-102026229D01*
X114031956Y-102017746D01*
X113956813Y-102004403D01*
X113924963Y-101985355D01*
X113922000Y-101974817D01*
X113945604Y-101847440D01*
X114004684Y-101696177D01*
X114081644Y-101563106D01*
X114107781Y-101530561D01*
X114257584Y-101404422D01*
X114438707Y-101334428D01*
X114672698Y-101312343D01*
X114678650Y-101312333D01*
X114836554Y-101319020D01*
G36*
X121470275Y-101317162D02*
G01*
X121575245Y-101338568D01*
X121661950Y-101386927D01*
X121729999Y-101442815D01*
X121864325Y-101610264D01*
X121947124Y-101816229D01*
X121965097Y-101957916D01*
X121958721Y-101985292D01*
X121931523Y-102004992D01*
X121871707Y-102018260D01*
X121767476Y-102026340D01*
X121607030Y-102030473D01*
X121378573Y-102031905D01*
X121262122Y-102032000D01*
X120558911Y-102032000D01*
X120586989Y-101873250D01*
X120661515Y-101660962D01*
X120807409Y-101484135D01*
X120906570Y-101407583D01*
X121018289Y-101348545D01*
X121150516Y-101319399D01*
X121313954Y-101312333D01*
X121470275Y-101317162D01*
X121470275Y-101317162D01*
G37*
X121470275Y-101317162D02*
X121575245Y-101338568D01*
X121661950Y-101386927D01*
X121729999Y-101442815D01*
X121864325Y-101610264D01*
X121947124Y-101816229D01*
X121965097Y-101957916D01*
X121958721Y-101985292D01*
X121931523Y-102004992D01*
X121871707Y-102018260D01*
X121767476Y-102026340D01*
X121607030Y-102030473D01*
X121378573Y-102031905D01*
X121262122Y-102032000D01*
X120558911Y-102032000D01*
X120586989Y-101873250D01*
X120661515Y-101660962D01*
X120807409Y-101484135D01*
X120906570Y-101407583D01*
X121018289Y-101348545D01*
X121150516Y-101319399D01*
X121313954Y-101312333D01*
X121470275Y-101317162D01*
G36*
X126761942Y-101317162D02*
G01*
X126866911Y-101338568D01*
X126953616Y-101386927D01*
X127021666Y-101442815D01*
X127155991Y-101610264D01*
X127238790Y-101816229D01*
X127256764Y-101957916D01*
X127250387Y-101985292D01*
X127223190Y-102004992D01*
X127163374Y-102018260D01*
X127059142Y-102026340D01*
X126898697Y-102030473D01*
X126670240Y-102031905D01*
X126553789Y-102032000D01*
X125850578Y-102032000D01*
X125878655Y-101873250D01*
X125953182Y-101660962D01*
X126099075Y-101484135D01*
X126198236Y-101407583D01*
X126309956Y-101348545D01*
X126442183Y-101319399D01*
X126605621Y-101312333D01*
X126761942Y-101317162D01*
X126761942Y-101317162D01*
G37*
X126761942Y-101317162D02*
X126866911Y-101338568D01*
X126953616Y-101386927D01*
X127021666Y-101442815D01*
X127155991Y-101610264D01*
X127238790Y-101816229D01*
X127256764Y-101957916D01*
X127250387Y-101985292D01*
X127223190Y-102004992D01*
X127163374Y-102018260D01*
X127059142Y-102026340D01*
X126898697Y-102030473D01*
X126670240Y-102031905D01*
X126553789Y-102032000D01*
X125850578Y-102032000D01*
X125878655Y-101873250D01*
X125953182Y-101660962D01*
X126099075Y-101484135D01*
X126198236Y-101407583D01*
X126309956Y-101348545D01*
X126442183Y-101319399D01*
X126605621Y-101312333D01*
X126761942Y-101317162D01*
G36*
X134737495Y-101343000D02*
G01*
X134923795Y-101436030D01*
X135057524Y-101594385D01*
X135141964Y-101820870D01*
X135153249Y-101874712D01*
X135182756Y-102032000D01*
X133776334Y-102032000D01*
X133776334Y-101932825D01*
X133808026Y-101787181D01*
X133889676Y-101626250D01*
X134001141Y-101482228D01*
X134115395Y-101390875D01*
X134291216Y-101331831D01*
X134495340Y-101312491D01*
X134737495Y-101343000D01*
X134737495Y-101343000D01*
G37*
X134737495Y-101343000D02*
X134923795Y-101436030D01*
X135057524Y-101594385D01*
X135141964Y-101820870D01*
X135153249Y-101874712D01*
X135182756Y-102032000D01*
X133776334Y-102032000D01*
X133776334Y-101932825D01*
X133808026Y-101787181D01*
X133889676Y-101626250D01*
X134001141Y-101482228D01*
X134115395Y-101390875D01*
X134291216Y-101331831D01*
X134495340Y-101312491D01*
X134737495Y-101343000D01*
G36*
X141142334Y-102364008D02*
G01*
X141107446Y-102602384D01*
X141011270Y-102807286D01*
X140866531Y-102969229D01*
X140685958Y-103078726D01*
X140482276Y-103126290D01*
X140268214Y-103102435D01*
X140189817Y-103073996D01*
X140044100Y-102985538D01*
X139961185Y-102862860D01*
X139928359Y-102734976D01*
X139930291Y-102556902D01*
X139987454Y-102399909D01*
X140086846Y-102294047D01*
X140176616Y-102260641D01*
X140327302Y-102227061D01*
X140515237Y-102196922D01*
X140716757Y-102173839D01*
X140908194Y-102161427D01*
X140962417Y-102160307D01*
X141142334Y-102159000D01*
X141142334Y-102364008D01*
X141142334Y-102364008D01*
G37*
X141142334Y-102364008D02*
X141107446Y-102602384D01*
X141011270Y-102807286D01*
X140866531Y-102969229D01*
X140685958Y-103078726D01*
X140482276Y-103126290D01*
X140268214Y-103102435D01*
X140189817Y-103073996D01*
X140044100Y-102985538D01*
X139961185Y-102862860D01*
X139928359Y-102734976D01*
X139930291Y-102556902D01*
X139987454Y-102399909D01*
X140086846Y-102294047D01*
X140176616Y-102260641D01*
X140327302Y-102227061D01*
X140515237Y-102196922D01*
X140716757Y-102173839D01*
X140908194Y-102161427D01*
X140962417Y-102160307D01*
X141142334Y-102159000D01*
X141142334Y-102364008D01*
G36*
X145151495Y-101343000D02*
G01*
X145337795Y-101436030D01*
X145471524Y-101594385D01*
X145555964Y-101820870D01*
X145567249Y-101874712D01*
X145596756Y-102032000D01*
X144190334Y-102032000D01*
X144190334Y-101935136D01*
X144209335Y-101840202D01*
X144257386Y-101711867D01*
X144285584Y-101652518D01*
X144413105Y-101476304D01*
X144585313Y-101365730D01*
X144810569Y-101316236D01*
X144909340Y-101312491D01*
X145151495Y-101343000D01*
X145151495Y-101343000D01*
G37*
X145151495Y-101343000D02*
X145337795Y-101436030D01*
X145471524Y-101594385D01*
X145555964Y-101820870D01*
X145567249Y-101874712D01*
X145596756Y-102032000D01*
X144190334Y-102032000D01*
X144190334Y-101935136D01*
X144209335Y-101840202D01*
X144257386Y-101711867D01*
X144285584Y-101652518D01*
X144413105Y-101476304D01*
X144585313Y-101365730D01*
X144810569Y-101316236D01*
X144909340Y-101312491D01*
X145151495Y-101343000D01*
G36*
X151798540Y-101343142D02*
G01*
X151984345Y-101436003D01*
X152115300Y-101592986D01*
X152193616Y-101816006D01*
X152203867Y-101873250D01*
X152228344Y-102032000D01*
X150836667Y-102032000D01*
X150837363Y-101915583D01*
X150872148Y-101759483D01*
X150961138Y-101595448D01*
X151083831Y-101455377D01*
X151174673Y-101390823D01*
X151350208Y-101332105D01*
X151555673Y-101312491D01*
X151798540Y-101343142D01*
X151798540Y-101343142D01*
G37*
X151798540Y-101343142D02*
X151984345Y-101436003D01*
X152115300Y-101592986D01*
X152193616Y-101816006D01*
X152203867Y-101873250D01*
X152228344Y-102032000D01*
X150836667Y-102032000D01*
X150837363Y-101915583D01*
X150872148Y-101759483D01*
X150961138Y-101595448D01*
X151083831Y-101455377D01*
X151174673Y-101390823D01*
X151350208Y-101332105D01*
X151555673Y-101312491D01*
X151798540Y-101343142D01*
G36*
X154643446Y-102332864D02*
G01*
X154606086Y-102586000D01*
X154510728Y-102800575D01*
X154368453Y-102968011D01*
X154190343Y-103079727D01*
X153987477Y-103127146D01*
X153770937Y-103101686D01*
X153689015Y-103071837D01*
X153533481Y-102963217D01*
X153441786Y-102810052D01*
X153419176Y-102628915D01*
X153470900Y-102436380D01*
X153481214Y-102415487D01*
X153538787Y-102335268D01*
X153625354Y-102275790D01*
X153754484Y-102232680D01*
X153939750Y-102201563D01*
X154194721Y-102178066D01*
X154224277Y-102175988D01*
X154646667Y-102146896D01*
X154643446Y-102332864D01*
X154643446Y-102332864D01*
G37*
X154643446Y-102332864D02*
X154606086Y-102586000D01*
X154510728Y-102800575D01*
X154368453Y-102968011D01*
X154190343Y-103079727D01*
X153987477Y-103127146D01*
X153770937Y-103101686D01*
X153689015Y-103071837D01*
X153533481Y-102963217D01*
X153441786Y-102810052D01*
X153419176Y-102628915D01*
X153470900Y-102436380D01*
X153481214Y-102415487D01*
X153538787Y-102335268D01*
X153625354Y-102275790D01*
X153754484Y-102232680D01*
X153939750Y-102201563D01*
X154194721Y-102178066D01*
X154224277Y-102175988D01*
X154646667Y-102146896D01*
X154643446Y-102332864D01*
G36*
X158752035Y-101326335D02*
G01*
X158931753Y-101426974D01*
X159076954Y-101594287D01*
X159082702Y-101603889D01*
X159137663Y-101706007D01*
X159171738Y-101801211D01*
X159189792Y-101914824D01*
X159196691Y-102072173D01*
X159197500Y-102201333D01*
X159182859Y-102489882D01*
X159135915Y-102711677D01*
X159052142Y-102879944D01*
X158927011Y-103007911D01*
X158919429Y-103013606D01*
X158770644Y-103082527D01*
X158584215Y-103113897D01*
X158400225Y-103103724D01*
X158304910Y-103074783D01*
X158129735Y-102954458D01*
X158006472Y-102774111D01*
X157933980Y-102530866D01*
X157911117Y-102221849D01*
X157914905Y-102092230D01*
X157932791Y-101884071D01*
X157964909Y-101733554D01*
X158017381Y-101614042D01*
X158029448Y-101593787D01*
X158176505Y-101426095D01*
X158357337Y-101325731D01*
X158554872Y-101292533D01*
X158752035Y-101326335D01*
X158752035Y-101326335D01*
G37*
X158752035Y-101326335D02*
X158931753Y-101426974D01*
X159076954Y-101594287D01*
X159082702Y-101603889D01*
X159137663Y-101706007D01*
X159171738Y-101801211D01*
X159189792Y-101914824D01*
X159196691Y-102072173D01*
X159197500Y-102201333D01*
X159182859Y-102489882D01*
X159135915Y-102711677D01*
X159052142Y-102879944D01*
X158927011Y-103007911D01*
X158919429Y-103013606D01*
X158770644Y-103082527D01*
X158584215Y-103113897D01*
X158400225Y-103103724D01*
X158304910Y-103074783D01*
X158129735Y-102954458D01*
X158006472Y-102774111D01*
X157933980Y-102530866D01*
X157911117Y-102221849D01*
X157914905Y-102092230D01*
X157932791Y-101884071D01*
X157964909Y-101733554D01*
X158017381Y-101614042D01*
X158029448Y-101593787D01*
X158176505Y-101426095D01*
X158357337Y-101325731D01*
X158554872Y-101292533D01*
X158752035Y-101326335D01*
G36*
X110617945Y-95784195D02*
G01*
X110801761Y-95872022D01*
X110960514Y-96030733D01*
X111036092Y-96155926D01*
X111091739Y-96290014D01*
X111122362Y-96431332D01*
X111133988Y-96612577D01*
X111134684Y-96690750D01*
X111115352Y-96968309D01*
X111052823Y-97188198D01*
X110940293Y-97369190D01*
X110857279Y-97456490D01*
X110712183Y-97540774D01*
X110525592Y-97579350D01*
X110328763Y-97569814D01*
X110154334Y-97510526D01*
X109989804Y-97374851D01*
X109877366Y-97176761D01*
X109816035Y-96913930D01*
X109802967Y-96681367D01*
X109807472Y-96486832D01*
X109824655Y-96347594D01*
X109860015Y-96234589D01*
X109904567Y-96144483D01*
X110052376Y-95947396D01*
X110229626Y-95821744D01*
X110422691Y-95767390D01*
X110617945Y-95784195D01*
X110617945Y-95784195D01*
G37*
X110617945Y-95784195D02*
X110801761Y-95872022D01*
X110960514Y-96030733D01*
X111036092Y-96155926D01*
X111091739Y-96290014D01*
X111122362Y-96431332D01*
X111133988Y-96612577D01*
X111134684Y-96690750D01*
X111115352Y-96968309D01*
X111052823Y-97188198D01*
X110940293Y-97369190D01*
X110857279Y-97456490D01*
X110712183Y-97540774D01*
X110525592Y-97579350D01*
X110328763Y-97569814D01*
X110154334Y-97510526D01*
X109989804Y-97374851D01*
X109877366Y-97176761D01*
X109816035Y-96913930D01*
X109802967Y-96681367D01*
X109807472Y-96486832D01*
X109824655Y-96347594D01*
X109860015Y-96234589D01*
X109904567Y-96144483D01*
X110052376Y-95947396D01*
X110229626Y-95821744D01*
X110422691Y-95767390D01*
X110617945Y-95784195D01*
G36*
X119975667Y-96837196D02*
G01*
X119942242Y-97046188D01*
X119852714Y-97252180D01*
X119723202Y-97423630D01*
X119641323Y-97491408D01*
X119482569Y-97558272D01*
X119288980Y-97586218D01*
X119097909Y-97573230D01*
X118964327Y-97527923D01*
X118838982Y-97414226D01*
X118765894Y-97256960D01*
X118749765Y-97082612D01*
X118795301Y-96917665D01*
X118843250Y-96846311D01*
X118946786Y-96761992D01*
X119095282Y-96704278D01*
X119300727Y-96670266D01*
X119575110Y-96657054D01*
X119626417Y-96656676D01*
X119975667Y-96655666D01*
X119975667Y-96837196D01*
X119975667Y-96837196D01*
G37*
X119975667Y-96837196D02*
X119942242Y-97046188D01*
X119852714Y-97252180D01*
X119723202Y-97423630D01*
X119641323Y-97491408D01*
X119482569Y-97558272D01*
X119288980Y-97586218D01*
X119097909Y-97573230D01*
X118964327Y-97527923D01*
X118838982Y-97414226D01*
X118765894Y-97256960D01*
X118749765Y-97082612D01*
X118795301Y-96917665D01*
X118843250Y-96846311D01*
X118946786Y-96761992D01*
X119095282Y-96704278D01*
X119300727Y-96670266D01*
X119575110Y-96657054D01*
X119626417Y-96656676D01*
X119975667Y-96655666D01*
X119975667Y-96837196D01*
G36*
X127579847Y-95794364D02*
G01*
X127767915Y-95883532D01*
X127912045Y-96040714D01*
X128009181Y-96262043D01*
X128056271Y-96543655D01*
X128060404Y-96675219D01*
X128039205Y-96968625D01*
X127974268Y-97200597D01*
X127860888Y-97384833D01*
X127792077Y-97456490D01*
X127645140Y-97541007D01*
X127457123Y-97579417D01*
X127259468Y-97569306D01*
X127087667Y-97510526D01*
X126922069Y-97371700D01*
X126807121Y-97167749D01*
X126744587Y-96902674D01*
X126732891Y-96705087D01*
X126744746Y-96440320D01*
X126786686Y-96236581D01*
X126865272Y-96073565D01*
X126981273Y-95936543D01*
X127093866Y-95844241D01*
X127210796Y-95796591D01*
X127350892Y-95777074D01*
X127579847Y-95794364D01*
X127579847Y-95794364D01*
G37*
X127579847Y-95794364D02*
X127767915Y-95883532D01*
X127912045Y-96040714D01*
X128009181Y-96262043D01*
X128056271Y-96543655D01*
X128060404Y-96675219D01*
X128039205Y-96968625D01*
X127974268Y-97200597D01*
X127860888Y-97384833D01*
X127792077Y-97456490D01*
X127645140Y-97541007D01*
X127457123Y-97579417D01*
X127259468Y-97569306D01*
X127087667Y-97510526D01*
X126922069Y-97371700D01*
X126807121Y-97167749D01*
X126744587Y-96902674D01*
X126732891Y-96705087D01*
X126744746Y-96440320D01*
X126786686Y-96236581D01*
X126865272Y-96073565D01*
X126981273Y-95936543D01*
X127093866Y-95844241D01*
X127210796Y-95796591D01*
X127350892Y-95777074D01*
X127579847Y-95794364D01*
G36*
X135033061Y-96867309D02*
G01*
X134972909Y-97141165D01*
X134864240Y-97346444D01*
X134704982Y-97485359D01*
X134493065Y-97560121D01*
X134371769Y-97573883D01*
X134222602Y-97573992D01*
X134096214Y-97560893D01*
X134045446Y-97547309D01*
X133923176Y-97452788D01*
X133845199Y-97308379D01*
X133816597Y-97139232D01*
X133842450Y-96970496D01*
X133905259Y-96853333D01*
X134002278Y-96766287D01*
X134141508Y-96706592D01*
X134335383Y-96671089D01*
X134596336Y-96656616D01*
X134681813Y-96655902D01*
X135058127Y-96655666D01*
X135033061Y-96867309D01*
X135033061Y-96867309D01*
G37*
X135033061Y-96867309D02*
X134972909Y-97141165D01*
X134864240Y-97346444D01*
X134704982Y-97485359D01*
X134493065Y-97560121D01*
X134371769Y-97573883D01*
X134222602Y-97573992D01*
X134096214Y-97560893D01*
X134045446Y-97547309D01*
X133923176Y-97452788D01*
X133845199Y-97308379D01*
X133816597Y-97139232D01*
X133842450Y-96970496D01*
X133905259Y-96853333D01*
X134002278Y-96766287D01*
X134141508Y-96706592D01*
X134335383Y-96671089D01*
X134596336Y-96656616D01*
X134681813Y-96655902D01*
X135058127Y-96655666D01*
X135033061Y-96867309D01*
G36*
X146252007Y-96893095D02*
G01*
X146197963Y-97128021D01*
X146094263Y-97328185D01*
X145952346Y-97475043D01*
X145861054Y-97526832D01*
X145673845Y-97574723D01*
X145470091Y-97579845D01*
X145288123Y-97542653D01*
X145236133Y-97519431D01*
X145119530Y-97412136D01*
X145051747Y-97259217D01*
X145037261Y-97087174D01*
X145080551Y-96922511D01*
X145123592Y-96853333D01*
X145220606Y-96766289D01*
X145359828Y-96706596D01*
X145553692Y-96671092D01*
X145814632Y-96656617D01*
X145900173Y-96655902D01*
X146276512Y-96655666D01*
X146252007Y-96893095D01*
X146252007Y-96893095D01*
G37*
X146252007Y-96893095D02*
X146197963Y-97128021D01*
X146094263Y-97328185D01*
X145952346Y-97475043D01*
X145861054Y-97526832D01*
X145673845Y-97574723D01*
X145470091Y-97579845D01*
X145288123Y-97542653D01*
X145236133Y-97519431D01*
X145119530Y-97412136D01*
X145051747Y-97259217D01*
X145037261Y-97087174D01*
X145080551Y-96922511D01*
X145123592Y-96853333D01*
X145220606Y-96766289D01*
X145359828Y-96706596D01*
X145553692Y-96671092D01*
X145814632Y-96656617D01*
X145900173Y-96655902D01*
X146276512Y-96655666D01*
X146252007Y-96893095D01*
G36*
X151069548Y-95796049D02*
G01*
X151265638Y-95883802D01*
X151410564Y-96038385D01*
X151501103Y-96257268D01*
X151514316Y-96318726D01*
X151544965Y-96486333D01*
X150148256Y-96486333D01*
X150173856Y-96328576D01*
X150248221Y-96109549D01*
X150387598Y-95940202D01*
X150584048Y-95827248D01*
X150825515Y-95777658D01*
X151069548Y-95796049D01*
X151069548Y-95796049D01*
G37*
X151069548Y-95796049D02*
X151265638Y-95883802D01*
X151410564Y-96038385D01*
X151501103Y-96257268D01*
X151514316Y-96318726D01*
X151544965Y-96486333D01*
X150148256Y-96486333D01*
X150173856Y-96328576D01*
X150248221Y-96109549D01*
X150387598Y-95940202D01*
X150584048Y-95827248D01*
X150825515Y-95777658D01*
X151069548Y-95796049D01*
M02*
