G04 #@! TF.GenerationSoftware,KiCad,Pcbnew,(5.1.4)-1*
G04 #@! TF.CreationDate,2020-02-13T00:02:55-05:00*
G04 #@! TF.ProjectId,enemies,656e656d-6965-4732-9e6b-696361645f70,rev?*
G04 #@! TF.SameCoordinates,Original*
G04 #@! TF.FileFunction,Legend,Bot*
G04 #@! TF.FilePolarity,Positive*
%FSLAX46Y46*%
G04 Gerber Fmt 4.6, Leading zero omitted, Abs format (unit mm)*
G04 Created by KiCad (PCBNEW (5.1.4)-1) date 2020-02-13 00:02:55*
%MOMM*%
%LPD*%
G04 APERTURE LIST*
%ADD10C,0.150000*%
%ADD11C,0.120000*%
G04 APERTURE END LIST*
D10*
X117450000Y-89250000D02*
X117450000Y-87500000D01*
X122755000Y-89250000D02*
X122755000Y-94750000D01*
X117245000Y-89250000D02*
X117245000Y-94750000D01*
X122755000Y-89250000D02*
X122455000Y-89250000D01*
X122755000Y-94750000D02*
X122455000Y-94750000D01*
X117245000Y-94750000D02*
X117545000Y-94750000D01*
X117245000Y-89250000D02*
X117450000Y-89250000D01*
D11*
X108624721Y-99240000D02*
X108950279Y-99240000D01*
X108624721Y-100260000D02*
X108950279Y-100260000D01*
X162375279Y-100260000D02*
X162049721Y-100260000D01*
X162375279Y-99240000D02*
X162049721Y-99240000D01*
X142830000Y-87830000D02*
X142830000Y-86500000D01*
X141500000Y-87830000D02*
X142830000Y-87830000D01*
X140230000Y-87830000D02*
X140230000Y-85170000D01*
X140230000Y-85170000D02*
X127470000Y-85170000D01*
X140230000Y-87830000D02*
X127470000Y-87830000D01*
X127470000Y-87830000D02*
X127470000Y-85170000D01*
X124200000Y-98450000D02*
X131050000Y-93650000D01*
X131050000Y-93650000D02*
X138950000Y-93650000D01*
X138950000Y-93650000D02*
X145750000Y-98450000D01*
X124450000Y-114000000D02*
X131150000Y-114000000D01*
X131153615Y-114001464D02*
G75*
G03X138850000Y-114000000I3846385J9501464D01*
G01*
X145550000Y-114000000D02*
X138850000Y-114000000D01*
X124250000Y-107250000D02*
X119450000Y-107250000D01*
X119450000Y-107250000D02*
X119450000Y-101750000D01*
X119450000Y-101750000D02*
X124250000Y-101750000D01*
X145750000Y-101750000D02*
X150550000Y-101750000D01*
X150550000Y-101750000D02*
X150550000Y-107250000D01*
X150550000Y-107250000D02*
X145750000Y-107250000D01*
D10*
X115772380Y-91238095D02*
X116581904Y-91238095D01*
X116677142Y-91285714D01*
X116724761Y-91333333D01*
X116772380Y-91428571D01*
X116772380Y-91619047D01*
X116724761Y-91714285D01*
X116677142Y-91761904D01*
X116581904Y-91809523D01*
X115772380Y-91809523D01*
X116772380Y-92809523D02*
X116772380Y-92238095D01*
X116772380Y-92523809D02*
X115772380Y-92523809D01*
X115915238Y-92428571D01*
X116010476Y-92333333D01*
X116058095Y-92238095D01*
X108954166Y-101632380D02*
X109287500Y-101156190D01*
X109525595Y-101632380D02*
X109525595Y-100632380D01*
X109144642Y-100632380D01*
X109049404Y-100680000D01*
X109001785Y-100727619D01*
X108954166Y-100822857D01*
X108954166Y-100965714D01*
X109001785Y-101060952D01*
X109049404Y-101108571D01*
X109144642Y-101156190D01*
X109525595Y-101156190D01*
X108573214Y-100727619D02*
X108525595Y-100680000D01*
X108430357Y-100632380D01*
X108192261Y-100632380D01*
X108097023Y-100680000D01*
X108049404Y-100727619D01*
X108001785Y-100822857D01*
X108001785Y-100918095D01*
X108049404Y-101060952D01*
X108620833Y-101632380D01*
X108001785Y-101632380D01*
X162379166Y-98772380D02*
X162712500Y-98296190D01*
X162950595Y-98772380D02*
X162950595Y-97772380D01*
X162569642Y-97772380D01*
X162474404Y-97820000D01*
X162426785Y-97867619D01*
X162379166Y-97962857D01*
X162379166Y-98105714D01*
X162426785Y-98200952D01*
X162474404Y-98248571D01*
X162569642Y-98296190D01*
X162950595Y-98296190D01*
X161426785Y-98772380D02*
X161998214Y-98772380D01*
X161712500Y-98772380D02*
X161712500Y-97772380D01*
X161807738Y-97915238D01*
X161902976Y-98010476D01*
X161998214Y-98058095D01*
X143282380Y-86166666D02*
X143996666Y-86166666D01*
X144139523Y-86119047D01*
X144234761Y-86023809D01*
X144282380Y-85880952D01*
X144282380Y-85785714D01*
X144282380Y-87166666D02*
X144282380Y-86595238D01*
X144282380Y-86880952D02*
X143282380Y-86880952D01*
X143425238Y-86785714D01*
X143520476Y-86690476D01*
X143568095Y-86595238D01*
X126635714Y-94728571D02*
X126492857Y-94776190D01*
X126445238Y-94823809D01*
X126397619Y-94919047D01*
X126397619Y-95061904D01*
X126445238Y-95157142D01*
X126492857Y-95204761D01*
X126588095Y-95252380D01*
X126969047Y-95252380D01*
X126969047Y-94252380D01*
X126635714Y-94252380D01*
X126540476Y-94300000D01*
X126492857Y-94347619D01*
X126445238Y-94442857D01*
X126445238Y-94538095D01*
X126492857Y-94633333D01*
X126540476Y-94680952D01*
X126635714Y-94728571D01*
X126969047Y-94728571D01*
X126111904Y-94252380D02*
X125540476Y-94252380D01*
X125826190Y-95252380D02*
X125826190Y-94252380D01*
X124683333Y-95252380D02*
X125254761Y-95252380D01*
X124969047Y-95252380D02*
X124969047Y-94252380D01*
X125064285Y-94395238D01*
X125159523Y-94490476D01*
X125254761Y-94538095D01*
M02*
