G04 #@! TF.GenerationSoftware,KiCad,Pcbnew,(5.1.4)-1*
G04 #@! TF.CreationDate,2020-02-13T00:02:55-05:00*
G04 #@! TF.ProjectId,enemies,656e656d-6965-4732-9e6b-696361645f70,rev?*
G04 #@! TF.SameCoordinates,Original*
G04 #@! TF.FileFunction,Copper,L2,Bot*
G04 #@! TF.FilePolarity,Positive*
%FSLAX46Y46*%
G04 Gerber Fmt 4.6, Leading zero omitted, Abs format (unit mm)*
G04 Created by KiCad (PCBNEW (5.1.4)-1) date 2020-02-13 00:02:55*
%MOMM*%
%LPD*%
G04 APERTURE LIST*
%ADD10R,0.650000X1.700000*%
%ADD11C,0.100000*%
%ADD12C,0.875000*%
%ADD13O,1.700000X1.700000*%
%ADD14R,1.700000X1.700000*%
%ADD15C,12.000000*%
%ADD16R,5.100000X5.100000*%
%ADD17C,0.600000*%
%ADD18C,0.250000*%
%ADD19C,0.254000*%
G04 APERTURE END LIST*
D10*
X118095000Y-95650000D03*
X119365000Y-95650000D03*
X120635000Y-95650000D03*
X121905000Y-95650000D03*
X121905000Y-88350000D03*
X120635000Y-88350000D03*
X119365000Y-88350000D03*
X118095000Y-88350000D03*
D11*
G36*
X109815191Y-99276053D02*
G01*
X109836426Y-99279203D01*
X109857250Y-99284419D01*
X109877462Y-99291651D01*
X109896868Y-99300830D01*
X109915281Y-99311866D01*
X109932524Y-99324654D01*
X109948430Y-99339070D01*
X109962846Y-99354976D01*
X109975634Y-99372219D01*
X109986670Y-99390632D01*
X109995849Y-99410038D01*
X110003081Y-99430250D01*
X110008297Y-99451074D01*
X110011447Y-99472309D01*
X110012500Y-99493750D01*
X110012500Y-100006250D01*
X110011447Y-100027691D01*
X110008297Y-100048926D01*
X110003081Y-100069750D01*
X109995849Y-100089962D01*
X109986670Y-100109368D01*
X109975634Y-100127781D01*
X109962846Y-100145024D01*
X109948430Y-100160930D01*
X109932524Y-100175346D01*
X109915281Y-100188134D01*
X109896868Y-100199170D01*
X109877462Y-100208349D01*
X109857250Y-100215581D01*
X109836426Y-100220797D01*
X109815191Y-100223947D01*
X109793750Y-100225000D01*
X109356250Y-100225000D01*
X109334809Y-100223947D01*
X109313574Y-100220797D01*
X109292750Y-100215581D01*
X109272538Y-100208349D01*
X109253132Y-100199170D01*
X109234719Y-100188134D01*
X109217476Y-100175346D01*
X109201570Y-100160930D01*
X109187154Y-100145024D01*
X109174366Y-100127781D01*
X109163330Y-100109368D01*
X109154151Y-100089962D01*
X109146919Y-100069750D01*
X109141703Y-100048926D01*
X109138553Y-100027691D01*
X109137500Y-100006250D01*
X109137500Y-99493750D01*
X109138553Y-99472309D01*
X109141703Y-99451074D01*
X109146919Y-99430250D01*
X109154151Y-99410038D01*
X109163330Y-99390632D01*
X109174366Y-99372219D01*
X109187154Y-99354976D01*
X109201570Y-99339070D01*
X109217476Y-99324654D01*
X109234719Y-99311866D01*
X109253132Y-99300830D01*
X109272538Y-99291651D01*
X109292750Y-99284419D01*
X109313574Y-99279203D01*
X109334809Y-99276053D01*
X109356250Y-99275000D01*
X109793750Y-99275000D01*
X109815191Y-99276053D01*
X109815191Y-99276053D01*
G37*
D12*
X109575000Y-99750000D03*
D11*
G36*
X108240191Y-99276053D02*
G01*
X108261426Y-99279203D01*
X108282250Y-99284419D01*
X108302462Y-99291651D01*
X108321868Y-99300830D01*
X108340281Y-99311866D01*
X108357524Y-99324654D01*
X108373430Y-99339070D01*
X108387846Y-99354976D01*
X108400634Y-99372219D01*
X108411670Y-99390632D01*
X108420849Y-99410038D01*
X108428081Y-99430250D01*
X108433297Y-99451074D01*
X108436447Y-99472309D01*
X108437500Y-99493750D01*
X108437500Y-100006250D01*
X108436447Y-100027691D01*
X108433297Y-100048926D01*
X108428081Y-100069750D01*
X108420849Y-100089962D01*
X108411670Y-100109368D01*
X108400634Y-100127781D01*
X108387846Y-100145024D01*
X108373430Y-100160930D01*
X108357524Y-100175346D01*
X108340281Y-100188134D01*
X108321868Y-100199170D01*
X108302462Y-100208349D01*
X108282250Y-100215581D01*
X108261426Y-100220797D01*
X108240191Y-100223947D01*
X108218750Y-100225000D01*
X107781250Y-100225000D01*
X107759809Y-100223947D01*
X107738574Y-100220797D01*
X107717750Y-100215581D01*
X107697538Y-100208349D01*
X107678132Y-100199170D01*
X107659719Y-100188134D01*
X107642476Y-100175346D01*
X107626570Y-100160930D01*
X107612154Y-100145024D01*
X107599366Y-100127781D01*
X107588330Y-100109368D01*
X107579151Y-100089962D01*
X107571919Y-100069750D01*
X107566703Y-100048926D01*
X107563553Y-100027691D01*
X107562500Y-100006250D01*
X107562500Y-99493750D01*
X107563553Y-99472309D01*
X107566703Y-99451074D01*
X107571919Y-99430250D01*
X107579151Y-99410038D01*
X107588330Y-99390632D01*
X107599366Y-99372219D01*
X107612154Y-99354976D01*
X107626570Y-99339070D01*
X107642476Y-99324654D01*
X107659719Y-99311866D01*
X107678132Y-99300830D01*
X107697538Y-99291651D01*
X107717750Y-99284419D01*
X107738574Y-99279203D01*
X107759809Y-99276053D01*
X107781250Y-99275000D01*
X108218750Y-99275000D01*
X108240191Y-99276053D01*
X108240191Y-99276053D01*
G37*
D12*
X108000000Y-99750000D03*
D11*
G36*
X161665191Y-99276053D02*
G01*
X161686426Y-99279203D01*
X161707250Y-99284419D01*
X161727462Y-99291651D01*
X161746868Y-99300830D01*
X161765281Y-99311866D01*
X161782524Y-99324654D01*
X161798430Y-99339070D01*
X161812846Y-99354976D01*
X161825634Y-99372219D01*
X161836670Y-99390632D01*
X161845849Y-99410038D01*
X161853081Y-99430250D01*
X161858297Y-99451074D01*
X161861447Y-99472309D01*
X161862500Y-99493750D01*
X161862500Y-100006250D01*
X161861447Y-100027691D01*
X161858297Y-100048926D01*
X161853081Y-100069750D01*
X161845849Y-100089962D01*
X161836670Y-100109368D01*
X161825634Y-100127781D01*
X161812846Y-100145024D01*
X161798430Y-100160930D01*
X161782524Y-100175346D01*
X161765281Y-100188134D01*
X161746868Y-100199170D01*
X161727462Y-100208349D01*
X161707250Y-100215581D01*
X161686426Y-100220797D01*
X161665191Y-100223947D01*
X161643750Y-100225000D01*
X161206250Y-100225000D01*
X161184809Y-100223947D01*
X161163574Y-100220797D01*
X161142750Y-100215581D01*
X161122538Y-100208349D01*
X161103132Y-100199170D01*
X161084719Y-100188134D01*
X161067476Y-100175346D01*
X161051570Y-100160930D01*
X161037154Y-100145024D01*
X161024366Y-100127781D01*
X161013330Y-100109368D01*
X161004151Y-100089962D01*
X160996919Y-100069750D01*
X160991703Y-100048926D01*
X160988553Y-100027691D01*
X160987500Y-100006250D01*
X160987500Y-99493750D01*
X160988553Y-99472309D01*
X160991703Y-99451074D01*
X160996919Y-99430250D01*
X161004151Y-99410038D01*
X161013330Y-99390632D01*
X161024366Y-99372219D01*
X161037154Y-99354976D01*
X161051570Y-99339070D01*
X161067476Y-99324654D01*
X161084719Y-99311866D01*
X161103132Y-99300830D01*
X161122538Y-99291651D01*
X161142750Y-99284419D01*
X161163574Y-99279203D01*
X161184809Y-99276053D01*
X161206250Y-99275000D01*
X161643750Y-99275000D01*
X161665191Y-99276053D01*
X161665191Y-99276053D01*
G37*
D12*
X161425000Y-99750000D03*
D11*
G36*
X163240191Y-99276053D02*
G01*
X163261426Y-99279203D01*
X163282250Y-99284419D01*
X163302462Y-99291651D01*
X163321868Y-99300830D01*
X163340281Y-99311866D01*
X163357524Y-99324654D01*
X163373430Y-99339070D01*
X163387846Y-99354976D01*
X163400634Y-99372219D01*
X163411670Y-99390632D01*
X163420849Y-99410038D01*
X163428081Y-99430250D01*
X163433297Y-99451074D01*
X163436447Y-99472309D01*
X163437500Y-99493750D01*
X163437500Y-100006250D01*
X163436447Y-100027691D01*
X163433297Y-100048926D01*
X163428081Y-100069750D01*
X163420849Y-100089962D01*
X163411670Y-100109368D01*
X163400634Y-100127781D01*
X163387846Y-100145024D01*
X163373430Y-100160930D01*
X163357524Y-100175346D01*
X163340281Y-100188134D01*
X163321868Y-100199170D01*
X163302462Y-100208349D01*
X163282250Y-100215581D01*
X163261426Y-100220797D01*
X163240191Y-100223947D01*
X163218750Y-100225000D01*
X162781250Y-100225000D01*
X162759809Y-100223947D01*
X162738574Y-100220797D01*
X162717750Y-100215581D01*
X162697538Y-100208349D01*
X162678132Y-100199170D01*
X162659719Y-100188134D01*
X162642476Y-100175346D01*
X162626570Y-100160930D01*
X162612154Y-100145024D01*
X162599366Y-100127781D01*
X162588330Y-100109368D01*
X162579151Y-100089962D01*
X162571919Y-100069750D01*
X162566703Y-100048926D01*
X162563553Y-100027691D01*
X162562500Y-100006250D01*
X162562500Y-99493750D01*
X162563553Y-99472309D01*
X162566703Y-99451074D01*
X162571919Y-99430250D01*
X162579151Y-99410038D01*
X162588330Y-99390632D01*
X162599366Y-99372219D01*
X162612154Y-99354976D01*
X162626570Y-99339070D01*
X162642476Y-99324654D01*
X162659719Y-99311866D01*
X162678132Y-99300830D01*
X162697538Y-99291651D01*
X162717750Y-99284419D01*
X162738574Y-99279203D01*
X162759809Y-99276053D01*
X162781250Y-99275000D01*
X163218750Y-99275000D01*
X163240191Y-99276053D01*
X163240191Y-99276053D01*
G37*
D12*
X163000000Y-99750000D03*
D13*
X128800000Y-86500000D03*
X131340000Y-86500000D03*
X133880000Y-86500000D03*
X136420000Y-86500000D03*
X138960000Y-86500000D03*
D14*
X141500000Y-86500000D03*
D15*
X135000000Y-104500000D03*
D16*
X122200000Y-104500000D03*
X147800000Y-104500000D03*
D17*
X116500000Y-88975000D03*
X147800000Y-104500000D03*
X122200000Y-104500000D03*
X118095000Y-95650000D03*
X167000000Y-100875000D03*
X167000000Y-88062500D03*
X120750000Y-93000000D03*
X106250000Y-102250000D03*
X119000004Y-93000000D03*
X124000006Y-88500000D03*
X103000010Y-99125000D03*
X143650000Y-95650000D03*
X103000004Y-89937500D03*
X119365000Y-88350000D03*
X167000000Y-109562500D03*
X103000022Y-101000000D03*
X167000000Y-99000000D03*
X119365000Y-95650000D03*
X122250000Y-93000012D03*
D18*
X116786412Y-88975000D02*
X116500000Y-88975000D01*
X117336413Y-89525001D02*
X116786412Y-88975000D01*
X121254999Y-89525001D02*
X117336413Y-89525001D01*
X121905000Y-88350000D02*
X121905000Y-88875000D01*
X121905000Y-88875000D02*
X121254999Y-89525001D01*
X118095000Y-95650000D02*
X118095000Y-96175000D01*
X163000000Y-99750000D02*
X164000000Y-99750000D01*
X164000000Y-99750000D02*
X165250000Y-101000000D01*
X165250000Y-101000000D02*
X166875000Y-101000000D01*
X166875000Y-101000000D02*
X167000000Y-100875000D01*
X120635000Y-96175000D02*
X120635000Y-95650000D01*
X114560000Y-102250000D02*
X120635000Y-96175000D01*
X106250000Y-102250000D02*
X114560000Y-102250000D01*
X119000004Y-93424264D02*
X119000004Y-93000000D01*
X120635000Y-95650000D02*
X120635000Y-95125000D01*
X120635000Y-95125000D02*
X119000004Y-93490004D01*
X119000004Y-93490004D02*
X119000004Y-93424264D01*
X123700007Y-88799999D02*
X124000006Y-88500000D01*
X120750000Y-91750006D02*
X123700007Y-88799999D01*
X167000000Y-88062500D02*
X166200000Y-88062500D01*
X166200000Y-88062500D02*
X165762500Y-88500000D01*
X124424270Y-88500000D02*
X124000006Y-88500000D01*
X165762500Y-88500000D02*
X124424270Y-88500000D01*
X120750000Y-93000000D02*
X120750000Y-91750006D01*
X108000000Y-99750000D02*
X107375000Y-99125000D01*
X107375000Y-99125000D02*
X103424274Y-99125000D01*
X103424274Y-99125000D02*
X103000010Y-99125000D01*
X161425000Y-99750000D02*
X157325000Y-95650000D01*
X157325000Y-95650000D02*
X143650000Y-95650000D01*
X143650000Y-95650000D02*
X121905000Y-95650000D01*
X117112502Y-89937500D02*
X103424268Y-89937500D01*
X103424268Y-89937500D02*
X103000004Y-89937500D01*
X119625001Y-92449999D02*
X117112502Y-89937500D01*
X119625001Y-92845001D02*
X119625001Y-92449999D01*
X121905000Y-95125000D02*
X119625001Y-92845001D01*
X121905000Y-95650000D02*
X121905000Y-95125000D01*
X164562500Y-112000000D02*
X114000022Y-112000000D01*
X114000022Y-112000000D02*
X103300021Y-101299999D01*
X103300021Y-101299999D02*
X103000022Y-101000000D01*
X167000000Y-109562500D02*
X164562500Y-112000000D01*
X110112500Y-99750000D02*
X109575000Y-99750000D01*
X119365000Y-95650000D02*
X119365000Y-96175000D01*
X119365000Y-96175000D02*
X115790000Y-99750000D01*
X115790000Y-99750000D02*
X110112500Y-99750000D01*
X161000012Y-93000012D02*
X122674264Y-93000012D01*
X122674264Y-93000012D02*
X122250000Y-93000012D01*
X167000000Y-99000000D02*
X161000012Y-93000012D01*
X138110001Y-87349999D02*
X138960000Y-86500000D01*
X118095000Y-87405000D02*
X118750000Y-86750000D01*
X118095000Y-88350000D02*
X118095000Y-87405000D01*
X118750000Y-86750000D02*
X126000000Y-86750000D01*
X126000000Y-86750000D02*
X127250000Y-88000000D01*
X127250000Y-88000000D02*
X137460000Y-88000000D01*
X137460000Y-88000000D02*
X138110001Y-87349999D01*
D19*
G36*
X127421401Y-85928966D02*
G01*
X127336487Y-86208889D01*
X127307815Y-86500000D01*
X127336487Y-86791111D01*
X127421401Y-87071034D01*
X127450757Y-87125955D01*
X126563804Y-86239003D01*
X126540001Y-86209999D01*
X126424276Y-86115026D01*
X126292247Y-86044454D01*
X126148986Y-86000997D01*
X126037333Y-85990000D01*
X126037322Y-85990000D01*
X126000000Y-85986324D01*
X125962678Y-85990000D01*
X118787323Y-85990000D01*
X118750000Y-85986324D01*
X118712677Y-85990000D01*
X118712667Y-85990000D01*
X118601014Y-86000997D01*
X118457753Y-86044454D01*
X118325723Y-86115026D01*
X118242083Y-86183668D01*
X118209999Y-86209999D01*
X118186200Y-86238998D01*
X117583998Y-86841201D01*
X117555000Y-86864999D01*
X117531202Y-86893997D01*
X117531201Y-86893998D01*
X117511282Y-86918269D01*
X117415506Y-86969463D01*
X117318815Y-87048815D01*
X117239463Y-87145506D01*
X117180498Y-87255820D01*
X117144188Y-87375518D01*
X117131928Y-87500000D01*
X117131928Y-89175737D01*
X117112502Y-89173824D01*
X117075180Y-89177500D01*
X103545539Y-89177500D01*
X103442893Y-89108914D01*
X103272733Y-89038432D01*
X103092093Y-89002500D01*
X102907915Y-89002500D01*
X102727275Y-89038432D01*
X102557115Y-89108914D01*
X102403976Y-89211238D01*
X102273742Y-89341472D01*
X102171418Y-89494611D01*
X102100936Y-89664771D01*
X102065004Y-89845411D01*
X102065004Y-90029589D01*
X102100936Y-90210229D01*
X102171418Y-90380389D01*
X102273742Y-90533528D01*
X102403976Y-90663762D01*
X102557115Y-90766086D01*
X102727275Y-90836568D01*
X102907915Y-90872500D01*
X103092093Y-90872500D01*
X103272733Y-90836568D01*
X103442893Y-90766086D01*
X103545539Y-90697500D01*
X116797701Y-90697500D01*
X118388957Y-92288757D01*
X118273742Y-92403972D01*
X118171418Y-92557111D01*
X118100936Y-92727271D01*
X118065004Y-92907911D01*
X118065004Y-93092089D01*
X118100936Y-93272729D01*
X118171418Y-93442889D01*
X118242106Y-93548682D01*
X118251001Y-93638989D01*
X118287712Y-93760012D01*
X118294458Y-93782250D01*
X118365030Y-93914280D01*
X118382035Y-93935000D01*
X118460003Y-94030005D01*
X118489007Y-94053808D01*
X118637649Y-94202450D01*
X118544482Y-94174188D01*
X118420000Y-94161928D01*
X117770000Y-94161928D01*
X117645518Y-94174188D01*
X117525820Y-94210498D01*
X117415506Y-94269463D01*
X117318815Y-94348815D01*
X117239463Y-94445506D01*
X117180498Y-94555820D01*
X117144188Y-94675518D01*
X117131928Y-94800000D01*
X117131928Y-96500000D01*
X117144188Y-96624482D01*
X117180498Y-96744180D01*
X117239463Y-96854494D01*
X117318815Y-96951185D01*
X117415506Y-97030537D01*
X117427989Y-97037209D01*
X115475199Y-98990000D01*
X110483418Y-98990000D01*
X110399615Y-98887885D01*
X110269775Y-98781329D01*
X110121642Y-98702150D01*
X109960908Y-98653392D01*
X109793750Y-98636928D01*
X109356250Y-98636928D01*
X109189092Y-98653392D01*
X109028358Y-98702150D01*
X108880225Y-98781329D01*
X108787500Y-98857426D01*
X108694775Y-98781329D01*
X108546642Y-98702150D01*
X108385908Y-98653392D01*
X108218750Y-98636928D01*
X107961729Y-98636928D01*
X107938803Y-98614002D01*
X107915001Y-98584999D01*
X107799276Y-98490026D01*
X107667247Y-98419454D01*
X107523986Y-98375997D01*
X107412333Y-98365000D01*
X107412322Y-98365000D01*
X107375000Y-98361324D01*
X107337678Y-98365000D01*
X103545545Y-98365000D01*
X103442899Y-98296414D01*
X103272739Y-98225932D01*
X103092099Y-98190000D01*
X102907921Y-98190000D01*
X102727281Y-98225932D01*
X102557121Y-98296414D01*
X102403982Y-98398738D01*
X102273748Y-98528972D01*
X102171424Y-98682111D01*
X102100942Y-98852271D01*
X102065010Y-99032911D01*
X102065010Y-99217089D01*
X102100942Y-99397729D01*
X102171424Y-99567889D01*
X102273748Y-99721028D01*
X102403982Y-99851262D01*
X102557121Y-99953586D01*
X102727281Y-100024068D01*
X102907921Y-100060000D01*
X103092099Y-100060000D01*
X103272739Y-100024068D01*
X103442899Y-99953586D01*
X103545545Y-99885000D01*
X106924428Y-99885000D01*
X106924428Y-100006250D01*
X106940892Y-100173408D01*
X106989650Y-100334142D01*
X107068829Y-100482275D01*
X107175385Y-100612115D01*
X107305225Y-100718671D01*
X107453358Y-100797850D01*
X107614092Y-100846608D01*
X107781250Y-100863072D01*
X108218750Y-100863072D01*
X108385908Y-100846608D01*
X108546642Y-100797850D01*
X108694775Y-100718671D01*
X108787500Y-100642574D01*
X108880225Y-100718671D01*
X109028358Y-100797850D01*
X109189092Y-100846608D01*
X109356250Y-100863072D01*
X109793750Y-100863072D01*
X109960908Y-100846608D01*
X110121642Y-100797850D01*
X110269775Y-100718671D01*
X110399615Y-100612115D01*
X110483418Y-100510000D01*
X115225199Y-100510000D01*
X114245199Y-101490000D01*
X106795535Y-101490000D01*
X106692889Y-101421414D01*
X106522729Y-101350932D01*
X106342089Y-101315000D01*
X106157911Y-101315000D01*
X105977271Y-101350932D01*
X105807111Y-101421414D01*
X105653972Y-101523738D01*
X105523738Y-101653972D01*
X105421414Y-101807111D01*
X105350932Y-101977271D01*
X105315000Y-102157911D01*
X105315000Y-102240177D01*
X103923175Y-100848352D01*
X103899090Y-100727271D01*
X103828608Y-100557111D01*
X103726284Y-100403972D01*
X103596050Y-100273738D01*
X103442911Y-100171414D01*
X103272751Y-100100932D01*
X103092111Y-100065000D01*
X102907933Y-100065000D01*
X102727293Y-100100932D01*
X102557133Y-100171414D01*
X102403994Y-100273738D01*
X102273760Y-100403972D01*
X102171436Y-100557111D01*
X102100954Y-100727271D01*
X102065022Y-100907911D01*
X102065022Y-101092089D01*
X102100954Y-101272729D01*
X102171436Y-101442889D01*
X102273760Y-101596028D01*
X102403994Y-101726262D01*
X102557133Y-101828586D01*
X102727293Y-101899068D01*
X102848374Y-101923153D01*
X113436223Y-112511003D01*
X113460021Y-112540001D01*
X113489019Y-112563799D01*
X113575746Y-112634974D01*
X113707775Y-112705546D01*
X113851036Y-112749003D01*
X114000022Y-112763677D01*
X114037355Y-112760000D01*
X164525178Y-112760000D01*
X164562500Y-112763676D01*
X164599822Y-112760000D01*
X164599833Y-112760000D01*
X164711486Y-112749003D01*
X164854747Y-112705546D01*
X164986776Y-112634974D01*
X165102501Y-112540001D01*
X165126304Y-112510997D01*
X167151649Y-110485653D01*
X167272729Y-110461568D01*
X167442889Y-110391086D01*
X167596028Y-110288762D01*
X167726262Y-110158528D01*
X167828586Y-110005389D01*
X167899068Y-109835229D01*
X167935000Y-109654589D01*
X167935000Y-109470411D01*
X167899068Y-109289771D01*
X167828586Y-109119611D01*
X167726262Y-108966472D01*
X167596028Y-108836238D01*
X167442889Y-108733914D01*
X167272729Y-108663432D01*
X167092089Y-108627500D01*
X166907911Y-108627500D01*
X166727271Y-108663432D01*
X166557111Y-108733914D01*
X166403972Y-108836238D01*
X166273738Y-108966472D01*
X166171414Y-109119611D01*
X166100932Y-109289771D01*
X166076847Y-109410851D01*
X164247699Y-111240000D01*
X114314824Y-111240000D01*
X112265852Y-109191028D01*
X130488577Y-109191028D01*
X131184631Y-109967471D01*
X132324592Y-110606757D01*
X133567369Y-111011363D01*
X134865200Y-111165741D01*
X136168212Y-111063960D01*
X137426330Y-110709928D01*
X138591206Y-110117253D01*
X138815369Y-109967471D01*
X139511423Y-109191028D01*
X135000000Y-104679605D01*
X130488577Y-109191028D01*
X112265852Y-109191028D01*
X106259823Y-103185000D01*
X106342089Y-103185000D01*
X106522729Y-103149068D01*
X106692889Y-103078586D01*
X106795535Y-103010000D01*
X114522678Y-103010000D01*
X114560000Y-103013676D01*
X114597322Y-103010000D01*
X114597333Y-103010000D01*
X114708986Y-102999003D01*
X114852247Y-102955546D01*
X114984276Y-102884974D01*
X115100001Y-102790001D01*
X115123804Y-102760997D01*
X115934801Y-101950000D01*
X119011928Y-101950000D01*
X119011928Y-107050000D01*
X119024188Y-107174482D01*
X119060498Y-107294180D01*
X119119463Y-107404494D01*
X119198815Y-107501185D01*
X119295506Y-107580537D01*
X119405820Y-107639502D01*
X119525518Y-107675812D01*
X119650000Y-107688072D01*
X124750000Y-107688072D01*
X124874482Y-107675812D01*
X124994180Y-107639502D01*
X125104494Y-107580537D01*
X125201185Y-107501185D01*
X125280537Y-107404494D01*
X125339502Y-107294180D01*
X125375812Y-107174482D01*
X125388072Y-107050000D01*
X125388072Y-104365200D01*
X128334259Y-104365200D01*
X128436040Y-105668212D01*
X128790072Y-106926330D01*
X129382747Y-108091206D01*
X129532529Y-108315369D01*
X130308972Y-109011423D01*
X134820395Y-104500000D01*
X135179605Y-104500000D01*
X139691028Y-109011423D01*
X140467471Y-108315369D01*
X141106757Y-107175408D01*
X141511363Y-105932631D01*
X141665741Y-104634800D01*
X141563960Y-103331788D01*
X141209928Y-102073670D01*
X141147007Y-101950000D01*
X144611928Y-101950000D01*
X144611928Y-107050000D01*
X144624188Y-107174482D01*
X144660498Y-107294180D01*
X144719463Y-107404494D01*
X144798815Y-107501185D01*
X144895506Y-107580537D01*
X145005820Y-107639502D01*
X145125518Y-107675812D01*
X145250000Y-107688072D01*
X150350000Y-107688072D01*
X150474482Y-107675812D01*
X150594180Y-107639502D01*
X150704494Y-107580537D01*
X150801185Y-107501185D01*
X150880537Y-107404494D01*
X150939502Y-107294180D01*
X150975812Y-107174482D01*
X150988072Y-107050000D01*
X150988072Y-101950000D01*
X150975812Y-101825518D01*
X150939502Y-101705820D01*
X150880537Y-101595506D01*
X150801185Y-101498815D01*
X150704494Y-101419463D01*
X150594180Y-101360498D01*
X150474482Y-101324188D01*
X150350000Y-101311928D01*
X145250000Y-101311928D01*
X145125518Y-101324188D01*
X145005820Y-101360498D01*
X144895506Y-101419463D01*
X144798815Y-101498815D01*
X144719463Y-101595506D01*
X144660498Y-101705820D01*
X144624188Y-101825518D01*
X144611928Y-101950000D01*
X141147007Y-101950000D01*
X140617253Y-100908794D01*
X140467471Y-100684631D01*
X139691028Y-99988577D01*
X135179605Y-104500000D01*
X134820395Y-104500000D01*
X130308972Y-99988577D01*
X129532529Y-100684631D01*
X128893243Y-101824592D01*
X128488637Y-103067369D01*
X128334259Y-104365200D01*
X125388072Y-104365200D01*
X125388072Y-101950000D01*
X125375812Y-101825518D01*
X125339502Y-101705820D01*
X125280537Y-101595506D01*
X125201185Y-101498815D01*
X125104494Y-101419463D01*
X124994180Y-101360498D01*
X124874482Y-101324188D01*
X124750000Y-101311928D01*
X119650000Y-101311928D01*
X119525518Y-101324188D01*
X119405820Y-101360498D01*
X119295506Y-101419463D01*
X119198815Y-101498815D01*
X119119463Y-101595506D01*
X119060498Y-101705820D01*
X119024188Y-101825518D01*
X119011928Y-101950000D01*
X115934801Y-101950000D01*
X118075829Y-99808972D01*
X130488577Y-99808972D01*
X135000000Y-104320395D01*
X139511423Y-99808972D01*
X138815369Y-99032529D01*
X137675408Y-98393243D01*
X136432631Y-97988637D01*
X135134800Y-97834259D01*
X133831788Y-97936040D01*
X132573670Y-98290072D01*
X131408794Y-98882747D01*
X131184631Y-99032529D01*
X130488577Y-99808972D01*
X118075829Y-99808972D01*
X120746731Y-97138072D01*
X120960000Y-97138072D01*
X121084482Y-97125812D01*
X121204180Y-97089502D01*
X121270000Y-97054320D01*
X121335820Y-97089502D01*
X121455518Y-97125812D01*
X121580000Y-97138072D01*
X122230000Y-97138072D01*
X122354482Y-97125812D01*
X122474180Y-97089502D01*
X122584494Y-97030537D01*
X122681185Y-96951185D01*
X122760537Y-96854494D01*
X122819502Y-96744180D01*
X122855812Y-96624482D01*
X122868072Y-96500000D01*
X122868072Y-96410000D01*
X143104465Y-96410000D01*
X143207111Y-96478586D01*
X143377271Y-96549068D01*
X143557911Y-96585000D01*
X143742089Y-96585000D01*
X143922729Y-96549068D01*
X144092889Y-96478586D01*
X144195535Y-96410000D01*
X157010199Y-96410000D01*
X160349428Y-99749230D01*
X160349428Y-100006250D01*
X160365892Y-100173408D01*
X160414650Y-100334142D01*
X160493829Y-100482275D01*
X160600385Y-100612115D01*
X160730225Y-100718671D01*
X160878358Y-100797850D01*
X161039092Y-100846608D01*
X161206250Y-100863072D01*
X161643750Y-100863072D01*
X161810908Y-100846608D01*
X161971642Y-100797850D01*
X162119775Y-100718671D01*
X162212500Y-100642574D01*
X162305225Y-100718671D01*
X162453358Y-100797850D01*
X162614092Y-100846608D01*
X162781250Y-100863072D01*
X163218750Y-100863072D01*
X163385908Y-100846608D01*
X163546642Y-100797850D01*
X163694775Y-100718671D01*
X163804127Y-100628929D01*
X164686200Y-101511002D01*
X164709999Y-101540001D01*
X164738997Y-101563799D01*
X164825723Y-101634974D01*
X164861266Y-101653972D01*
X164957753Y-101705546D01*
X165101014Y-101749003D01*
X165212667Y-101760000D01*
X165212677Y-101760000D01*
X165250000Y-101763676D01*
X165287323Y-101760000D01*
X166693308Y-101760000D01*
X166727271Y-101774068D01*
X166907911Y-101810000D01*
X167092089Y-101810000D01*
X167272729Y-101774068D01*
X167442889Y-101703586D01*
X167596028Y-101601262D01*
X167726262Y-101471028D01*
X167828586Y-101317889D01*
X167899068Y-101147729D01*
X167935000Y-100967089D01*
X167935000Y-100782911D01*
X167899068Y-100602271D01*
X167828586Y-100432111D01*
X167726262Y-100278972D01*
X167596028Y-100148738D01*
X167442889Y-100046414D01*
X167272729Y-99975932D01*
X167092089Y-99940000D01*
X166907911Y-99940000D01*
X166727271Y-99975932D01*
X166557111Y-100046414D01*
X166403972Y-100148738D01*
X166312710Y-100240000D01*
X165564802Y-100240000D01*
X164563804Y-99239003D01*
X164540001Y-99209999D01*
X164424276Y-99115026D01*
X164292247Y-99044454D01*
X164148986Y-99000997D01*
X164037333Y-98990000D01*
X164037322Y-98990000D01*
X164000000Y-98986324D01*
X163962678Y-98990000D01*
X163908418Y-98990000D01*
X163824615Y-98887885D01*
X163694775Y-98781329D01*
X163546642Y-98702150D01*
X163385908Y-98653392D01*
X163218750Y-98636928D01*
X162781250Y-98636928D01*
X162614092Y-98653392D01*
X162453358Y-98702150D01*
X162305225Y-98781329D01*
X162212500Y-98857426D01*
X162119775Y-98781329D01*
X161971642Y-98702150D01*
X161810908Y-98653392D01*
X161643750Y-98636928D01*
X161386730Y-98636928D01*
X157888804Y-95139003D01*
X157865001Y-95109999D01*
X157749276Y-95015026D01*
X157617247Y-94944454D01*
X157473986Y-94900997D01*
X157362333Y-94890000D01*
X157362322Y-94890000D01*
X157325000Y-94886324D01*
X157287678Y-94890000D01*
X144195535Y-94890000D01*
X144092889Y-94821414D01*
X143922729Y-94750932D01*
X143742089Y-94715000D01*
X143557911Y-94715000D01*
X143377271Y-94750932D01*
X143207111Y-94821414D01*
X143104465Y-94890000D01*
X122868072Y-94890000D01*
X122868072Y-94800000D01*
X122855812Y-94675518D01*
X122819502Y-94555820D01*
X122760537Y-94445506D01*
X122681185Y-94348815D01*
X122584494Y-94269463D01*
X122474180Y-94210498D01*
X122354482Y-94174188D01*
X122230000Y-94161928D01*
X122016730Y-94161928D01*
X121463546Y-93608744D01*
X121476262Y-93596028D01*
X121499996Y-93560508D01*
X121523738Y-93596040D01*
X121653972Y-93726274D01*
X121807111Y-93828598D01*
X121977271Y-93899080D01*
X122157911Y-93935012D01*
X122342089Y-93935012D01*
X122522729Y-93899080D01*
X122692889Y-93828598D01*
X122795535Y-93760012D01*
X160685211Y-93760012D01*
X166076848Y-99151651D01*
X166100932Y-99272729D01*
X166171414Y-99442889D01*
X166273738Y-99596028D01*
X166403972Y-99726262D01*
X166557111Y-99828586D01*
X166727271Y-99899068D01*
X166907911Y-99935000D01*
X167092089Y-99935000D01*
X167272729Y-99899068D01*
X167442889Y-99828586D01*
X167596028Y-99726262D01*
X167726262Y-99596028D01*
X167828586Y-99442889D01*
X167899068Y-99272729D01*
X167935000Y-99092089D01*
X167935000Y-98907911D01*
X167899068Y-98727271D01*
X167828586Y-98557111D01*
X167726262Y-98403972D01*
X167596028Y-98273738D01*
X167442889Y-98171414D01*
X167272729Y-98100932D01*
X167151651Y-98076848D01*
X161563816Y-92489015D01*
X161540013Y-92460011D01*
X161424288Y-92365038D01*
X161292259Y-92294466D01*
X161148998Y-92251009D01*
X161037345Y-92240012D01*
X161037334Y-92240012D01*
X161000012Y-92236336D01*
X160962690Y-92240012D01*
X122795535Y-92240012D01*
X122692889Y-92171426D01*
X122522729Y-92100944D01*
X122342089Y-92065012D01*
X122157911Y-92065012D01*
X121977271Y-92100944D01*
X121807111Y-92171426D01*
X121653972Y-92273750D01*
X121523738Y-92403984D01*
X121510000Y-92424544D01*
X121510000Y-92064807D01*
X124151655Y-89423153D01*
X124272735Y-89399068D01*
X124442895Y-89328586D01*
X124545541Y-89260000D01*
X165725178Y-89260000D01*
X165762500Y-89263676D01*
X165799822Y-89260000D01*
X165799833Y-89260000D01*
X165911486Y-89249003D01*
X166054747Y-89205546D01*
X166186776Y-89134974D01*
X166302501Y-89040001D01*
X166326303Y-89010998D01*
X166490634Y-88846668D01*
X166557111Y-88891086D01*
X166727271Y-88961568D01*
X166907911Y-88997500D01*
X167092089Y-88997500D01*
X167272729Y-88961568D01*
X167442889Y-88891086D01*
X167596028Y-88788762D01*
X167726262Y-88658528D01*
X167828586Y-88505389D01*
X167899068Y-88335229D01*
X167935000Y-88154589D01*
X167935000Y-87970411D01*
X167899068Y-87789771D01*
X167828586Y-87619611D01*
X167726262Y-87466472D01*
X167596028Y-87336238D01*
X167442889Y-87233914D01*
X167272729Y-87163432D01*
X167092089Y-87127500D01*
X166907911Y-87127500D01*
X166727271Y-87163432D01*
X166557111Y-87233914D01*
X166454465Y-87302500D01*
X166237322Y-87302500D01*
X166199999Y-87298824D01*
X166162676Y-87302500D01*
X166162667Y-87302500D01*
X166051014Y-87313497D01*
X165907753Y-87356954D01*
X165775724Y-87427526D01*
X165659999Y-87522499D01*
X165636200Y-87551498D01*
X165447698Y-87740000D01*
X142851398Y-87740000D01*
X142880537Y-87704494D01*
X142939502Y-87594180D01*
X142975812Y-87474482D01*
X142988072Y-87350000D01*
X142985000Y-86785750D01*
X142826250Y-86627000D01*
X141627000Y-86627000D01*
X141627000Y-86647000D01*
X141373000Y-86647000D01*
X141373000Y-86627000D01*
X141353000Y-86627000D01*
X141353000Y-86373000D01*
X141373000Y-86373000D01*
X141373000Y-86353000D01*
X141627000Y-86353000D01*
X141627000Y-86373000D01*
X142826250Y-86373000D01*
X142985000Y-86214250D01*
X142987745Y-85710000D01*
X169290000Y-85710000D01*
X169290001Y-114290000D01*
X100710000Y-114290000D01*
X100710000Y-85710000D01*
X127538441Y-85710000D01*
X127421401Y-85928966D01*
X127421401Y-85928966D01*
G37*
X127421401Y-85928966D02*
X127336487Y-86208889D01*
X127307815Y-86500000D01*
X127336487Y-86791111D01*
X127421401Y-87071034D01*
X127450757Y-87125955D01*
X126563804Y-86239003D01*
X126540001Y-86209999D01*
X126424276Y-86115026D01*
X126292247Y-86044454D01*
X126148986Y-86000997D01*
X126037333Y-85990000D01*
X126037322Y-85990000D01*
X126000000Y-85986324D01*
X125962678Y-85990000D01*
X118787323Y-85990000D01*
X118750000Y-85986324D01*
X118712677Y-85990000D01*
X118712667Y-85990000D01*
X118601014Y-86000997D01*
X118457753Y-86044454D01*
X118325723Y-86115026D01*
X118242083Y-86183668D01*
X118209999Y-86209999D01*
X118186200Y-86238998D01*
X117583998Y-86841201D01*
X117555000Y-86864999D01*
X117531202Y-86893997D01*
X117531201Y-86893998D01*
X117511282Y-86918269D01*
X117415506Y-86969463D01*
X117318815Y-87048815D01*
X117239463Y-87145506D01*
X117180498Y-87255820D01*
X117144188Y-87375518D01*
X117131928Y-87500000D01*
X117131928Y-89175737D01*
X117112502Y-89173824D01*
X117075180Y-89177500D01*
X103545539Y-89177500D01*
X103442893Y-89108914D01*
X103272733Y-89038432D01*
X103092093Y-89002500D01*
X102907915Y-89002500D01*
X102727275Y-89038432D01*
X102557115Y-89108914D01*
X102403976Y-89211238D01*
X102273742Y-89341472D01*
X102171418Y-89494611D01*
X102100936Y-89664771D01*
X102065004Y-89845411D01*
X102065004Y-90029589D01*
X102100936Y-90210229D01*
X102171418Y-90380389D01*
X102273742Y-90533528D01*
X102403976Y-90663762D01*
X102557115Y-90766086D01*
X102727275Y-90836568D01*
X102907915Y-90872500D01*
X103092093Y-90872500D01*
X103272733Y-90836568D01*
X103442893Y-90766086D01*
X103545539Y-90697500D01*
X116797701Y-90697500D01*
X118388957Y-92288757D01*
X118273742Y-92403972D01*
X118171418Y-92557111D01*
X118100936Y-92727271D01*
X118065004Y-92907911D01*
X118065004Y-93092089D01*
X118100936Y-93272729D01*
X118171418Y-93442889D01*
X118242106Y-93548682D01*
X118251001Y-93638989D01*
X118287712Y-93760012D01*
X118294458Y-93782250D01*
X118365030Y-93914280D01*
X118382035Y-93935000D01*
X118460003Y-94030005D01*
X118489007Y-94053808D01*
X118637649Y-94202450D01*
X118544482Y-94174188D01*
X118420000Y-94161928D01*
X117770000Y-94161928D01*
X117645518Y-94174188D01*
X117525820Y-94210498D01*
X117415506Y-94269463D01*
X117318815Y-94348815D01*
X117239463Y-94445506D01*
X117180498Y-94555820D01*
X117144188Y-94675518D01*
X117131928Y-94800000D01*
X117131928Y-96500000D01*
X117144188Y-96624482D01*
X117180498Y-96744180D01*
X117239463Y-96854494D01*
X117318815Y-96951185D01*
X117415506Y-97030537D01*
X117427989Y-97037209D01*
X115475199Y-98990000D01*
X110483418Y-98990000D01*
X110399615Y-98887885D01*
X110269775Y-98781329D01*
X110121642Y-98702150D01*
X109960908Y-98653392D01*
X109793750Y-98636928D01*
X109356250Y-98636928D01*
X109189092Y-98653392D01*
X109028358Y-98702150D01*
X108880225Y-98781329D01*
X108787500Y-98857426D01*
X108694775Y-98781329D01*
X108546642Y-98702150D01*
X108385908Y-98653392D01*
X108218750Y-98636928D01*
X107961729Y-98636928D01*
X107938803Y-98614002D01*
X107915001Y-98584999D01*
X107799276Y-98490026D01*
X107667247Y-98419454D01*
X107523986Y-98375997D01*
X107412333Y-98365000D01*
X107412322Y-98365000D01*
X107375000Y-98361324D01*
X107337678Y-98365000D01*
X103545545Y-98365000D01*
X103442899Y-98296414D01*
X103272739Y-98225932D01*
X103092099Y-98190000D01*
X102907921Y-98190000D01*
X102727281Y-98225932D01*
X102557121Y-98296414D01*
X102403982Y-98398738D01*
X102273748Y-98528972D01*
X102171424Y-98682111D01*
X102100942Y-98852271D01*
X102065010Y-99032911D01*
X102065010Y-99217089D01*
X102100942Y-99397729D01*
X102171424Y-99567889D01*
X102273748Y-99721028D01*
X102403982Y-99851262D01*
X102557121Y-99953586D01*
X102727281Y-100024068D01*
X102907921Y-100060000D01*
X103092099Y-100060000D01*
X103272739Y-100024068D01*
X103442899Y-99953586D01*
X103545545Y-99885000D01*
X106924428Y-99885000D01*
X106924428Y-100006250D01*
X106940892Y-100173408D01*
X106989650Y-100334142D01*
X107068829Y-100482275D01*
X107175385Y-100612115D01*
X107305225Y-100718671D01*
X107453358Y-100797850D01*
X107614092Y-100846608D01*
X107781250Y-100863072D01*
X108218750Y-100863072D01*
X108385908Y-100846608D01*
X108546642Y-100797850D01*
X108694775Y-100718671D01*
X108787500Y-100642574D01*
X108880225Y-100718671D01*
X109028358Y-100797850D01*
X109189092Y-100846608D01*
X109356250Y-100863072D01*
X109793750Y-100863072D01*
X109960908Y-100846608D01*
X110121642Y-100797850D01*
X110269775Y-100718671D01*
X110399615Y-100612115D01*
X110483418Y-100510000D01*
X115225199Y-100510000D01*
X114245199Y-101490000D01*
X106795535Y-101490000D01*
X106692889Y-101421414D01*
X106522729Y-101350932D01*
X106342089Y-101315000D01*
X106157911Y-101315000D01*
X105977271Y-101350932D01*
X105807111Y-101421414D01*
X105653972Y-101523738D01*
X105523738Y-101653972D01*
X105421414Y-101807111D01*
X105350932Y-101977271D01*
X105315000Y-102157911D01*
X105315000Y-102240177D01*
X103923175Y-100848352D01*
X103899090Y-100727271D01*
X103828608Y-100557111D01*
X103726284Y-100403972D01*
X103596050Y-100273738D01*
X103442911Y-100171414D01*
X103272751Y-100100932D01*
X103092111Y-100065000D01*
X102907933Y-100065000D01*
X102727293Y-100100932D01*
X102557133Y-100171414D01*
X102403994Y-100273738D01*
X102273760Y-100403972D01*
X102171436Y-100557111D01*
X102100954Y-100727271D01*
X102065022Y-100907911D01*
X102065022Y-101092089D01*
X102100954Y-101272729D01*
X102171436Y-101442889D01*
X102273760Y-101596028D01*
X102403994Y-101726262D01*
X102557133Y-101828586D01*
X102727293Y-101899068D01*
X102848374Y-101923153D01*
X113436223Y-112511003D01*
X113460021Y-112540001D01*
X113489019Y-112563799D01*
X113575746Y-112634974D01*
X113707775Y-112705546D01*
X113851036Y-112749003D01*
X114000022Y-112763677D01*
X114037355Y-112760000D01*
X164525178Y-112760000D01*
X164562500Y-112763676D01*
X164599822Y-112760000D01*
X164599833Y-112760000D01*
X164711486Y-112749003D01*
X164854747Y-112705546D01*
X164986776Y-112634974D01*
X165102501Y-112540001D01*
X165126304Y-112510997D01*
X167151649Y-110485653D01*
X167272729Y-110461568D01*
X167442889Y-110391086D01*
X167596028Y-110288762D01*
X167726262Y-110158528D01*
X167828586Y-110005389D01*
X167899068Y-109835229D01*
X167935000Y-109654589D01*
X167935000Y-109470411D01*
X167899068Y-109289771D01*
X167828586Y-109119611D01*
X167726262Y-108966472D01*
X167596028Y-108836238D01*
X167442889Y-108733914D01*
X167272729Y-108663432D01*
X167092089Y-108627500D01*
X166907911Y-108627500D01*
X166727271Y-108663432D01*
X166557111Y-108733914D01*
X166403972Y-108836238D01*
X166273738Y-108966472D01*
X166171414Y-109119611D01*
X166100932Y-109289771D01*
X166076847Y-109410851D01*
X164247699Y-111240000D01*
X114314824Y-111240000D01*
X112265852Y-109191028D01*
X130488577Y-109191028D01*
X131184631Y-109967471D01*
X132324592Y-110606757D01*
X133567369Y-111011363D01*
X134865200Y-111165741D01*
X136168212Y-111063960D01*
X137426330Y-110709928D01*
X138591206Y-110117253D01*
X138815369Y-109967471D01*
X139511423Y-109191028D01*
X135000000Y-104679605D01*
X130488577Y-109191028D01*
X112265852Y-109191028D01*
X106259823Y-103185000D01*
X106342089Y-103185000D01*
X106522729Y-103149068D01*
X106692889Y-103078586D01*
X106795535Y-103010000D01*
X114522678Y-103010000D01*
X114560000Y-103013676D01*
X114597322Y-103010000D01*
X114597333Y-103010000D01*
X114708986Y-102999003D01*
X114852247Y-102955546D01*
X114984276Y-102884974D01*
X115100001Y-102790001D01*
X115123804Y-102760997D01*
X115934801Y-101950000D01*
X119011928Y-101950000D01*
X119011928Y-107050000D01*
X119024188Y-107174482D01*
X119060498Y-107294180D01*
X119119463Y-107404494D01*
X119198815Y-107501185D01*
X119295506Y-107580537D01*
X119405820Y-107639502D01*
X119525518Y-107675812D01*
X119650000Y-107688072D01*
X124750000Y-107688072D01*
X124874482Y-107675812D01*
X124994180Y-107639502D01*
X125104494Y-107580537D01*
X125201185Y-107501185D01*
X125280537Y-107404494D01*
X125339502Y-107294180D01*
X125375812Y-107174482D01*
X125388072Y-107050000D01*
X125388072Y-104365200D01*
X128334259Y-104365200D01*
X128436040Y-105668212D01*
X128790072Y-106926330D01*
X129382747Y-108091206D01*
X129532529Y-108315369D01*
X130308972Y-109011423D01*
X134820395Y-104500000D01*
X135179605Y-104500000D01*
X139691028Y-109011423D01*
X140467471Y-108315369D01*
X141106757Y-107175408D01*
X141511363Y-105932631D01*
X141665741Y-104634800D01*
X141563960Y-103331788D01*
X141209928Y-102073670D01*
X141147007Y-101950000D01*
X144611928Y-101950000D01*
X144611928Y-107050000D01*
X144624188Y-107174482D01*
X144660498Y-107294180D01*
X144719463Y-107404494D01*
X144798815Y-107501185D01*
X144895506Y-107580537D01*
X145005820Y-107639502D01*
X145125518Y-107675812D01*
X145250000Y-107688072D01*
X150350000Y-107688072D01*
X150474482Y-107675812D01*
X150594180Y-107639502D01*
X150704494Y-107580537D01*
X150801185Y-107501185D01*
X150880537Y-107404494D01*
X150939502Y-107294180D01*
X150975812Y-107174482D01*
X150988072Y-107050000D01*
X150988072Y-101950000D01*
X150975812Y-101825518D01*
X150939502Y-101705820D01*
X150880537Y-101595506D01*
X150801185Y-101498815D01*
X150704494Y-101419463D01*
X150594180Y-101360498D01*
X150474482Y-101324188D01*
X150350000Y-101311928D01*
X145250000Y-101311928D01*
X145125518Y-101324188D01*
X145005820Y-101360498D01*
X144895506Y-101419463D01*
X144798815Y-101498815D01*
X144719463Y-101595506D01*
X144660498Y-101705820D01*
X144624188Y-101825518D01*
X144611928Y-101950000D01*
X141147007Y-101950000D01*
X140617253Y-100908794D01*
X140467471Y-100684631D01*
X139691028Y-99988577D01*
X135179605Y-104500000D01*
X134820395Y-104500000D01*
X130308972Y-99988577D01*
X129532529Y-100684631D01*
X128893243Y-101824592D01*
X128488637Y-103067369D01*
X128334259Y-104365200D01*
X125388072Y-104365200D01*
X125388072Y-101950000D01*
X125375812Y-101825518D01*
X125339502Y-101705820D01*
X125280537Y-101595506D01*
X125201185Y-101498815D01*
X125104494Y-101419463D01*
X124994180Y-101360498D01*
X124874482Y-101324188D01*
X124750000Y-101311928D01*
X119650000Y-101311928D01*
X119525518Y-101324188D01*
X119405820Y-101360498D01*
X119295506Y-101419463D01*
X119198815Y-101498815D01*
X119119463Y-101595506D01*
X119060498Y-101705820D01*
X119024188Y-101825518D01*
X119011928Y-101950000D01*
X115934801Y-101950000D01*
X118075829Y-99808972D01*
X130488577Y-99808972D01*
X135000000Y-104320395D01*
X139511423Y-99808972D01*
X138815369Y-99032529D01*
X137675408Y-98393243D01*
X136432631Y-97988637D01*
X135134800Y-97834259D01*
X133831788Y-97936040D01*
X132573670Y-98290072D01*
X131408794Y-98882747D01*
X131184631Y-99032529D01*
X130488577Y-99808972D01*
X118075829Y-99808972D01*
X120746731Y-97138072D01*
X120960000Y-97138072D01*
X121084482Y-97125812D01*
X121204180Y-97089502D01*
X121270000Y-97054320D01*
X121335820Y-97089502D01*
X121455518Y-97125812D01*
X121580000Y-97138072D01*
X122230000Y-97138072D01*
X122354482Y-97125812D01*
X122474180Y-97089502D01*
X122584494Y-97030537D01*
X122681185Y-96951185D01*
X122760537Y-96854494D01*
X122819502Y-96744180D01*
X122855812Y-96624482D01*
X122868072Y-96500000D01*
X122868072Y-96410000D01*
X143104465Y-96410000D01*
X143207111Y-96478586D01*
X143377271Y-96549068D01*
X143557911Y-96585000D01*
X143742089Y-96585000D01*
X143922729Y-96549068D01*
X144092889Y-96478586D01*
X144195535Y-96410000D01*
X157010199Y-96410000D01*
X160349428Y-99749230D01*
X160349428Y-100006250D01*
X160365892Y-100173408D01*
X160414650Y-100334142D01*
X160493829Y-100482275D01*
X160600385Y-100612115D01*
X160730225Y-100718671D01*
X160878358Y-100797850D01*
X161039092Y-100846608D01*
X161206250Y-100863072D01*
X161643750Y-100863072D01*
X161810908Y-100846608D01*
X161971642Y-100797850D01*
X162119775Y-100718671D01*
X162212500Y-100642574D01*
X162305225Y-100718671D01*
X162453358Y-100797850D01*
X162614092Y-100846608D01*
X162781250Y-100863072D01*
X163218750Y-100863072D01*
X163385908Y-100846608D01*
X163546642Y-100797850D01*
X163694775Y-100718671D01*
X163804127Y-100628929D01*
X164686200Y-101511002D01*
X164709999Y-101540001D01*
X164738997Y-101563799D01*
X164825723Y-101634974D01*
X164861266Y-101653972D01*
X164957753Y-101705546D01*
X165101014Y-101749003D01*
X165212667Y-101760000D01*
X165212677Y-101760000D01*
X165250000Y-101763676D01*
X165287323Y-101760000D01*
X166693308Y-101760000D01*
X166727271Y-101774068D01*
X166907911Y-101810000D01*
X167092089Y-101810000D01*
X167272729Y-101774068D01*
X167442889Y-101703586D01*
X167596028Y-101601262D01*
X167726262Y-101471028D01*
X167828586Y-101317889D01*
X167899068Y-101147729D01*
X167935000Y-100967089D01*
X167935000Y-100782911D01*
X167899068Y-100602271D01*
X167828586Y-100432111D01*
X167726262Y-100278972D01*
X167596028Y-100148738D01*
X167442889Y-100046414D01*
X167272729Y-99975932D01*
X167092089Y-99940000D01*
X166907911Y-99940000D01*
X166727271Y-99975932D01*
X166557111Y-100046414D01*
X166403972Y-100148738D01*
X166312710Y-100240000D01*
X165564802Y-100240000D01*
X164563804Y-99239003D01*
X164540001Y-99209999D01*
X164424276Y-99115026D01*
X164292247Y-99044454D01*
X164148986Y-99000997D01*
X164037333Y-98990000D01*
X164037322Y-98990000D01*
X164000000Y-98986324D01*
X163962678Y-98990000D01*
X163908418Y-98990000D01*
X163824615Y-98887885D01*
X163694775Y-98781329D01*
X163546642Y-98702150D01*
X163385908Y-98653392D01*
X163218750Y-98636928D01*
X162781250Y-98636928D01*
X162614092Y-98653392D01*
X162453358Y-98702150D01*
X162305225Y-98781329D01*
X162212500Y-98857426D01*
X162119775Y-98781329D01*
X161971642Y-98702150D01*
X161810908Y-98653392D01*
X161643750Y-98636928D01*
X161386730Y-98636928D01*
X157888804Y-95139003D01*
X157865001Y-95109999D01*
X157749276Y-95015026D01*
X157617247Y-94944454D01*
X157473986Y-94900997D01*
X157362333Y-94890000D01*
X157362322Y-94890000D01*
X157325000Y-94886324D01*
X157287678Y-94890000D01*
X144195535Y-94890000D01*
X144092889Y-94821414D01*
X143922729Y-94750932D01*
X143742089Y-94715000D01*
X143557911Y-94715000D01*
X143377271Y-94750932D01*
X143207111Y-94821414D01*
X143104465Y-94890000D01*
X122868072Y-94890000D01*
X122868072Y-94800000D01*
X122855812Y-94675518D01*
X122819502Y-94555820D01*
X122760537Y-94445506D01*
X122681185Y-94348815D01*
X122584494Y-94269463D01*
X122474180Y-94210498D01*
X122354482Y-94174188D01*
X122230000Y-94161928D01*
X122016730Y-94161928D01*
X121463546Y-93608744D01*
X121476262Y-93596028D01*
X121499996Y-93560508D01*
X121523738Y-93596040D01*
X121653972Y-93726274D01*
X121807111Y-93828598D01*
X121977271Y-93899080D01*
X122157911Y-93935012D01*
X122342089Y-93935012D01*
X122522729Y-93899080D01*
X122692889Y-93828598D01*
X122795535Y-93760012D01*
X160685211Y-93760012D01*
X166076848Y-99151651D01*
X166100932Y-99272729D01*
X166171414Y-99442889D01*
X166273738Y-99596028D01*
X166403972Y-99726262D01*
X166557111Y-99828586D01*
X166727271Y-99899068D01*
X166907911Y-99935000D01*
X167092089Y-99935000D01*
X167272729Y-99899068D01*
X167442889Y-99828586D01*
X167596028Y-99726262D01*
X167726262Y-99596028D01*
X167828586Y-99442889D01*
X167899068Y-99272729D01*
X167935000Y-99092089D01*
X167935000Y-98907911D01*
X167899068Y-98727271D01*
X167828586Y-98557111D01*
X167726262Y-98403972D01*
X167596028Y-98273738D01*
X167442889Y-98171414D01*
X167272729Y-98100932D01*
X167151651Y-98076848D01*
X161563816Y-92489015D01*
X161540013Y-92460011D01*
X161424288Y-92365038D01*
X161292259Y-92294466D01*
X161148998Y-92251009D01*
X161037345Y-92240012D01*
X161037334Y-92240012D01*
X161000012Y-92236336D01*
X160962690Y-92240012D01*
X122795535Y-92240012D01*
X122692889Y-92171426D01*
X122522729Y-92100944D01*
X122342089Y-92065012D01*
X122157911Y-92065012D01*
X121977271Y-92100944D01*
X121807111Y-92171426D01*
X121653972Y-92273750D01*
X121523738Y-92403984D01*
X121510000Y-92424544D01*
X121510000Y-92064807D01*
X124151655Y-89423153D01*
X124272735Y-89399068D01*
X124442895Y-89328586D01*
X124545541Y-89260000D01*
X165725178Y-89260000D01*
X165762500Y-89263676D01*
X165799822Y-89260000D01*
X165799833Y-89260000D01*
X165911486Y-89249003D01*
X166054747Y-89205546D01*
X166186776Y-89134974D01*
X166302501Y-89040001D01*
X166326303Y-89010998D01*
X166490634Y-88846668D01*
X166557111Y-88891086D01*
X166727271Y-88961568D01*
X166907911Y-88997500D01*
X167092089Y-88997500D01*
X167272729Y-88961568D01*
X167442889Y-88891086D01*
X167596028Y-88788762D01*
X167726262Y-88658528D01*
X167828586Y-88505389D01*
X167899068Y-88335229D01*
X167935000Y-88154589D01*
X167935000Y-87970411D01*
X167899068Y-87789771D01*
X167828586Y-87619611D01*
X167726262Y-87466472D01*
X167596028Y-87336238D01*
X167442889Y-87233914D01*
X167272729Y-87163432D01*
X167092089Y-87127500D01*
X166907911Y-87127500D01*
X166727271Y-87163432D01*
X166557111Y-87233914D01*
X166454465Y-87302500D01*
X166237322Y-87302500D01*
X166199999Y-87298824D01*
X166162676Y-87302500D01*
X166162667Y-87302500D01*
X166051014Y-87313497D01*
X165907753Y-87356954D01*
X165775724Y-87427526D01*
X165659999Y-87522499D01*
X165636200Y-87551498D01*
X165447698Y-87740000D01*
X142851398Y-87740000D01*
X142880537Y-87704494D01*
X142939502Y-87594180D01*
X142975812Y-87474482D01*
X142988072Y-87350000D01*
X142985000Y-86785750D01*
X142826250Y-86627000D01*
X141627000Y-86627000D01*
X141627000Y-86647000D01*
X141373000Y-86647000D01*
X141373000Y-86627000D01*
X141353000Y-86627000D01*
X141353000Y-86373000D01*
X141373000Y-86373000D01*
X141373000Y-86353000D01*
X141627000Y-86353000D01*
X141627000Y-86373000D01*
X142826250Y-86373000D01*
X142985000Y-86214250D01*
X142987745Y-85710000D01*
X169290000Y-85710000D01*
X169290001Y-114290000D01*
X100710000Y-114290000D01*
X100710000Y-85710000D01*
X127538441Y-85710000D01*
X127421401Y-85928966D01*
G36*
X121335820Y-89789502D02*
G01*
X121455518Y-89825812D01*
X121580000Y-89838072D01*
X121587738Y-89837466D01*
X120238998Y-91186207D01*
X120210000Y-91210005D01*
X120186202Y-91239003D01*
X120186201Y-91239004D01*
X120115026Y-91325730D01*
X120044454Y-91457760D01*
X120000998Y-91601021D01*
X119987533Y-91737729D01*
X118087875Y-89838072D01*
X118420000Y-89838072D01*
X118544482Y-89825812D01*
X118664180Y-89789502D01*
X118730000Y-89754320D01*
X118795820Y-89789502D01*
X118915518Y-89825812D01*
X119040000Y-89838072D01*
X119690000Y-89838072D01*
X119814482Y-89825812D01*
X119934180Y-89789502D01*
X120000000Y-89754320D01*
X120065820Y-89789502D01*
X120185518Y-89825812D01*
X120310000Y-89838072D01*
X120960000Y-89838072D01*
X121084482Y-89825812D01*
X121204180Y-89789502D01*
X121270000Y-89754320D01*
X121335820Y-89789502D01*
X121335820Y-89789502D01*
G37*
X121335820Y-89789502D02*
X121455518Y-89825812D01*
X121580000Y-89838072D01*
X121587738Y-89837466D01*
X120238998Y-91186207D01*
X120210000Y-91210005D01*
X120186202Y-91239003D01*
X120186201Y-91239004D01*
X120115026Y-91325730D01*
X120044454Y-91457760D01*
X120000998Y-91601021D01*
X119987533Y-91737729D01*
X118087875Y-89838072D01*
X118420000Y-89838072D01*
X118544482Y-89825812D01*
X118664180Y-89789502D01*
X118730000Y-89754320D01*
X118795820Y-89789502D01*
X118915518Y-89825812D01*
X119040000Y-89838072D01*
X119690000Y-89838072D01*
X119814482Y-89825812D01*
X119934180Y-89789502D01*
X120000000Y-89754320D01*
X120065820Y-89789502D01*
X120185518Y-89825812D01*
X120310000Y-89838072D01*
X120960000Y-89838072D01*
X121084482Y-89825812D01*
X121204180Y-89789502D01*
X121270000Y-89754320D01*
X121335820Y-89789502D01*
G36*
X125915199Y-87740000D02*
G01*
X124545541Y-87740000D01*
X124442895Y-87671414D01*
X124272735Y-87600932D01*
X124092095Y-87565000D01*
X123907917Y-87565000D01*
X123727277Y-87600932D01*
X123557117Y-87671414D01*
X123403978Y-87773738D01*
X123273744Y-87903972D01*
X123171420Y-88057111D01*
X123100938Y-88227271D01*
X123076853Y-88348351D01*
X122827227Y-88597977D01*
X122706250Y-88477000D01*
X122032000Y-88477000D01*
X122032000Y-88497000D01*
X121778000Y-88497000D01*
X121778000Y-88477000D01*
X121758000Y-88477000D01*
X121758000Y-88223000D01*
X121778000Y-88223000D01*
X121778000Y-88203000D01*
X122032000Y-88203000D01*
X122032000Y-88223000D01*
X122706250Y-88223000D01*
X122865000Y-88064250D01*
X122868018Y-87510000D01*
X125685199Y-87510000D01*
X125915199Y-87740000D01*
X125915199Y-87740000D01*
G37*
X125915199Y-87740000D02*
X124545541Y-87740000D01*
X124442895Y-87671414D01*
X124272735Y-87600932D01*
X124092095Y-87565000D01*
X123907917Y-87565000D01*
X123727277Y-87600932D01*
X123557117Y-87671414D01*
X123403978Y-87773738D01*
X123273744Y-87903972D01*
X123171420Y-88057111D01*
X123100938Y-88227271D01*
X123076853Y-88348351D01*
X122827227Y-88597977D01*
X122706250Y-88477000D01*
X122032000Y-88477000D01*
X122032000Y-88497000D01*
X121778000Y-88497000D01*
X121778000Y-88477000D01*
X121758000Y-88477000D01*
X121758000Y-88223000D01*
X121778000Y-88223000D01*
X121778000Y-88203000D01*
X122032000Y-88203000D01*
X122032000Y-88223000D01*
X122706250Y-88223000D01*
X122865000Y-88064250D01*
X122868018Y-87510000D01*
X125685199Y-87510000D01*
X125915199Y-87740000D01*
M02*
