G04 #@! TF.GenerationSoftware,KiCad,Pcbnew,(5.1.4)-1*
G04 #@! TF.CreationDate,2020-02-13T00:02:55-05:00*
G04 #@! TF.ProjectId,enemies,656e656d-6965-4732-9e6b-696361645f70,rev?*
G04 #@! TF.SameCoordinates,Original*
G04 #@! TF.FileFunction,Soldermask,Top*
G04 #@! TF.FilePolarity,Negative*
%FSLAX46Y46*%
G04 Gerber Fmt 4.6, Leading zero omitted, Abs format (unit mm)*
G04 Created by KiCad (PCBNEW (5.1.4)-1) date 2020-02-13 00:02:55*
%MOMM*%
%LPD*%
G04 APERTURE LIST*
%ADD10O,2.100000X2.100000*%
%ADD11R,2.100000X2.100000*%
%ADD12C,0.100000*%
%ADD13C,1.375000*%
G04 APERTURE END LIST*
D10*
X128800000Y-86500000D03*
X131340000Y-86500000D03*
X133880000Y-86500000D03*
X136420000Y-86500000D03*
X138960000Y-86500000D03*
D11*
X141500000Y-86500000D03*
D12*
G36*
X103589943Y-98439155D02*
G01*
X103623312Y-98444105D01*
X103656035Y-98452302D01*
X103687797Y-98463666D01*
X103718293Y-98478090D01*
X103747227Y-98495432D01*
X103774323Y-98515528D01*
X103799318Y-98538182D01*
X103821972Y-98563177D01*
X103842068Y-98590273D01*
X103859410Y-98619207D01*
X103873834Y-98649703D01*
X103885198Y-98681465D01*
X103893395Y-98714188D01*
X103898345Y-98747557D01*
X103900000Y-98781250D01*
X103900000Y-99468750D01*
X103898345Y-99502443D01*
X103893395Y-99535812D01*
X103885198Y-99568535D01*
X103873834Y-99600297D01*
X103859410Y-99630793D01*
X103842068Y-99659727D01*
X103821972Y-99686823D01*
X103799318Y-99711818D01*
X103774323Y-99734472D01*
X103747227Y-99754568D01*
X103718293Y-99771910D01*
X103687797Y-99786334D01*
X103656035Y-99797698D01*
X103623312Y-99805895D01*
X103589943Y-99810845D01*
X103556250Y-99812500D01*
X102443750Y-99812500D01*
X102410057Y-99810845D01*
X102376688Y-99805895D01*
X102343965Y-99797698D01*
X102312203Y-99786334D01*
X102281707Y-99771910D01*
X102252773Y-99754568D01*
X102225677Y-99734472D01*
X102200682Y-99711818D01*
X102178028Y-99686823D01*
X102157932Y-99659727D01*
X102140590Y-99630793D01*
X102126166Y-99600297D01*
X102114802Y-99568535D01*
X102106605Y-99535812D01*
X102101655Y-99502443D01*
X102100000Y-99468750D01*
X102100000Y-98781250D01*
X102101655Y-98747557D01*
X102106605Y-98714188D01*
X102114802Y-98681465D01*
X102126166Y-98649703D01*
X102140590Y-98619207D01*
X102157932Y-98590273D01*
X102178028Y-98563177D01*
X102200682Y-98538182D01*
X102225677Y-98515528D01*
X102252773Y-98495432D01*
X102281707Y-98478090D01*
X102312203Y-98463666D01*
X102343965Y-98452302D01*
X102376688Y-98444105D01*
X102410057Y-98439155D01*
X102443750Y-98437500D01*
X103556250Y-98437500D01*
X103589943Y-98439155D01*
X103589943Y-98439155D01*
G37*
D13*
X103000000Y-99125000D03*
D12*
G36*
X103589943Y-100314155D02*
G01*
X103623312Y-100319105D01*
X103656035Y-100327302D01*
X103687797Y-100338666D01*
X103718293Y-100353090D01*
X103747227Y-100370432D01*
X103774323Y-100390528D01*
X103799318Y-100413182D01*
X103821972Y-100438177D01*
X103842068Y-100465273D01*
X103859410Y-100494207D01*
X103873834Y-100524703D01*
X103885198Y-100556465D01*
X103893395Y-100589188D01*
X103898345Y-100622557D01*
X103900000Y-100656250D01*
X103900000Y-101343750D01*
X103898345Y-101377443D01*
X103893395Y-101410812D01*
X103885198Y-101443535D01*
X103873834Y-101475297D01*
X103859410Y-101505793D01*
X103842068Y-101534727D01*
X103821972Y-101561823D01*
X103799318Y-101586818D01*
X103774323Y-101609472D01*
X103747227Y-101629568D01*
X103718293Y-101646910D01*
X103687797Y-101661334D01*
X103656035Y-101672698D01*
X103623312Y-101680895D01*
X103589943Y-101685845D01*
X103556250Y-101687500D01*
X102443750Y-101687500D01*
X102410057Y-101685845D01*
X102376688Y-101680895D01*
X102343965Y-101672698D01*
X102312203Y-101661334D01*
X102281707Y-101646910D01*
X102252773Y-101629568D01*
X102225677Y-101609472D01*
X102200682Y-101586818D01*
X102178028Y-101561823D01*
X102157932Y-101534727D01*
X102140590Y-101505793D01*
X102126166Y-101475297D01*
X102114802Y-101443535D01*
X102106605Y-101410812D01*
X102101655Y-101377443D01*
X102100000Y-101343750D01*
X102100000Y-100656250D01*
X102101655Y-100622557D01*
X102106605Y-100589188D01*
X102114802Y-100556465D01*
X102126166Y-100524703D01*
X102140590Y-100494207D01*
X102157932Y-100465273D01*
X102178028Y-100438177D01*
X102200682Y-100413182D01*
X102225677Y-100390528D01*
X102252773Y-100370432D01*
X102281707Y-100353090D01*
X102312203Y-100338666D01*
X102343965Y-100327302D01*
X102376688Y-100319105D01*
X102410057Y-100314155D01*
X102443750Y-100312500D01*
X103556250Y-100312500D01*
X103589943Y-100314155D01*
X103589943Y-100314155D01*
G37*
D13*
X103000000Y-101000000D03*
D12*
G36*
X167589943Y-100189155D02*
G01*
X167623312Y-100194105D01*
X167656035Y-100202302D01*
X167687797Y-100213666D01*
X167718293Y-100228090D01*
X167747227Y-100245432D01*
X167774323Y-100265528D01*
X167799318Y-100288182D01*
X167821972Y-100313177D01*
X167842068Y-100340273D01*
X167859410Y-100369207D01*
X167873834Y-100399703D01*
X167885198Y-100431465D01*
X167893395Y-100464188D01*
X167898345Y-100497557D01*
X167900000Y-100531250D01*
X167900000Y-101218750D01*
X167898345Y-101252443D01*
X167893395Y-101285812D01*
X167885198Y-101318535D01*
X167873834Y-101350297D01*
X167859410Y-101380793D01*
X167842068Y-101409727D01*
X167821972Y-101436823D01*
X167799318Y-101461818D01*
X167774323Y-101484472D01*
X167747227Y-101504568D01*
X167718293Y-101521910D01*
X167687797Y-101536334D01*
X167656035Y-101547698D01*
X167623312Y-101555895D01*
X167589943Y-101560845D01*
X167556250Y-101562500D01*
X166443750Y-101562500D01*
X166410057Y-101560845D01*
X166376688Y-101555895D01*
X166343965Y-101547698D01*
X166312203Y-101536334D01*
X166281707Y-101521910D01*
X166252773Y-101504568D01*
X166225677Y-101484472D01*
X166200682Y-101461818D01*
X166178028Y-101436823D01*
X166157932Y-101409727D01*
X166140590Y-101380793D01*
X166126166Y-101350297D01*
X166114802Y-101318535D01*
X166106605Y-101285812D01*
X166101655Y-101252443D01*
X166100000Y-101218750D01*
X166100000Y-100531250D01*
X166101655Y-100497557D01*
X166106605Y-100464188D01*
X166114802Y-100431465D01*
X166126166Y-100399703D01*
X166140590Y-100369207D01*
X166157932Y-100340273D01*
X166178028Y-100313177D01*
X166200682Y-100288182D01*
X166225677Y-100265528D01*
X166252773Y-100245432D01*
X166281707Y-100228090D01*
X166312203Y-100213666D01*
X166343965Y-100202302D01*
X166376688Y-100194105D01*
X166410057Y-100189155D01*
X166443750Y-100187500D01*
X167556250Y-100187500D01*
X167589943Y-100189155D01*
X167589943Y-100189155D01*
G37*
D13*
X167000000Y-100875000D03*
D12*
G36*
X167589943Y-98314155D02*
G01*
X167623312Y-98319105D01*
X167656035Y-98327302D01*
X167687797Y-98338666D01*
X167718293Y-98353090D01*
X167747227Y-98370432D01*
X167774323Y-98390528D01*
X167799318Y-98413182D01*
X167821972Y-98438177D01*
X167842068Y-98465273D01*
X167859410Y-98494207D01*
X167873834Y-98524703D01*
X167885198Y-98556465D01*
X167893395Y-98589188D01*
X167898345Y-98622557D01*
X167900000Y-98656250D01*
X167900000Y-99343750D01*
X167898345Y-99377443D01*
X167893395Y-99410812D01*
X167885198Y-99443535D01*
X167873834Y-99475297D01*
X167859410Y-99505793D01*
X167842068Y-99534727D01*
X167821972Y-99561823D01*
X167799318Y-99586818D01*
X167774323Y-99609472D01*
X167747227Y-99629568D01*
X167718293Y-99646910D01*
X167687797Y-99661334D01*
X167656035Y-99672698D01*
X167623312Y-99680895D01*
X167589943Y-99685845D01*
X167556250Y-99687500D01*
X166443750Y-99687500D01*
X166410057Y-99685845D01*
X166376688Y-99680895D01*
X166343965Y-99672698D01*
X166312203Y-99661334D01*
X166281707Y-99646910D01*
X166252773Y-99629568D01*
X166225677Y-99609472D01*
X166200682Y-99586818D01*
X166178028Y-99561823D01*
X166157932Y-99534727D01*
X166140590Y-99505793D01*
X166126166Y-99475297D01*
X166114802Y-99443535D01*
X166106605Y-99410812D01*
X166101655Y-99377443D01*
X166100000Y-99343750D01*
X166100000Y-98656250D01*
X166101655Y-98622557D01*
X166106605Y-98589188D01*
X166114802Y-98556465D01*
X166126166Y-98524703D01*
X166140590Y-98494207D01*
X166157932Y-98465273D01*
X166178028Y-98438177D01*
X166200682Y-98413182D01*
X166225677Y-98390528D01*
X166252773Y-98370432D01*
X166281707Y-98353090D01*
X166312203Y-98338666D01*
X166343965Y-98327302D01*
X166376688Y-98319105D01*
X166410057Y-98314155D01*
X166443750Y-98312500D01*
X167556250Y-98312500D01*
X167589943Y-98314155D01*
X167589943Y-98314155D01*
G37*
D13*
X167000000Y-99000000D03*
D12*
G36*
X167589943Y-110751655D02*
G01*
X167623312Y-110756605D01*
X167656035Y-110764802D01*
X167687797Y-110776166D01*
X167718293Y-110790590D01*
X167747227Y-110807932D01*
X167774323Y-110828028D01*
X167799318Y-110850682D01*
X167821972Y-110875677D01*
X167842068Y-110902773D01*
X167859410Y-110931707D01*
X167873834Y-110962203D01*
X167885198Y-110993965D01*
X167893395Y-111026688D01*
X167898345Y-111060057D01*
X167900000Y-111093750D01*
X167900000Y-111781250D01*
X167898345Y-111814943D01*
X167893395Y-111848312D01*
X167885198Y-111881035D01*
X167873834Y-111912797D01*
X167859410Y-111943293D01*
X167842068Y-111972227D01*
X167821972Y-111999323D01*
X167799318Y-112024318D01*
X167774323Y-112046972D01*
X167747227Y-112067068D01*
X167718293Y-112084410D01*
X167687797Y-112098834D01*
X167656035Y-112110198D01*
X167623312Y-112118395D01*
X167589943Y-112123345D01*
X167556250Y-112125000D01*
X166443750Y-112125000D01*
X166410057Y-112123345D01*
X166376688Y-112118395D01*
X166343965Y-112110198D01*
X166312203Y-112098834D01*
X166281707Y-112084410D01*
X166252773Y-112067068D01*
X166225677Y-112046972D01*
X166200682Y-112024318D01*
X166178028Y-111999323D01*
X166157932Y-111972227D01*
X166140590Y-111943293D01*
X166126166Y-111912797D01*
X166114802Y-111881035D01*
X166106605Y-111848312D01*
X166101655Y-111814943D01*
X166100000Y-111781250D01*
X166100000Y-111093750D01*
X166101655Y-111060057D01*
X166106605Y-111026688D01*
X166114802Y-110993965D01*
X166126166Y-110962203D01*
X166140590Y-110931707D01*
X166157932Y-110902773D01*
X166178028Y-110875677D01*
X166200682Y-110850682D01*
X166225677Y-110828028D01*
X166252773Y-110807932D01*
X166281707Y-110790590D01*
X166312203Y-110776166D01*
X166343965Y-110764802D01*
X166376688Y-110756605D01*
X166410057Y-110751655D01*
X166443750Y-110750000D01*
X167556250Y-110750000D01*
X167589943Y-110751655D01*
X167589943Y-110751655D01*
G37*
D13*
X167000000Y-111437500D03*
D12*
G36*
X167589943Y-108876655D02*
G01*
X167623312Y-108881605D01*
X167656035Y-108889802D01*
X167687797Y-108901166D01*
X167718293Y-108915590D01*
X167747227Y-108932932D01*
X167774323Y-108953028D01*
X167799318Y-108975682D01*
X167821972Y-109000677D01*
X167842068Y-109027773D01*
X167859410Y-109056707D01*
X167873834Y-109087203D01*
X167885198Y-109118965D01*
X167893395Y-109151688D01*
X167898345Y-109185057D01*
X167900000Y-109218750D01*
X167900000Y-109906250D01*
X167898345Y-109939943D01*
X167893395Y-109973312D01*
X167885198Y-110006035D01*
X167873834Y-110037797D01*
X167859410Y-110068293D01*
X167842068Y-110097227D01*
X167821972Y-110124323D01*
X167799318Y-110149318D01*
X167774323Y-110171972D01*
X167747227Y-110192068D01*
X167718293Y-110209410D01*
X167687797Y-110223834D01*
X167656035Y-110235198D01*
X167623312Y-110243395D01*
X167589943Y-110248345D01*
X167556250Y-110250000D01*
X166443750Y-110250000D01*
X166410057Y-110248345D01*
X166376688Y-110243395D01*
X166343965Y-110235198D01*
X166312203Y-110223834D01*
X166281707Y-110209410D01*
X166252773Y-110192068D01*
X166225677Y-110171972D01*
X166200682Y-110149318D01*
X166178028Y-110124323D01*
X166157932Y-110097227D01*
X166140590Y-110068293D01*
X166126166Y-110037797D01*
X166114802Y-110006035D01*
X166106605Y-109973312D01*
X166101655Y-109939943D01*
X166100000Y-109906250D01*
X166100000Y-109218750D01*
X166101655Y-109185057D01*
X166106605Y-109151688D01*
X166114802Y-109118965D01*
X166126166Y-109087203D01*
X166140590Y-109056707D01*
X166157932Y-109027773D01*
X166178028Y-109000677D01*
X166200682Y-108975682D01*
X166225677Y-108953028D01*
X166252773Y-108932932D01*
X166281707Y-108915590D01*
X166312203Y-108901166D01*
X166343965Y-108889802D01*
X166376688Y-108881605D01*
X166410057Y-108876655D01*
X166443750Y-108875000D01*
X167556250Y-108875000D01*
X167589943Y-108876655D01*
X167589943Y-108876655D01*
G37*
D13*
X167000000Y-109562500D03*
D12*
G36*
X103589943Y-87376655D02*
G01*
X103623312Y-87381605D01*
X103656035Y-87389802D01*
X103687797Y-87401166D01*
X103718293Y-87415590D01*
X103747227Y-87432932D01*
X103774323Y-87453028D01*
X103799318Y-87475682D01*
X103821972Y-87500677D01*
X103842068Y-87527773D01*
X103859410Y-87556707D01*
X103873834Y-87587203D01*
X103885198Y-87618965D01*
X103893395Y-87651688D01*
X103898345Y-87685057D01*
X103900000Y-87718750D01*
X103900000Y-88406250D01*
X103898345Y-88439943D01*
X103893395Y-88473312D01*
X103885198Y-88506035D01*
X103873834Y-88537797D01*
X103859410Y-88568293D01*
X103842068Y-88597227D01*
X103821972Y-88624323D01*
X103799318Y-88649318D01*
X103774323Y-88671972D01*
X103747227Y-88692068D01*
X103718293Y-88709410D01*
X103687797Y-88723834D01*
X103656035Y-88735198D01*
X103623312Y-88743395D01*
X103589943Y-88748345D01*
X103556250Y-88750000D01*
X102443750Y-88750000D01*
X102410057Y-88748345D01*
X102376688Y-88743395D01*
X102343965Y-88735198D01*
X102312203Y-88723834D01*
X102281707Y-88709410D01*
X102252773Y-88692068D01*
X102225677Y-88671972D01*
X102200682Y-88649318D01*
X102178028Y-88624323D01*
X102157932Y-88597227D01*
X102140590Y-88568293D01*
X102126166Y-88537797D01*
X102114802Y-88506035D01*
X102106605Y-88473312D01*
X102101655Y-88439943D01*
X102100000Y-88406250D01*
X102100000Y-87718750D01*
X102101655Y-87685057D01*
X102106605Y-87651688D01*
X102114802Y-87618965D01*
X102126166Y-87587203D01*
X102140590Y-87556707D01*
X102157932Y-87527773D01*
X102178028Y-87500677D01*
X102200682Y-87475682D01*
X102225677Y-87453028D01*
X102252773Y-87432932D01*
X102281707Y-87415590D01*
X102312203Y-87401166D01*
X102343965Y-87389802D01*
X102376688Y-87381605D01*
X102410057Y-87376655D01*
X102443750Y-87375000D01*
X103556250Y-87375000D01*
X103589943Y-87376655D01*
X103589943Y-87376655D01*
G37*
D13*
X103000000Y-88062500D03*
D12*
G36*
X103589943Y-89251655D02*
G01*
X103623312Y-89256605D01*
X103656035Y-89264802D01*
X103687797Y-89276166D01*
X103718293Y-89290590D01*
X103747227Y-89307932D01*
X103774323Y-89328028D01*
X103799318Y-89350682D01*
X103821972Y-89375677D01*
X103842068Y-89402773D01*
X103859410Y-89431707D01*
X103873834Y-89462203D01*
X103885198Y-89493965D01*
X103893395Y-89526688D01*
X103898345Y-89560057D01*
X103900000Y-89593750D01*
X103900000Y-90281250D01*
X103898345Y-90314943D01*
X103893395Y-90348312D01*
X103885198Y-90381035D01*
X103873834Y-90412797D01*
X103859410Y-90443293D01*
X103842068Y-90472227D01*
X103821972Y-90499323D01*
X103799318Y-90524318D01*
X103774323Y-90546972D01*
X103747227Y-90567068D01*
X103718293Y-90584410D01*
X103687797Y-90598834D01*
X103656035Y-90610198D01*
X103623312Y-90618395D01*
X103589943Y-90623345D01*
X103556250Y-90625000D01*
X102443750Y-90625000D01*
X102410057Y-90623345D01*
X102376688Y-90618395D01*
X102343965Y-90610198D01*
X102312203Y-90598834D01*
X102281707Y-90584410D01*
X102252773Y-90567068D01*
X102225677Y-90546972D01*
X102200682Y-90524318D01*
X102178028Y-90499323D01*
X102157932Y-90472227D01*
X102140590Y-90443293D01*
X102126166Y-90412797D01*
X102114802Y-90381035D01*
X102106605Y-90348312D01*
X102101655Y-90314943D01*
X102100000Y-90281250D01*
X102100000Y-89593750D01*
X102101655Y-89560057D01*
X102106605Y-89526688D01*
X102114802Y-89493965D01*
X102126166Y-89462203D01*
X102140590Y-89431707D01*
X102157932Y-89402773D01*
X102178028Y-89375677D01*
X102200682Y-89350682D01*
X102225677Y-89328028D01*
X102252773Y-89307932D01*
X102281707Y-89290590D01*
X102312203Y-89276166D01*
X102343965Y-89264802D01*
X102376688Y-89256605D01*
X102410057Y-89251655D01*
X102443750Y-89250000D01*
X103556250Y-89250000D01*
X103589943Y-89251655D01*
X103589943Y-89251655D01*
G37*
D13*
X103000000Y-89937500D03*
D12*
G36*
X103589943Y-108876655D02*
G01*
X103623312Y-108881605D01*
X103656035Y-108889802D01*
X103687797Y-108901166D01*
X103718293Y-108915590D01*
X103747227Y-108932932D01*
X103774323Y-108953028D01*
X103799318Y-108975682D01*
X103821972Y-109000677D01*
X103842068Y-109027773D01*
X103859410Y-109056707D01*
X103873834Y-109087203D01*
X103885198Y-109118965D01*
X103893395Y-109151688D01*
X103898345Y-109185057D01*
X103900000Y-109218750D01*
X103900000Y-109906250D01*
X103898345Y-109939943D01*
X103893395Y-109973312D01*
X103885198Y-110006035D01*
X103873834Y-110037797D01*
X103859410Y-110068293D01*
X103842068Y-110097227D01*
X103821972Y-110124323D01*
X103799318Y-110149318D01*
X103774323Y-110171972D01*
X103747227Y-110192068D01*
X103718293Y-110209410D01*
X103687797Y-110223834D01*
X103656035Y-110235198D01*
X103623312Y-110243395D01*
X103589943Y-110248345D01*
X103556250Y-110250000D01*
X102443750Y-110250000D01*
X102410057Y-110248345D01*
X102376688Y-110243395D01*
X102343965Y-110235198D01*
X102312203Y-110223834D01*
X102281707Y-110209410D01*
X102252773Y-110192068D01*
X102225677Y-110171972D01*
X102200682Y-110149318D01*
X102178028Y-110124323D01*
X102157932Y-110097227D01*
X102140590Y-110068293D01*
X102126166Y-110037797D01*
X102114802Y-110006035D01*
X102106605Y-109973312D01*
X102101655Y-109939943D01*
X102100000Y-109906250D01*
X102100000Y-109218750D01*
X102101655Y-109185057D01*
X102106605Y-109151688D01*
X102114802Y-109118965D01*
X102126166Y-109087203D01*
X102140590Y-109056707D01*
X102157932Y-109027773D01*
X102178028Y-109000677D01*
X102200682Y-108975682D01*
X102225677Y-108953028D01*
X102252773Y-108932932D01*
X102281707Y-108915590D01*
X102312203Y-108901166D01*
X102343965Y-108889802D01*
X102376688Y-108881605D01*
X102410057Y-108876655D01*
X102443750Y-108875000D01*
X103556250Y-108875000D01*
X103589943Y-108876655D01*
X103589943Y-108876655D01*
G37*
D13*
X103000000Y-109562500D03*
D12*
G36*
X103589943Y-110751655D02*
G01*
X103623312Y-110756605D01*
X103656035Y-110764802D01*
X103687797Y-110776166D01*
X103718293Y-110790590D01*
X103747227Y-110807932D01*
X103774323Y-110828028D01*
X103799318Y-110850682D01*
X103821972Y-110875677D01*
X103842068Y-110902773D01*
X103859410Y-110931707D01*
X103873834Y-110962203D01*
X103885198Y-110993965D01*
X103893395Y-111026688D01*
X103898345Y-111060057D01*
X103900000Y-111093750D01*
X103900000Y-111781250D01*
X103898345Y-111814943D01*
X103893395Y-111848312D01*
X103885198Y-111881035D01*
X103873834Y-111912797D01*
X103859410Y-111943293D01*
X103842068Y-111972227D01*
X103821972Y-111999323D01*
X103799318Y-112024318D01*
X103774323Y-112046972D01*
X103747227Y-112067068D01*
X103718293Y-112084410D01*
X103687797Y-112098834D01*
X103656035Y-112110198D01*
X103623312Y-112118395D01*
X103589943Y-112123345D01*
X103556250Y-112125000D01*
X102443750Y-112125000D01*
X102410057Y-112123345D01*
X102376688Y-112118395D01*
X102343965Y-112110198D01*
X102312203Y-112098834D01*
X102281707Y-112084410D01*
X102252773Y-112067068D01*
X102225677Y-112046972D01*
X102200682Y-112024318D01*
X102178028Y-111999323D01*
X102157932Y-111972227D01*
X102140590Y-111943293D01*
X102126166Y-111912797D01*
X102114802Y-111881035D01*
X102106605Y-111848312D01*
X102101655Y-111814943D01*
X102100000Y-111781250D01*
X102100000Y-111093750D01*
X102101655Y-111060057D01*
X102106605Y-111026688D01*
X102114802Y-110993965D01*
X102126166Y-110962203D01*
X102140590Y-110931707D01*
X102157932Y-110902773D01*
X102178028Y-110875677D01*
X102200682Y-110850682D01*
X102225677Y-110828028D01*
X102252773Y-110807932D01*
X102281707Y-110790590D01*
X102312203Y-110776166D01*
X102343965Y-110764802D01*
X102376688Y-110756605D01*
X102410057Y-110751655D01*
X102443750Y-110750000D01*
X103556250Y-110750000D01*
X103589943Y-110751655D01*
X103589943Y-110751655D01*
G37*
D13*
X103000000Y-111437500D03*
D12*
G36*
X167589943Y-89251655D02*
G01*
X167623312Y-89256605D01*
X167656035Y-89264802D01*
X167687797Y-89276166D01*
X167718293Y-89290590D01*
X167747227Y-89307932D01*
X167774323Y-89328028D01*
X167799318Y-89350682D01*
X167821972Y-89375677D01*
X167842068Y-89402773D01*
X167859410Y-89431707D01*
X167873834Y-89462203D01*
X167885198Y-89493965D01*
X167893395Y-89526688D01*
X167898345Y-89560057D01*
X167900000Y-89593750D01*
X167900000Y-90281250D01*
X167898345Y-90314943D01*
X167893395Y-90348312D01*
X167885198Y-90381035D01*
X167873834Y-90412797D01*
X167859410Y-90443293D01*
X167842068Y-90472227D01*
X167821972Y-90499323D01*
X167799318Y-90524318D01*
X167774323Y-90546972D01*
X167747227Y-90567068D01*
X167718293Y-90584410D01*
X167687797Y-90598834D01*
X167656035Y-90610198D01*
X167623312Y-90618395D01*
X167589943Y-90623345D01*
X167556250Y-90625000D01*
X166443750Y-90625000D01*
X166410057Y-90623345D01*
X166376688Y-90618395D01*
X166343965Y-90610198D01*
X166312203Y-90598834D01*
X166281707Y-90584410D01*
X166252773Y-90567068D01*
X166225677Y-90546972D01*
X166200682Y-90524318D01*
X166178028Y-90499323D01*
X166157932Y-90472227D01*
X166140590Y-90443293D01*
X166126166Y-90412797D01*
X166114802Y-90381035D01*
X166106605Y-90348312D01*
X166101655Y-90314943D01*
X166100000Y-90281250D01*
X166100000Y-89593750D01*
X166101655Y-89560057D01*
X166106605Y-89526688D01*
X166114802Y-89493965D01*
X166126166Y-89462203D01*
X166140590Y-89431707D01*
X166157932Y-89402773D01*
X166178028Y-89375677D01*
X166200682Y-89350682D01*
X166225677Y-89328028D01*
X166252773Y-89307932D01*
X166281707Y-89290590D01*
X166312203Y-89276166D01*
X166343965Y-89264802D01*
X166376688Y-89256605D01*
X166410057Y-89251655D01*
X166443750Y-89250000D01*
X167556250Y-89250000D01*
X167589943Y-89251655D01*
X167589943Y-89251655D01*
G37*
D13*
X167000000Y-89937500D03*
D12*
G36*
X167589943Y-87376655D02*
G01*
X167623312Y-87381605D01*
X167656035Y-87389802D01*
X167687797Y-87401166D01*
X167718293Y-87415590D01*
X167747227Y-87432932D01*
X167774323Y-87453028D01*
X167799318Y-87475682D01*
X167821972Y-87500677D01*
X167842068Y-87527773D01*
X167859410Y-87556707D01*
X167873834Y-87587203D01*
X167885198Y-87618965D01*
X167893395Y-87651688D01*
X167898345Y-87685057D01*
X167900000Y-87718750D01*
X167900000Y-88406250D01*
X167898345Y-88439943D01*
X167893395Y-88473312D01*
X167885198Y-88506035D01*
X167873834Y-88537797D01*
X167859410Y-88568293D01*
X167842068Y-88597227D01*
X167821972Y-88624323D01*
X167799318Y-88649318D01*
X167774323Y-88671972D01*
X167747227Y-88692068D01*
X167718293Y-88709410D01*
X167687797Y-88723834D01*
X167656035Y-88735198D01*
X167623312Y-88743395D01*
X167589943Y-88748345D01*
X167556250Y-88750000D01*
X166443750Y-88750000D01*
X166410057Y-88748345D01*
X166376688Y-88743395D01*
X166343965Y-88735198D01*
X166312203Y-88723834D01*
X166281707Y-88709410D01*
X166252773Y-88692068D01*
X166225677Y-88671972D01*
X166200682Y-88649318D01*
X166178028Y-88624323D01*
X166157932Y-88597227D01*
X166140590Y-88568293D01*
X166126166Y-88537797D01*
X166114802Y-88506035D01*
X166106605Y-88473312D01*
X166101655Y-88439943D01*
X166100000Y-88406250D01*
X166100000Y-87718750D01*
X166101655Y-87685057D01*
X166106605Y-87651688D01*
X166114802Y-87618965D01*
X166126166Y-87587203D01*
X166140590Y-87556707D01*
X166157932Y-87527773D01*
X166178028Y-87500677D01*
X166200682Y-87475682D01*
X166225677Y-87453028D01*
X166252773Y-87432932D01*
X166281707Y-87415590D01*
X166312203Y-87401166D01*
X166343965Y-87389802D01*
X166376688Y-87381605D01*
X166410057Y-87376655D01*
X166443750Y-87375000D01*
X167556250Y-87375000D01*
X167589943Y-87376655D01*
X167589943Y-87376655D01*
G37*
D13*
X167000000Y-88062500D03*
M02*
