G04 #@! TF.GenerationSoftware,KiCad,Pcbnew,(5.1.4)-1*
G04 #@! TF.CreationDate,2020-02-12T22:39:29-05:00*
G04 #@! TF.ProjectId,uradisappointment,75726164-6973-4617-9070-6f696e746d65,rev?*
G04 #@! TF.SameCoordinates,Original*
G04 #@! TF.FileFunction,Soldermask,Bot*
G04 #@! TF.FilePolarity,Negative*
%FSLAX46Y46*%
G04 Gerber Fmt 4.6, Leading zero omitted, Abs format (unit mm)*
G04 Created by KiCad (PCBNEW (5.1.4)-1) date 2020-02-12 22:39:29*
%MOMM*%
%LPD*%
G04 APERTURE LIST*
%ADD10C,0.100000*%
%ADD11C,1.275000*%
%ADD12C,12.400000*%
%ADD13R,5.500000X5.500000*%
G04 APERTURE END LIST*
D10*
G36*
X14255893Y1626465D02*
G01*
X14286835Y1621875D01*
X14317178Y1614275D01*
X14346630Y1603737D01*
X14374908Y1590362D01*
X14401738Y1574281D01*
X14426863Y1555647D01*
X14450040Y1534640D01*
X14471047Y1511463D01*
X14489681Y1486338D01*
X14505762Y1459508D01*
X14519137Y1431230D01*
X14529675Y1401778D01*
X14537275Y1371435D01*
X14541865Y1340493D01*
X14543400Y1309250D01*
X14543400Y671750D01*
X14541865Y640507D01*
X14537275Y609565D01*
X14529675Y579222D01*
X14519137Y549770D01*
X14505762Y521492D01*
X14489681Y494662D01*
X14471047Y469537D01*
X14450040Y446360D01*
X14426863Y425353D01*
X14401738Y406719D01*
X14374908Y390638D01*
X14346630Y377263D01*
X14317178Y366725D01*
X14286835Y359125D01*
X14255893Y354535D01*
X14224650Y353000D01*
X13512150Y353000D01*
X13480907Y354535D01*
X13449965Y359125D01*
X13419622Y366725D01*
X13390170Y377263D01*
X13361892Y390638D01*
X13335062Y406719D01*
X13309937Y425353D01*
X13286760Y446360D01*
X13265753Y469537D01*
X13247119Y494662D01*
X13231038Y521492D01*
X13217663Y549770D01*
X13207125Y579222D01*
X13199525Y609565D01*
X13194935Y640507D01*
X13193400Y671750D01*
X13193400Y1309250D01*
X13194935Y1340493D01*
X13199525Y1371435D01*
X13207125Y1401778D01*
X13217663Y1431230D01*
X13231038Y1459508D01*
X13247119Y1486338D01*
X13265753Y1511463D01*
X13286760Y1534640D01*
X13309937Y1555647D01*
X13335062Y1574281D01*
X13361892Y1590362D01*
X13390170Y1603737D01*
X13419622Y1614275D01*
X13449965Y1621875D01*
X13480907Y1626465D01*
X13512150Y1628000D01*
X14224650Y1628000D01*
X14255893Y1626465D01*
X14255893Y1626465D01*
G37*
D11*
X13868400Y990500D03*
D10*
G36*
X14255893Y3201465D02*
G01*
X14286835Y3196875D01*
X14317178Y3189275D01*
X14346630Y3178737D01*
X14374908Y3165362D01*
X14401738Y3149281D01*
X14426863Y3130647D01*
X14450040Y3109640D01*
X14471047Y3086463D01*
X14489681Y3061338D01*
X14505762Y3034508D01*
X14519137Y3006230D01*
X14529675Y2976778D01*
X14537275Y2946435D01*
X14541865Y2915493D01*
X14543400Y2884250D01*
X14543400Y2246750D01*
X14541865Y2215507D01*
X14537275Y2184565D01*
X14529675Y2154222D01*
X14519137Y2124770D01*
X14505762Y2096492D01*
X14489681Y2069662D01*
X14471047Y2044537D01*
X14450040Y2021360D01*
X14426863Y2000353D01*
X14401738Y1981719D01*
X14374908Y1965638D01*
X14346630Y1952263D01*
X14317178Y1941725D01*
X14286835Y1934125D01*
X14255893Y1929535D01*
X14224650Y1928000D01*
X13512150Y1928000D01*
X13480907Y1929535D01*
X13449965Y1934125D01*
X13419622Y1941725D01*
X13390170Y1952263D01*
X13361892Y1965638D01*
X13335062Y1981719D01*
X13309937Y2000353D01*
X13286760Y2021360D01*
X13265753Y2044537D01*
X13247119Y2069662D01*
X13231038Y2096492D01*
X13217663Y2124770D01*
X13207125Y2154222D01*
X13199525Y2184565D01*
X13194935Y2215507D01*
X13193400Y2246750D01*
X13193400Y2884250D01*
X13194935Y2915493D01*
X13199525Y2946435D01*
X13207125Y2976778D01*
X13217663Y3006230D01*
X13231038Y3034508D01*
X13247119Y3061338D01*
X13265753Y3086463D01*
X13286760Y3109640D01*
X13309937Y3130647D01*
X13335062Y3149281D01*
X13361892Y3165362D01*
X13390170Y3178737D01*
X13419622Y3189275D01*
X13449965Y3196875D01*
X13480907Y3201465D01*
X13512150Y3203000D01*
X14224650Y3203000D01*
X14255893Y3201465D01*
X14255893Y3201465D01*
G37*
D11*
X13868400Y2565500D03*
D12*
X-2616200Y-12954000D03*
D13*
X-15416200Y-12954000D03*
X10183800Y-12954000D03*
M02*
