G04 #@! TF.GenerationSoftware,KiCad,Pcbnew,(5.1.4)-1*
G04 #@! TF.CreationDate,2020-02-12T22:39:29-05:00*
G04 #@! TF.ProjectId,uradisappointment,75726164-6973-4617-9070-6f696e746d65,rev?*
G04 #@! TF.SameCoordinates,Original*
G04 #@! TF.FileFunction,Legend,Top*
G04 #@! TF.FilePolarity,Positive*
%FSLAX46Y46*%
G04 Gerber Fmt 4.6, Leading zero omitted, Abs format (unit mm)*
G04 Created by KiCad (PCBNEW (5.1.4)-1) date 2020-02-12 22:39:29*
%MOMM*%
%LPD*%
G04 APERTURE LIST*
%ADD10C,0.120000*%
%ADD11C,0.010000*%
G04 APERTURE END LIST*
D10*
X1083600Y16108800D02*
X3768600Y16108800D01*
X1083600Y18028800D02*
X1083600Y16108800D01*
X3768600Y18028800D02*
X1083600Y18028800D01*
D11*
G36*
X3177340Y19466678D02*
G01*
X3537418Y19380162D01*
X3827459Y19269097D01*
X4029314Y19146389D01*
X4252514Y18964205D01*
X4481443Y18739240D01*
X4700487Y18488191D01*
X4894031Y18227754D01*
X5046458Y17974626D01*
X5056565Y17954882D01*
X5184681Y17622499D01*
X5263306Y17244082D01*
X5289481Y16844332D01*
X5260245Y16447949D01*
X5246787Y16367444D01*
X5208789Y16217262D01*
X5143662Y16014320D01*
X5060352Y15781903D01*
X4967806Y15543294D01*
X4874972Y15321777D01*
X4790795Y15140636D01*
X4738781Y15045370D01*
X4564324Y14831708D01*
X4333802Y14649208D01*
X4089117Y14525447D01*
X3953889Y14477489D01*
X3848550Y14444914D01*
X3803882Y14435667D01*
X3776120Y14405129D01*
X3781493Y14376028D01*
X3798684Y14318385D01*
X3833408Y14192046D01*
X3882108Y14010313D01*
X3941226Y13786487D01*
X4007205Y13533870D01*
X4022108Y13476444D01*
X4088501Y13220634D01*
X4148021Y12991899D01*
X4197280Y12803218D01*
X4232887Y12667571D01*
X4251452Y12597934D01*
X4252952Y12592628D01*
X4295562Y12560006D01*
X4400479Y12506173D01*
X4550628Y12439353D01*
X4683617Y12385281D01*
X5222536Y12168469D01*
X5765304Y11939157D01*
X6299612Y11703129D01*
X6813151Y11466171D01*
X7293614Y11234070D01*
X7728694Y11012611D01*
X8106082Y10807579D01*
X8367192Y10653709D01*
X8525963Y10551116D01*
X8733453Y10410596D01*
X8970824Y10245259D01*
X9219240Y10068215D01*
X9444589Y9903869D01*
X9655887Y9750239D01*
X9922347Y9560353D01*
X10228669Y9344893D01*
X10559553Y9114543D01*
X10899696Y8879985D01*
X11233797Y8651902D01*
X11366500Y8562052D01*
X11874082Y8219101D01*
X12318104Y7918579D01*
X12705342Y7655780D01*
X13042570Y7426000D01*
X13336565Y7224537D01*
X13594102Y7046686D01*
X13821955Y6887743D01*
X14026901Y6743005D01*
X14215715Y6607767D01*
X14395173Y6477326D01*
X14572049Y6346978D01*
X14753119Y6212020D01*
X14773743Y6196572D01*
X15261114Y5822773D01*
X15685641Y5476704D01*
X16059157Y5146196D01*
X16393496Y4819080D01*
X16700489Y4483186D01*
X16991970Y4126347D01*
X17279771Y3736394D01*
X17547234Y3344333D01*
X17916636Y2759592D01*
X18257208Y2167534D01*
X18565992Y1575870D01*
X18840033Y992314D01*
X19076373Y424579D01*
X19272057Y-119622D01*
X19424128Y-632576D01*
X19529630Y-1106570D01*
X19585606Y-1533891D01*
X19589100Y-1906826D01*
X19583796Y-1968864D01*
X19559290Y-2145300D01*
X19515782Y-2391543D01*
X19456021Y-2695572D01*
X19382753Y-3045368D01*
X19298727Y-3428911D01*
X19206690Y-3834181D01*
X19109389Y-4249160D01*
X19009572Y-4661827D01*
X18909986Y-5060163D01*
X18813379Y-5432148D01*
X18722498Y-5765762D01*
X18688780Y-5884334D01*
X18553789Y-6337648D01*
X18429690Y-6718801D01*
X18311085Y-7038714D01*
X18192578Y-7308309D01*
X18068772Y-7538511D01*
X17934272Y-7740240D01*
X17783679Y-7924421D01*
X17611599Y-8101976D01*
X17576675Y-8135254D01*
X17250680Y-8429598D01*
X16864785Y-8755948D01*
X16432399Y-9103952D01*
X15966931Y-9463253D01*
X15481787Y-9823497D01*
X14990377Y-10174330D01*
X14517620Y-10497710D01*
X14196782Y-10709352D01*
X13926667Y-10879242D01*
X13689550Y-11015460D01*
X13467706Y-11126087D01*
X13243410Y-11219203D01*
X12998937Y-11302888D01*
X12716563Y-11385224D01*
X12378561Y-11474291D01*
X12371481Y-11476102D01*
X11216798Y-11728541D01*
X10055898Y-11896753D01*
X8887311Y-11980845D01*
X7709569Y-11980924D01*
X6540500Y-11899116D01*
X5697765Y-11806002D01*
X4802134Y-11697328D01*
X3883099Y-11577037D01*
X2970152Y-11449073D01*
X2092788Y-11317377D01*
X1588966Y-11237108D01*
X1366687Y-11201120D01*
X1174475Y-11170576D01*
X1027601Y-11147859D01*
X941336Y-11135350D01*
X925689Y-11133667D01*
X913341Y-11173130D01*
X902797Y-11280039D01*
X895309Y-11437178D01*
X892321Y-11592330D01*
X886665Y-11824101D01*
X874503Y-12064878D01*
X857953Y-12277521D01*
X848281Y-12364913D01*
X828175Y-12520886D01*
X800359Y-12736399D01*
X767988Y-12987025D01*
X734215Y-13248340D01*
X721432Y-13347203D01*
X689662Y-13627743D01*
X663142Y-13928357D01*
X644245Y-14217068D01*
X635348Y-14461895D01*
X634965Y-14511369D01*
X628872Y-14755153D01*
X612391Y-15000559D01*
X588167Y-15214307D01*
X571293Y-15312200D01*
X524591Y-15563045D01*
X483019Y-15846474D01*
X445892Y-16170575D01*
X412522Y-16543439D01*
X382223Y-16973155D01*
X354309Y-17467813D01*
X328094Y-18035503D01*
X316972Y-18309167D01*
X291901Y-18909704D01*
X266377Y-19434699D01*
X239495Y-19893275D01*
X210353Y-20294557D01*
X178046Y-20647667D01*
X141671Y-20961730D01*
X100323Y-21245868D01*
X53100Y-21509206D01*
X-904Y-21760866D01*
X-41562Y-21928407D01*
X-109068Y-22267458D01*
X-159699Y-22679929D01*
X-192740Y-23156128D01*
X-207477Y-23686366D01*
X-205463Y-24151167D01*
X-190500Y-24997834D01*
X-886538Y-25022384D01*
X-918911Y-24904276D01*
X-927771Y-24830156D01*
X-935506Y-24684457D01*
X-941784Y-24480261D01*
X-946273Y-24230652D01*
X-948640Y-23948712D01*
X-948831Y-23727834D01*
X-946378Y-23342667D01*
X-939667Y-23022350D01*
X-926727Y-22747097D01*
X-905585Y-22497122D01*
X-874267Y-22252639D01*
X-830800Y-21993863D01*
X-773211Y-21701006D01*
X-722982Y-21463000D01*
X-673151Y-21209866D01*
X-629409Y-20939418D01*
X-590909Y-20642193D01*
X-556805Y-20308726D01*
X-526250Y-19929550D01*
X-498396Y-19495202D01*
X-472396Y-18996216D01*
X-447404Y-18423128D01*
X-444528Y-18351354D01*
X-421969Y-17807492D01*
X-400301Y-17339268D01*
X-378838Y-16937669D01*
X-356896Y-16593682D01*
X-333790Y-16298293D01*
X-308833Y-16042489D01*
X-281340Y-15817257D01*
X-250628Y-15613582D01*
X-225686Y-15472834D01*
X-202216Y-15314899D01*
X-178105Y-15094877D01*
X-155392Y-14835303D01*
X-136120Y-14558714D01*
X-126010Y-14372167D01*
X-106235Y-14049435D01*
X-76356Y-13681332D01*
X-39896Y-13306048D01*
X-377Y-12961775D01*
X14553Y-12848167D01*
X74604Y-12381590D01*
X118077Y-11978641D01*
X144667Y-11643618D01*
X154065Y-11380819D01*
X145966Y-11194543D01*
X136595Y-11137110D01*
X103770Y-10992386D01*
X-890032Y-10792185D01*
X-1205739Y-10728445D01*
X-1473901Y-10673648D01*
X-1707581Y-10624629D01*
X-1919847Y-10578223D01*
X-2123763Y-10531267D01*
X-2332395Y-10480596D01*
X-2558809Y-10423046D01*
X-2816071Y-10355452D01*
X-3117245Y-10274650D01*
X-3475399Y-10177476D01*
X-3852334Y-10074747D01*
X-4886181Y-9787698D01*
X-5844411Y-9510712D01*
X-6735089Y-9240971D01*
X-7566278Y-8975655D01*
X-8346042Y-8711945D01*
X-9082446Y-8447021D01*
X-9783553Y-8178066D01*
X-10457428Y-7902259D01*
X-11112134Y-7616781D01*
X-11755735Y-7318814D01*
X-11811000Y-7292432D01*
X-12076279Y-7162160D01*
X-12374042Y-7010376D01*
X-12686496Y-6846647D01*
X-12995845Y-6680541D01*
X-13284294Y-6521624D01*
X-13534050Y-6379464D01*
X-13727316Y-6263630D01*
X-13743960Y-6253161D01*
X-13903239Y-6152356D01*
X-14248410Y-6708919D01*
X-14474782Y-7076972D01*
X-14660259Y-7385916D01*
X-14811100Y-7646962D01*
X-14933568Y-7871318D01*
X-15033924Y-8070195D01*
X-15118429Y-8254801D01*
X-15139897Y-8304974D01*
X-15204372Y-8448777D01*
X-15271357Y-8571965D01*
X-15353383Y-8691610D01*
X-15462981Y-8824787D01*
X-15612679Y-8988567D01*
X-15738637Y-9120786D01*
X-16118371Y-9521001D01*
X-16494013Y-9927625D01*
X-16869327Y-10345402D01*
X-17248079Y-10779075D01*
X-17634034Y-11233389D01*
X-18030957Y-11713085D01*
X-18442615Y-12222909D01*
X-18872771Y-12767604D01*
X-19325191Y-13351912D01*
X-19803640Y-13980579D01*
X-20311884Y-14658346D01*
X-20853687Y-15389958D01*
X-21432816Y-16180159D01*
X-22053035Y-17033691D01*
X-22393543Y-17504834D01*
X-23052747Y-18416034D01*
X-23666807Y-19259758D01*
X-24237835Y-20038784D01*
X-24767938Y-20755891D01*
X-25259227Y-21413856D01*
X-25713809Y-22015459D01*
X-26133794Y-22563478D01*
X-26521292Y-23060691D01*
X-26878410Y-23509876D01*
X-27207259Y-23913813D01*
X-27509948Y-24275279D01*
X-27703812Y-24500417D01*
X-28156020Y-25019000D01*
X-28426610Y-25019000D01*
X-28581065Y-25014740D01*
X-28675505Y-24997407D01*
X-28734350Y-24960174D01*
X-28763100Y-24924914D01*
X-28808139Y-24818073D01*
X-28828850Y-24685037D01*
X-28829000Y-24674237D01*
X-28823952Y-24614196D01*
X-28804021Y-24550907D01*
X-28762028Y-24473995D01*
X-28690794Y-24373087D01*
X-28583140Y-24237807D01*
X-28431888Y-24057782D01*
X-28279621Y-23880315D01*
X-28014830Y-23569204D01*
X-27738885Y-23236965D01*
X-27448683Y-22879507D01*
X-27141120Y-22492735D01*
X-26813093Y-22072558D01*
X-26461499Y-21614882D01*
X-26083234Y-21115615D01*
X-25675195Y-20570664D01*
X-25234279Y-19975936D01*
X-24757382Y-19327338D01*
X-24241402Y-18620778D01*
X-23683234Y-17852162D01*
X-23156587Y-17123834D01*
X-22518184Y-16242007D01*
X-21923142Y-15425731D01*
X-21367674Y-14670232D01*
X-20847996Y-13970733D01*
X-20360323Y-13322461D01*
X-19900870Y-12720638D01*
X-19465853Y-12160490D01*
X-19051487Y-11637243D01*
X-18653987Y-11146119D01*
X-18269567Y-10682345D01*
X-17894444Y-10241145D01*
X-17524832Y-9817744D01*
X-17156947Y-9407366D01*
X-16787003Y-9005237D01*
X-16411216Y-8606580D01*
X-16379744Y-8573602D01*
X-16157045Y-8328952D01*
X-15999476Y-8129719D01*
X-15908605Y-7977913D01*
X-15900556Y-7958667D01*
X-15807076Y-7746134D01*
X-15669329Y-7474358D01*
X-15492532Y-7152794D01*
X-15281903Y-6790900D01*
X-15042661Y-6398132D01*
X-15014153Y-6352377D01*
X-14610487Y-5705959D01*
X-15591994Y-5063410D01*
X-16366583Y-4551240D01*
X-17072059Y-4073757D01*
X-17714368Y-3626476D01*
X-18299458Y-3204911D01*
X-18833275Y-2804576D01*
X-19321765Y-2420986D01*
X-19770875Y-2049654D01*
X-20186552Y-1686096D01*
X-20574741Y-1325825D01*
X-20675106Y-1229025D01*
X-21070166Y-834955D01*
X-21406620Y-475063D01*
X-21695016Y-134679D01*
X-21945899Y200871D01*
X-22169816Y546260D01*
X-22377312Y916161D01*
X-22578933Y1325245D01*
X-22695293Y1581627D01*
X-22808763Y1823403D01*
X-22946232Y2094857D01*
X-23086196Y2354267D01*
X-23157805Y2478985D01*
X-23305717Y2737279D01*
X-23424628Y2969252D01*
X-23517628Y3189006D01*
X-23587808Y3410644D01*
X-23638256Y3648268D01*
X-23672065Y3915982D01*
X-23692322Y4227888D01*
X-23702119Y4598089D01*
X-23703569Y4823894D01*
X-22723481Y4823894D01*
X-22717065Y4478018D01*
X-22700418Y4185637D01*
X-22673623Y3942396D01*
X-22636758Y3743940D01*
X-22626862Y3704166D01*
X-22574845Y3554530D01*
X-22490824Y3364656D01*
X-22388961Y3165283D01*
X-22334300Y3069166D01*
X-22173468Y2791042D01*
X-22033403Y2531454D01*
X-21900146Y2262784D01*
X-21759739Y1957417D01*
X-21673816Y1762453D01*
X-21497823Y1399494D01*
X-21284210Y1034674D01*
X-21030051Y665414D01*
X-20732416Y289135D01*
X-20388378Y-96740D01*
X-19995009Y-494790D01*
X-19549382Y-907594D01*
X-19048569Y-1337731D01*
X-18489642Y-1787779D01*
X-17869674Y-2260316D01*
X-17185736Y-2757922D01*
X-16434901Y-3283174D01*
X-15614241Y-3838652D01*
X-14720828Y-4426933D01*
X-14438237Y-4610163D01*
X-14020278Y-4879339D01*
X-13660643Y-5108473D01*
X-13347297Y-5304618D01*
X-13068205Y-5474829D01*
X-12811331Y-5626159D01*
X-12564642Y-5765663D01*
X-12316101Y-5900395D01*
X-12053675Y-6037409D01*
X-11765328Y-6183759D01*
X-11684000Y-6224523D01*
X-10662092Y-6709911D01*
X-9585758Y-7170369D01*
X-8446553Y-7609243D01*
X-7236035Y-8029881D01*
X-6658674Y-8216357D01*
X-6263922Y-8338647D01*
X-5819267Y-8472267D01*
X-5337153Y-8613772D01*
X-4830023Y-8759719D01*
X-4310321Y-8906663D01*
X-3790492Y-9051161D01*
X-3282979Y-9189769D01*
X-2800226Y-9319044D01*
X-2354677Y-9435541D01*
X-1958776Y-9535817D01*
X-1624967Y-9616427D01*
X-1481667Y-9649073D01*
X-772047Y-9798640D01*
X10246Y-9949602D01*
X853275Y-10100147D01*
X1745107Y-10248466D01*
X2673808Y-10392747D01*
X3627443Y-10531180D01*
X4594078Y-10661954D01*
X5561778Y-10783258D01*
X6518609Y-10893281D01*
X7175500Y-10962612D01*
X7432527Y-10980328D01*
X7755190Y-10989594D01*
X8124933Y-10990918D01*
X8523200Y-10984812D01*
X8931436Y-10971787D01*
X9331085Y-10952351D01*
X9703591Y-10927016D01*
X10030398Y-10896292D01*
X10160000Y-10880527D01*
X10689434Y-10802537D01*
X11203349Y-10712312D01*
X11689697Y-10612661D01*
X12136429Y-10506393D01*
X12531499Y-10396317D01*
X12862858Y-10285240D01*
X13058087Y-10204911D01*
X13241299Y-10109677D01*
X13480363Y-9967913D01*
X13765415Y-9786470D01*
X14086589Y-9572200D01*
X14434020Y-9331953D01*
X14797843Y-9072582D01*
X15168193Y-8800937D01*
X15535205Y-8523870D01*
X15889012Y-8248233D01*
X15980833Y-8175076D01*
X16372267Y-7853035D01*
X16692762Y-7570354D01*
X16944928Y-7324455D01*
X17131377Y-7112760D01*
X17254718Y-6932691D01*
X17272340Y-6899660D01*
X17380391Y-6655769D01*
X17499367Y-6331603D01*
X17628269Y-5930713D01*
X17766101Y-5456645D01*
X17911867Y-4912950D01*
X18064568Y-4303175D01*
X18223210Y-3630871D01*
X18354256Y-3048000D01*
X18427677Y-2711856D01*
X18483907Y-2445257D01*
X18524890Y-2235273D01*
X18552572Y-2068975D01*
X18568900Y-1933432D01*
X18575818Y-1815714D01*
X18575272Y-1702891D01*
X18570840Y-1608667D01*
X18521854Y-1224005D01*
X18420341Y-787829D01*
X18271528Y-310534D01*
X18080640Y197481D01*
X17852903Y725818D01*
X17593541Y1264081D01*
X17307781Y1801872D01*
X17000848Y2328794D01*
X16677968Y2834448D01*
X16344366Y3308438D01*
X16005268Y3740367D01*
X15720700Y4062332D01*
X15574392Y4214561D01*
X15423356Y4364239D01*
X15262981Y4514796D01*
X15088654Y4669662D01*
X14895764Y4832268D01*
X14679698Y5006043D01*
X14435846Y5194417D01*
X14159594Y5400820D01*
X13846332Y5628683D01*
X13491446Y5881435D01*
X13090326Y6162507D01*
X12638360Y6475328D01*
X12130935Y6823329D01*
X11563440Y7209939D01*
X10931263Y7638589D01*
X10720512Y7781166D01*
X10390723Y8005379D01*
X10056171Y8235032D01*
X9729906Y8461010D01*
X9424980Y8674200D01*
X9154444Y8865489D01*
X8931347Y9025763D01*
X8801726Y9121090D01*
X8459142Y9372562D01*
X8150153Y9587821D01*
X7854832Y9778881D01*
X7553254Y9957754D01*
X7225493Y10136453D01*
X6851624Y10326991D01*
X6582833Y10458812D01*
X5852916Y10798228D01*
X5044961Y11146117D01*
X4158060Y11502815D01*
X3191302Y11868664D01*
X2143778Y12244001D01*
X1014579Y12629165D01*
X-197205Y13024495D01*
X-891972Y13244117D01*
X-1493034Y13430647D01*
X-2026743Y13592768D01*
X-2505732Y13733840D01*
X-2942634Y13857219D01*
X-3350081Y13966264D01*
X-3740705Y14064331D01*
X-4127138Y14154780D01*
X-4522014Y14240966D01*
X-4937964Y14326249D01*
X-5037667Y14346035D01*
X-5671287Y14465156D01*
X-6334581Y14578815D01*
X-7018677Y14686100D01*
X-7714704Y14786100D01*
X-8413790Y14877903D01*
X-9107065Y14960597D01*
X-9785658Y15033271D01*
X-10440696Y15095014D01*
X-11063310Y15144913D01*
X-11644626Y15182059D01*
X-12175775Y15205538D01*
X-12647885Y15214441D01*
X-13052084Y15207854D01*
X-13287907Y15193705D01*
X-14300731Y15067694D01*
X-15282417Y14863440D01*
X-16230574Y14582339D01*
X-17142811Y14225785D01*
X-18016736Y13795174D01*
X-18849957Y13291900D01*
X-19640084Y12717359D01*
X-20384724Y12072945D01*
X-21081488Y11360053D01*
X-21727982Y10580079D01*
X-22115589Y10044386D01*
X-22441606Y9568939D01*
X-22542661Y8266386D01*
X-22599309Y7508099D01*
X-22645246Y6829433D01*
X-22680551Y6226034D01*
X-22705305Y5693547D01*
X-22719588Y5227619D01*
X-22723481Y4823894D01*
X-23703569Y4823894D01*
X-23704535Y4974166D01*
X-23702795Y5303115D01*
X-23697460Y5649941D01*
X-23689152Y5989955D01*
X-23678492Y6298464D01*
X-23666100Y6550778D01*
X-23664092Y6582833D01*
X-23641085Y6929781D01*
X-23616068Y7294565D01*
X-23589822Y7666910D01*
X-23563124Y8036540D01*
X-23536753Y8393179D01*
X-23511486Y8726553D01*
X-23488103Y9026386D01*
X-23467381Y9282402D01*
X-23450100Y9484326D01*
X-23437036Y9621881D01*
X-23429206Y9683750D01*
X-23398424Y9749036D01*
X-23375711Y9757833D01*
X-23071667Y9757833D01*
X-23050500Y9736666D01*
X-23029334Y9757833D01*
X-23050500Y9779000D01*
X-23071667Y9757833D01*
X-23375711Y9757833D01*
X-23326739Y9776800D01*
X-23250777Y9781489D01*
X-23153804Y9786367D01*
X-23130517Y9801474D01*
X-23169990Y9834020D01*
X-23170584Y9834406D01*
X-23251310Y9886943D01*
X-23302886Y9931106D01*
X-23322581Y9980378D01*
X-23307662Y10048243D01*
X-23255399Y10148185D01*
X-23163058Y10293689D01*
X-23039715Y10480360D01*
X-22533108Y11189269D01*
X-21966913Y11877012D01*
X-21353371Y12531531D01*
X-20704723Y13140767D01*
X-20033211Y13692660D01*
X-19351075Y14175152D01*
X-19177000Y14285571D01*
X-18265367Y14801138D01*
X-17323063Y15237813D01*
X-16349333Y15595909D01*
X-15350605Y15874046D01*
X-14739963Y16006166D01*
X-14162351Y16104072D01*
X-13596613Y16169389D01*
X-13021595Y16203745D01*
X-12416142Y16208765D01*
X-11759099Y16186075D01*
X-11492778Y16170608D01*
X-10277284Y16079424D01*
X-9066279Y15961543D01*
X-7871589Y15818740D01*
X-6705039Y15652791D01*
X-5578456Y15465469D01*
X-4503664Y15258552D01*
X-3492490Y15033812D01*
X-2857500Y14874420D01*
X-2563072Y14793594D01*
X-2200378Y14688930D01*
X-1781196Y14564181D01*
X-1317303Y14423103D01*
X-820477Y14269449D01*
X-302496Y14106975D01*
X224862Y13939435D01*
X749819Y13770583D01*
X1260598Y13604175D01*
X1745420Y13443964D01*
X2192508Y13293706D01*
X2590084Y13157155D01*
X2926370Y13038065D01*
X3081409Y12981191D01*
X3262834Y12915606D01*
X3377866Y12880263D01*
X3438228Y12872754D01*
X3455646Y12890670D01*
X3453086Y12904841D01*
X3434795Y12970030D01*
X3399622Y13099932D01*
X3352175Y13277369D01*
X3297067Y13485163D01*
X3280833Y13546666D01*
X3224426Y13759814D01*
X3174413Y13947350D01*
X3135394Y14092126D01*
X3111973Y14176991D01*
X3108823Y14187726D01*
X3086008Y14219228D01*
X3030774Y14241447D01*
X2928943Y14256857D01*
X2766332Y14267931D01*
X2612666Y14274288D01*
X2356818Y14288895D01*
X2157457Y14318023D01*
X1986553Y14371150D01*
X1816077Y14457754D01*
X1617997Y14587315D01*
X1554333Y14632181D01*
X1351833Y14776228D01*
X680481Y14434661D01*
X410166Y14299661D01*
X202716Y14203915D01*
X47200Y14145180D01*
X-67315Y14121210D01*
X-151761Y14129762D01*
X-217072Y14168590D01*
X-274180Y14235449D01*
X-276155Y14238256D01*
X-335953Y14356281D01*
X-338165Y14466553D01*
X-277757Y14575638D01*
X-149697Y14690099D01*
X51048Y14816500D01*
X246735Y14920263D01*
X476219Y15035748D01*
X638609Y15121419D01*
X741158Y15187967D01*
X791121Y15246085D01*
X795752Y15306464D01*
X762304Y15379795D01*
X698033Y15476769D01*
X661048Y15530879D01*
X544038Y15711489D01*
X456818Y15870724D01*
X395102Y16026354D01*
X354600Y16196149D01*
X331025Y16397879D01*
X320089Y16649313D01*
X317500Y16954500D01*
X319332Y17217691D01*
X998855Y17217691D01*
X999798Y16988469D01*
X1000010Y16964261D01*
X1002972Y16728591D01*
X1009100Y16557874D01*
X1021570Y16432398D01*
X1043559Y16332451D01*
X1078244Y16238319D01*
X1128803Y16130290D01*
X1137177Y16113245D01*
X1255979Y15922188D01*
X1428441Y15708923D01*
X1634689Y15493211D01*
X1854850Y15294813D01*
X2069051Y15133490D01*
X2201650Y15054802D01*
X2323065Y14996710D01*
X2423375Y14963626D01*
X2531920Y14950916D01*
X2678036Y14953947D01*
X2794000Y14961261D01*
X3017942Y14984849D01*
X3262704Y15023127D01*
X3476238Y15067924D01*
X3480971Y15069119D01*
X3699317Y15127402D01*
X3863416Y15184227D01*
X3987230Y15253086D01*
X4084717Y15347469D01*
X4169838Y15480866D01*
X4256553Y15666767D01*
X4358032Y15916672D01*
X4499689Y16331996D01*
X4575834Y16703642D01*
X4586852Y17041091D01*
X4533130Y17353823D01*
X4427633Y17626287D01*
X4321912Y17805112D01*
X4176437Y18003095D01*
X4006965Y18203129D01*
X3829253Y18388108D01*
X3659057Y18540925D01*
X3512133Y18644473D01*
X3470684Y18665243D01*
X3225296Y18745574D01*
X2945470Y18797501D01*
X2666850Y18816554D01*
X2425077Y18798266D01*
X2418826Y18797105D01*
X2145557Y18710423D01*
X1863317Y18560334D01*
X1592719Y18362758D01*
X1354376Y18133618D01*
X1168901Y17888833D01*
X1113567Y17788957D01*
X1065924Y17687603D01*
X1033264Y17598924D01*
X1012955Y17503795D01*
X1002363Y17383092D01*
X998855Y17217691D01*
X319332Y17217691D01*
X319560Y17250395D01*
X326562Y17477638D01*
X339736Y17652159D01*
X360311Y17789891D01*
X389517Y17906767D01*
X391523Y17913309D01*
X512280Y18184250D01*
X701359Y18460147D01*
X944305Y18728181D01*
X1226658Y18975533D01*
X1533964Y19189384D01*
X1851763Y19356915D01*
X2132261Y19456818D01*
X2448531Y19507911D01*
X2805634Y19510229D01*
X3177340Y19466678D01*
X3177340Y19466678D01*
G37*
X3177340Y19466678D02*
X3537418Y19380162D01*
X3827459Y19269097D01*
X4029314Y19146389D01*
X4252514Y18964205D01*
X4481443Y18739240D01*
X4700487Y18488191D01*
X4894031Y18227754D01*
X5046458Y17974626D01*
X5056565Y17954882D01*
X5184681Y17622499D01*
X5263306Y17244082D01*
X5289481Y16844332D01*
X5260245Y16447949D01*
X5246787Y16367444D01*
X5208789Y16217262D01*
X5143662Y16014320D01*
X5060352Y15781903D01*
X4967806Y15543294D01*
X4874972Y15321777D01*
X4790795Y15140636D01*
X4738781Y15045370D01*
X4564324Y14831708D01*
X4333802Y14649208D01*
X4089117Y14525447D01*
X3953889Y14477489D01*
X3848550Y14444914D01*
X3803882Y14435667D01*
X3776120Y14405129D01*
X3781493Y14376028D01*
X3798684Y14318385D01*
X3833408Y14192046D01*
X3882108Y14010313D01*
X3941226Y13786487D01*
X4007205Y13533870D01*
X4022108Y13476444D01*
X4088501Y13220634D01*
X4148021Y12991899D01*
X4197280Y12803218D01*
X4232887Y12667571D01*
X4251452Y12597934D01*
X4252952Y12592628D01*
X4295562Y12560006D01*
X4400479Y12506173D01*
X4550628Y12439353D01*
X4683617Y12385281D01*
X5222536Y12168469D01*
X5765304Y11939157D01*
X6299612Y11703129D01*
X6813151Y11466171D01*
X7293614Y11234070D01*
X7728694Y11012611D01*
X8106082Y10807579D01*
X8367192Y10653709D01*
X8525963Y10551116D01*
X8733453Y10410596D01*
X8970824Y10245259D01*
X9219240Y10068215D01*
X9444589Y9903869D01*
X9655887Y9750239D01*
X9922347Y9560353D01*
X10228669Y9344893D01*
X10559553Y9114543D01*
X10899696Y8879985D01*
X11233797Y8651902D01*
X11366500Y8562052D01*
X11874082Y8219101D01*
X12318104Y7918579D01*
X12705342Y7655780D01*
X13042570Y7426000D01*
X13336565Y7224537D01*
X13594102Y7046686D01*
X13821955Y6887743D01*
X14026901Y6743005D01*
X14215715Y6607767D01*
X14395173Y6477326D01*
X14572049Y6346978D01*
X14753119Y6212020D01*
X14773743Y6196572D01*
X15261114Y5822773D01*
X15685641Y5476704D01*
X16059157Y5146196D01*
X16393496Y4819080D01*
X16700489Y4483186D01*
X16991970Y4126347D01*
X17279771Y3736394D01*
X17547234Y3344333D01*
X17916636Y2759592D01*
X18257208Y2167534D01*
X18565992Y1575870D01*
X18840033Y992314D01*
X19076373Y424579D01*
X19272057Y-119622D01*
X19424128Y-632576D01*
X19529630Y-1106570D01*
X19585606Y-1533891D01*
X19589100Y-1906826D01*
X19583796Y-1968864D01*
X19559290Y-2145300D01*
X19515782Y-2391543D01*
X19456021Y-2695572D01*
X19382753Y-3045368D01*
X19298727Y-3428911D01*
X19206690Y-3834181D01*
X19109389Y-4249160D01*
X19009572Y-4661827D01*
X18909986Y-5060163D01*
X18813379Y-5432148D01*
X18722498Y-5765762D01*
X18688780Y-5884334D01*
X18553789Y-6337648D01*
X18429690Y-6718801D01*
X18311085Y-7038714D01*
X18192578Y-7308309D01*
X18068772Y-7538511D01*
X17934272Y-7740240D01*
X17783679Y-7924421D01*
X17611599Y-8101976D01*
X17576675Y-8135254D01*
X17250680Y-8429598D01*
X16864785Y-8755948D01*
X16432399Y-9103952D01*
X15966931Y-9463253D01*
X15481787Y-9823497D01*
X14990377Y-10174330D01*
X14517620Y-10497710D01*
X14196782Y-10709352D01*
X13926667Y-10879242D01*
X13689550Y-11015460D01*
X13467706Y-11126087D01*
X13243410Y-11219203D01*
X12998937Y-11302888D01*
X12716563Y-11385224D01*
X12378561Y-11474291D01*
X12371481Y-11476102D01*
X11216798Y-11728541D01*
X10055898Y-11896753D01*
X8887311Y-11980845D01*
X7709569Y-11980924D01*
X6540500Y-11899116D01*
X5697765Y-11806002D01*
X4802134Y-11697328D01*
X3883099Y-11577037D01*
X2970152Y-11449073D01*
X2092788Y-11317377D01*
X1588966Y-11237108D01*
X1366687Y-11201120D01*
X1174475Y-11170576D01*
X1027601Y-11147859D01*
X941336Y-11135350D01*
X925689Y-11133667D01*
X913341Y-11173130D01*
X902797Y-11280039D01*
X895309Y-11437178D01*
X892321Y-11592330D01*
X886665Y-11824101D01*
X874503Y-12064878D01*
X857953Y-12277521D01*
X848281Y-12364913D01*
X828175Y-12520886D01*
X800359Y-12736399D01*
X767988Y-12987025D01*
X734215Y-13248340D01*
X721432Y-13347203D01*
X689662Y-13627743D01*
X663142Y-13928357D01*
X644245Y-14217068D01*
X635348Y-14461895D01*
X634965Y-14511369D01*
X628872Y-14755153D01*
X612391Y-15000559D01*
X588167Y-15214307D01*
X571293Y-15312200D01*
X524591Y-15563045D01*
X483019Y-15846474D01*
X445892Y-16170575D01*
X412522Y-16543439D01*
X382223Y-16973155D01*
X354309Y-17467813D01*
X328094Y-18035503D01*
X316972Y-18309167D01*
X291901Y-18909704D01*
X266377Y-19434699D01*
X239495Y-19893275D01*
X210353Y-20294557D01*
X178046Y-20647667D01*
X141671Y-20961730D01*
X100323Y-21245868D01*
X53100Y-21509206D01*
X-904Y-21760866D01*
X-41562Y-21928407D01*
X-109068Y-22267458D01*
X-159699Y-22679929D01*
X-192740Y-23156128D01*
X-207477Y-23686366D01*
X-205463Y-24151167D01*
X-190500Y-24997834D01*
X-886538Y-25022384D01*
X-918911Y-24904276D01*
X-927771Y-24830156D01*
X-935506Y-24684457D01*
X-941784Y-24480261D01*
X-946273Y-24230652D01*
X-948640Y-23948712D01*
X-948831Y-23727834D01*
X-946378Y-23342667D01*
X-939667Y-23022350D01*
X-926727Y-22747097D01*
X-905585Y-22497122D01*
X-874267Y-22252639D01*
X-830800Y-21993863D01*
X-773211Y-21701006D01*
X-722982Y-21463000D01*
X-673151Y-21209866D01*
X-629409Y-20939418D01*
X-590909Y-20642193D01*
X-556805Y-20308726D01*
X-526250Y-19929550D01*
X-498396Y-19495202D01*
X-472396Y-18996216D01*
X-447404Y-18423128D01*
X-444528Y-18351354D01*
X-421969Y-17807492D01*
X-400301Y-17339268D01*
X-378838Y-16937669D01*
X-356896Y-16593682D01*
X-333790Y-16298293D01*
X-308833Y-16042489D01*
X-281340Y-15817257D01*
X-250628Y-15613582D01*
X-225686Y-15472834D01*
X-202216Y-15314899D01*
X-178105Y-15094877D01*
X-155392Y-14835303D01*
X-136120Y-14558714D01*
X-126010Y-14372167D01*
X-106235Y-14049435D01*
X-76356Y-13681332D01*
X-39896Y-13306048D01*
X-377Y-12961775D01*
X14553Y-12848167D01*
X74604Y-12381590D01*
X118077Y-11978641D01*
X144667Y-11643618D01*
X154065Y-11380819D01*
X145966Y-11194543D01*
X136595Y-11137110D01*
X103770Y-10992386D01*
X-890032Y-10792185D01*
X-1205739Y-10728445D01*
X-1473901Y-10673648D01*
X-1707581Y-10624629D01*
X-1919847Y-10578223D01*
X-2123763Y-10531267D01*
X-2332395Y-10480596D01*
X-2558809Y-10423046D01*
X-2816071Y-10355452D01*
X-3117245Y-10274650D01*
X-3475399Y-10177476D01*
X-3852334Y-10074747D01*
X-4886181Y-9787698D01*
X-5844411Y-9510712D01*
X-6735089Y-9240971D01*
X-7566278Y-8975655D01*
X-8346042Y-8711945D01*
X-9082446Y-8447021D01*
X-9783553Y-8178066D01*
X-10457428Y-7902259D01*
X-11112134Y-7616781D01*
X-11755735Y-7318814D01*
X-11811000Y-7292432D01*
X-12076279Y-7162160D01*
X-12374042Y-7010376D01*
X-12686496Y-6846647D01*
X-12995845Y-6680541D01*
X-13284294Y-6521624D01*
X-13534050Y-6379464D01*
X-13727316Y-6263630D01*
X-13743960Y-6253161D01*
X-13903239Y-6152356D01*
X-14248410Y-6708919D01*
X-14474782Y-7076972D01*
X-14660259Y-7385916D01*
X-14811100Y-7646962D01*
X-14933568Y-7871318D01*
X-15033924Y-8070195D01*
X-15118429Y-8254801D01*
X-15139897Y-8304974D01*
X-15204372Y-8448777D01*
X-15271357Y-8571965D01*
X-15353383Y-8691610D01*
X-15462981Y-8824787D01*
X-15612679Y-8988567D01*
X-15738637Y-9120786D01*
X-16118371Y-9521001D01*
X-16494013Y-9927625D01*
X-16869327Y-10345402D01*
X-17248079Y-10779075D01*
X-17634034Y-11233389D01*
X-18030957Y-11713085D01*
X-18442615Y-12222909D01*
X-18872771Y-12767604D01*
X-19325191Y-13351912D01*
X-19803640Y-13980579D01*
X-20311884Y-14658346D01*
X-20853687Y-15389958D01*
X-21432816Y-16180159D01*
X-22053035Y-17033691D01*
X-22393543Y-17504834D01*
X-23052747Y-18416034D01*
X-23666807Y-19259758D01*
X-24237835Y-20038784D01*
X-24767938Y-20755891D01*
X-25259227Y-21413856D01*
X-25713809Y-22015459D01*
X-26133794Y-22563478D01*
X-26521292Y-23060691D01*
X-26878410Y-23509876D01*
X-27207259Y-23913813D01*
X-27509948Y-24275279D01*
X-27703812Y-24500417D01*
X-28156020Y-25019000D01*
X-28426610Y-25019000D01*
X-28581065Y-25014740D01*
X-28675505Y-24997407D01*
X-28734350Y-24960174D01*
X-28763100Y-24924914D01*
X-28808139Y-24818073D01*
X-28828850Y-24685037D01*
X-28829000Y-24674237D01*
X-28823952Y-24614196D01*
X-28804021Y-24550907D01*
X-28762028Y-24473995D01*
X-28690794Y-24373087D01*
X-28583140Y-24237807D01*
X-28431888Y-24057782D01*
X-28279621Y-23880315D01*
X-28014830Y-23569204D01*
X-27738885Y-23236965D01*
X-27448683Y-22879507D01*
X-27141120Y-22492735D01*
X-26813093Y-22072558D01*
X-26461499Y-21614882D01*
X-26083234Y-21115615D01*
X-25675195Y-20570664D01*
X-25234279Y-19975936D01*
X-24757382Y-19327338D01*
X-24241402Y-18620778D01*
X-23683234Y-17852162D01*
X-23156587Y-17123834D01*
X-22518184Y-16242007D01*
X-21923142Y-15425731D01*
X-21367674Y-14670232D01*
X-20847996Y-13970733D01*
X-20360323Y-13322461D01*
X-19900870Y-12720638D01*
X-19465853Y-12160490D01*
X-19051487Y-11637243D01*
X-18653987Y-11146119D01*
X-18269567Y-10682345D01*
X-17894444Y-10241145D01*
X-17524832Y-9817744D01*
X-17156947Y-9407366D01*
X-16787003Y-9005237D01*
X-16411216Y-8606580D01*
X-16379744Y-8573602D01*
X-16157045Y-8328952D01*
X-15999476Y-8129719D01*
X-15908605Y-7977913D01*
X-15900556Y-7958667D01*
X-15807076Y-7746134D01*
X-15669329Y-7474358D01*
X-15492532Y-7152794D01*
X-15281903Y-6790900D01*
X-15042661Y-6398132D01*
X-15014153Y-6352377D01*
X-14610487Y-5705959D01*
X-15591994Y-5063410D01*
X-16366583Y-4551240D01*
X-17072059Y-4073757D01*
X-17714368Y-3626476D01*
X-18299458Y-3204911D01*
X-18833275Y-2804576D01*
X-19321765Y-2420986D01*
X-19770875Y-2049654D01*
X-20186552Y-1686096D01*
X-20574741Y-1325825D01*
X-20675106Y-1229025D01*
X-21070166Y-834955D01*
X-21406620Y-475063D01*
X-21695016Y-134679D01*
X-21945899Y200871D01*
X-22169816Y546260D01*
X-22377312Y916161D01*
X-22578933Y1325245D01*
X-22695293Y1581627D01*
X-22808763Y1823403D01*
X-22946232Y2094857D01*
X-23086196Y2354267D01*
X-23157805Y2478985D01*
X-23305717Y2737279D01*
X-23424628Y2969252D01*
X-23517628Y3189006D01*
X-23587808Y3410644D01*
X-23638256Y3648268D01*
X-23672065Y3915982D01*
X-23692322Y4227888D01*
X-23702119Y4598089D01*
X-23703569Y4823894D01*
X-22723481Y4823894D01*
X-22717065Y4478018D01*
X-22700418Y4185637D01*
X-22673623Y3942396D01*
X-22636758Y3743940D01*
X-22626862Y3704166D01*
X-22574845Y3554530D01*
X-22490824Y3364656D01*
X-22388961Y3165283D01*
X-22334300Y3069166D01*
X-22173468Y2791042D01*
X-22033403Y2531454D01*
X-21900146Y2262784D01*
X-21759739Y1957417D01*
X-21673816Y1762453D01*
X-21497823Y1399494D01*
X-21284210Y1034674D01*
X-21030051Y665414D01*
X-20732416Y289135D01*
X-20388378Y-96740D01*
X-19995009Y-494790D01*
X-19549382Y-907594D01*
X-19048569Y-1337731D01*
X-18489642Y-1787779D01*
X-17869674Y-2260316D01*
X-17185736Y-2757922D01*
X-16434901Y-3283174D01*
X-15614241Y-3838652D01*
X-14720828Y-4426933D01*
X-14438237Y-4610163D01*
X-14020278Y-4879339D01*
X-13660643Y-5108473D01*
X-13347297Y-5304618D01*
X-13068205Y-5474829D01*
X-12811331Y-5626159D01*
X-12564642Y-5765663D01*
X-12316101Y-5900395D01*
X-12053675Y-6037409D01*
X-11765328Y-6183759D01*
X-11684000Y-6224523D01*
X-10662092Y-6709911D01*
X-9585758Y-7170369D01*
X-8446553Y-7609243D01*
X-7236035Y-8029881D01*
X-6658674Y-8216357D01*
X-6263922Y-8338647D01*
X-5819267Y-8472267D01*
X-5337153Y-8613772D01*
X-4830023Y-8759719D01*
X-4310321Y-8906663D01*
X-3790492Y-9051161D01*
X-3282979Y-9189769D01*
X-2800226Y-9319044D01*
X-2354677Y-9435541D01*
X-1958776Y-9535817D01*
X-1624967Y-9616427D01*
X-1481667Y-9649073D01*
X-772047Y-9798640D01*
X10246Y-9949602D01*
X853275Y-10100147D01*
X1745107Y-10248466D01*
X2673808Y-10392747D01*
X3627443Y-10531180D01*
X4594078Y-10661954D01*
X5561778Y-10783258D01*
X6518609Y-10893281D01*
X7175500Y-10962612D01*
X7432527Y-10980328D01*
X7755190Y-10989594D01*
X8124933Y-10990918D01*
X8523200Y-10984812D01*
X8931436Y-10971787D01*
X9331085Y-10952351D01*
X9703591Y-10927016D01*
X10030398Y-10896292D01*
X10160000Y-10880527D01*
X10689434Y-10802537D01*
X11203349Y-10712312D01*
X11689697Y-10612661D01*
X12136429Y-10506393D01*
X12531499Y-10396317D01*
X12862858Y-10285240D01*
X13058087Y-10204911D01*
X13241299Y-10109677D01*
X13480363Y-9967913D01*
X13765415Y-9786470D01*
X14086589Y-9572200D01*
X14434020Y-9331953D01*
X14797843Y-9072582D01*
X15168193Y-8800937D01*
X15535205Y-8523870D01*
X15889012Y-8248233D01*
X15980833Y-8175076D01*
X16372267Y-7853035D01*
X16692762Y-7570354D01*
X16944928Y-7324455D01*
X17131377Y-7112760D01*
X17254718Y-6932691D01*
X17272340Y-6899660D01*
X17380391Y-6655769D01*
X17499367Y-6331603D01*
X17628269Y-5930713D01*
X17766101Y-5456645D01*
X17911867Y-4912950D01*
X18064568Y-4303175D01*
X18223210Y-3630871D01*
X18354256Y-3048000D01*
X18427677Y-2711856D01*
X18483907Y-2445257D01*
X18524890Y-2235273D01*
X18552572Y-2068975D01*
X18568900Y-1933432D01*
X18575818Y-1815714D01*
X18575272Y-1702891D01*
X18570840Y-1608667D01*
X18521854Y-1224005D01*
X18420341Y-787829D01*
X18271528Y-310534D01*
X18080640Y197481D01*
X17852903Y725818D01*
X17593541Y1264081D01*
X17307781Y1801872D01*
X17000848Y2328794D01*
X16677968Y2834448D01*
X16344366Y3308438D01*
X16005268Y3740367D01*
X15720700Y4062332D01*
X15574392Y4214561D01*
X15423356Y4364239D01*
X15262981Y4514796D01*
X15088654Y4669662D01*
X14895764Y4832268D01*
X14679698Y5006043D01*
X14435846Y5194417D01*
X14159594Y5400820D01*
X13846332Y5628683D01*
X13491446Y5881435D01*
X13090326Y6162507D01*
X12638360Y6475328D01*
X12130935Y6823329D01*
X11563440Y7209939D01*
X10931263Y7638589D01*
X10720512Y7781166D01*
X10390723Y8005379D01*
X10056171Y8235032D01*
X9729906Y8461010D01*
X9424980Y8674200D01*
X9154444Y8865489D01*
X8931347Y9025763D01*
X8801726Y9121090D01*
X8459142Y9372562D01*
X8150153Y9587821D01*
X7854832Y9778881D01*
X7553254Y9957754D01*
X7225493Y10136453D01*
X6851624Y10326991D01*
X6582833Y10458812D01*
X5852916Y10798228D01*
X5044961Y11146117D01*
X4158060Y11502815D01*
X3191302Y11868664D01*
X2143778Y12244001D01*
X1014579Y12629165D01*
X-197205Y13024495D01*
X-891972Y13244117D01*
X-1493034Y13430647D01*
X-2026743Y13592768D01*
X-2505732Y13733840D01*
X-2942634Y13857219D01*
X-3350081Y13966264D01*
X-3740705Y14064331D01*
X-4127138Y14154780D01*
X-4522014Y14240966D01*
X-4937964Y14326249D01*
X-5037667Y14346035D01*
X-5671287Y14465156D01*
X-6334581Y14578815D01*
X-7018677Y14686100D01*
X-7714704Y14786100D01*
X-8413790Y14877903D01*
X-9107065Y14960597D01*
X-9785658Y15033271D01*
X-10440696Y15095014D01*
X-11063310Y15144913D01*
X-11644626Y15182059D01*
X-12175775Y15205538D01*
X-12647885Y15214441D01*
X-13052084Y15207854D01*
X-13287907Y15193705D01*
X-14300731Y15067694D01*
X-15282417Y14863440D01*
X-16230574Y14582339D01*
X-17142811Y14225785D01*
X-18016736Y13795174D01*
X-18849957Y13291900D01*
X-19640084Y12717359D01*
X-20384724Y12072945D01*
X-21081488Y11360053D01*
X-21727982Y10580079D01*
X-22115589Y10044386D01*
X-22441606Y9568939D01*
X-22542661Y8266386D01*
X-22599309Y7508099D01*
X-22645246Y6829433D01*
X-22680551Y6226034D01*
X-22705305Y5693547D01*
X-22719588Y5227619D01*
X-22723481Y4823894D01*
X-23703569Y4823894D01*
X-23704535Y4974166D01*
X-23702795Y5303115D01*
X-23697460Y5649941D01*
X-23689152Y5989955D01*
X-23678492Y6298464D01*
X-23666100Y6550778D01*
X-23664092Y6582833D01*
X-23641085Y6929781D01*
X-23616068Y7294565D01*
X-23589822Y7666910D01*
X-23563124Y8036540D01*
X-23536753Y8393179D01*
X-23511486Y8726553D01*
X-23488103Y9026386D01*
X-23467381Y9282402D01*
X-23450100Y9484326D01*
X-23437036Y9621881D01*
X-23429206Y9683750D01*
X-23398424Y9749036D01*
X-23375711Y9757833D01*
X-23071667Y9757833D01*
X-23050500Y9736666D01*
X-23029334Y9757833D01*
X-23050500Y9779000D01*
X-23071667Y9757833D01*
X-23375711Y9757833D01*
X-23326739Y9776800D01*
X-23250777Y9781489D01*
X-23153804Y9786367D01*
X-23130517Y9801474D01*
X-23169990Y9834020D01*
X-23170584Y9834406D01*
X-23251310Y9886943D01*
X-23302886Y9931106D01*
X-23322581Y9980378D01*
X-23307662Y10048243D01*
X-23255399Y10148185D01*
X-23163058Y10293689D01*
X-23039715Y10480360D01*
X-22533108Y11189269D01*
X-21966913Y11877012D01*
X-21353371Y12531531D01*
X-20704723Y13140767D01*
X-20033211Y13692660D01*
X-19351075Y14175152D01*
X-19177000Y14285571D01*
X-18265367Y14801138D01*
X-17323063Y15237813D01*
X-16349333Y15595909D01*
X-15350605Y15874046D01*
X-14739963Y16006166D01*
X-14162351Y16104072D01*
X-13596613Y16169389D01*
X-13021595Y16203745D01*
X-12416142Y16208765D01*
X-11759099Y16186075D01*
X-11492778Y16170608D01*
X-10277284Y16079424D01*
X-9066279Y15961543D01*
X-7871589Y15818740D01*
X-6705039Y15652791D01*
X-5578456Y15465469D01*
X-4503664Y15258552D01*
X-3492490Y15033812D01*
X-2857500Y14874420D01*
X-2563072Y14793594D01*
X-2200378Y14688930D01*
X-1781196Y14564181D01*
X-1317303Y14423103D01*
X-820477Y14269449D01*
X-302496Y14106975D01*
X224862Y13939435D01*
X749819Y13770583D01*
X1260598Y13604175D01*
X1745420Y13443964D01*
X2192508Y13293706D01*
X2590084Y13157155D01*
X2926370Y13038065D01*
X3081409Y12981191D01*
X3262834Y12915606D01*
X3377866Y12880263D01*
X3438228Y12872754D01*
X3455646Y12890670D01*
X3453086Y12904841D01*
X3434795Y12970030D01*
X3399622Y13099932D01*
X3352175Y13277369D01*
X3297067Y13485163D01*
X3280833Y13546666D01*
X3224426Y13759814D01*
X3174413Y13947350D01*
X3135394Y14092126D01*
X3111973Y14176991D01*
X3108823Y14187726D01*
X3086008Y14219228D01*
X3030774Y14241447D01*
X2928943Y14256857D01*
X2766332Y14267931D01*
X2612666Y14274288D01*
X2356818Y14288895D01*
X2157457Y14318023D01*
X1986553Y14371150D01*
X1816077Y14457754D01*
X1617997Y14587315D01*
X1554333Y14632181D01*
X1351833Y14776228D01*
X680481Y14434661D01*
X410166Y14299661D01*
X202716Y14203915D01*
X47200Y14145180D01*
X-67315Y14121210D01*
X-151761Y14129762D01*
X-217072Y14168590D01*
X-274180Y14235449D01*
X-276155Y14238256D01*
X-335953Y14356281D01*
X-338165Y14466553D01*
X-277757Y14575638D01*
X-149697Y14690099D01*
X51048Y14816500D01*
X246735Y14920263D01*
X476219Y15035748D01*
X638609Y15121419D01*
X741158Y15187967D01*
X791121Y15246085D01*
X795752Y15306464D01*
X762304Y15379795D01*
X698033Y15476769D01*
X661048Y15530879D01*
X544038Y15711489D01*
X456818Y15870724D01*
X395102Y16026354D01*
X354600Y16196149D01*
X331025Y16397879D01*
X320089Y16649313D01*
X317500Y16954500D01*
X319332Y17217691D01*
X998855Y17217691D01*
X999798Y16988469D01*
X1000010Y16964261D01*
X1002972Y16728591D01*
X1009100Y16557874D01*
X1021570Y16432398D01*
X1043559Y16332451D01*
X1078244Y16238319D01*
X1128803Y16130290D01*
X1137177Y16113245D01*
X1255979Y15922188D01*
X1428441Y15708923D01*
X1634689Y15493211D01*
X1854850Y15294813D01*
X2069051Y15133490D01*
X2201650Y15054802D01*
X2323065Y14996710D01*
X2423375Y14963626D01*
X2531920Y14950916D01*
X2678036Y14953947D01*
X2794000Y14961261D01*
X3017942Y14984849D01*
X3262704Y15023127D01*
X3476238Y15067924D01*
X3480971Y15069119D01*
X3699317Y15127402D01*
X3863416Y15184227D01*
X3987230Y15253086D01*
X4084717Y15347469D01*
X4169838Y15480866D01*
X4256553Y15666767D01*
X4358032Y15916672D01*
X4499689Y16331996D01*
X4575834Y16703642D01*
X4586852Y17041091D01*
X4533130Y17353823D01*
X4427633Y17626287D01*
X4321912Y17805112D01*
X4176437Y18003095D01*
X4006965Y18203129D01*
X3829253Y18388108D01*
X3659057Y18540925D01*
X3512133Y18644473D01*
X3470684Y18665243D01*
X3225296Y18745574D01*
X2945470Y18797501D01*
X2666850Y18816554D01*
X2425077Y18798266D01*
X2418826Y18797105D01*
X2145557Y18710423D01*
X1863317Y18560334D01*
X1592719Y18362758D01*
X1354376Y18133618D01*
X1168901Y17888833D01*
X1113567Y17788957D01*
X1065924Y17687603D01*
X1033264Y17598924D01*
X1012955Y17503795D01*
X1002363Y17383092D01*
X998855Y17217691D01*
X319332Y17217691D01*
X319560Y17250395D01*
X326562Y17477638D01*
X339736Y17652159D01*
X360311Y17789891D01*
X389517Y17906767D01*
X391523Y17913309D01*
X512280Y18184250D01*
X701359Y18460147D01*
X944305Y18728181D01*
X1226658Y18975533D01*
X1533964Y19189384D01*
X1851763Y19356915D01*
X2132261Y19456818D01*
X2448531Y19507911D01*
X2805634Y19510229D01*
X3177340Y19466678D01*
G36*
X24909426Y14347386D02*
G01*
X24993202Y14269499D01*
X25019000Y14177640D01*
X25053091Y14126608D01*
X25142305Y14052181D01*
X25262416Y13973504D01*
X25405032Y13881013D01*
X25529449Y13785575D01*
X25597358Y13720197D01*
X25688883Y13610166D01*
X26456023Y13610166D01*
X26743508Y13609552D01*
X26957271Y13605443D01*
X27108255Y13594437D01*
X27207403Y13573135D01*
X27265660Y13538136D01*
X27293970Y13486039D01*
X27303275Y13413443D01*
X27304351Y13346559D01*
X27296689Y13255967D01*
X27266236Y13186327D01*
X27203247Y13134703D01*
X27097976Y13098157D01*
X26940677Y13073749D01*
X26721604Y13058543D01*
X26431012Y13049600D01*
X26312114Y13047430D01*
X25548166Y13035027D01*
X25357666Y13149997D01*
X25242328Y13226137D01*
X25157620Y13293941D01*
X25133146Y13321448D01*
X25075686Y13375835D01*
X24974762Y13441350D01*
X24942646Y13458727D01*
X24820871Y13539185D01*
X24687732Y13652616D01*
X24627416Y13713860D01*
X24511052Y13883724D01*
X24463405Y14053671D01*
X24486339Y14208742D01*
X24553333Y14308666D01*
X24664562Y14373984D01*
X24791569Y14384552D01*
X24909426Y14347386D01*
X24909426Y14347386D01*
G37*
X24909426Y14347386D02*
X24993202Y14269499D01*
X25019000Y14177640D01*
X25053091Y14126608D01*
X25142305Y14052181D01*
X25262416Y13973504D01*
X25405032Y13881013D01*
X25529449Y13785575D01*
X25597358Y13720197D01*
X25688883Y13610166D01*
X26456023Y13610166D01*
X26743508Y13609552D01*
X26957271Y13605443D01*
X27108255Y13594437D01*
X27207403Y13573135D01*
X27265660Y13538136D01*
X27293970Y13486039D01*
X27303275Y13413443D01*
X27304351Y13346559D01*
X27296689Y13255967D01*
X27266236Y13186327D01*
X27203247Y13134703D01*
X27097976Y13098157D01*
X26940677Y13073749D01*
X26721604Y13058543D01*
X26431012Y13049600D01*
X26312114Y13047430D01*
X25548166Y13035027D01*
X25357666Y13149997D01*
X25242328Y13226137D01*
X25157620Y13293941D01*
X25133146Y13321448D01*
X25075686Y13375835D01*
X24974762Y13441350D01*
X24942646Y13458727D01*
X24820871Y13539185D01*
X24687732Y13652616D01*
X24627416Y13713860D01*
X24511052Y13883724D01*
X24463405Y14053671D01*
X24486339Y14208742D01*
X24553333Y14308666D01*
X24664562Y14373984D01*
X24791569Y14384552D01*
X24909426Y14347386D01*
G36*
X14332924Y17066627D02*
G01*
X14376436Y17043274D01*
X14403615Y17009994D01*
X14416940Y16950194D01*
X14418883Y16847279D01*
X14411922Y16684655D01*
X14405952Y16577103D01*
X14380765Y16132329D01*
X14640376Y15892413D01*
X14773368Y15757617D01*
X14888613Y15619653D01*
X14964461Y15504862D01*
X14972307Y15488582D01*
X15029136Y15381960D01*
X15090833Y15335126D01*
X15174063Y15326013D01*
X15296355Y15347297D01*
X15385674Y15389513D01*
X15476954Y15438768D01*
X15534597Y15451666D01*
X15609059Y15474309D01*
X15716151Y15531115D01*
X15757093Y15557500D01*
X15877840Y15623776D01*
X15990072Y15660637D01*
X16017490Y15663333D01*
X16129381Y15684586D01*
X16244365Y15733482D01*
X16393707Y15786967D01*
X16512231Y15768460D01*
X16587545Y15686070D01*
X16607262Y15547905D01*
X16601072Y15499995D01*
X16547975Y15414155D01*
X16438575Y15339338D01*
X16301090Y15291480D01*
X16215662Y15282333D01*
X16133445Y15260877D01*
X16012723Y15205676D01*
X15923870Y15155333D01*
X15799016Y15085366D01*
X15695340Y15039240D01*
X15650566Y15028333D01*
X15575972Y15004693D01*
X15557500Y14986000D01*
X15502533Y14963161D01*
X15387263Y14948973D01*
X15235579Y14943127D01*
X15071370Y14945312D01*
X14918524Y14955217D01*
X14800930Y14972533D01*
X14742758Y14996583D01*
X14697832Y15068615D01*
X14641478Y15177484D01*
X14631788Y15197988D01*
X14564519Y15301544D01*
X14454779Y15429789D01*
X14327570Y15553805D01*
X14162644Y15710333D01*
X14056812Y15846786D01*
X13997782Y15988615D01*
X13973262Y16161269D01*
X13970000Y16294147D01*
X13983566Y16603395D01*
X14023749Y16838311D01*
X14089773Y16997242D01*
X14180863Y17078540D01*
X14296243Y17080554D01*
X14332924Y17066627D01*
X14332924Y17066627D01*
G37*
X14332924Y17066627D02*
X14376436Y17043274D01*
X14403615Y17009994D01*
X14416940Y16950194D01*
X14418883Y16847279D01*
X14411922Y16684655D01*
X14405952Y16577103D01*
X14380765Y16132329D01*
X14640376Y15892413D01*
X14773368Y15757617D01*
X14888613Y15619653D01*
X14964461Y15504862D01*
X14972307Y15488582D01*
X15029136Y15381960D01*
X15090833Y15335126D01*
X15174063Y15326013D01*
X15296355Y15347297D01*
X15385674Y15389513D01*
X15476954Y15438768D01*
X15534597Y15451666D01*
X15609059Y15474309D01*
X15716151Y15531115D01*
X15757093Y15557500D01*
X15877840Y15623776D01*
X15990072Y15660637D01*
X16017490Y15663333D01*
X16129381Y15684586D01*
X16244365Y15733482D01*
X16393707Y15786967D01*
X16512231Y15768460D01*
X16587545Y15686070D01*
X16607262Y15547905D01*
X16601072Y15499995D01*
X16547975Y15414155D01*
X16438575Y15339338D01*
X16301090Y15291480D01*
X16215662Y15282333D01*
X16133445Y15260877D01*
X16012723Y15205676D01*
X15923870Y15155333D01*
X15799016Y15085366D01*
X15695340Y15039240D01*
X15650566Y15028333D01*
X15575972Y15004693D01*
X15557500Y14986000D01*
X15502533Y14963161D01*
X15387263Y14948973D01*
X15235579Y14943127D01*
X15071370Y14945312D01*
X14918524Y14955217D01*
X14800930Y14972533D01*
X14742758Y14996583D01*
X14697832Y15068615D01*
X14641478Y15177484D01*
X14631788Y15197988D01*
X14564519Y15301544D01*
X14454779Y15429789D01*
X14327570Y15553805D01*
X14162644Y15710333D01*
X14056812Y15846786D01*
X13997782Y15988615D01*
X13973262Y16161269D01*
X13970000Y16294147D01*
X13983566Y16603395D01*
X14023749Y16838311D01*
X14089773Y16997242D01*
X14180863Y17078540D01*
X14296243Y17080554D01*
X14332924Y17066627D01*
G36*
X18149201Y16445750D02*
G01*
X18236301Y16396120D01*
X18297612Y16343089D01*
X18331907Y16283194D01*
X18346571Y16191627D01*
X18348990Y16043584D01*
X18348785Y16018347D01*
X18323549Y15770327D01*
X18258363Y15524039D01*
X18162263Y15301674D01*
X18044285Y15125423D01*
X17949961Y15038916D01*
X17803921Y14975079D01*
X17619910Y14942924D01*
X17427881Y14942796D01*
X17257786Y14975039D01*
X17150893Y15029742D01*
X17060845Y15089517D01*
X16991095Y15113000D01*
X16927522Y15151175D01*
X16881571Y15251847D01*
X16855589Y15394234D01*
X16851926Y15557554D01*
X16852046Y15558491D01*
X17272000Y15558491D01*
X17308785Y15471478D01*
X17398006Y15395575D01*
X17507963Y15351343D01*
X17589500Y15352562D01*
X17657554Y15374787D01*
X17674166Y15382842D01*
X17693603Y15417868D01*
X17727390Y15472833D01*
X17786873Y15580287D01*
X17826213Y15663333D01*
X17880848Y15783847D01*
X17929770Y15885583D01*
X17987728Y16002000D01*
X17811383Y16002000D01*
X17698470Y15992513D01*
X17605705Y15953817D01*
X17502244Y15870556D01*
X17453519Y15823852D01*
X17355577Y15713851D01*
X17289670Y15613258D01*
X17272000Y15558491D01*
X16852046Y15558491D01*
X16872932Y15721026D01*
X16909132Y15838080D01*
X16972115Y15943623D01*
X17074658Y16073602D01*
X17173716Y16178904D01*
X17317103Y16303709D01*
X17449375Y16379264D01*
X17607054Y16426313D01*
X17610666Y16427095D01*
X17844262Y16468133D01*
X18017872Y16474644D01*
X18149201Y16445750D01*
X18149201Y16445750D01*
G37*
X18149201Y16445750D02*
X18236301Y16396120D01*
X18297612Y16343089D01*
X18331907Y16283194D01*
X18346571Y16191627D01*
X18348990Y16043584D01*
X18348785Y16018347D01*
X18323549Y15770327D01*
X18258363Y15524039D01*
X18162263Y15301674D01*
X18044285Y15125423D01*
X17949961Y15038916D01*
X17803921Y14975079D01*
X17619910Y14942924D01*
X17427881Y14942796D01*
X17257786Y14975039D01*
X17150893Y15029742D01*
X17060845Y15089517D01*
X16991095Y15113000D01*
X16927522Y15151175D01*
X16881571Y15251847D01*
X16855589Y15394234D01*
X16851926Y15557554D01*
X16852046Y15558491D01*
X17272000Y15558491D01*
X17308785Y15471478D01*
X17398006Y15395575D01*
X17507963Y15351343D01*
X17589500Y15352562D01*
X17657554Y15374787D01*
X17674166Y15382842D01*
X17693603Y15417868D01*
X17727390Y15472833D01*
X17786873Y15580287D01*
X17826213Y15663333D01*
X17880848Y15783847D01*
X17929770Y15885583D01*
X17987728Y16002000D01*
X17811383Y16002000D01*
X17698470Y15992513D01*
X17605705Y15953817D01*
X17502244Y15870556D01*
X17453519Y15823852D01*
X17355577Y15713851D01*
X17289670Y15613258D01*
X17272000Y15558491D01*
X16852046Y15558491D01*
X16872932Y15721026D01*
X16909132Y15838080D01*
X16972115Y15943623D01*
X17074658Y16073602D01*
X17173716Y16178904D01*
X17317103Y16303709D01*
X17449375Y16379264D01*
X17607054Y16426313D01*
X17610666Y16427095D01*
X17844262Y16468133D01*
X18017872Y16474644D01*
X18149201Y16445750D01*
G36*
X19633396Y17897563D02*
G01*
X19723988Y17847266D01*
X19728323Y17842306D01*
X19753044Y17766760D01*
X19766140Y17628758D01*
X19768724Y17449550D01*
X19761907Y17250384D01*
X19746802Y17052508D01*
X19724520Y16877171D01*
X19696173Y16745621D01*
X19667685Y16683590D01*
X19634111Y16624806D01*
X19613204Y16527486D01*
X19602721Y16375409D01*
X19600333Y16196138D01*
X19600333Y15783109D01*
X19864916Y15800710D01*
X20062361Y15827800D01*
X20270118Y15878812D01*
X20459356Y15944813D01*
X20601245Y16016873D01*
X20629276Y16037509D01*
X20706358Y16072635D01*
X20832159Y16103632D01*
X20907432Y16115104D01*
X21085992Y16118971D01*
X21197172Y16077703D01*
X21247121Y15988145D01*
X21251333Y15938500D01*
X21223866Y15834558D01*
X21132982Y15761766D01*
X21039666Y15726833D01*
X20935701Y15685099D01*
X20877175Y15649864D01*
X20763904Y15585788D01*
X20592107Y15519984D01*
X20387363Y15460475D01*
X20175251Y15415281D01*
X20087166Y15402122D01*
X19819001Y15369593D01*
X19622576Y15349343D01*
X19485978Y15340593D01*
X19397293Y15342566D01*
X19346333Y15353760D01*
X19300380Y15378832D01*
X19267143Y15419158D01*
X19244573Y15487333D01*
X19230620Y15595951D01*
X19223234Y15757609D01*
X19220365Y15984903D01*
X19219981Y16130164D01*
X19221317Y16394262D01*
X19226711Y16587111D01*
X19237339Y16722080D01*
X19254380Y16812537D01*
X19279012Y16871851D01*
X19286318Y16883129D01*
X19329230Y16994136D01*
X19360584Y17188326D01*
X19376624Y17389965D01*
X19390787Y17572365D01*
X19409715Y17725199D01*
X19430398Y17827048D01*
X19441822Y17854083D01*
X19525123Y17900420D01*
X19633396Y17897563D01*
X19633396Y17897563D01*
G37*
X19633396Y17897563D02*
X19723988Y17847266D01*
X19728323Y17842306D01*
X19753044Y17766760D01*
X19766140Y17628758D01*
X19768724Y17449550D01*
X19761907Y17250384D01*
X19746802Y17052508D01*
X19724520Y16877171D01*
X19696173Y16745621D01*
X19667685Y16683590D01*
X19634111Y16624806D01*
X19613204Y16527486D01*
X19602721Y16375409D01*
X19600333Y16196138D01*
X19600333Y15783109D01*
X19864916Y15800710D01*
X20062361Y15827800D01*
X20270118Y15878812D01*
X20459356Y15944813D01*
X20601245Y16016873D01*
X20629276Y16037509D01*
X20706358Y16072635D01*
X20832159Y16103632D01*
X20907432Y16115104D01*
X21085992Y16118971D01*
X21197172Y16077703D01*
X21247121Y15988145D01*
X21251333Y15938500D01*
X21223866Y15834558D01*
X21132982Y15761766D01*
X21039666Y15726833D01*
X20935701Y15685099D01*
X20877175Y15649864D01*
X20763904Y15585788D01*
X20592107Y15519984D01*
X20387363Y15460475D01*
X20175251Y15415281D01*
X20087166Y15402122D01*
X19819001Y15369593D01*
X19622576Y15349343D01*
X19485978Y15340593D01*
X19397293Y15342566D01*
X19346333Y15353760D01*
X19300380Y15378832D01*
X19267143Y15419158D01*
X19244573Y15487333D01*
X19230620Y15595951D01*
X19223234Y15757609D01*
X19220365Y15984903D01*
X19219981Y16130164D01*
X19221317Y16394262D01*
X19226711Y16587111D01*
X19237339Y16722080D01*
X19254380Y16812537D01*
X19279012Y16871851D01*
X19286318Y16883129D01*
X19329230Y16994136D01*
X19360584Y17188326D01*
X19376624Y17389965D01*
X19390787Y17572365D01*
X19409715Y17725199D01*
X19430398Y17827048D01*
X19441822Y17854083D01*
X19525123Y17900420D01*
X19633396Y17897563D01*
G36*
X15430175Y20613337D02*
G01*
X15531330Y20598184D01*
X15604262Y20561625D01*
X15677171Y20494413D01*
X15692086Y20478750D01*
X15788317Y20365617D01*
X15866354Y20254922D01*
X15880307Y20230529D01*
X15939801Y20128931D01*
X16023282Y19999344D01*
X16063075Y19940950D01*
X16158712Y19748755D01*
X16207583Y19530738D01*
X16206247Y19316826D01*
X16154808Y19143642D01*
X16029743Y18979440D01*
X15844727Y18832052D01*
X15624424Y18715353D01*
X15393498Y18643219D01*
X15235890Y18626666D01*
X15016741Y18626666D01*
X15044655Y18340916D01*
X15057733Y18163996D01*
X15065661Y17967371D01*
X15068440Y17771526D01*
X15066074Y17596948D01*
X15058564Y17464125D01*
X15045911Y17393543D01*
X15044566Y17391018D01*
X14979398Y17355626D01*
X14878005Y17359917D01*
X14775263Y17397604D01*
X14713233Y17450753D01*
X14689704Y17527434D01*
X14670683Y17674196D01*
X14656152Y17876575D01*
X14646092Y18120106D01*
X14640486Y18390325D01*
X14639316Y18672767D01*
X14642564Y18952969D01*
X14645737Y19062318D01*
X15046636Y19062318D01*
X15066971Y19017133D01*
X15126244Y19007005D01*
X15213186Y19025521D01*
X15341618Y19074061D01*
X15446380Y19123421D01*
X15625942Y19229337D01*
X15731281Y19329586D01*
X15770856Y19436728D01*
X15753125Y19563321D01*
X15749757Y19573841D01*
X15687492Y19705310D01*
X15604865Y19817934D01*
X15603950Y19818867D01*
X15520623Y19924470D01*
X15441806Y20056326D01*
X15430816Y20078760D01*
X15367391Y20186557D01*
X15303198Y20226998D01*
X15265893Y20226927D01*
X15221675Y20212719D01*
X15192557Y20173986D01*
X15173272Y20093640D01*
X15158551Y19954596D01*
X15151016Y19854333D01*
X15136395Y19678191D01*
X15119968Y19526844D01*
X15104673Y19426254D01*
X15100737Y19409833D01*
X15078420Y19310789D01*
X15056841Y19181325D01*
X15054799Y19166416D01*
X15046636Y19062318D01*
X14645737Y19062318D01*
X14650211Y19216465D01*
X14662240Y19448791D01*
X14678633Y19635483D01*
X14699372Y19762077D01*
X14716169Y19806771D01*
X14757844Y19896189D01*
X14767827Y20016335D01*
X14758325Y20132050D01*
X14746633Y20268990D01*
X14758594Y20356813D01*
X14803782Y20429889D01*
X14857396Y20487693D01*
X14932378Y20556830D01*
X15005455Y20595501D01*
X15104773Y20612425D01*
X15258476Y20616323D01*
X15272602Y20616333D01*
X15430175Y20613337D01*
X15430175Y20613337D01*
G37*
X15430175Y20613337D02*
X15531330Y20598184D01*
X15604262Y20561625D01*
X15677171Y20494413D01*
X15692086Y20478750D01*
X15788317Y20365617D01*
X15866354Y20254922D01*
X15880307Y20230529D01*
X15939801Y20128931D01*
X16023282Y19999344D01*
X16063075Y19940950D01*
X16158712Y19748755D01*
X16207583Y19530738D01*
X16206247Y19316826D01*
X16154808Y19143642D01*
X16029743Y18979440D01*
X15844727Y18832052D01*
X15624424Y18715353D01*
X15393498Y18643219D01*
X15235890Y18626666D01*
X15016741Y18626666D01*
X15044655Y18340916D01*
X15057733Y18163996D01*
X15065661Y17967371D01*
X15068440Y17771526D01*
X15066074Y17596948D01*
X15058564Y17464125D01*
X15045911Y17393543D01*
X15044566Y17391018D01*
X14979398Y17355626D01*
X14878005Y17359917D01*
X14775263Y17397604D01*
X14713233Y17450753D01*
X14689704Y17527434D01*
X14670683Y17674196D01*
X14656152Y17876575D01*
X14646092Y18120106D01*
X14640486Y18390325D01*
X14639316Y18672767D01*
X14642564Y18952969D01*
X14645737Y19062318D01*
X15046636Y19062318D01*
X15066971Y19017133D01*
X15126244Y19007005D01*
X15213186Y19025521D01*
X15341618Y19074061D01*
X15446380Y19123421D01*
X15625942Y19229337D01*
X15731281Y19329586D01*
X15770856Y19436728D01*
X15753125Y19563321D01*
X15749757Y19573841D01*
X15687492Y19705310D01*
X15604865Y19817934D01*
X15603950Y19818867D01*
X15520623Y19924470D01*
X15441806Y20056326D01*
X15430816Y20078760D01*
X15367391Y20186557D01*
X15303198Y20226998D01*
X15265893Y20226927D01*
X15221675Y20212719D01*
X15192557Y20173986D01*
X15173272Y20093640D01*
X15158551Y19954596D01*
X15151016Y19854333D01*
X15136395Y19678191D01*
X15119968Y19526844D01*
X15104673Y19426254D01*
X15100737Y19409833D01*
X15078420Y19310789D01*
X15056841Y19181325D01*
X15054799Y19166416D01*
X15046636Y19062318D01*
X14645737Y19062318D01*
X14650211Y19216465D01*
X14662240Y19448791D01*
X14678633Y19635483D01*
X14699372Y19762077D01*
X14716169Y19806771D01*
X14757844Y19896189D01*
X14767827Y20016335D01*
X14758325Y20132050D01*
X14746633Y20268990D01*
X14758594Y20356813D01*
X14803782Y20429889D01*
X14857396Y20487693D01*
X14932378Y20556830D01*
X15005455Y20595501D01*
X15104773Y20612425D01*
X15258476Y20616323D01*
X15272602Y20616333D01*
X15430175Y20613337D01*
G36*
X18285369Y20319617D02*
G01*
X18333066Y20277922D01*
X18368477Y20214166D01*
X18409387Y20084549D01*
X18426727Y19935347D01*
X18426591Y19917833D01*
X18427102Y19816237D01*
X18439680Y19788218D01*
X18469602Y19822957D01*
X18471469Y19825867D01*
X18598004Y20021745D01*
X18690014Y20156579D01*
X18756755Y20241792D01*
X18807485Y20288805D01*
X18851462Y20309042D01*
X18865205Y20311669D01*
X18974520Y20290346D01*
X19055638Y20211406D01*
X19083396Y20101848D01*
X19080694Y20080485D01*
X19076003Y20021053D01*
X19104985Y19991804D01*
X19187455Y19982140D01*
X19266100Y19981333D01*
X19426150Y19965705D01*
X19579591Y19926607D01*
X19620063Y19909993D01*
X19708827Y19861681D01*
X19752850Y19807912D01*
X19767489Y19719120D01*
X19768501Y19624243D01*
X19761686Y19489951D01*
X19733211Y19406423D01*
X19668245Y19340031D01*
X19630917Y19312309D01*
X19405682Y19150331D01*
X19241039Y19029057D01*
X19127968Y18940991D01*
X19057453Y18878642D01*
X19020474Y18834514D01*
X19008013Y18801114D01*
X19007666Y18794425D01*
X18969378Y18689182D01*
X18858741Y18618609D01*
X18682099Y18586135D01*
X18618931Y18584333D01*
X18465915Y18592333D01*
X18362066Y18623452D01*
X18272803Y18688373D01*
X18268109Y18692691D01*
X18202751Y18761267D01*
X18170330Y18830093D01*
X18162755Y18928824D01*
X18166995Y19007666D01*
X18584333Y19007666D01*
X18599822Y18972821D01*
X18612555Y18979444D01*
X18617622Y19029684D01*
X18612555Y19035889D01*
X18587388Y19030078D01*
X18584333Y19007666D01*
X18166995Y19007666D01*
X18169491Y19054072D01*
X18173245Y19126209D01*
X18622137Y19126209D01*
X18634447Y19106128D01*
X18675975Y19145002D01*
X18692567Y19167580D01*
X18760593Y19237831D01*
X18814383Y19261666D01*
X18884722Y19291546D01*
X18928399Y19332027D01*
X19005015Y19403147D01*
X19109890Y19477815D01*
X19113500Y19480035D01*
X19240500Y19557683D01*
X19039947Y19557842D01*
X18913218Y19551959D01*
X18834914Y19520865D01*
X18768968Y19444779D01*
X18733031Y19389508D01*
X18674175Y19282966D01*
X18636295Y19190178D01*
X18622137Y19126209D01*
X18173245Y19126209D01*
X18176772Y19193953D01*
X18170394Y19266011D01*
X18146908Y19286471D01*
X18121479Y19280051D01*
X18034399Y19246753D01*
X17928166Y19208383D01*
X17807871Y19157211D01*
X17717663Y19106879D01*
X17608385Y19060464D01*
X17537080Y19050000D01*
X17434243Y19037526D01*
X17300999Y19006599D01*
X17268592Y18997083D01*
X17161454Y18957931D01*
X17118207Y18916529D01*
X17120072Y18852349D01*
X17123367Y18838333D01*
X17202176Y18491433D01*
X17248348Y18220042D01*
X17261797Y18024916D01*
X17242440Y17906809D01*
X17229848Y17886052D01*
X17140329Y17832366D01*
X17026708Y17825857D01*
X16927275Y17864462D01*
X16892489Y17904217D01*
X16855854Y18007768D01*
X16848666Y18063594D01*
X16829317Y18148863D01*
X16781156Y18265437D01*
X16764000Y18299057D01*
X16709589Y18422419D01*
X16680086Y18531696D01*
X16678403Y18552430D01*
X16660558Y18649047D01*
X16616844Y18778287D01*
X16595975Y18827372D01*
X16546649Y18980755D01*
X16507701Y19189794D01*
X16487826Y19377705D01*
X16487401Y19382202D01*
X17081500Y19382202D01*
X17208500Y19410042D01*
X17347164Y19446768D01*
X17462500Y19484274D01*
X17721860Y19586816D01*
X17901276Y19676246D01*
X18004118Y19754533D01*
X18034000Y19818178D01*
X18019060Y19880975D01*
X17958733Y19883859D01*
X17938750Y19878416D01*
X17840533Y19855472D01*
X17700665Y19829519D01*
X17630760Y19818355D01*
X17457723Y19785036D01*
X17357087Y19745406D01*
X17316592Y19693879D01*
X17314333Y19674235D01*
X17287232Y19615075D01*
X17219932Y19528101D01*
X17197916Y19504167D01*
X17081500Y19382202D01*
X16487401Y19382202D01*
X16470396Y19562091D01*
X16447407Y19727321D01*
X16423015Y19845143D01*
X16415700Y19867937D01*
X16392598Y19965655D01*
X16425110Y20039526D01*
X16457428Y20074576D01*
X16568540Y20140033D01*
X16678707Y20127330D01*
X16771948Y20041628D01*
X16812144Y19960036D01*
X16862399Y19851291D01*
X16903674Y19816388D01*
X16928875Y19857760D01*
X16933333Y19918455D01*
X16972012Y20020963D01*
X17073441Y20110179D01*
X17215703Y20172077D01*
X17362080Y20192842D01*
X17507514Y20210413D01*
X17658904Y20253124D01*
X17674213Y20259248D01*
X17811247Y20299336D01*
X17981937Y20326974D01*
X18069322Y20333331D01*
X18206307Y20334561D01*
X18285369Y20319617D01*
X18285369Y20319617D01*
G37*
X18285369Y20319617D02*
X18333066Y20277922D01*
X18368477Y20214166D01*
X18409387Y20084549D01*
X18426727Y19935347D01*
X18426591Y19917833D01*
X18427102Y19816237D01*
X18439680Y19788218D01*
X18469602Y19822957D01*
X18471469Y19825867D01*
X18598004Y20021745D01*
X18690014Y20156579D01*
X18756755Y20241792D01*
X18807485Y20288805D01*
X18851462Y20309042D01*
X18865205Y20311669D01*
X18974520Y20290346D01*
X19055638Y20211406D01*
X19083396Y20101848D01*
X19080694Y20080485D01*
X19076003Y20021053D01*
X19104985Y19991804D01*
X19187455Y19982140D01*
X19266100Y19981333D01*
X19426150Y19965705D01*
X19579591Y19926607D01*
X19620063Y19909993D01*
X19708827Y19861681D01*
X19752850Y19807912D01*
X19767489Y19719120D01*
X19768501Y19624243D01*
X19761686Y19489951D01*
X19733211Y19406423D01*
X19668245Y19340031D01*
X19630917Y19312309D01*
X19405682Y19150331D01*
X19241039Y19029057D01*
X19127968Y18940991D01*
X19057453Y18878642D01*
X19020474Y18834514D01*
X19008013Y18801114D01*
X19007666Y18794425D01*
X18969378Y18689182D01*
X18858741Y18618609D01*
X18682099Y18586135D01*
X18618931Y18584333D01*
X18465915Y18592333D01*
X18362066Y18623452D01*
X18272803Y18688373D01*
X18268109Y18692691D01*
X18202751Y18761267D01*
X18170330Y18830093D01*
X18162755Y18928824D01*
X18166995Y19007666D01*
X18584333Y19007666D01*
X18599822Y18972821D01*
X18612555Y18979444D01*
X18617622Y19029684D01*
X18612555Y19035889D01*
X18587388Y19030078D01*
X18584333Y19007666D01*
X18166995Y19007666D01*
X18169491Y19054072D01*
X18173245Y19126209D01*
X18622137Y19126209D01*
X18634447Y19106128D01*
X18675975Y19145002D01*
X18692567Y19167580D01*
X18760593Y19237831D01*
X18814383Y19261666D01*
X18884722Y19291546D01*
X18928399Y19332027D01*
X19005015Y19403147D01*
X19109890Y19477815D01*
X19113500Y19480035D01*
X19240500Y19557683D01*
X19039947Y19557842D01*
X18913218Y19551959D01*
X18834914Y19520865D01*
X18768968Y19444779D01*
X18733031Y19389508D01*
X18674175Y19282966D01*
X18636295Y19190178D01*
X18622137Y19126209D01*
X18173245Y19126209D01*
X18176772Y19193953D01*
X18170394Y19266011D01*
X18146908Y19286471D01*
X18121479Y19280051D01*
X18034399Y19246753D01*
X17928166Y19208383D01*
X17807871Y19157211D01*
X17717663Y19106879D01*
X17608385Y19060464D01*
X17537080Y19050000D01*
X17434243Y19037526D01*
X17300999Y19006599D01*
X17268592Y18997083D01*
X17161454Y18957931D01*
X17118207Y18916529D01*
X17120072Y18852349D01*
X17123367Y18838333D01*
X17202176Y18491433D01*
X17248348Y18220042D01*
X17261797Y18024916D01*
X17242440Y17906809D01*
X17229848Y17886052D01*
X17140329Y17832366D01*
X17026708Y17825857D01*
X16927275Y17864462D01*
X16892489Y17904217D01*
X16855854Y18007768D01*
X16848666Y18063594D01*
X16829317Y18148863D01*
X16781156Y18265437D01*
X16764000Y18299057D01*
X16709589Y18422419D01*
X16680086Y18531696D01*
X16678403Y18552430D01*
X16660558Y18649047D01*
X16616844Y18778287D01*
X16595975Y18827372D01*
X16546649Y18980755D01*
X16507701Y19189794D01*
X16487826Y19377705D01*
X16487401Y19382202D01*
X17081500Y19382202D01*
X17208500Y19410042D01*
X17347164Y19446768D01*
X17462500Y19484274D01*
X17721860Y19586816D01*
X17901276Y19676246D01*
X18004118Y19754533D01*
X18034000Y19818178D01*
X18019060Y19880975D01*
X17958733Y19883859D01*
X17938750Y19878416D01*
X17840533Y19855472D01*
X17700665Y19829519D01*
X17630760Y19818355D01*
X17457723Y19785036D01*
X17357087Y19745406D01*
X17316592Y19693879D01*
X17314333Y19674235D01*
X17287232Y19615075D01*
X17219932Y19528101D01*
X17197916Y19504167D01*
X17081500Y19382202D01*
X16487401Y19382202D01*
X16470396Y19562091D01*
X16447407Y19727321D01*
X16423015Y19845143D01*
X16415700Y19867937D01*
X16392598Y19965655D01*
X16425110Y20039526D01*
X16457428Y20074576D01*
X16568540Y20140033D01*
X16678707Y20127330D01*
X16771948Y20041628D01*
X16812144Y19960036D01*
X16862399Y19851291D01*
X16903674Y19816388D01*
X16928875Y19857760D01*
X16933333Y19918455D01*
X16972012Y20020963D01*
X17073441Y20110179D01*
X17215703Y20172077D01*
X17362080Y20192842D01*
X17507514Y20210413D01*
X17658904Y20253124D01*
X17674213Y20259248D01*
X17811247Y20299336D01*
X17981937Y20326974D01*
X18069322Y20333331D01*
X18206307Y20334561D01*
X18285369Y20319617D01*
G36*
X10909655Y20418188D02*
G01*
X10999029Y20345222D01*
X11032439Y20248304D01*
X11003918Y20147636D01*
X10907498Y20063419D01*
X10886578Y20053352D01*
X10788954Y19999326D01*
X10731500Y19951928D01*
X10664776Y19896419D01*
X10569600Y19839443D01*
X10450033Y19778563D01*
X10658669Y19709265D01*
X10836657Y19619553D01*
X10938330Y19494317D01*
X10964333Y19365508D01*
X10997833Y19310647D01*
X11025334Y19304000D01*
X11100659Y19273230D01*
X11117189Y19254079D01*
X11134134Y19182673D01*
X11143742Y19050522D01*
X11146599Y18879717D01*
X11143291Y18692351D01*
X11134402Y18510516D01*
X11120519Y18356305D01*
X11102226Y18251808D01*
X11089854Y18222718D01*
X11039397Y18191550D01*
X10941427Y18172200D01*
X10782203Y18162826D01*
X10631066Y18161210D01*
X10435599Y18163469D01*
X10303484Y18172637D01*
X10213456Y18192664D01*
X10144253Y18227497D01*
X10100655Y18259717D01*
X10018558Y18340568D01*
X9997250Y18417459D01*
X10006050Y18470529D01*
X10069123Y18570287D01*
X10180856Y18617562D01*
X10317894Y18604389D01*
X10355613Y18589706D01*
X10473638Y18555798D01*
X10606491Y18542000D01*
X10752666Y18542000D01*
X10752666Y18753666D01*
X10744594Y18877638D01*
X10723608Y18952980D01*
X10708173Y18965333D01*
X10664519Y19000627D01*
X10613068Y19087871D01*
X10602574Y19111578D01*
X10499678Y19257055D01*
X10340151Y19372740D01*
X10175918Y19470508D01*
X10073017Y19547872D01*
X10017291Y19622771D01*
X9994582Y19713141D01*
X9990666Y19815537D01*
X10013969Y19996522D01*
X10084356Y20107710D01*
X10202542Y20150144D01*
X10220602Y20150666D01*
X10306865Y20178699D01*
X10417373Y20249998D01*
X10474592Y20298833D01*
X10609929Y20403749D01*
X10733977Y20445086D01*
X10770286Y20447000D01*
X10909655Y20418188D01*
X10909655Y20418188D01*
G37*
X10909655Y20418188D02*
X10999029Y20345222D01*
X11032439Y20248304D01*
X11003918Y20147636D01*
X10907498Y20063419D01*
X10886578Y20053352D01*
X10788954Y19999326D01*
X10731500Y19951928D01*
X10664776Y19896419D01*
X10569600Y19839443D01*
X10450033Y19778563D01*
X10658669Y19709265D01*
X10836657Y19619553D01*
X10938330Y19494317D01*
X10964333Y19365508D01*
X10997833Y19310647D01*
X11025334Y19304000D01*
X11100659Y19273230D01*
X11117189Y19254079D01*
X11134134Y19182673D01*
X11143742Y19050522D01*
X11146599Y18879717D01*
X11143291Y18692351D01*
X11134402Y18510516D01*
X11120519Y18356305D01*
X11102226Y18251808D01*
X11089854Y18222718D01*
X11039397Y18191550D01*
X10941427Y18172200D01*
X10782203Y18162826D01*
X10631066Y18161210D01*
X10435599Y18163469D01*
X10303484Y18172637D01*
X10213456Y18192664D01*
X10144253Y18227497D01*
X10100655Y18259717D01*
X10018558Y18340568D01*
X9997250Y18417459D01*
X10006050Y18470529D01*
X10069123Y18570287D01*
X10180856Y18617562D01*
X10317894Y18604389D01*
X10355613Y18589706D01*
X10473638Y18555798D01*
X10606491Y18542000D01*
X10752666Y18542000D01*
X10752666Y18753666D01*
X10744594Y18877638D01*
X10723608Y18952980D01*
X10708173Y18965333D01*
X10664519Y19000627D01*
X10613068Y19087871D01*
X10602574Y19111578D01*
X10499678Y19257055D01*
X10340151Y19372740D01*
X10175918Y19470508D01*
X10073017Y19547872D01*
X10017291Y19622771D01*
X9994582Y19713141D01*
X9990666Y19815537D01*
X10013969Y19996522D01*
X10084356Y20107710D01*
X10202542Y20150144D01*
X10220602Y20150666D01*
X10306865Y20178699D01*
X10417373Y20249998D01*
X10474592Y20298833D01*
X10609929Y20403749D01*
X10733977Y20445086D01*
X10770286Y20447000D01*
X10909655Y20418188D01*
G36*
X8839908Y21114523D02*
G01*
X8930350Y21063098D01*
X8933293Y21059676D01*
X8956910Y21005865D01*
X8968675Y20907525D01*
X8969149Y20751830D01*
X8958893Y20525955D01*
X8957591Y20503887D01*
X8941220Y20274644D01*
X8920549Y20104644D01*
X8890290Y19968470D01*
X8845157Y19840704D01*
X8797128Y19732460D01*
X8723256Y19551443D01*
X8661841Y19360043D01*
X8629870Y19219333D01*
X8606445Y19064481D01*
X8595307Y18966717D01*
X8595595Y18899488D01*
X8606451Y18836243D01*
X8616147Y18795454D01*
X8617288Y18711277D01*
X8574025Y18611173D01*
X8486989Y18486022D01*
X8359927Y18339996D01*
X8234934Y18253564D01*
X8082842Y18212712D01*
X7898671Y18203333D01*
X7710543Y18220978D01*
X7562223Y18280725D01*
X7531010Y18300594D01*
X7387166Y18397855D01*
X7387166Y18865331D01*
X7747847Y18865331D01*
X7759069Y18741534D01*
X7786599Y18665215D01*
X7799916Y18654703D01*
X7942355Y18633694D01*
X8061867Y18694029D01*
X8088055Y18721916D01*
X8130147Y18791051D01*
X8155061Y18888056D01*
X8166672Y19034233D01*
X8168924Y19166416D01*
X8164597Y19346445D01*
X8150896Y19466584D01*
X8129236Y19515187D01*
X8126510Y19515666D01*
X8035290Y19483940D01*
X7928614Y19404908D01*
X7836331Y19302790D01*
X7808336Y19257482D01*
X7772849Y19149717D01*
X7752563Y19010196D01*
X7747847Y18865331D01*
X7387166Y18865331D01*
X7387166Y19478773D01*
X7832616Y19903577D01*
X8130422Y19889538D01*
X8286215Y19883852D01*
X8377474Y19888936D01*
X8424181Y19910473D01*
X8446315Y19954142D01*
X8453300Y19981333D01*
X8482198Y20078703D01*
X8504269Y20129500D01*
X8521875Y20195021D01*
X8535638Y20309972D01*
X8538913Y20362333D01*
X8554647Y20595179D01*
X8577984Y20800301D01*
X8606308Y20960316D01*
X8637007Y21057842D01*
X8645535Y21071416D01*
X8730642Y21117881D01*
X8839908Y21114523D01*
X8839908Y21114523D01*
G37*
X8839908Y21114523D02*
X8930350Y21063098D01*
X8933293Y21059676D01*
X8956910Y21005865D01*
X8968675Y20907525D01*
X8969149Y20751830D01*
X8958893Y20525955D01*
X8957591Y20503887D01*
X8941220Y20274644D01*
X8920549Y20104644D01*
X8890290Y19968470D01*
X8845157Y19840704D01*
X8797128Y19732460D01*
X8723256Y19551443D01*
X8661841Y19360043D01*
X8629870Y19219333D01*
X8606445Y19064481D01*
X8595307Y18966717D01*
X8595595Y18899488D01*
X8606451Y18836243D01*
X8616147Y18795454D01*
X8617288Y18711277D01*
X8574025Y18611173D01*
X8486989Y18486022D01*
X8359927Y18339996D01*
X8234934Y18253564D01*
X8082842Y18212712D01*
X7898671Y18203333D01*
X7710543Y18220978D01*
X7562223Y18280725D01*
X7531010Y18300594D01*
X7387166Y18397855D01*
X7387166Y18865331D01*
X7747847Y18865331D01*
X7759069Y18741534D01*
X7786599Y18665215D01*
X7799916Y18654703D01*
X7942355Y18633694D01*
X8061867Y18694029D01*
X8088055Y18721916D01*
X8130147Y18791051D01*
X8155061Y18888056D01*
X8166672Y19034233D01*
X8168924Y19166416D01*
X8164597Y19346445D01*
X8150896Y19466584D01*
X8129236Y19515187D01*
X8126510Y19515666D01*
X8035290Y19483940D01*
X7928614Y19404908D01*
X7836331Y19302790D01*
X7808336Y19257482D01*
X7772849Y19149717D01*
X7752563Y19010196D01*
X7747847Y18865331D01*
X7387166Y18865331D01*
X7387166Y19478773D01*
X7832616Y19903577D01*
X8130422Y19889538D01*
X8286215Y19883852D01*
X8377474Y19888936D01*
X8424181Y19910473D01*
X8446315Y19954142D01*
X8453300Y19981333D01*
X8482198Y20078703D01*
X8504269Y20129500D01*
X8521875Y20195021D01*
X8535638Y20309972D01*
X8538913Y20362333D01*
X8554647Y20595179D01*
X8577984Y20800301D01*
X8606308Y20960316D01*
X8637007Y21057842D01*
X8645535Y21071416D01*
X8730642Y21117881D01*
X8839908Y21114523D01*
G36*
X9579243Y19752663D02*
G01*
X9643533Y19718866D01*
X9664511Y19656341D01*
X9680099Y19529475D01*
X9690176Y19358429D01*
X9694624Y19163365D01*
X9693323Y18964444D01*
X9686155Y18781827D01*
X9672999Y18635675D01*
X9653737Y18546151D01*
X9650510Y18539217D01*
X9572986Y18473780D01*
X9459562Y18461400D01*
X9355666Y18498692D01*
X9326393Y18536741D01*
X9305426Y18616513D01*
X9290922Y18750874D01*
X9281036Y18952689D01*
X9278432Y19037794D01*
X9275305Y19310312D01*
X9284950Y19508945D01*
X9310075Y19643874D01*
X9353389Y19725279D01*
X9417602Y19763342D01*
X9473152Y19769666D01*
X9579243Y19752663D01*
X9579243Y19752663D01*
G37*
X9579243Y19752663D02*
X9643533Y19718866D01*
X9664511Y19656341D01*
X9680099Y19529475D01*
X9690176Y19358429D01*
X9694624Y19163365D01*
X9693323Y18964444D01*
X9686155Y18781827D01*
X9672999Y18635675D01*
X9653737Y18546151D01*
X9650510Y18539217D01*
X9572986Y18473780D01*
X9459562Y18461400D01*
X9355666Y18498692D01*
X9326393Y18536741D01*
X9305426Y18616513D01*
X9290922Y18750874D01*
X9281036Y18952689D01*
X9278432Y19037794D01*
X9275305Y19310312D01*
X9284950Y19508945D01*
X9310075Y19643874D01*
X9353389Y19725279D01*
X9417602Y19763342D01*
X9473152Y19769666D01*
X9579243Y19752663D01*
G36*
X20508738Y20176133D02*
G01*
X20560539Y20119098D01*
X20593574Y20010459D01*
X20611090Y19839428D01*
X20616331Y19595216D01*
X20616333Y19589329D01*
X20617583Y19390153D01*
X20623851Y19256691D01*
X20638910Y19169999D01*
X20666535Y19111134D01*
X20710498Y19061150D01*
X20724149Y19048137D01*
X20797765Y18957548D01*
X20821668Y18851693D01*
X20819399Y18776175D01*
X20804875Y18665704D01*
X20769968Y18614005D01*
X20694875Y18595185D01*
X20679833Y18593682D01*
X20589253Y18600371D01*
X20500935Y18648229D01*
X20389943Y18751022D01*
X20384368Y18756794D01*
X20215902Y18931725D01*
X20229527Y19530530D01*
X20236601Y19780444D01*
X20247171Y19958017D01*
X20265060Y20075577D01*
X20294095Y20145448D01*
X20338100Y20179957D01*
X20400902Y20191429D01*
X20434927Y20192352D01*
X20508738Y20176133D01*
X20508738Y20176133D01*
G37*
X20508738Y20176133D02*
X20560539Y20119098D01*
X20593574Y20010459D01*
X20611090Y19839428D01*
X20616331Y19595216D01*
X20616333Y19589329D01*
X20617583Y19390153D01*
X20623851Y19256691D01*
X20638910Y19169999D01*
X20666535Y19111134D01*
X20710498Y19061150D01*
X20724149Y19048137D01*
X20797765Y18957548D01*
X20821668Y18851693D01*
X20819399Y18776175D01*
X20804875Y18665704D01*
X20769968Y18614005D01*
X20694875Y18595185D01*
X20679833Y18593682D01*
X20589253Y18600371D01*
X20500935Y18648229D01*
X20389943Y18751022D01*
X20384368Y18756794D01*
X20215902Y18931725D01*
X20229527Y19530530D01*
X20236601Y19780444D01*
X20247171Y19958017D01*
X20265060Y20075577D01*
X20294095Y20145448D01*
X20338100Y20179957D01*
X20400902Y20191429D01*
X20434927Y20192352D01*
X20508738Y20176133D01*
G36*
X21895446Y21137340D02*
G01*
X21905031Y21127061D01*
X21947182Y21066559D01*
X21959004Y20993927D01*
X21943259Y20879416D01*
X21932759Y20828644D01*
X21899253Y20663781D01*
X21890080Y20566126D01*
X21911256Y20520222D01*
X21968796Y20510617D01*
X22052988Y20519743D01*
X22214669Y20516462D01*
X22397290Y20475885D01*
X22569404Y20408540D01*
X22699562Y20324954D01*
X22729908Y20293148D01*
X22798217Y20231331D01*
X22866584Y20238553D01*
X22877724Y20244411D01*
X22957819Y20263602D01*
X23091697Y20271648D01*
X23234953Y20267601D01*
X23408822Y20261940D01*
X23538773Y20278214D01*
X23664181Y20323173D01*
X23723062Y20351283D01*
X23892659Y20418032D01*
X24079527Y20466405D01*
X24150365Y20477065D01*
X24282803Y20486696D01*
X24361988Y20474058D01*
X24418427Y20429258D01*
X24458028Y20377273D01*
X24493575Y20316686D01*
X24520096Y20239519D01*
X24540014Y20130489D01*
X24555750Y19974313D01*
X24569725Y19755708D01*
X24576140Y19631780D01*
X24587420Y19361588D01*
X24588793Y19164497D01*
X24577701Y19029261D01*
X24551583Y18944633D01*
X24507879Y18899366D01*
X24444030Y18882215D01*
X24405166Y18880666D01*
X24321998Y18895100D01*
X24265528Y18947865D01*
X24228446Y19053153D01*
X24203438Y19225159D01*
X24197987Y19282833D01*
X24173585Y19545660D01*
X24151107Y19760657D01*
X24131749Y19917763D01*
X24116708Y20006916D01*
X24109917Y20023666D01*
X24044068Y20004480D01*
X23943280Y19958657D01*
X23841992Y19903802D01*
X23774649Y19857519D01*
X23766259Y19848011D01*
X23740783Y19771786D01*
X23725254Y19669146D01*
X23680910Y19540373D01*
X23586397Y19438311D01*
X23468056Y19389698D01*
X23448952Y19388666D01*
X23370071Y19422878D01*
X23296318Y19503376D01*
X23252175Y19596961D01*
X23252802Y19654696D01*
X23246798Y19729217D01*
X23215616Y19789440D01*
X23164763Y19841642D01*
X23105892Y19838592D01*
X23047419Y19810351D01*
X22975032Y19759601D01*
X22954195Y19693588D01*
X22966016Y19601851D01*
X22991217Y19430429D01*
X23008310Y19236041D01*
X23016882Y19039679D01*
X23016518Y18862338D01*
X23006804Y18725008D01*
X22987327Y18648683D01*
X22984886Y18645286D01*
X22899909Y18595387D01*
X22789273Y18587321D01*
X22691818Y18619541D01*
X22655383Y18658416D01*
X22632507Y18737560D01*
X22610528Y18871071D01*
X22595481Y19015605D01*
X22557662Y19258309D01*
X22488095Y19437310D01*
X22484087Y19443935D01*
X22416246Y19607203D01*
X22394353Y19815275D01*
X22394333Y19823051D01*
X22387896Y19967860D01*
X22356916Y20053179D01*
X22283887Y20094567D01*
X22151304Y20107584D01*
X22073370Y20108333D01*
X21886333Y20108333D01*
X21886333Y19705592D01*
X21892004Y19496275D01*
X21907777Y19332544D01*
X21931787Y19232025D01*
X21937563Y19220819D01*
X21967076Y19112495D01*
X21947367Y19020310D01*
X21875284Y18923044D01*
X21764681Y18883851D01*
X21643506Y18908363D01*
X21586256Y18947555D01*
X21551166Y18988770D01*
X21527838Y19047744D01*
X21513964Y19140789D01*
X21507235Y19284219D01*
X21505345Y19494346D01*
X21505333Y19519566D01*
X21505333Y20018343D01*
X21364533Y19995495D01*
X21230300Y19997407D01*
X21152867Y20043514D01*
X21090729Y20148891D01*
X21106780Y20250731D01*
X21194932Y20337380D01*
X21336000Y20394048D01*
X21414094Y20416944D01*
X21460915Y20450737D01*
X21487917Y20516267D01*
X21506555Y20634379D01*
X21516666Y20722794D01*
X21557552Y20950531D01*
X21619621Y21109755D01*
X21699123Y21196564D01*
X21792314Y21207060D01*
X21895446Y21137340D01*
X21895446Y21137340D01*
G37*
X21895446Y21137340D02*
X21905031Y21127061D01*
X21947182Y21066559D01*
X21959004Y20993927D01*
X21943259Y20879416D01*
X21932759Y20828644D01*
X21899253Y20663781D01*
X21890080Y20566126D01*
X21911256Y20520222D01*
X21968796Y20510617D01*
X22052988Y20519743D01*
X22214669Y20516462D01*
X22397290Y20475885D01*
X22569404Y20408540D01*
X22699562Y20324954D01*
X22729908Y20293148D01*
X22798217Y20231331D01*
X22866584Y20238553D01*
X22877724Y20244411D01*
X22957819Y20263602D01*
X23091697Y20271648D01*
X23234953Y20267601D01*
X23408822Y20261940D01*
X23538773Y20278214D01*
X23664181Y20323173D01*
X23723062Y20351283D01*
X23892659Y20418032D01*
X24079527Y20466405D01*
X24150365Y20477065D01*
X24282803Y20486696D01*
X24361988Y20474058D01*
X24418427Y20429258D01*
X24458028Y20377273D01*
X24493575Y20316686D01*
X24520096Y20239519D01*
X24540014Y20130489D01*
X24555750Y19974313D01*
X24569725Y19755708D01*
X24576140Y19631780D01*
X24587420Y19361588D01*
X24588793Y19164497D01*
X24577701Y19029261D01*
X24551583Y18944633D01*
X24507879Y18899366D01*
X24444030Y18882215D01*
X24405166Y18880666D01*
X24321998Y18895100D01*
X24265528Y18947865D01*
X24228446Y19053153D01*
X24203438Y19225159D01*
X24197987Y19282833D01*
X24173585Y19545660D01*
X24151107Y19760657D01*
X24131749Y19917763D01*
X24116708Y20006916D01*
X24109917Y20023666D01*
X24044068Y20004480D01*
X23943280Y19958657D01*
X23841992Y19903802D01*
X23774649Y19857519D01*
X23766259Y19848011D01*
X23740783Y19771786D01*
X23725254Y19669146D01*
X23680910Y19540373D01*
X23586397Y19438311D01*
X23468056Y19389698D01*
X23448952Y19388666D01*
X23370071Y19422878D01*
X23296318Y19503376D01*
X23252175Y19596961D01*
X23252802Y19654696D01*
X23246798Y19729217D01*
X23215616Y19789440D01*
X23164763Y19841642D01*
X23105892Y19838592D01*
X23047419Y19810351D01*
X22975032Y19759601D01*
X22954195Y19693588D01*
X22966016Y19601851D01*
X22991217Y19430429D01*
X23008310Y19236041D01*
X23016882Y19039679D01*
X23016518Y18862338D01*
X23006804Y18725008D01*
X22987327Y18648683D01*
X22984886Y18645286D01*
X22899909Y18595387D01*
X22789273Y18587321D01*
X22691818Y18619541D01*
X22655383Y18658416D01*
X22632507Y18737560D01*
X22610528Y18871071D01*
X22595481Y19015605D01*
X22557662Y19258309D01*
X22488095Y19437310D01*
X22484087Y19443935D01*
X22416246Y19607203D01*
X22394353Y19815275D01*
X22394333Y19823051D01*
X22387896Y19967860D01*
X22356916Y20053179D01*
X22283887Y20094567D01*
X22151304Y20107584D01*
X22073370Y20108333D01*
X21886333Y20108333D01*
X21886333Y19705592D01*
X21892004Y19496275D01*
X21907777Y19332544D01*
X21931787Y19232025D01*
X21937563Y19220819D01*
X21967076Y19112495D01*
X21947367Y19020310D01*
X21875284Y18923044D01*
X21764681Y18883851D01*
X21643506Y18908363D01*
X21586256Y18947555D01*
X21551166Y18988770D01*
X21527838Y19047744D01*
X21513964Y19140789D01*
X21507235Y19284219D01*
X21505345Y19494346D01*
X21505333Y19519566D01*
X21505333Y20018343D01*
X21364533Y19995495D01*
X21230300Y19997407D01*
X21152867Y20043514D01*
X21090729Y20148891D01*
X21106780Y20250731D01*
X21194932Y20337380D01*
X21336000Y20394048D01*
X21414094Y20416944D01*
X21460915Y20450737D01*
X21487917Y20516267D01*
X21506555Y20634379D01*
X21516666Y20722794D01*
X21557552Y20950531D01*
X21619621Y21109755D01*
X21699123Y21196564D01*
X21792314Y21207060D01*
X21895446Y21137340D01*
G36*
X13438609Y20043627D02*
G01*
X13473810Y19925592D01*
X13506464Y19758789D01*
X13529587Y19579000D01*
X13529839Y19576237D01*
X13552267Y19392241D01*
X13585672Y19263469D01*
X13639431Y19160491D01*
X13679661Y19105956D01*
X13775354Y18956585D01*
X13794847Y18841875D01*
X13737307Y18757908D01*
X13601904Y18700766D01*
X13593097Y18698548D01*
X13467484Y18703258D01*
X13333410Y18757993D01*
X13231724Y18844171D01*
X13215068Y18870521D01*
X13192386Y18953400D01*
X13175563Y19085134D01*
X13170414Y19174537D01*
X13163736Y19305086D01*
X13153864Y19396115D01*
X13146556Y19421888D01*
X13118373Y19400432D01*
X13071230Y19325652D01*
X13062764Y19309667D01*
X12984180Y19183815D01*
X12900892Y19079410D01*
X12805902Y18976824D01*
X12702034Y18862497D01*
X12693231Y18852687D01*
X12574701Y18755697D01*
X12432176Y18683095D01*
X12413153Y18676844D01*
X12258910Y18644143D01*
X12091338Y18629280D01*
X11936069Y18632145D01*
X11818736Y18652628D01*
X11770973Y18679583D01*
X11646972Y18835306D01*
X11569813Y18946255D01*
X11529303Y19030230D01*
X11526933Y19042846D01*
X12022666Y19042846D01*
X12049840Y19009597D01*
X12103228Y19023372D01*
X12128500Y19050000D01*
X12188775Y19086765D01*
X12228911Y19092333D01*
X12303650Y19121251D01*
X12398271Y19193261D01*
X12424833Y19219333D01*
X12494635Y19305853D01*
X12498439Y19343415D01*
X12442406Y19327350D01*
X12356459Y19271134D01*
X12238722Y19193212D01*
X12139083Y19136981D01*
X12057294Y19085358D01*
X12022673Y19043244D01*
X12022666Y19042846D01*
X11526933Y19042846D01*
X11515249Y19105031D01*
X11514666Y19127170D01*
X11527741Y19227264D01*
X11576198Y19309153D01*
X11673891Y19386709D01*
X11834672Y19473806D01*
X11884987Y19498051D01*
X12001399Y19559056D01*
X12070618Y19606930D01*
X12077930Y19630916D01*
X12002973Y19626423D01*
X11943129Y19603079D01*
X11837572Y19562202D01*
X11758516Y19581762D01*
X11708190Y19624524D01*
X11646448Y19732268D01*
X11656322Y19842228D01*
X11726796Y19938156D01*
X11846859Y20003806D01*
X11978766Y20023666D01*
X12118983Y20040004D01*
X12284472Y20081470D01*
X12361333Y20108333D01*
X12512826Y20155651D01*
X12687099Y20182503D01*
X12911373Y20192638D01*
X12976165Y20193000D01*
X13376197Y20193000D01*
X13438609Y20043627D01*
X13438609Y20043627D01*
G37*
X13438609Y20043627D02*
X13473810Y19925592D01*
X13506464Y19758789D01*
X13529587Y19579000D01*
X13529839Y19576237D01*
X13552267Y19392241D01*
X13585672Y19263469D01*
X13639431Y19160491D01*
X13679661Y19105956D01*
X13775354Y18956585D01*
X13794847Y18841875D01*
X13737307Y18757908D01*
X13601904Y18700766D01*
X13593097Y18698548D01*
X13467484Y18703258D01*
X13333410Y18757993D01*
X13231724Y18844171D01*
X13215068Y18870521D01*
X13192386Y18953400D01*
X13175563Y19085134D01*
X13170414Y19174537D01*
X13163736Y19305086D01*
X13153864Y19396115D01*
X13146556Y19421888D01*
X13118373Y19400432D01*
X13071230Y19325652D01*
X13062764Y19309667D01*
X12984180Y19183815D01*
X12900892Y19079410D01*
X12805902Y18976824D01*
X12702034Y18862497D01*
X12693231Y18852687D01*
X12574701Y18755697D01*
X12432176Y18683095D01*
X12413153Y18676844D01*
X12258910Y18644143D01*
X12091338Y18629280D01*
X11936069Y18632145D01*
X11818736Y18652628D01*
X11770973Y18679583D01*
X11646972Y18835306D01*
X11569813Y18946255D01*
X11529303Y19030230D01*
X11526933Y19042846D01*
X12022666Y19042846D01*
X12049840Y19009597D01*
X12103228Y19023372D01*
X12128500Y19050000D01*
X12188775Y19086765D01*
X12228911Y19092333D01*
X12303650Y19121251D01*
X12398271Y19193261D01*
X12424833Y19219333D01*
X12494635Y19305853D01*
X12498439Y19343415D01*
X12442406Y19327350D01*
X12356459Y19271134D01*
X12238722Y19193212D01*
X12139083Y19136981D01*
X12057294Y19085358D01*
X12022673Y19043244D01*
X12022666Y19042846D01*
X11526933Y19042846D01*
X11515249Y19105031D01*
X11514666Y19127170D01*
X11527741Y19227264D01*
X11576198Y19309153D01*
X11673891Y19386709D01*
X11834672Y19473806D01*
X11884987Y19498051D01*
X12001399Y19559056D01*
X12070618Y19606930D01*
X12077930Y19630916D01*
X12002973Y19626423D01*
X11943129Y19603079D01*
X11837572Y19562202D01*
X11758516Y19581762D01*
X11708190Y19624524D01*
X11646448Y19732268D01*
X11656322Y19842228D01*
X11726796Y19938156D01*
X11846859Y20003806D01*
X11978766Y20023666D01*
X12118983Y20040004D01*
X12284472Y20081470D01*
X12361333Y20108333D01*
X12512826Y20155651D01*
X12687099Y20182503D01*
X12911373Y20192638D01*
X12976165Y20193000D01*
X13376197Y20193000D01*
X13438609Y20043627D01*
G36*
X27169948Y20811626D02*
G01*
X27263107Y20763920D01*
X27264620Y20762146D01*
X27292836Y20690024D01*
X27318236Y20557927D01*
X27336368Y20390529D01*
X27339056Y20349396D01*
X27359956Y20128728D01*
X27401124Y19946623D01*
X27473914Y19757444D01*
X27501252Y19697541D01*
X27568001Y19551850D01*
X27617988Y19437492D01*
X27642526Y19374502D01*
X27643666Y19369091D01*
X27666469Y19324223D01*
X27724784Y19235216D01*
X27770666Y19170282D01*
X27865981Y19003940D01*
X27893772Y18867878D01*
X27855558Y18769889D01*
X27752855Y18717769D01*
X27681296Y18711333D01*
X27557067Y18750998D01*
X27450724Y18848916D01*
X27381174Y18948095D01*
X27291425Y19099069D01*
X27196144Y19276478D01*
X27150852Y19367500D01*
X27063953Y19553527D01*
X27009549Y19693113D01*
X26980176Y19814460D01*
X26968371Y19945771D01*
X26966557Y20063883D01*
X26963778Y20224687D01*
X26954153Y20312667D01*
X26935320Y20339548D01*
X26913644Y20326578D01*
X26885571Y20258481D01*
X26862143Y20126453D01*
X26846882Y19951221D01*
X26845689Y19926528D01*
X26834305Y19759628D01*
X26817591Y19624042D01*
X26798660Y19543165D01*
X26793393Y19533518D01*
X26761334Y19464742D01*
X26728520Y19351824D01*
X26721949Y19322232D01*
X26679801Y19197846D01*
X26608005Y19130890D01*
X26575463Y19117181D01*
X26471262Y19096315D01*
X26399973Y19125728D01*
X26356416Y19214319D01*
X26335408Y19370989D01*
X26331333Y19536475D01*
X26354564Y19848846D01*
X26419592Y20152982D01*
X26519421Y20425370D01*
X26647055Y20642499D01*
X26668368Y20669091D01*
X26760158Y20767117D01*
X26843657Y20813737D01*
X26958266Y20827503D01*
X27005873Y20828000D01*
X27169948Y20811626D01*
X27169948Y20811626D01*
G37*
X27169948Y20811626D02*
X27263107Y20763920D01*
X27264620Y20762146D01*
X27292836Y20690024D01*
X27318236Y20557927D01*
X27336368Y20390529D01*
X27339056Y20349396D01*
X27359956Y20128728D01*
X27401124Y19946623D01*
X27473914Y19757444D01*
X27501252Y19697541D01*
X27568001Y19551850D01*
X27617988Y19437492D01*
X27642526Y19374502D01*
X27643666Y19369091D01*
X27666469Y19324223D01*
X27724784Y19235216D01*
X27770666Y19170282D01*
X27865981Y19003940D01*
X27893772Y18867878D01*
X27855558Y18769889D01*
X27752855Y18717769D01*
X27681296Y18711333D01*
X27557067Y18750998D01*
X27450724Y18848916D01*
X27381174Y18948095D01*
X27291425Y19099069D01*
X27196144Y19276478D01*
X27150852Y19367500D01*
X27063953Y19553527D01*
X27009549Y19693113D01*
X26980176Y19814460D01*
X26968371Y19945771D01*
X26966557Y20063883D01*
X26963778Y20224687D01*
X26954153Y20312667D01*
X26935320Y20339548D01*
X26913644Y20326578D01*
X26885571Y20258481D01*
X26862143Y20126453D01*
X26846882Y19951221D01*
X26845689Y19926528D01*
X26834305Y19759628D01*
X26817591Y19624042D01*
X26798660Y19543165D01*
X26793393Y19533518D01*
X26761334Y19464742D01*
X26728520Y19351824D01*
X26721949Y19322232D01*
X26679801Y19197846D01*
X26608005Y19130890D01*
X26575463Y19117181D01*
X26471262Y19096315D01*
X26399973Y19125728D01*
X26356416Y19214319D01*
X26335408Y19370989D01*
X26331333Y19536475D01*
X26354564Y19848846D01*
X26419592Y20152982D01*
X26519421Y20425370D01*
X26647055Y20642499D01*
X26668368Y20669091D01*
X26760158Y20767117D01*
X26843657Y20813737D01*
X26958266Y20827503D01*
X27005873Y20828000D01*
X27169948Y20811626D01*
G36*
X28265523Y21582475D02*
G01*
X28323655Y21572891D01*
X28359570Y21548788D01*
X28379560Y21492597D01*
X28389916Y21386754D01*
X28396857Y21215735D01*
X28404674Y21043495D01*
X28415861Y20941157D01*
X28434293Y20893956D01*
X28463846Y20887130D01*
X28481524Y20893178D01*
X28564146Y20914634D01*
X28694667Y20935479D01*
X28776019Y20944596D01*
X28956864Y20945298D01*
X29069290Y20904093D01*
X29120419Y20817310D01*
X29125333Y20764500D01*
X29095470Y20657268D01*
X28999316Y20587296D01*
X28913666Y20561047D01*
X28807805Y20536292D01*
X28665486Y20502502D01*
X28606750Y20488437D01*
X28405666Y20440143D01*
X28405666Y19942870D01*
X28407876Y19715706D01*
X28416810Y19548881D01*
X28435929Y19418131D01*
X28468691Y19299193D01*
X28514883Y19176812D01*
X28573722Y19018670D01*
X28597104Y18912380D01*
X28589072Y18834905D01*
X28579291Y18809680D01*
X28503760Y18729349D01*
X28396236Y18707812D01*
X28285060Y18744461D01*
X28211021Y18817551D01*
X28140387Y18941421D01*
X28089755Y19075023D01*
X28056108Y19235150D01*
X28036425Y19438598D01*
X28027687Y19702160D01*
X28026524Y19843750D01*
X28026040Y20084866D01*
X28022428Y20253760D01*
X28009850Y20362833D01*
X27982468Y20424485D01*
X27934443Y20451117D01*
X27859937Y20455132D01*
X27753112Y20448928D01*
X27741902Y20448303D01*
X27608032Y20473702D01*
X27497601Y20550658D01*
X27436750Y20658110D01*
X27432000Y20697976D01*
X27468839Y20807452D01*
X27558707Y20887439D01*
X27659602Y20910309D01*
X27767476Y20906694D01*
X27887083Y20907981D01*
X28024666Y20912666D01*
X28024666Y21203816D01*
X28033815Y21393992D01*
X28066350Y21512980D01*
X28129906Y21572780D01*
X28232114Y21585394D01*
X28265523Y21582475D01*
X28265523Y21582475D01*
G37*
X28265523Y21582475D02*
X28323655Y21572891D01*
X28359570Y21548788D01*
X28379560Y21492597D01*
X28389916Y21386754D01*
X28396857Y21215735D01*
X28404674Y21043495D01*
X28415861Y20941157D01*
X28434293Y20893956D01*
X28463846Y20887130D01*
X28481524Y20893178D01*
X28564146Y20914634D01*
X28694667Y20935479D01*
X28776019Y20944596D01*
X28956864Y20945298D01*
X29069290Y20904093D01*
X29120419Y20817310D01*
X29125333Y20764500D01*
X29095470Y20657268D01*
X28999316Y20587296D01*
X28913666Y20561047D01*
X28807805Y20536292D01*
X28665486Y20502502D01*
X28606750Y20488437D01*
X28405666Y20440143D01*
X28405666Y19942870D01*
X28407876Y19715706D01*
X28416810Y19548881D01*
X28435929Y19418131D01*
X28468691Y19299193D01*
X28514883Y19176812D01*
X28573722Y19018670D01*
X28597104Y18912380D01*
X28589072Y18834905D01*
X28579291Y18809680D01*
X28503760Y18729349D01*
X28396236Y18707812D01*
X28285060Y18744461D01*
X28211021Y18817551D01*
X28140387Y18941421D01*
X28089755Y19075023D01*
X28056108Y19235150D01*
X28036425Y19438598D01*
X28027687Y19702160D01*
X28026524Y19843750D01*
X28026040Y20084866D01*
X28022428Y20253760D01*
X28009850Y20362833D01*
X27982468Y20424485D01*
X27934443Y20451117D01*
X27859937Y20455132D01*
X27753112Y20448928D01*
X27741902Y20448303D01*
X27608032Y20473702D01*
X27497601Y20550658D01*
X27436750Y20658110D01*
X27432000Y20697976D01*
X27468839Y20807452D01*
X27558707Y20887439D01*
X27659602Y20910309D01*
X27767476Y20906694D01*
X27887083Y20907981D01*
X28024666Y20912666D01*
X28024666Y21203816D01*
X28033815Y21393992D01*
X28066350Y21512980D01*
X28129906Y21572780D01*
X28232114Y21585394D01*
X28265523Y21582475D01*
G36*
X25935428Y21031128D02*
G01*
X26039667Y20995091D01*
X26095420Y20915928D01*
X26117067Y20778008D01*
X26119666Y20657778D01*
X26117918Y20502488D01*
X26105965Y20406633D01*
X26073744Y20344982D01*
X26011191Y20292303D01*
X25960223Y20258020D01*
X25823916Y20184192D01*
X25684081Y20132321D01*
X25653307Y20125261D01*
X25493764Y20086554D01*
X25393574Y20029844D01*
X25339425Y19936921D01*
X25318010Y19789575D01*
X25315333Y19662857D01*
X25318191Y19511343D01*
X25325748Y19399365D01*
X25336482Y19347644D01*
X25338602Y19346333D01*
X25403587Y19366804D01*
X25492463Y19414768D01*
X25572588Y19470051D01*
X25611324Y19512481D01*
X25611666Y19515105D01*
X25647042Y19586371D01*
X25732554Y19659902D01*
X25837278Y19713517D01*
X25907515Y19727333D01*
X26035798Y19697013D01*
X26108451Y19613797D01*
X26119666Y19549899D01*
X26094230Y19477037D01*
X26029994Y19366834D01*
X25945068Y19244639D01*
X25857560Y19135800D01*
X25785579Y19065666D01*
X25765578Y19054262D01*
X25699120Y19017483D01*
X25616540Y18959012D01*
X25507972Y18907989D01*
X25361537Y18880165D01*
X25203868Y18875401D01*
X25061601Y18893559D01*
X24961369Y18934499D01*
X24935822Y18962550D01*
X24919089Y19034835D01*
X24905302Y19172496D01*
X24895825Y19356258D01*
X24892018Y19566846D01*
X24892000Y19582747D01*
X24893313Y19811210D01*
X24899295Y19975713D01*
X24913013Y20096947D01*
X24937530Y20195604D01*
X24975913Y20292375D01*
X25006860Y20358114D01*
X25072081Y20484549D01*
X25126633Y20575875D01*
X25155026Y20609278D01*
X25188103Y20657539D01*
X25188333Y20662194D01*
X25223938Y20730114D01*
X25326836Y20834508D01*
X25459074Y20944416D01*
X25612889Y21021537D01*
X25768325Y21039666D01*
X25935428Y21031128D01*
X25935428Y21031128D01*
G37*
X25935428Y21031128D02*
X26039667Y20995091D01*
X26095420Y20915928D01*
X26117067Y20778008D01*
X26119666Y20657778D01*
X26117918Y20502488D01*
X26105965Y20406633D01*
X26073744Y20344982D01*
X26011191Y20292303D01*
X25960223Y20258020D01*
X25823916Y20184192D01*
X25684081Y20132321D01*
X25653307Y20125261D01*
X25493764Y20086554D01*
X25393574Y20029844D01*
X25339425Y19936921D01*
X25318010Y19789575D01*
X25315333Y19662857D01*
X25318191Y19511343D01*
X25325748Y19399365D01*
X25336482Y19347644D01*
X25338602Y19346333D01*
X25403587Y19366804D01*
X25492463Y19414768D01*
X25572588Y19470051D01*
X25611324Y19512481D01*
X25611666Y19515105D01*
X25647042Y19586371D01*
X25732554Y19659902D01*
X25837278Y19713517D01*
X25907515Y19727333D01*
X26035798Y19697013D01*
X26108451Y19613797D01*
X26119666Y19549899D01*
X26094230Y19477037D01*
X26029994Y19366834D01*
X25945068Y19244639D01*
X25857560Y19135800D01*
X25785579Y19065666D01*
X25765578Y19054262D01*
X25699120Y19017483D01*
X25616540Y18959012D01*
X25507972Y18907989D01*
X25361537Y18880165D01*
X25203868Y18875401D01*
X25061601Y18893559D01*
X24961369Y18934499D01*
X24935822Y18962550D01*
X24919089Y19034835D01*
X24905302Y19172496D01*
X24895825Y19356258D01*
X24892018Y19566846D01*
X24892000Y19582747D01*
X24893313Y19811210D01*
X24899295Y19975713D01*
X24913013Y20096947D01*
X24937530Y20195604D01*
X24975913Y20292375D01*
X25006860Y20358114D01*
X25072081Y20484549D01*
X25126633Y20575875D01*
X25155026Y20609278D01*
X25188103Y20657539D01*
X25188333Y20662194D01*
X25223938Y20730114D01*
X25326836Y20834508D01*
X25459074Y20944416D01*
X25612889Y21021537D01*
X25768325Y21039666D01*
X25935428Y21031128D01*
G36*
X9707288Y20759186D02*
G01*
X9775867Y20682262D01*
X9782218Y20551847D01*
X9726971Y20365544D01*
X9702005Y20306318D01*
X9641971Y20186403D01*
X9586624Y20127224D01*
X9514858Y20108874D01*
X9492102Y20108333D01*
X9394268Y20117229D01*
X9341555Y20136555D01*
X9315428Y20213588D01*
X9320701Y20340927D01*
X9354195Y20491594D01*
X9396859Y20605750D01*
X9463060Y20724914D01*
X9529587Y20777928D01*
X9575846Y20785018D01*
X9707288Y20759186D01*
X9707288Y20759186D01*
G37*
X9707288Y20759186D02*
X9775867Y20682262D01*
X9782218Y20551847D01*
X9726971Y20365544D01*
X9702005Y20306318D01*
X9641971Y20186403D01*
X9586624Y20127224D01*
X9514858Y20108874D01*
X9492102Y20108333D01*
X9394268Y20117229D01*
X9341555Y20136555D01*
X9315428Y20213588D01*
X9320701Y20340927D01*
X9354195Y20491594D01*
X9396859Y20605750D01*
X9463060Y20724914D01*
X9529587Y20777928D01*
X9575846Y20785018D01*
X9707288Y20759186D01*
G36*
X20575840Y20926241D02*
G01*
X20636585Y20814885D01*
X20658666Y20631417D01*
X20658666Y20630523D01*
X20651670Y20488856D01*
X20625827Y20407348D01*
X20576783Y20363823D01*
X20440993Y20326167D01*
X20287024Y20330662D01*
X20182416Y20365724D01*
X20119047Y20446053D01*
X20117197Y20565325D01*
X20174683Y20706711D01*
X20238415Y20797188D01*
X20369077Y20920438D01*
X20484111Y20962441D01*
X20575840Y20926241D01*
X20575840Y20926241D01*
G37*
X20575840Y20926241D02*
X20636585Y20814885D01*
X20658666Y20631417D01*
X20658666Y20630523D01*
X20651670Y20488856D01*
X20625827Y20407348D01*
X20576783Y20363823D01*
X20440993Y20326167D01*
X20287024Y20330662D01*
X20182416Y20365724D01*
X20119047Y20446053D01*
X20117197Y20565325D01*
X20174683Y20706711D01*
X20238415Y20797188D01*
X20369077Y20920438D01*
X20484111Y20962441D01*
X20575840Y20926241D01*
G36*
X16002509Y23722659D02*
G01*
X16136557Y23669383D01*
X16205487Y23575327D01*
X16203079Y23446853D01*
X16168066Y23361896D01*
X16110607Y23302041D01*
X16010000Y23284510D01*
X15966983Y23285930D01*
X15745149Y23291076D01*
X15585465Y23273097D01*
X15467639Y23228151D01*
X15398940Y23178357D01*
X15282715Y23076056D01*
X15338741Y22809278D01*
X15376107Y22653440D01*
X15416207Y22519830D01*
X15444383Y22450033D01*
X15473683Y22353562D01*
X15491496Y22214182D01*
X15494000Y22142068D01*
X15489176Y22011294D01*
X15467354Y21938901D01*
X15417508Y21898817D01*
X15385410Y21885285D01*
X15302437Y21854323D01*
X15260855Y21849535D01*
X15221820Y21870059D01*
X15204421Y21881263D01*
X15137691Y21946075D01*
X15098588Y22002015D01*
X15038972Y22097253D01*
X14964833Y22206773D01*
X14923625Y22281303D01*
X14895932Y22378652D01*
X14878294Y22518261D01*
X14867250Y22719568D01*
X14865700Y22763744D01*
X14851233Y23200742D01*
X15063294Y23415042D01*
X15206426Y23544870D01*
X15346499Y23631657D01*
X15509738Y23686431D01*
X15722368Y23720215D01*
X15809559Y23728789D01*
X16002509Y23722659D01*
X16002509Y23722659D01*
G37*
X16002509Y23722659D02*
X16136557Y23669383D01*
X16205487Y23575327D01*
X16203079Y23446853D01*
X16168066Y23361896D01*
X16110607Y23302041D01*
X16010000Y23284510D01*
X15966983Y23285930D01*
X15745149Y23291076D01*
X15585465Y23273097D01*
X15467639Y23228151D01*
X15398940Y23178357D01*
X15282715Y23076056D01*
X15338741Y22809278D01*
X15376107Y22653440D01*
X15416207Y22519830D01*
X15444383Y22450033D01*
X15473683Y22353562D01*
X15491496Y22214182D01*
X15494000Y22142068D01*
X15489176Y22011294D01*
X15467354Y21938901D01*
X15417508Y21898817D01*
X15385410Y21885285D01*
X15302437Y21854323D01*
X15260855Y21849535D01*
X15221820Y21870059D01*
X15204421Y21881263D01*
X15137691Y21946075D01*
X15098588Y22002015D01*
X15038972Y22097253D01*
X14964833Y22206773D01*
X14923625Y22281303D01*
X14895932Y22378652D01*
X14878294Y22518261D01*
X14867250Y22719568D01*
X14865700Y22763744D01*
X14851233Y23200742D01*
X15063294Y23415042D01*
X15206426Y23544870D01*
X15346499Y23631657D01*
X15509738Y23686431D01*
X15722368Y23720215D01*
X15809559Y23728789D01*
X16002509Y23722659D01*
G36*
X19015544Y23577407D02*
G01*
X19124520Y23558383D01*
X19286730Y23544248D01*
X19470775Y23537555D01*
X19508709Y23537333D01*
X19697277Y23533491D01*
X19823978Y23519203D01*
X19911377Y23490326D01*
X19969781Y23452666D01*
X20067354Y23392735D01*
X20149814Y23368000D01*
X20240806Y23333086D01*
X20322559Y23251163D01*
X20361990Y23156463D01*
X20362333Y23148125D01*
X20386803Y23069023D01*
X20439982Y22982126D01*
X20521986Y22858557D01*
X20595352Y22719818D01*
X20645352Y22596286D01*
X20658666Y22531001D01*
X20684978Y22463363D01*
X20751237Y22365908D01*
X20785666Y22324365D01*
X20873146Y22215953D01*
X20906876Y22138218D01*
X20894250Y22063273D01*
X20868843Y22010550D01*
X20793184Y21945403D01*
X20680148Y21928666D01*
X20568403Y21945622D01*
X20476166Y22009276D01*
X20417054Y22076531D01*
X20338239Y22189345D01*
X20284678Y22291919D01*
X20276498Y22316809D01*
X20240716Y22391912D01*
X20192901Y22428393D01*
X20156858Y22414009D01*
X20150666Y22381533D01*
X20120212Y22264078D01*
X20045281Y22137287D01*
X19950521Y22040714D01*
X19930305Y22027917D01*
X19839792Y22000565D01*
X19695815Y21980659D01*
X19529521Y21972501D01*
X19529273Y21972500D01*
X19334301Y21978193D01*
X19207648Y22007375D01*
X19134796Y22074736D01*
X19101225Y22194967D01*
X19092417Y22382757D01*
X19092363Y22403400D01*
X19475811Y22403400D01*
X19492925Y22358813D01*
X19528742Y22352000D01*
X19606284Y22377248D01*
X19647795Y22404916D01*
X19697589Y22464491D01*
X19747891Y22549717D01*
X19784935Y22632474D01*
X19794958Y22684641D01*
X19787663Y22690666D01*
X19743826Y22666598D01*
X19659854Y22605974D01*
X19619239Y22574250D01*
X19519560Y22479251D01*
X19475811Y22403400D01*
X19092363Y22403400D01*
X19092333Y22414582D01*
X19092333Y22725116D01*
X19293416Y22891719D01*
X19415697Y22989445D01*
X19523732Y23069678D01*
X19579166Y23106040D01*
X19607873Y23130286D01*
X19581919Y23145129D01*
X19491035Y23152694D01*
X19342067Y23155046D01*
X19076383Y23170700D01*
X18875400Y23213717D01*
X18743575Y23281742D01*
X18685365Y23372416D01*
X18705226Y23483382D01*
X18708667Y23490019D01*
X18785844Y23576939D01*
X18898802Y23599621D01*
X19015544Y23577407D01*
X19015544Y23577407D01*
G37*
X19015544Y23577407D02*
X19124520Y23558383D01*
X19286730Y23544248D01*
X19470775Y23537555D01*
X19508709Y23537333D01*
X19697277Y23533491D01*
X19823978Y23519203D01*
X19911377Y23490326D01*
X19969781Y23452666D01*
X20067354Y23392735D01*
X20149814Y23368000D01*
X20240806Y23333086D01*
X20322559Y23251163D01*
X20361990Y23156463D01*
X20362333Y23148125D01*
X20386803Y23069023D01*
X20439982Y22982126D01*
X20521986Y22858557D01*
X20595352Y22719818D01*
X20645352Y22596286D01*
X20658666Y22531001D01*
X20684978Y22463363D01*
X20751237Y22365908D01*
X20785666Y22324365D01*
X20873146Y22215953D01*
X20906876Y22138218D01*
X20894250Y22063273D01*
X20868843Y22010550D01*
X20793184Y21945403D01*
X20680148Y21928666D01*
X20568403Y21945622D01*
X20476166Y22009276D01*
X20417054Y22076531D01*
X20338239Y22189345D01*
X20284678Y22291919D01*
X20276498Y22316809D01*
X20240716Y22391912D01*
X20192901Y22428393D01*
X20156858Y22414009D01*
X20150666Y22381533D01*
X20120212Y22264078D01*
X20045281Y22137287D01*
X19950521Y22040714D01*
X19930305Y22027917D01*
X19839792Y22000565D01*
X19695815Y21980659D01*
X19529521Y21972501D01*
X19529273Y21972500D01*
X19334301Y21978193D01*
X19207648Y22007375D01*
X19134796Y22074736D01*
X19101225Y22194967D01*
X19092417Y22382757D01*
X19092363Y22403400D01*
X19475811Y22403400D01*
X19492925Y22358813D01*
X19528742Y22352000D01*
X19606284Y22377248D01*
X19647795Y22404916D01*
X19697589Y22464491D01*
X19747891Y22549717D01*
X19784935Y22632474D01*
X19794958Y22684641D01*
X19787663Y22690666D01*
X19743826Y22666598D01*
X19659854Y22605974D01*
X19619239Y22574250D01*
X19519560Y22479251D01*
X19475811Y22403400D01*
X19092363Y22403400D01*
X19092333Y22414582D01*
X19092333Y22725116D01*
X19293416Y22891719D01*
X19415697Y22989445D01*
X19523732Y23069678D01*
X19579166Y23106040D01*
X19607873Y23130286D01*
X19581919Y23145129D01*
X19491035Y23152694D01*
X19342067Y23155046D01*
X19076383Y23170700D01*
X18875400Y23213717D01*
X18743575Y23281742D01*
X18685365Y23372416D01*
X18705226Y23483382D01*
X18708667Y23490019D01*
X18785844Y23576939D01*
X18898802Y23599621D01*
X19015544Y23577407D01*
G36*
X11710171Y24460971D02*
G01*
X11874500Y24447500D01*
X11902759Y24215945D01*
X11911882Y24072919D01*
X11904734Y23956421D01*
X11892176Y23911811D01*
X11877277Y23843112D01*
X11865022Y23708800D01*
X11856635Y23527917D01*
X11853342Y23319504D01*
X11853333Y23307996D01*
X11853333Y22776759D01*
X12063592Y22670213D01*
X12224893Y22600759D01*
X12370535Y22572377D01*
X12522264Y22586903D01*
X12701822Y22646172D01*
X12910086Y22741698D01*
X13091187Y22832960D01*
X13216336Y22905190D01*
X13306265Y22975241D01*
X13381707Y23059967D01*
X13463395Y23176219D01*
X13485288Y23209250D01*
X13561778Y23305593D01*
X13631478Y23361947D01*
X13652530Y23368000D01*
X13704032Y23408672D01*
X13740088Y23525597D01*
X13742322Y23538871D01*
X13780429Y23667246D01*
X13838839Y23746205D01*
X13846186Y23750705D01*
X13899823Y23813078D01*
X13958402Y23933357D01*
X13999279Y24051080D01*
X14071623Y24238888D01*
X14155707Y24345544D01*
X14255229Y24374180D01*
X14345645Y24344532D01*
X14421223Y24259960D01*
X14435666Y24172927D01*
X14418632Y23980912D01*
X14373580Y23781791D01*
X14309588Y23607822D01*
X14247526Y23504347D01*
X14168522Y23383327D01*
X14103730Y23241711D01*
X14098916Y23227588D01*
X14031622Y23096017D01*
X13944616Y23019709D01*
X13868514Y22969499D01*
X13842681Y22927288D01*
X13811423Y22868606D01*
X13731285Y22778400D01*
X13621959Y22674811D01*
X13503137Y22575979D01*
X13394509Y22500044D01*
X13356166Y22479106D01*
X13228625Y22412609D01*
X13123333Y22350515D01*
X12845854Y22216847D01*
X12544769Y22149532D01*
X12240666Y22149959D01*
X11954130Y22219517D01*
X11853333Y22264779D01*
X11736666Y22325226D01*
X11647285Y22378379D01*
X11581369Y22436034D01*
X11535099Y22509991D01*
X11504654Y22612048D01*
X11486214Y22754003D01*
X11475960Y22947654D01*
X11470071Y23204800D01*
X11465985Y23461102D01*
X11462235Y23806924D01*
X11463576Y24072376D01*
X11470148Y24261608D01*
X11482091Y24378773D01*
X11498504Y24427074D01*
X11568690Y24454554D01*
X11682343Y24462547D01*
X11710171Y24460971D01*
X11710171Y24460971D01*
G37*
X11710171Y24460971D02*
X11874500Y24447500D01*
X11902759Y24215945D01*
X11911882Y24072919D01*
X11904734Y23956421D01*
X11892176Y23911811D01*
X11877277Y23843112D01*
X11865022Y23708800D01*
X11856635Y23527917D01*
X11853342Y23319504D01*
X11853333Y23307996D01*
X11853333Y22776759D01*
X12063592Y22670213D01*
X12224893Y22600759D01*
X12370535Y22572377D01*
X12522264Y22586903D01*
X12701822Y22646172D01*
X12910086Y22741698D01*
X13091187Y22832960D01*
X13216336Y22905190D01*
X13306265Y22975241D01*
X13381707Y23059967D01*
X13463395Y23176219D01*
X13485288Y23209250D01*
X13561778Y23305593D01*
X13631478Y23361947D01*
X13652530Y23368000D01*
X13704032Y23408672D01*
X13740088Y23525597D01*
X13742322Y23538871D01*
X13780429Y23667246D01*
X13838839Y23746205D01*
X13846186Y23750705D01*
X13899823Y23813078D01*
X13958402Y23933357D01*
X13999279Y24051080D01*
X14071623Y24238888D01*
X14155707Y24345544D01*
X14255229Y24374180D01*
X14345645Y24344532D01*
X14421223Y24259960D01*
X14435666Y24172927D01*
X14418632Y23980912D01*
X14373580Y23781791D01*
X14309588Y23607822D01*
X14247526Y23504347D01*
X14168522Y23383327D01*
X14103730Y23241711D01*
X14098916Y23227588D01*
X14031622Y23096017D01*
X13944616Y23019709D01*
X13868514Y22969499D01*
X13842681Y22927288D01*
X13811423Y22868606D01*
X13731285Y22778400D01*
X13621959Y22674811D01*
X13503137Y22575979D01*
X13394509Y22500044D01*
X13356166Y22479106D01*
X13228625Y22412609D01*
X13123333Y22350515D01*
X12845854Y22216847D01*
X12544769Y22149532D01*
X12240666Y22149959D01*
X11954130Y22219517D01*
X11853333Y22264779D01*
X11736666Y22325226D01*
X11647285Y22378379D01*
X11581369Y22436034D01*
X11535099Y22509991D01*
X11504654Y22612048D01*
X11486214Y22754003D01*
X11475960Y22947654D01*
X11470071Y23204800D01*
X11465985Y23461102D01*
X11462235Y23806924D01*
X11463576Y24072376D01*
X11470148Y24261608D01*
X11482091Y24378773D01*
X11498504Y24427074D01*
X11568690Y24454554D01*
X11682343Y24462547D01*
X11710171Y24460971D01*
G36*
X-931541Y2865813D02*
G01*
X-690218Y2847552D01*
X-465739Y2821492D01*
X-275858Y2789624D01*
X-138331Y2753940D01*
X-77081Y2723232D01*
X31904Y2574971D01*
X114609Y2353627D01*
X168103Y2067497D01*
X174266Y2011148D01*
X194397Y1815305D01*
X215641Y1620534D01*
X233581Y1467270D01*
X234428Y1460500D01*
X243555Y1292451D01*
X212598Y1180938D01*
X129614Y1113910D01*
X-17338Y1079318D01*
X-154135Y1068455D01*
X-314768Y1063966D01*
X-420849Y1074703D01*
X-502097Y1107677D01*
X-588228Y1169900D01*
X-589941Y1171278D01*
X-676186Y1229599D01*
X-780727Y1274927D01*
X-916997Y1309942D01*
X-1098428Y1337323D01*
X-1338453Y1359750D01*
X-1629834Y1378727D01*
X-1881806Y1397661D01*
X-2064544Y1424501D01*
X-2193434Y1464395D01*
X-2283864Y1522490D01*
X-2351221Y1603934D01*
X-2363724Y1624231D01*
X-2458382Y1792351D01*
X-2506509Y1916704D01*
X-2507756Y2024481D01*
X-2461774Y2142879D01*
X-2368214Y2299090D01*
X-2354788Y2320084D01*
X-2191608Y2544855D01*
X-2025581Y2700584D01*
X-1835624Y2799355D01*
X-1600655Y2853252D01*
X-1393699Y2870965D01*
X-1171953Y2874281D01*
X-931541Y2865813D01*
X-931541Y2865813D01*
G37*
X-931541Y2865813D02*
X-690218Y2847552D01*
X-465739Y2821492D01*
X-275858Y2789624D01*
X-138331Y2753940D01*
X-77081Y2723232D01*
X31904Y2574971D01*
X114609Y2353627D01*
X168103Y2067497D01*
X174266Y2011148D01*
X194397Y1815305D01*
X215641Y1620534D01*
X233581Y1467270D01*
X234428Y1460500D01*
X243555Y1292451D01*
X212598Y1180938D01*
X129614Y1113910D01*
X-17338Y1079318D01*
X-154135Y1068455D01*
X-314768Y1063966D01*
X-420849Y1074703D01*
X-502097Y1107677D01*
X-588228Y1169900D01*
X-589941Y1171278D01*
X-676186Y1229599D01*
X-780727Y1274927D01*
X-916997Y1309942D01*
X-1098428Y1337323D01*
X-1338453Y1359750D01*
X-1629834Y1378727D01*
X-1881806Y1397661D01*
X-2064544Y1424501D01*
X-2193434Y1464395D01*
X-2283864Y1522490D01*
X-2351221Y1603934D01*
X-2363724Y1624231D01*
X-2458382Y1792351D01*
X-2506509Y1916704D01*
X-2507756Y2024481D01*
X-2461774Y2142879D01*
X-2368214Y2299090D01*
X-2354788Y2320084D01*
X-2191608Y2544855D01*
X-2025581Y2700584D01*
X-1835624Y2799355D01*
X-1600655Y2853252D01*
X-1393699Y2870965D01*
X-1171953Y2874281D01*
X-931541Y2865813D01*
G36*
X4468995Y7572703D02*
G01*
X4590628Y7519723D01*
X4723784Y7384977D01*
X4813359Y7195769D01*
X4857192Y6971476D01*
X4853122Y6731476D01*
X4798991Y6495149D01*
X4723208Y6330204D01*
X4638340Y6205249D01*
X4549686Y6104461D01*
X4511009Y6072584D01*
X4351680Y6007580D01*
X4165781Y5986955D01*
X4021666Y6009452D01*
X3905049Y6035331D01*
X3766896Y6049210D01*
X3759443Y6049447D01*
X3589352Y6088728D01*
X3492202Y6149017D01*
X3437474Y6204920D01*
X3400708Y6273280D01*
X3375511Y6374972D01*
X3355493Y6530870D01*
X3346380Y6625267D01*
X3332186Y6868677D01*
X3348359Y7049211D01*
X3405537Y7186331D01*
X3514361Y7299496D01*
X3685471Y7408169D01*
X3809861Y7473013D01*
X4041287Y7560310D01*
X4267996Y7593959D01*
X4468995Y7572703D01*
X4468995Y7572703D01*
G37*
X4468995Y7572703D02*
X4590628Y7519723D01*
X4723784Y7384977D01*
X4813359Y7195769D01*
X4857192Y6971476D01*
X4853122Y6731476D01*
X4798991Y6495149D01*
X4723208Y6330204D01*
X4638340Y6205249D01*
X4549686Y6104461D01*
X4511009Y6072584D01*
X4351680Y6007580D01*
X4165781Y5986955D01*
X4021666Y6009452D01*
X3905049Y6035331D01*
X3766896Y6049210D01*
X3759443Y6049447D01*
X3589352Y6088728D01*
X3492202Y6149017D01*
X3437474Y6204920D01*
X3400708Y6273280D01*
X3375511Y6374972D01*
X3355493Y6530870D01*
X3346380Y6625267D01*
X3332186Y6868677D01*
X3348359Y7049211D01*
X3405537Y7186331D01*
X3514361Y7299496D01*
X3685471Y7408169D01*
X3809861Y7473013D01*
X4041287Y7560310D01*
X4267996Y7593959D01*
X4468995Y7572703D01*
G36*
X-3111903Y9310984D02*
G01*
X-2915120Y9201266D01*
X-2741035Y9042033D01*
X-2649417Y8917353D01*
X-2567752Y8744645D01*
X-2515650Y8551949D01*
X-2496522Y8364925D01*
X-2513780Y8209234D01*
X-2545747Y8137527D01*
X-2632163Y8040350D01*
X-2758803Y7927858D01*
X-2905303Y7814814D01*
X-3051298Y7715982D01*
X-3176422Y7646124D01*
X-3259661Y7620000D01*
X-3358149Y7647635D01*
X-3503651Y7725302D01*
X-3677235Y7842104D01*
X-3833695Y7961786D01*
X-3933653Y8055430D01*
X-3993059Y8140813D01*
X-4026800Y8231729D01*
X-4047451Y8440487D01*
X-4014941Y8675874D01*
X-3938244Y8911088D01*
X-3826332Y9119323D01*
X-3688176Y9273773D01*
X-3674466Y9284339D01*
X-3507974Y9358391D01*
X-3314987Y9365316D01*
X-3111903Y9310984D01*
X-3111903Y9310984D01*
G37*
X-3111903Y9310984D02*
X-2915120Y9201266D01*
X-2741035Y9042033D01*
X-2649417Y8917353D01*
X-2567752Y8744645D01*
X-2515650Y8551949D01*
X-2496522Y8364925D01*
X-2513780Y8209234D01*
X-2545747Y8137527D01*
X-2632163Y8040350D01*
X-2758803Y7927858D01*
X-2905303Y7814814D01*
X-3051298Y7715982D01*
X-3176422Y7646124D01*
X-3259661Y7620000D01*
X-3358149Y7647635D01*
X-3503651Y7725302D01*
X-3677235Y7842104D01*
X-3833695Y7961786D01*
X-3933653Y8055430D01*
X-3993059Y8140813D01*
X-4026800Y8231729D01*
X-4047451Y8440487D01*
X-4014941Y8675874D01*
X-3938244Y8911088D01*
X-3826332Y9119323D01*
X-3688176Y9273773D01*
X-3674466Y9284339D01*
X-3507974Y9358391D01*
X-3314987Y9365316D01*
X-3111903Y9310984D01*
G36*
X4937120Y9464538D02*
G01*
X5009839Y9435665D01*
X5120359Y9346538D01*
X5185077Y9196959D01*
X5206972Y8979903D01*
X5207000Y8970466D01*
X5209926Y8871311D01*
X5225856Y8792940D01*
X5265517Y8716351D01*
X5339635Y8622540D01*
X5458936Y8492504D01*
X5503333Y8445500D01*
X5640042Y8297710D01*
X5727143Y8191501D01*
X5775510Y8109206D01*
X5796015Y8033154D01*
X5799666Y7963948D01*
X5783761Y7831146D01*
X5724561Y7739332D01*
X5688124Y7707739D01*
X5543954Y7640434D01*
X5370520Y7622610D01*
X5209459Y7657467D01*
X5185833Y7669121D01*
X5051007Y7766645D01*
X4895013Y7915783D01*
X4738867Y8094736D01*
X4621278Y8254670D01*
X4541839Y8379665D01*
X4495884Y8479030D01*
X4474787Y8584774D01*
X4469924Y8728903D01*
X4470715Y8813417D01*
X4486325Y9068363D01*
X4527202Y9251415D01*
X4596721Y9372465D01*
X4682686Y9434842D01*
X4816585Y9478025D01*
X4937120Y9464538D01*
X4937120Y9464538D01*
G37*
X4937120Y9464538D02*
X5009839Y9435665D01*
X5120359Y9346538D01*
X5185077Y9196959D01*
X5206972Y8979903D01*
X5207000Y8970466D01*
X5209926Y8871311D01*
X5225856Y8792940D01*
X5265517Y8716351D01*
X5339635Y8622540D01*
X5458936Y8492504D01*
X5503333Y8445500D01*
X5640042Y8297710D01*
X5727143Y8191501D01*
X5775510Y8109206D01*
X5796015Y8033154D01*
X5799666Y7963948D01*
X5783761Y7831146D01*
X5724561Y7739332D01*
X5688124Y7707739D01*
X5543954Y7640434D01*
X5370520Y7622610D01*
X5209459Y7657467D01*
X5185833Y7669121D01*
X5051007Y7766645D01*
X4895013Y7915783D01*
X4738867Y8094736D01*
X4621278Y8254670D01*
X4541839Y8379665D01*
X4495884Y8479030D01*
X4474787Y8584774D01*
X4469924Y8728903D01*
X4470715Y8813417D01*
X4486325Y9068363D01*
X4527202Y9251415D01*
X4596721Y9372465D01*
X4682686Y9434842D01*
X4816585Y9478025D01*
X4937120Y9464538D01*
G36*
X-1885319Y11836046D02*
G01*
X-1847210Y11807927D01*
X-1770829Y11727285D01*
X-1739457Y11623945D01*
X-1735667Y11540140D01*
X-1746362Y11424040D01*
X-1786976Y11329406D01*
X-1870301Y11241749D01*
X-2009130Y11146581D01*
X-2159000Y11060661D01*
X-2289394Y10995616D01*
X-2413471Y10953553D01*
X-2560299Y10927457D01*
X-2758944Y10910314D01*
X-2790070Y10908379D01*
X-2965519Y10894055D01*
X-3107268Y10875510D01*
X-3195278Y10855717D01*
X-3213403Y10845558D01*
X-3287092Y10783513D01*
X-3409272Y10723582D01*
X-3544712Y10680479D01*
X-3638565Y10668000D01*
X-3765741Y10696984D01*
X-3852334Y10752666D01*
X-3927094Y10880244D01*
X-3925505Y11025857D01*
X-3848973Y11174038D01*
X-3810000Y11218333D01*
X-3731681Y11306224D01*
X-3686995Y11371432D01*
X-3683000Y11384533D01*
X-3644349Y11413918D01*
X-3542024Y11448661D01*
X-3396470Y11484494D01*
X-3228130Y11517147D01*
X-3057448Y11542350D01*
X-2904868Y11555835D01*
X-2857132Y11557000D01*
X-2722246Y11564679D01*
X-2608219Y11595464D01*
X-2482359Y11660974D01*
X-2380737Y11726333D01*
X-2211012Y11830882D01*
X-2084896Y11882024D01*
X-1982846Y11882749D01*
X-1885319Y11836046D01*
X-1885319Y11836046D01*
G37*
X-1885319Y11836046D02*
X-1847210Y11807927D01*
X-1770829Y11727285D01*
X-1739457Y11623945D01*
X-1735667Y11540140D01*
X-1746362Y11424040D01*
X-1786976Y11329406D01*
X-1870301Y11241749D01*
X-2009130Y11146581D01*
X-2159000Y11060661D01*
X-2289394Y10995616D01*
X-2413471Y10953553D01*
X-2560299Y10927457D01*
X-2758944Y10910314D01*
X-2790070Y10908379D01*
X-2965519Y10894055D01*
X-3107268Y10875510D01*
X-3195278Y10855717D01*
X-3213403Y10845558D01*
X-3287092Y10783513D01*
X-3409272Y10723582D01*
X-3544712Y10680479D01*
X-3638565Y10668000D01*
X-3765741Y10696984D01*
X-3852334Y10752666D01*
X-3927094Y10880244D01*
X-3925505Y11025857D01*
X-3848973Y11174038D01*
X-3810000Y11218333D01*
X-3731681Y11306224D01*
X-3686995Y11371432D01*
X-3683000Y11384533D01*
X-3644349Y11413918D01*
X-3542024Y11448661D01*
X-3396470Y11484494D01*
X-3228130Y11517147D01*
X-3057448Y11542350D01*
X-2904868Y11555835D01*
X-2857132Y11557000D01*
X-2722246Y11564679D01*
X-2608219Y11595464D01*
X-2482359Y11660974D01*
X-2380737Y11726333D01*
X-2211012Y11830882D01*
X-2084896Y11882024D01*
X-1982846Y11882749D01*
X-1885319Y11836046D01*
M02*
